<?xml version="1.0" encoding="utf-8"?>
<svg xmlns="http://www.w3.org/2000/svg" xmlns:xlink="http://www.w3.org/1999/xlink" width="600" height="400" viewBox="0 0 2400 1600">
<defs>
  <clipPath id="clip200">
    <rect x="0" y="0" width="2400" height="1600"/>
  </clipPath>
</defs>
<path clip-path="url(#clip200)" d="
M0 1600 L2400 1600 L2400 0 L0 0  Z
  " fill="#ffffff" fill-rule="evenodd" fill-opacity="1"/>
<defs>
  <clipPath id="clip201">
    <rect x="480" y="0" width="1681" height="1600"/>
  </clipPath>
</defs>
<path clip-path="url(#clip200)" d="
M178.867 1486.45 L2112.76 1486.45 L2112.76 47.2441 L178.867 47.2441  Z
  " fill="#ffffff" fill-rule="evenodd" fill-opacity="1"/>
<defs>
  <clipPath id="clip202">
    <rect x="178" y="47" width="1935" height="1440"/>
  </clipPath>
</defs>
<polyline clip-path="url(#clip202)" style="stroke:#000000; stroke-linecap:round; stroke-linejoin:round; stroke-width:2; stroke-opacity:0.1; fill:none" points="
  178.867,1486.45 178.867,47.2441 
  "/>
<polyline clip-path="url(#clip202)" style="stroke:#000000; stroke-linecap:round; stroke-linejoin:round; stroke-width:2; stroke-opacity:0.1; fill:none" points="
  662.339,1486.45 662.339,47.2441 
  "/>
<polyline clip-path="url(#clip202)" style="stroke:#000000; stroke-linecap:round; stroke-linejoin:round; stroke-width:2; stroke-opacity:0.1; fill:none" points="
  1145.81,1486.45 1145.81,47.2441 
  "/>
<polyline clip-path="url(#clip202)" style="stroke:#000000; stroke-linecap:round; stroke-linejoin:round; stroke-width:2; stroke-opacity:0.1; fill:none" points="
  1629.28,1486.45 1629.28,47.2441 
  "/>
<polyline clip-path="url(#clip202)" style="stroke:#000000; stroke-linecap:round; stroke-linejoin:round; stroke-width:2; stroke-opacity:0.1; fill:none" points="
  2112.76,1486.45 2112.76,47.2441 
  "/>
<polyline clip-path="url(#clip200)" style="stroke:#000000; stroke-linecap:round; stroke-linejoin:round; stroke-width:4; stroke-opacity:1; fill:none" points="
  178.867,1486.45 2112.76,1486.45 
  "/>
<polyline clip-path="url(#clip200)" style="stroke:#000000; stroke-linecap:round; stroke-linejoin:round; stroke-width:4; stroke-opacity:1; fill:none" points="
  178.867,1486.45 178.867,1467.55 
  "/>
<polyline clip-path="url(#clip200)" style="stroke:#000000; stroke-linecap:round; stroke-linejoin:round; stroke-width:4; stroke-opacity:1; fill:none" points="
  662.339,1486.45 662.339,1467.55 
  "/>
<polyline clip-path="url(#clip200)" style="stroke:#000000; stroke-linecap:round; stroke-linejoin:round; stroke-width:4; stroke-opacity:1; fill:none" points="
  1145.81,1486.45 1145.81,1467.55 
  "/>
<polyline clip-path="url(#clip200)" style="stroke:#000000; stroke-linecap:round; stroke-linejoin:round; stroke-width:4; stroke-opacity:1; fill:none" points="
  1629.28,1486.45 1629.28,1467.55 
  "/>
<polyline clip-path="url(#clip200)" style="stroke:#000000; stroke-linecap:round; stroke-linejoin:round; stroke-width:4; stroke-opacity:1; fill:none" points="
  2112.76,1486.45 2112.76,1467.55 
  "/>
<path clip-path="url(#clip200)" d="M132.929 1532.02 L162.605 1532.02 L162.605 1535.95 L132.929 1535.95 L132.929 1532.02 Z" fill="#000000" fill-rule="evenodd" fill-opacity="1" /><path clip-path="url(#clip200)" d="M173.508 1544.91 L181.147 1544.91 L181.147 1518.55 L172.837 1520.21 L172.837 1515.95 L181.1 1514.29 L185.776 1514.29 L185.776 1544.91 L193.415 1544.91 L193.415 1548.85 L173.508 1548.85 L173.508 1544.91 Z" fill="#000000" fill-rule="evenodd" fill-opacity="1" /><path clip-path="url(#clip200)" d="M212.86 1517.37 Q209.248 1517.37 207.42 1520.93 Q205.614 1524.47 205.614 1531.6 Q205.614 1538.71 207.42 1542.27 Q209.248 1545.82 212.86 1545.82 Q216.494 1545.82 218.299 1542.27 Q220.128 1538.71 220.128 1531.6 Q220.128 1524.47 218.299 1520.93 Q216.494 1517.37 212.86 1517.37 M212.86 1513.66 Q218.67 1513.66 221.725 1518.27 Q224.804 1522.85 224.804 1531.6 Q224.804 1540.33 221.725 1544.94 Q218.67 1549.52 212.86 1549.52 Q207.049 1549.52 203.971 1544.94 Q200.915 1540.33 200.915 1531.6 Q200.915 1522.85 203.971 1518.27 Q207.049 1513.66 212.86 1513.66 Z" fill="#000000" fill-rule="evenodd" fill-opacity="1" /><path clip-path="url(#clip200)" d="M631.98 1532.02 L661.656 1532.02 L661.656 1535.95 L631.98 1535.95 L631.98 1532.02 Z" fill="#000000" fill-rule="evenodd" fill-opacity="1" /><path clip-path="url(#clip200)" d="M671.795 1514.29 L690.151 1514.29 L690.151 1518.22 L676.077 1518.22 L676.077 1526.7 Q677.096 1526.35 678.114 1526.19 Q679.133 1526 680.151 1526 Q685.938 1526 689.318 1529.17 Q692.698 1532.34 692.698 1537.76 Q692.698 1543.34 689.225 1546.44 Q685.753 1549.52 679.434 1549.52 Q677.258 1549.52 674.989 1549.15 Q672.744 1548.78 670.337 1548.04 L670.337 1543.34 Q672.42 1544.47 674.642 1545.03 Q676.864 1545.58 679.341 1545.58 Q683.346 1545.58 685.684 1543.48 Q688.022 1541.37 688.022 1537.76 Q688.022 1534.15 685.684 1532.04 Q683.346 1529.94 679.341 1529.94 Q677.466 1529.94 675.591 1530.35 Q673.739 1530.77 671.795 1531.65 L671.795 1514.29 Z" fill="#000000" fill-rule="evenodd" fill-opacity="1" /><path clip-path="url(#clip200)" d="M1145.81 1517.37 Q1142.2 1517.37 1140.37 1520.93 Q1138.57 1524.47 1138.57 1531.6 Q1138.57 1538.71 1140.37 1542.27 Q1142.2 1545.82 1145.81 1545.82 Q1149.45 1545.82 1151.25 1542.27 Q1153.08 1538.71 1153.08 1531.6 Q1153.08 1524.47 1151.25 1520.93 Q1149.45 1517.37 1145.81 1517.37 M1145.81 1513.66 Q1151.62 1513.66 1154.68 1518.27 Q1157.76 1522.85 1157.76 1531.6 Q1157.76 1540.33 1154.68 1544.94 Q1151.62 1549.52 1145.81 1549.52 Q1140 1549.52 1136.92 1544.94 Q1133.87 1540.33 1133.87 1531.6 Q1133.87 1522.85 1136.92 1518.27 Q1140 1513.66 1145.81 1513.66 Z" fill="#000000" fill-rule="evenodd" fill-opacity="1" /><path clip-path="url(#clip200)" d="M1619.56 1514.29 L1637.92 1514.29 L1637.92 1518.22 L1623.84 1518.22 L1623.84 1526.7 Q1624.86 1526.35 1625.88 1526.19 Q1626.9 1526 1627.92 1526 Q1633.7 1526 1637.08 1529.17 Q1640.46 1532.34 1640.46 1537.76 Q1640.46 1543.34 1636.99 1546.44 Q1633.52 1549.52 1627.2 1549.52 Q1625.02 1549.52 1622.76 1549.15 Q1620.51 1548.78 1618.1 1548.04 L1618.1 1543.34 Q1620.19 1544.47 1622.41 1545.03 Q1624.63 1545.58 1627.11 1545.58 Q1631.11 1545.58 1633.45 1543.48 Q1635.79 1541.37 1635.79 1537.76 Q1635.79 1534.15 1633.45 1532.04 Q1631.11 1529.94 1627.11 1529.94 Q1625.23 1529.94 1623.36 1530.35 Q1621.51 1530.77 1619.56 1531.65 L1619.56 1514.29 Z" fill="#000000" fill-rule="evenodd" fill-opacity="1" /><path clip-path="url(#clip200)" d="M2087.44 1544.91 L2095.08 1544.91 L2095.08 1518.55 L2086.77 1520.21 L2086.77 1515.95 L2095.04 1514.29 L2099.71 1514.29 L2099.71 1544.91 L2107.35 1544.91 L2107.35 1548.85 L2087.44 1548.85 L2087.44 1544.91 Z" fill="#000000" fill-rule="evenodd" fill-opacity="1" /><path clip-path="url(#clip200)" d="M2126.8 1517.37 Q2123.18 1517.37 2121.36 1520.93 Q2119.55 1524.47 2119.55 1531.6 Q2119.55 1538.71 2121.36 1542.27 Q2123.18 1545.82 2126.8 1545.82 Q2130.43 1545.82 2132.23 1542.27 Q2134.06 1538.71 2134.06 1531.6 Q2134.06 1524.47 2132.23 1520.93 Q2130.43 1517.37 2126.8 1517.37 M2126.8 1513.66 Q2132.61 1513.66 2135.66 1518.27 Q2138.74 1522.85 2138.74 1531.6 Q2138.74 1540.33 2135.66 1544.94 Q2132.61 1549.52 2126.8 1549.52 Q2120.99 1549.52 2117.91 1544.94 Q2114.85 1540.33 2114.85 1531.6 Q2114.85 1522.85 2117.91 1518.27 Q2120.99 1513.66 2126.8 1513.66 Z" fill="#000000" fill-rule="evenodd" fill-opacity="1" /><polyline clip-path="url(#clip202)" style="stroke:#000000; stroke-linecap:round; stroke-linejoin:round; stroke-width:2; stroke-opacity:0.1; fill:none" points="
  178.867,1486.45 2112.76,1486.45 
  "/>
<polyline clip-path="url(#clip202)" style="stroke:#000000; stroke-linecap:round; stroke-linejoin:round; stroke-width:2; stroke-opacity:0.1; fill:none" points="
  178.867,1126.65 2112.76,1126.65 
  "/>
<polyline clip-path="url(#clip202)" style="stroke:#000000; stroke-linecap:round; stroke-linejoin:round; stroke-width:2; stroke-opacity:0.1; fill:none" points="
  178.867,766.846 2112.76,766.846 
  "/>
<polyline clip-path="url(#clip202)" style="stroke:#000000; stroke-linecap:round; stroke-linejoin:round; stroke-width:2; stroke-opacity:0.1; fill:none" points="
  178.867,407.045 2112.76,407.045 
  "/>
<polyline clip-path="url(#clip202)" style="stroke:#000000; stroke-linecap:round; stroke-linejoin:round; stroke-width:2; stroke-opacity:0.1; fill:none" points="
  178.867,47.2441 2112.76,47.2441 
  "/>
<polyline clip-path="url(#clip200)" style="stroke:#000000; stroke-linecap:round; stroke-linejoin:round; stroke-width:4; stroke-opacity:1; fill:none" points="
  178.867,1486.45 178.867,47.2441 
  "/>
<polyline clip-path="url(#clip200)" style="stroke:#000000; stroke-linecap:round; stroke-linejoin:round; stroke-width:4; stroke-opacity:1; fill:none" points="
  178.867,1486.45 195.678,1486.45 
  "/>
<polyline clip-path="url(#clip200)" style="stroke:#000000; stroke-linecap:round; stroke-linejoin:round; stroke-width:4; stroke-opacity:1; fill:none" points="
  178.867,1126.65 195.678,1126.65 
  "/>
<polyline clip-path="url(#clip200)" style="stroke:#000000; stroke-linecap:round; stroke-linejoin:round; stroke-width:4; stroke-opacity:1; fill:none" points="
  178.867,766.846 195.678,766.846 
  "/>
<polyline clip-path="url(#clip200)" style="stroke:#000000; stroke-linecap:round; stroke-linejoin:round; stroke-width:4; stroke-opacity:1; fill:none" points="
  178.867,407.045 195.678,407.045 
  "/>
<polyline clip-path="url(#clip200)" style="stroke:#000000; stroke-linecap:round; stroke-linejoin:round; stroke-width:4; stroke-opacity:1; fill:none" points="
  178.867,47.2441 195.678,47.2441 
  "/>
<path clip-path="url(#clip200)" d="M50.9921 1486.9 L80.6679 1486.9 L80.6679 1490.83 L50.9921 1490.83 L50.9921 1486.9 Z" fill="#000000" fill-rule="evenodd" fill-opacity="1" /><path clip-path="url(#clip200)" d="M91.5706 1499.79 L99.2095 1499.79 L99.2095 1473.43 L90.8993 1475.09 L90.8993 1470.83 L99.1632 1469.17 L103.839 1469.17 L103.839 1499.79 L111.478 1499.79 L111.478 1503.73 L91.5706 1503.73 L91.5706 1499.79 Z" fill="#000000" fill-rule="evenodd" fill-opacity="1" /><path clip-path="url(#clip200)" d="M130.922 1472.25 Q127.311 1472.25 125.482 1475.81 Q123.677 1479.35 123.677 1486.48 Q123.677 1493.59 125.482 1497.15 Q127.311 1500.7 130.922 1500.7 Q134.556 1500.7 136.362 1497.15 Q138.191 1493.59 138.191 1486.48 Q138.191 1479.35 136.362 1475.81 Q134.556 1472.25 130.922 1472.25 M130.922 1468.54 Q136.732 1468.54 139.788 1473.15 Q142.867 1477.73 142.867 1486.48 Q142.867 1495.21 139.788 1499.82 Q136.732 1504.4 130.922 1504.4 Q125.112 1504.4 122.033 1499.82 Q118.978 1495.21 118.978 1486.48 Q118.978 1477.73 122.033 1473.15 Q125.112 1468.54 130.922 1468.54 Z" fill="#000000" fill-rule="evenodd" fill-opacity="1" /><path clip-path="url(#clip200)" d="M82.1494 1127.1 L111.825 1127.1 L111.825 1131.03 L82.1494 1131.03 L82.1494 1127.1 Z" fill="#000000" fill-rule="evenodd" fill-opacity="1" /><path clip-path="url(#clip200)" d="M121.964 1109.37 L140.32 1109.37 L140.32 1113.3 L126.246 1113.3 L126.246 1121.77 Q127.265 1121.43 128.283 1121.27 Q129.302 1121.08 130.32 1121.08 Q136.107 1121.08 139.487 1124.25 Q142.867 1127.42 142.867 1132.84 Q142.867 1138.42 139.394 1141.52 Q135.922 1144.6 129.603 1144.6 Q127.427 1144.6 125.158 1144.23 Q122.913 1143.86 120.506 1143.12 L120.506 1138.42 Q122.589 1139.55 124.811 1140.11 Q127.033 1140.66 129.51 1140.66 Q133.515 1140.66 135.853 1138.56 Q138.191 1136.45 138.191 1132.84 Q138.191 1129.23 135.853 1127.12 Q133.515 1125.01 129.51 1125.01 Q127.635 1125.01 125.76 1125.43 Q123.908 1125.85 121.964 1126.73 L121.964 1109.37 Z" fill="#000000" fill-rule="evenodd" fill-opacity="1" /><path clip-path="url(#clip200)" d="M130.922 752.645 Q127.311 752.645 125.482 756.209 Q123.677 759.751 123.677 766.881 Q123.677 773.987 125.482 777.552 Q127.311 781.094 130.922 781.094 Q134.556 781.094 136.362 777.552 Q138.191 773.987 138.191 766.881 Q138.191 759.751 136.362 756.209 Q134.556 752.645 130.922 752.645 M130.922 748.941 Q136.732 748.941 139.788 753.547 Q142.867 758.131 142.867 766.881 Q142.867 775.608 139.788 780.214 Q136.732 784.797 130.922 784.797 Q125.112 784.797 122.033 780.214 Q118.978 775.608 118.978 766.881 Q118.978 758.131 122.033 753.547 Q125.112 748.941 130.922 748.941 Z" fill="#000000" fill-rule="evenodd" fill-opacity="1" /><path clip-path="url(#clip200)" d="M121.964 389.765 L140.32 389.765 L140.32 393.7 L126.246 393.7 L126.246 402.172 Q127.265 401.825 128.283 401.663 Q129.302 401.478 130.32 401.478 Q136.107 401.478 139.487 404.649 Q142.867 407.82 142.867 413.237 Q142.867 418.816 139.394 421.918 Q135.922 424.996 129.603 424.996 Q127.427 424.996 125.158 424.626 Q122.913 424.256 120.506 423.515 L120.506 418.816 Q122.589 419.95 124.811 420.506 Q127.033 421.061 129.51 421.061 Q133.515 421.061 135.853 418.955 Q138.191 416.848 138.191 413.237 Q138.191 409.626 135.853 407.52 Q133.515 405.413 129.51 405.413 Q127.635 405.413 125.76 405.83 Q123.908 406.246 121.964 407.126 L121.964 389.765 Z" fill="#000000" fill-rule="evenodd" fill-opacity="1" /><path clip-path="url(#clip200)" d="M91.5706 60.5889 L99.2095 60.5889 L99.2095 34.2233 L90.8993 35.89 L90.8993 31.6308 L99.1632 29.9641 L103.839 29.9641 L103.839 60.5889 L111.478 60.5889 L111.478 64.5241 L91.5706 64.5241 L91.5706 60.5889 Z" fill="#000000" fill-rule="evenodd" fill-opacity="1" /><path clip-path="url(#clip200)" d="M130.922 33.0428 Q127.311 33.0428 125.482 36.6076 Q123.677 40.1492 123.677 47.2788 Q123.677 54.3853 125.482 57.9501 Q127.311 61.4917 130.922 61.4917 Q134.556 61.4917 136.362 57.9501 Q138.191 54.3853 138.191 47.2788 Q138.191 40.1492 136.362 36.6076 Q134.556 33.0428 130.922 33.0428 M130.922 29.3391 Q136.732 29.3391 139.788 33.9456 Q142.867 38.5289 142.867 47.2788 Q142.867 56.0056 139.788 60.6121 Q136.732 65.1954 130.922 65.1954 Q125.112 65.1954 122.033 60.6121 Q118.978 56.0056 118.978 47.2788 Q118.978 38.5289 122.033 33.9456 Q125.112 29.3391 130.922 29.3391 Z" fill="#000000" fill-rule="evenodd" fill-opacity="1" /><path clip-path="url(#clip202)" d="
M178.867 1486.45 L178.867 1486.45 L198.401 1486.45 L217.935 1486.45 L237.469 1486.45 L257.004 1486.45 L276.538 1486.45 L296.072 1486.45 L315.606 1486.45 L335.141 1486.45 
  L354.675 1486.45 L374.209 1486.45 L393.743 1486.45 L413.277 1486.45 L432.812 1486.45 L452.346 1486.45 L471.88 1486.45 L491.414 1486.45 L510.949 1486.45 L530.483 1486.45 
  L550.017 1486.45 L569.551 1486.45 L589.086 1486.45 L608.62 1486.45 L628.154 1486.45 L647.688 1486.45 L667.223 1486.45 L686.757 1486.45 L706.291 1486.45 L725.825 1486.45 
  L745.359 1486.45 L764.894 1486.45 L784.428 1486.45 L803.962 1486.45 L823.496 1486.45 L843.031 1486.45 L862.565 1486.45 L882.099 1486.45 L901.633 1486.45 L921.168 1486.45 
  L940.702 1486.45 L960.236 1486.45 L979.77 1486.45 L999.305 1486.45 L1018.84 1486.45 L1038.37 1486.45 L1057.91 1486.45 L1077.44 1486.45 L1096.98 1486.45 L1116.51 1486.45 
  L1136.04 1486.45 L1155.58 1486.45 L1175.11 1486.45 L1194.65 1486.45 L1214.18 1486.45 L1233.72 1486.45 L1253.25 1486.45 L1272.78 1486.45 L1292.32 1486.45 L1311.85 1486.45 
  L1331.39 1486.45 L1350.92 1486.45 L1370.45 1486.45 L1389.99 1486.45 L1409.52 1486.45 L1429.06 1486.45 L1448.59 1486.45 L1468.13 1486.45 L1487.66 1486.45 L1507.19 1486.45 
  L1526.73 1486.45 L1546.26 1486.45 L1565.8 1486.45 L1585.33 1486.45 L1604.87 1486.45 L1624.4 1486.45 L1643.93 1486.45 L1663.47 1486.45 L1683 1486.45 L1702.54 1486.45 
  L1722.07 1486.45 L1741.61 1486.45 L1761.14 1486.45 L1780.67 1486.45 L1800.21 1486.45 L1819.74 1486.45 L1839.28 1486.45 L1858.81 1486.45 L1878.35 1486.45 L1897.88 1486.45 
  L1917.41 1486.45 L1936.95 1486.45 L1956.48 1486.45 L1976.02 1486.45 L1995.55 1486.45 L2015.08 1486.45 L2034.62 1486.45 L2054.15 1486.45 L2073.69 1486.45 L2093.22 1486.45 
  L2112.76 1486.45 L2112.76 1486.45 L2112.76 1486.45 L2112.76 1486.45 L2112.76 1471.91 L2112.76 1457.37 L2112.76 1442.84 L2112.76 1428.3 L2112.76 1413.76 L2112.76 1399.22 
  L2112.76 1384.69 L2112.76 1370.15 L2112.76 1355.61 L2112.76 1341.07 L2112.76 1326.54 L2112.76 1312 L2112.76 1297.46 L2112.76 1282.92 L2112.76 1268.39 L2112.76 1253.85 
  L2112.76 1239.31 L2112.76 1224.77 L2112.76 1210.24 L2112.76 1195.7 L2112.76 1181.16 L2112.76 1166.62 L2112.76 1152.09 L2112.76 1137.55 L2112.76 1123.01 L2112.76 1108.48 
  L2112.76 1093.94 L2112.76 1079.4 L2112.76 1064.86 L2112.76 1050.33 L2112.76 1035.79 L2112.76 1021.25 L2112.76 1006.71 L2112.76 992.176 L2112.76 977.638 L2112.76 963.101 
  L2112.76 948.564 L2112.76 934.026 L2112.76 919.489 L2112.76 904.951 L2112.76 890.414 L2112.76 875.877 L2112.76 861.339 L2112.76 846.802 L2112.76 832.264 L2112.76 817.727 
  L2112.76 803.19 L2112.76 788.652 L2112.76 774.115 L2112.76 759.577 L2112.76 745.04 L2112.76 730.502 L2112.76 715.965 L2112.76 701.428 L2112.76 686.89 L2112.76 672.353 
  L2112.76 657.815 L2112.76 643.278 L2112.76 628.741 L2112.76 614.203 L2112.76 599.666 L2112.76 585.128 L2112.76 570.591 L2112.76 556.054 L2112.76 541.516 L2112.76 526.979 
  L2112.76 512.441 L2112.76 497.904 L2112.76 483.366 L2112.76 468.829 L2112.76 454.292 L2112.76 439.754 L2112.76 425.217 L2112.76 410.679 L2112.76 396.142 L2112.76 381.605 
  L2112.76 367.067 L2112.76 352.53 L2112.76 337.992 L2112.76 323.455 L2112.76 308.918 L2112.76 294.38 L2112.76 279.843 L2112.76 265.305 L2112.76 250.768 L2112.76 236.23 
  L2112.76 221.693 L2112.76 207.156 L2112.76 192.618 L2112.76 178.081 L2112.76 163.543 L2112.76 149.006 L2112.76 134.469 L2112.76 119.931 L2112.76 105.394 L2112.76 90.8563 
  L2112.76 76.3189 L2112.76 61.7815 L2112.76 47.2441 L2112.76 47.2441 L2112.76 47.2441 L2112.76 47.2441 L2093.22 47.2441 L2073.69 47.2441 L2054.15 47.2441 L2034.62 47.2441 
  L2015.08 47.2441 L1995.55 47.2441 L1976.02 47.2441 L1956.48 47.2441 L1936.95 47.2441 L1917.41 47.2441 L1897.88 47.2441 L1878.35 47.2441 L1858.81 47.2441 L1839.28 47.2441 
  L1819.74 47.2441 L1800.21 47.2441 L1780.67 47.2441 L1761.14 47.2441 L1741.61 47.2441 L1722.07 47.2441 L1702.54 47.2441 L1683 47.2441 L1663.47 47.2441 L1643.93 47.2441 
  L1624.4 47.2441 L1604.87 47.2441 L1585.33 47.2441 L1565.8 47.2441 L1546.26 47.2441 L1526.73 47.2441 L1507.19 47.2441 L1487.66 47.2441 L1468.13 47.2441 L1448.59 47.2441 
  L1429.06 47.2441 L1409.52 47.2441 L1389.99 47.2441 L1370.45 47.2441 L1350.92 47.2441 L1331.39 47.2441 L1311.85 47.2441 L1292.32 47.2441 L1272.78 47.2441 L1253.25 47.2441 
  L1233.72 47.2441 L1214.18 47.2441 L1194.65 47.2441 L1175.11 47.2441 L1155.58 47.2441 L1136.04 47.2441 L1116.51 47.2441 L1096.98 47.2441 L1077.44 47.2441 L1057.91 47.2441 
  L1038.37 47.2441 L1018.84 47.2441 L999.305 47.2441 L979.77 47.2441 L960.236 47.2441 L940.702 47.2441 L921.168 47.2441 L901.633 47.2441 L882.099 47.2441 L862.565 47.2441 
  L843.031 47.2441 L823.496 47.2441 L803.962 47.2441 L784.428 47.2441 L764.894 47.2441 L745.359 47.2441 L725.825 47.2441 L706.291 47.2441 L686.757 47.2441 L667.223 47.2441 
  L647.688 47.2441 L628.154 47.2441 L608.62 47.2441 L589.086 47.2441 L569.551 47.2441 L550.017 47.2441 L530.483 47.2441 L510.949 47.2441 L491.414 47.2441 L471.88 47.2441 
  L452.346 47.2441 L432.812 47.2441 L413.277 47.2441 L393.743 47.2441 L374.209 47.2441 L354.675 47.2441 L335.141 47.2441 L315.606 47.2441 L296.072 47.2441 L276.538 47.2441 
  L257.004 47.2441 L237.469 47.2441 L217.935 47.2441 L198.401 47.2441 L178.867 47.2441 L178.867 47.2441 L178.867 47.2441 L178.867 47.2441 L178.867 61.7815 L178.867 76.3189 
  L178.867 90.8563 L178.867 105.394 L178.867 119.931 L178.867 134.469 L178.867 149.006 L178.867 163.543 L178.867 178.081 L178.867 192.618 L178.867 207.156 L178.867 221.693 
  L178.867 236.23 L178.867 250.768 L178.867 265.305 L178.867 279.843 L178.867 294.38 L178.867 308.918 L178.867 323.455 L178.867 337.992 L178.867 352.53 L178.867 367.067 
  L178.867 381.605 L178.867 396.142 L178.867 410.679 L178.867 425.217 L178.867 439.754 L178.867 454.292 L178.867 468.829 L178.867 483.366 L178.867 497.904 L178.867 512.441 
  L178.867 526.979 L178.867 541.516 L178.867 556.054 L178.867 570.591 L178.867 585.128 L178.867 599.666 L178.867 614.203 L178.867 628.741 L178.867 643.278 L178.867 657.815 
  L178.867 672.353 L178.867 686.89 L178.867 701.428 L178.867 715.965 L178.867 730.502 L178.867 745.04 L178.867 759.577 L178.867 774.115 L178.867 788.652 L178.867 803.19 
  L178.867 817.727 L178.867 832.264 L178.867 846.802 L178.867 861.339 L178.867 875.877 L178.867 890.414 L178.867 904.951 L178.867 919.489 L178.867 934.026 L178.867 948.564 
  L178.867 963.101 L178.867 977.638 L178.867 992.176 L178.867 1006.71 L178.867 1021.25 L178.867 1035.79 L178.867 1050.33 L178.867 1064.86 L178.867 1079.4 L178.867 1093.94 
  L178.867 1108.48 L178.867 1123.01 L178.867 1137.55 L178.867 1152.09 L178.867 1166.62 L178.867 1181.16 L178.867 1195.7 L178.867 1210.24 L178.867 1224.77 L178.867 1239.31 
  L178.867 1253.85 L178.867 1268.39 L178.867 1282.92 L178.867 1297.46 L178.867 1312 L178.867 1326.54 L178.867 1341.07 L178.867 1355.61 L178.867 1370.15 L178.867 1384.69 
  L178.867 1399.22 L178.867 1413.76 L178.867 1428.3 L178.867 1442.84 L178.867 1457.37 L178.867 1471.91 L178.867 1486.45 L178.867 1486.45 L178.867 1486.45  Z
  " fill="#feffff" fill-rule="evenodd" fill-opacity="1"/>
<path clip-path="url(#clip202)" d="
M530.483 1258.7 L550.017 1262.74 L569.551 1263.98 L589.086 1263.18 L608.62 1260.62 L628.154 1256.22 L635.629 1253.85 L647.688 1250.74 L667.223 1243.9 L677.374 1239.31 
  L686.757 1235.57 L706.291 1225.6 L707.716 1224.77 L725.825 1214.8 L732.895 1210.24 L745.359 1202.08 L754.179 1195.7 L764.894 1187.38 L772.567 1181.16 L784.428 1170.22 
  L788.389 1166.62 L802.127 1152.09 L803.962 1149.78 L814.667 1137.55 L823.496 1123.97 L824.226 1123.01 L833.295 1108.48 L839.534 1093.94 L843.031 1081.5 L843.796 1079.4 
  L846.469 1064.86 L846.274 1050.33 L843.031 1037.24 L842.686 1035.79 L835.15 1021.25 L823.496 1009.46 L819.81 1006.71 L803.962 998.041 L784.428 992.432 L782.477 992.176 
  L764.894 989.762 L745.359 989.617 L725.825 991.606 L723.002 992.176 L706.291 994.778 L686.757 999.421 L667.223 1006.17 L665.931 1006.71 L647.688 1013.28 L631.258 1021.25 
  L628.154 1022.62 L608.62 1032.84 L603.79 1035.79 L589.086 1044.62 L580.735 1050.33 L569.551 1058.3 L560.977 1064.86 L550.017 1074.14 L543.88 1079.4 L530.483 1092.88 
  L529.38 1093.94 L515.973 1108.48 L510.949 1115.46 L504.783 1123.01 L495.599 1137.55 L491.414 1146.52 L488.225 1152.09 L482.315 1166.62 L478.88 1181.16 L477.803 1195.7 
  L479.464 1210.24 L484.903 1224.77 L491.414 1233.94 L495.966 1239.31 L510.949 1250.46 L518.171 1253.85 L530.483 1258.7 M1702.54 543.338 L1722.07 544.285 
  L1741.61 542.941 L1748.68 541.516 L1761.14 538.99 L1780.67 530.909 L1786.8 526.979 L1800.21 514.522 L1801.99 512.441 L1810.01 497.904 L1813.38 483.366 L1813.59 468.829 
  L1811.32 454.292 L1806.69 439.754 L1800.21 426.792 L1799.58 425.217 L1791.83 410.679 L1780.88 396.142 L1780.67 395.909 L1769.54 381.605 L1761.14 373.123 L1755.47 367.067 
  L1741.61 354.7 L1739.17 352.53 L1722.07 339.017 L1720.69 337.992 L1702.54 325.268 L1699.62 323.455 L1683 313.137 L1674.87 308.918 L1663.47 302.662 L1644.25 294.38 
  L1643.93 294.229 L1624.4 286.081 L1604.87 280.314 L1602.75 279.843 L1585.33 275.021 L1565.8 271.576 L1546.26 269.886 L1526.73 270.042 L1507.19 272.548 L1487.66 278.519 
  L1484.86 279.843 L1468.13 289.824 L1462.84 294.38 L1451.99 308.918 L1448.59 318.192 L1446.68 323.455 L1444.87 337.992 L1446.14 352.53 L1448.59 361.35 L1449.8 367.067 
  L1454.91 381.605 L1462.44 396.142 L1468.13 404.292 L1471.9 410.679 L1482.96 425.217 L1487.66 430.269 L1495.76 439.754 L1507.19 450.598 L1510.98 454.292 L1526.73 467.509 
  L1528.35 468.829 L1546.26 482.16 L1548.04 483.366 L1565.8 495.084 L1570.76 497.904 L1585.33 506.413 L1598.08 512.441 L1604.87 515.939 L1624.4 524.173 L1632.98 526.979 
  L1643.93 531.207 L1663.47 536.816 L1683 540.615 L1690.69 541.516 L1702.54 543.338  Z
  " fill="#c7e4fd" fill-rule="evenodd" fill-opacity="1"/>
<path clip-path="url(#clip202)" d="
M550.017 1226.68 L569.551 1232.39 L589.086 1234.11 L608.62 1233.12 L628.154 1229.93 L646.757 1224.77 L647.688 1224.55 L667.223 1218.03 L684.374 1210.24 L686.757 1209.21 
  L706.291 1199 L711.637 1195.7 L725.825 1186.68 L733.523 1181.16 L745.359 1171.88 L751.674 1166.62 L764.894 1153.82 L766.685 1152.09 L779.541 1137.55 L784.428 1130.42 
  L789.941 1123.01 L797.956 1108.48 L803.268 1093.94 L803.962 1090.15 L806.328 1079.4 L806.018 1064.86 L803.962 1058.06 L801.353 1050.33 L789.6 1035.79 L784.428 1031.94 
  L764.894 1023.19 L754.501 1021.25 L745.359 1019.72 L725.825 1019.49 L711.381 1021.25 L706.291 1021.77 L686.757 1025.72 L667.223 1031.69 L657.269 1035.79 L647.688 1039.42 
  L628.154 1048.99 L625.827 1050.33 L608.62 1060.16 L601.561 1064.86 L589.086 1073.67 L581.669 1079.4 L569.551 1089.96 L565.114 1093.94 L551.397 1108.48 L550.017 1110.25 
  L539.549 1123.01 L530.786 1137.55 L530.483 1138.24 L523.56 1152.09 L519.268 1166.62 L517.94 1181.16 L520.253 1195.7 L527.923 1210.24 L530.483 1213.03 L546.271 1224.77 
  L550.017 1226.68 M1683 513.324 L1702.54 514.44 L1722.07 512.691 L1723.08 512.441 L1741.61 507.008 L1756.48 497.904 L1761.14 493.246 L1768.37 483.366 
  L1773.06 468.829 L1773.41 454.292 L1770.57 439.754 L1764.82 425.217 L1761.14 418.983 L1756.8 410.679 L1746.51 396.142 L1741.61 390.64 L1733.88 381.605 L1722.07 370.408 
  L1718.48 367.067 L1702.54 354.209 L1700.28 352.53 L1683 340.663 L1678.51 337.992 L1663.47 329.207 L1651.33 323.455 L1643.93 319.802 L1624.4 312.144 L1613.24 308.918 
  L1604.87 306.179 L1585.33 301.902 L1565.8 299.784 L1546.26 300.048 L1526.73 303.537 L1513.45 308.918 L1507.19 312.385 L1494.96 323.455 L1487.66 337.242 L1487.32 337.992 
  L1484.98 352.53 L1486.47 367.067 L1487.66 370.66 L1490.7 381.605 L1497.3 396.142 L1506.92 410.679 L1507.19 411.013 L1518.01 425.217 L1526.73 434.202 L1532.05 439.754 
  L1546.26 452.175 L1548.81 454.292 L1565.8 466.936 L1568.64 468.829 L1585.33 479.403 L1592.79 483.366 L1604.87 489.858 L1623.95 497.904 L1624.4 498.107 L1643.93 505.265 
  L1663.47 510.181 L1678.17 512.441 L1683 513.324  Z
  " fill="#babcfa" fill-rule="evenodd" fill-opacity="1"/>
<path clip-path="url(#clip202)" d="
M589.086 1210.67 L608.62 1211.88 L624.038 1210.24 L628.154 1209.84 L647.688 1205.43 L667.223 1198.71 L673.78 1195.7 L686.757 1189.8 L701.876 1181.16 L706.291 1178.5 
  L723.1 1166.62 L725.825 1164.45 L740.017 1152.09 L745.359 1146.45 L753.597 1137.55 L763.926 1123.01 L764.894 1121.09 L771.647 1108.48 L776.019 1093.94 L776.628 1079.4 
  L772.018 1064.86 L764.894 1056.17 L757.043 1050.33 L745.359 1045.02 L725.825 1041.59 L706.291 1042.05 L686.757 1045.3 L669.799 1050.33 L667.223 1051.05 L647.688 1058.73 
  L635.734 1064.86 L628.154 1068.84 L611.541 1079.4 L608.62 1081.43 L592.668 1093.94 L589.086 1097.22 L577.473 1108.48 L569.551 1118.13 L565.51 1123.01 L556.48 1137.55 
  L550.547 1152.09 L550.017 1155.15 L547.807 1166.62 L549.435 1181.16 L550.017 1182.44 L558.197 1195.7 L569.551 1204.15 L587.373 1210.24 L589.086 1210.67 M1643.93 485.818 L1663.47 490.338 L1683 492.266 L1702.54 490.982 L1722.07 484.787 L1724.48 483.366 L1739.01 468.829 L1741.61 461.505 L1743.63 454.292 L1742.92 439.754 
  L1741.61 435.738 L1738.48 425.217 L1731.04 410.679 L1722.07 398.469 L1720.39 396.142 L1707.01 381.605 L1702.54 377.577 L1690.12 367.067 L1683 361.773 L1668.88 352.53 
  L1663.47 349.203 L1643.93 339.242 L1640.81 337.992 L1624.4 331.318 L1604.87 325.778 L1590.73 323.455 L1585.33 322.476 L1565.8 321.949 L1556.1 323.455 L1546.26 325.383 
  L1526.73 336.201 L1524.82 337.992 L1516.5 352.53 L1514.77 367.067 L1517.36 381.605 L1523.44 396.142 L1526.73 401.273 L1532.47 410.679 L1544.49 425.217 L1546.26 426.98 
  L1559.53 439.754 L1565.8 444.884 L1578.44 454.292 L1585.33 458.955 L1602.5 468.829 L1604.87 470.15 L1624.4 479.092 L1637.04 483.366 L1643.93 485.818  Z
  " fill="#d788d3" fill-rule="evenodd" fill-opacity="1"/>
<path clip-path="url(#clip202)" d="
M589.086 1184.55 L608.62 1191.03 L628.154 1191.25 L647.688 1187.73 L667.223 1181.26 L667.433 1181.16 L686.757 1171.75 L695.135 1166.62 L706.291 1158.99 L714.984 1152.09 
  L725.825 1141.7 L729.841 1137.55 L740.482 1123.01 L745.359 1112.83 L747.457 1108.48 L749.87 1093.94 L746.384 1079.4 L745.359 1077.99 L727.719 1064.86 L725.825 1064.1 
  L706.291 1061.51 L686.757 1063.3 L680.903 1064.86 L667.223 1068.49 L647.688 1076.41 L642.111 1079.4 L628.154 1087.47 L618.878 1093.94 L608.62 1102.24 L601.73 1108.48 
  L589.086 1122.86 L588.953 1123.01 L580.26 1137.55 L575.524 1152.09 L575.83 1166.62 L584.537 1181.16 L589.086 1184.55 M1663.47 471.74 L1683 471.56 
  L1693.38 468.829 L1702.54 464.822 L1712.85 454.292 L1716.71 439.754 L1714.26 425.217 L1707.5 410.679 L1702.54 403.878 L1696.69 396.142 L1683 382.439 L1682.07 381.605 
  L1663.47 367.758 L1662.35 367.067 L1643.93 356.881 L1633.54 352.53 L1624.4 348.838 L1604.87 343.808 L1585.33 341.981 L1565.8 344.858 L1551.65 352.53 L1546.26 359.347 
  L1542.59 367.067 L1542.35 381.605 L1546.26 393.517 L1547.12 396.142 L1556.02 410.679 L1565.8 422.096 L1568.67 425.217 L1585.33 439.585 L1585.56 439.754 L1604.87 452.155 
  L1609.06 454.292 L1624.4 461.569 L1643.93 468.194 L1647.46 468.829 L1663.47 471.74  Z
  " fill="#eb4781" fill-rule="evenodd" fill-opacity="1"/>
<path clip-path="url(#clip202)" d="
M628.154 1169.9 L647.688 1168.7 L654.495 1166.62 L667.223 1162.29 L686.757 1152.14 L686.831 1152.09 L704.189 1137.55 L706.291 1135.08 L715.072 1123.01 L720.394 1108.48 
  L717.134 1093.94 L706.291 1085.87 L686.757 1083.44 L667.223 1087.4 L651.004 1093.94 L647.688 1095.5 L628.154 1108.42 L628.086 1108.48 L614.446 1123.01 L608.62 1132.48 
  L605.83 1137.55 L604.217 1152.09 L608.62 1160.63 L616.671 1166.62 L628.154 1169.9 M1624.4 442.828 L1643.93 448.831 L1663.47 450.154 L1683 441.902 
  L1684.91 439.754 L1687.5 425.217 L1683 411.897 L1682.54 410.679 L1670.84 396.142 L1663.47 389.459 L1652.91 381.605 L1643.93 376.122 L1624.4 367.411 L1622.76 367.067 
  L1604.87 363.723 L1585.33 365.65 L1582.45 367.067 L1571.36 381.605 L1573.14 396.142 L1581.2 410.679 L1585.33 415.27 L1595.74 425.217 L1604.87 432.008 L1618.23 439.754 
  L1624.4 442.828  Z
  " fill="#d0210e" fill-rule="evenodd" fill-opacity="1"/>
<polyline clip-path="url(#clip202)" style="stroke:#feffff; stroke-linecap:round; stroke-linejoin:round; stroke-width:2; stroke-opacity:1; fill:none" points="
  178.867,1486.45 178.867,1486.45 198.401,1486.45 217.935,1486.45 237.469,1486.45 257.004,1486.45 276.538,1486.45 296.072,1486.45 315.606,1486.45 335.141,1486.45 
  354.675,1486.45 374.209,1486.45 393.743,1486.45 413.277,1486.45 432.812,1486.45 452.346,1486.45 471.88,1486.45 491.414,1486.45 510.949,1486.45 530.483,1486.45 
  550.017,1486.45 569.551,1486.45 589.086,1486.45 608.62,1486.45 628.154,1486.45 647.688,1486.45 667.223,1486.45 686.757,1486.45 706.291,1486.45 725.825,1486.45 
  745.359,1486.45 764.894,1486.45 784.428,1486.45 803.962,1486.45 823.496,1486.45 843.031,1486.45 862.565,1486.45 882.099,1486.45 901.633,1486.45 921.168,1486.45 
  940.702,1486.45 960.236,1486.45 979.77,1486.45 999.305,1486.45 1018.84,1486.45 1038.37,1486.45 1057.91,1486.45 1077.44,1486.45 1096.98,1486.45 1116.51,1486.45 
  1136.04,1486.45 1155.58,1486.45 1175.11,1486.45 1194.65,1486.45 1214.18,1486.45 1233.72,1486.45 1253.25,1486.45 1272.78,1486.45 1292.32,1486.45 1311.85,1486.45 
  1331.39,1486.45 1350.92,1486.45 1370.45,1486.45 1389.99,1486.45 1409.52,1486.45 1429.06,1486.45 1448.59,1486.45 1468.13,1486.45 1487.66,1486.45 1507.19,1486.45 
  1526.73,1486.45 1546.26,1486.45 1565.8,1486.45 1585.33,1486.45 1604.87,1486.45 1624.4,1486.45 1643.93,1486.45 1663.47,1486.45 1683,1486.45 1702.54,1486.45 
  1722.07,1486.45 1741.61,1486.45 1761.14,1486.45 1780.67,1486.45 1800.21,1486.45 1819.74,1486.45 1839.28,1486.45 1858.81,1486.45 1878.35,1486.45 1897.88,1486.45 
  1917.41,1486.45 1936.95,1486.45 1956.48,1486.45 1976.02,1486.45 1995.55,1486.45 2015.08,1486.45 2034.62,1486.45 2054.15,1486.45 2073.69,1486.45 2093.22,1486.45 
  2112.76,1486.45 2112.76,1471.91 2112.76,1457.37 2112.76,1442.84 2112.76,1428.3 2112.76,1413.76 2112.76,1399.22 
  2112.76,1384.69 2112.76,1370.15 2112.76,1355.61 2112.76,1341.07 2112.76,1326.54 2112.76,1312 2112.76,1297.46 2112.76,1282.92 2112.76,1268.39 2112.76,1253.85 
  2112.76,1239.31 2112.76,1224.77 2112.76,1210.24 2112.76,1195.7 2112.76,1181.16 2112.76,1166.62 2112.76,1152.09 2112.76,1137.55 2112.76,1123.01 2112.76,1108.48 
  2112.76,1093.94 2112.76,1079.4 2112.76,1064.86 2112.76,1050.33 2112.76,1035.79 2112.76,1021.25 2112.76,1006.71 2112.76,992.176 2112.76,977.638 2112.76,963.101 
  2112.76,948.564 2112.76,934.026 2112.76,919.489 2112.76,904.951 2112.76,890.414 2112.76,875.877 2112.76,861.339 2112.76,846.802 2112.76,832.264 2112.76,817.727 
  2112.76,803.19 2112.76,788.652 2112.76,774.115 2112.76,759.577 2112.76,745.04 2112.76,730.502 2112.76,715.965 2112.76,701.428 2112.76,686.89 2112.76,672.353 
  2112.76,657.815 2112.76,643.278 2112.76,628.741 2112.76,614.203 2112.76,599.666 2112.76,585.128 2112.76,570.591 2112.76,556.054 2112.76,541.516 2112.76,526.979 
  2112.76,512.441 2112.76,497.904 2112.76,483.366 2112.76,468.829 2112.76,454.292 2112.76,439.754 2112.76,425.217 2112.76,410.679 2112.76,396.142 2112.76,381.605 
  2112.76,367.067 2112.76,352.53 2112.76,337.992 2112.76,323.455 2112.76,308.918 2112.76,294.38 2112.76,279.843 2112.76,265.305 2112.76,250.768 2112.76,236.23 
  2112.76,221.693 2112.76,207.156 2112.76,192.618 2112.76,178.081 2112.76,163.543 2112.76,149.006 2112.76,134.469 2112.76,119.931 2112.76,105.394 2112.76,90.8563 
  2112.76,76.3189 2112.76,61.7815 2112.76,47.2441 2093.22,47.2441 2073.69,47.2441 2054.15,47.2441 2034.62,47.2441 
  2015.08,47.2441 1995.55,47.2441 1976.02,47.2441 1956.48,47.2441 1936.95,47.2441 1917.41,47.2441 1897.88,47.2441 1878.35,47.2441 1858.81,47.2441 1839.28,47.2441 
  1819.74,47.2441 1800.21,47.2441 1780.67,47.2441 1761.14,47.2441 1741.61,47.2441 1722.07,47.2441 1702.54,47.2441 1683,47.2441 1663.47,47.2441 1643.93,47.2441 
  1624.4,47.2441 1604.87,47.2441 1585.33,47.2441 1565.8,47.2441 1546.26,47.2441 1526.73,47.2441 1507.19,47.2441 1487.66,47.2441 1468.13,47.2441 1448.59,47.2441 
  1429.06,47.2441 1409.52,47.2441 1389.99,47.2441 1370.45,47.2441 1350.92,47.2441 1331.39,47.2441 1311.85,47.2441 1292.32,47.2441 1272.78,47.2441 1253.25,47.2441 
  1233.72,47.2441 1214.18,47.2441 1194.65,47.2441 1175.11,47.2441 1155.58,47.2441 1136.04,47.2441 1116.51,47.2441 1096.98,47.2441 1077.44,47.2441 1057.91,47.2441 
  1038.37,47.2441 1018.84,47.2441 999.305,47.2441 979.77,47.2441 960.236,47.2441 940.702,47.2441 921.168,47.2441 901.633,47.2441 882.099,47.2441 862.565,47.2441 
  843.031,47.2441 823.496,47.2441 803.962,47.2441 784.428,47.2441 764.894,47.2441 745.359,47.2441 725.825,47.2441 706.291,47.2441 686.757,47.2441 667.223,47.2441 
  647.688,47.2441 628.154,47.2441 608.62,47.2441 589.086,47.2441 569.551,47.2441 550.017,47.2441 530.483,47.2441 510.949,47.2441 491.414,47.2441 471.88,47.2441 
  452.346,47.2441 432.812,47.2441 413.277,47.2441 393.743,47.2441 374.209,47.2441 354.675,47.2441 335.141,47.2441 315.606,47.2441 296.072,47.2441 276.538,47.2441 
  257.004,47.2441 237.469,47.2441 217.935,47.2441 198.401,47.2441 178.867,47.2441 178.867,61.7815 178.867,76.3189 
  178.867,90.8563 178.867,105.394 178.867,119.931 178.867,134.469 178.867,149.006 178.867,163.543 178.867,178.081 178.867,192.618 178.867,207.156 178.867,221.693 
  178.867,236.23 178.867,250.768 178.867,265.305 178.867,279.843 178.867,294.38 178.867,308.918 178.867,323.455 178.867,337.992 178.867,352.53 178.867,367.067 
  178.867,381.605 178.867,396.142 178.867,410.679 178.867,425.217 178.867,439.754 178.867,454.292 178.867,468.829 178.867,483.366 178.867,497.904 178.867,512.441 
  178.867,526.979 178.867,541.516 178.867,556.054 178.867,570.591 178.867,585.128 178.867,599.666 178.867,614.203 178.867,628.741 178.867,643.278 178.867,657.815 
  178.867,672.353 178.867,686.89 178.867,701.428 178.867,715.965 178.867,730.502 178.867,745.04 178.867,759.577 178.867,774.115 178.867,788.652 178.867,803.19 
  178.867,817.727 178.867,832.264 178.867,846.802 178.867,861.339 178.867,875.877 178.867,890.414 178.867,904.951 178.867,919.489 178.867,934.026 178.867,948.564 
  178.867,963.101 178.867,977.638 178.867,992.176 178.867,1006.71 178.867,1021.25 178.867,1035.79 178.867,1050.33 178.867,1064.86 178.867,1079.4 178.867,1093.94 
  178.867,1108.48 178.867,1123.01 178.867,1137.55 178.867,1152.09 178.867,1166.62 178.867,1181.16 178.867,1195.7 178.867,1210.24 178.867,1224.77 178.867,1239.31 
  178.867,1253.85 178.867,1268.39 178.867,1282.92 178.867,1297.46 178.867,1312 178.867,1326.54 178.867,1341.07 178.867,1355.61 178.867,1370.15 178.867,1384.69 
  178.867,1399.22 178.867,1413.76 178.867,1428.3 178.867,1442.84 178.867,1457.37 178.867,1471.91 178.867,1486.45 
  "/>
<polyline clip-path="url(#clip202)" style="stroke:#feffff; stroke-linecap:round; stroke-linejoin:round; stroke-width:2; stroke-opacity:1; fill:none" points="
  530.483,1258.7 550.017,1262.74 569.551,1263.98 589.086,1263.18 608.62,1260.62 628.154,1256.22 635.629,1253.85 647.688,1250.74 667.223,1243.9 677.374,1239.31 
  686.757,1235.57 706.291,1225.6 707.716,1224.77 725.825,1214.8 732.895,1210.24 745.359,1202.08 754.179,1195.7 764.894,1187.38 772.567,1181.16 784.428,1170.22 
  788.389,1166.62 802.127,1152.09 803.962,1149.78 814.667,1137.55 823.496,1123.97 824.226,1123.01 833.295,1108.48 839.534,1093.94 843.031,1081.5 843.796,1079.4 
  846.469,1064.86 846.274,1050.33 843.031,1037.24 842.686,1035.79 835.15,1021.25 823.496,1009.46 819.81,1006.71 803.962,998.041 784.428,992.432 782.477,992.176 
  764.894,989.762 745.359,989.617 725.825,991.606 723.002,992.176 706.291,994.778 686.757,999.421 667.223,1006.17 665.931,1006.71 647.688,1013.28 631.258,1021.25 
  628.154,1022.62 608.62,1032.84 603.79,1035.79 589.086,1044.62 580.735,1050.33 569.551,1058.3 560.977,1064.86 550.017,1074.14 543.88,1079.4 530.483,1092.88 
  529.38,1093.94 515.973,1108.48 510.949,1115.46 504.783,1123.01 495.599,1137.55 491.414,1146.52 488.225,1152.09 482.315,1166.62 478.88,1181.16 477.803,1195.7 
  479.464,1210.24 484.903,1224.77 491.414,1233.94 495.966,1239.31 510.949,1250.46 518.171,1253.85 530.483,1258.7 
  "/>
<polyline clip-path="url(#clip202)" style="stroke:#feffff; stroke-linecap:round; stroke-linejoin:round; stroke-width:2; stroke-opacity:1; fill:none" points="
  1702.54,543.338 1722.07,544.285 1741.61,542.941 1748.68,541.516 1761.14,538.99 1780.67,530.909 1786.8,526.979 1800.21,514.522 1801.99,512.441 1810.01,497.904 
  1813.38,483.366 1813.59,468.829 1811.32,454.292 1806.69,439.754 1800.21,426.792 1799.58,425.217 1791.83,410.679 1780.88,396.142 1780.67,395.909 1769.54,381.605 
  1761.14,373.123 1755.47,367.067 1741.61,354.7 1739.17,352.53 1722.07,339.017 1720.69,337.992 1702.54,325.268 1699.62,323.455 1683,313.137 1674.87,308.918 
  1663.47,302.662 1644.25,294.38 1643.93,294.229 1624.4,286.081 1604.87,280.314 1602.75,279.843 1585.33,275.021 1565.8,271.576 1546.26,269.886 1526.73,270.042 
  1507.19,272.548 1487.66,278.519 1484.86,279.843 1468.13,289.824 1462.84,294.38 1451.99,308.918 1448.59,318.192 1446.68,323.455 1444.87,337.992 1446.14,352.53 
  1448.59,361.35 1449.8,367.067 1454.91,381.605 1462.44,396.142 1468.13,404.292 1471.9,410.679 1482.96,425.217 1487.66,430.269 1495.76,439.754 1507.19,450.598 
  1510.98,454.292 1526.73,467.509 1528.35,468.829 1546.26,482.16 1548.04,483.366 1565.8,495.084 1570.76,497.904 1585.33,506.413 1598.08,512.441 1604.87,515.939 
  1624.4,524.173 1632.98,526.979 1643.93,531.207 1663.47,536.816 1683,540.615 1690.69,541.516 1702.54,543.338 
  "/>
<polyline clip-path="url(#clip202)" style="stroke:#feffff; stroke-linecap:round; stroke-linejoin:round; stroke-width:2; stroke-opacity:1; fill:none" points="
  550.017,1226.68 569.551,1232.39 589.086,1234.11 608.62,1233.12 628.154,1229.93 646.757,1224.77 647.688,1224.55 667.223,1218.03 684.374,1210.24 686.757,1209.21 
  706.291,1199 711.637,1195.7 725.825,1186.68 733.523,1181.16 745.359,1171.88 751.674,1166.62 764.894,1153.82 766.685,1152.09 779.541,1137.55 784.428,1130.42 
  789.941,1123.01 797.956,1108.48 803.268,1093.94 803.962,1090.15 806.328,1079.4 806.018,1064.86 803.962,1058.06 801.353,1050.33 789.6,1035.79 784.428,1031.94 
  764.894,1023.19 754.501,1021.25 745.359,1019.72 725.825,1019.49 711.381,1021.25 706.291,1021.77 686.757,1025.72 667.223,1031.69 657.269,1035.79 647.688,1039.42 
  628.154,1048.99 625.827,1050.33 608.62,1060.16 601.561,1064.86 589.086,1073.67 581.669,1079.4 569.551,1089.96 565.114,1093.94 551.397,1108.48 550.017,1110.25 
  539.549,1123.01 530.786,1137.55 530.483,1138.24 523.56,1152.09 519.268,1166.62 517.94,1181.16 520.253,1195.7 527.923,1210.24 530.483,1213.03 546.271,1224.77 
  550.017,1226.68 
  "/>
<polyline clip-path="url(#clip202)" style="stroke:#feffff; stroke-linecap:round; stroke-linejoin:round; stroke-width:2; stroke-opacity:1; fill:none" points="
  1683,513.324 1702.54,514.44 1722.07,512.691 1723.08,512.441 1741.61,507.008 1756.48,497.904 1761.14,493.246 1768.37,483.366 1773.06,468.829 1773.41,454.292 
  1770.57,439.754 1764.82,425.217 1761.14,418.983 1756.8,410.679 1746.51,396.142 1741.61,390.64 1733.88,381.605 1722.07,370.408 1718.48,367.067 1702.54,354.209 
  1700.28,352.53 1683,340.663 1678.51,337.992 1663.47,329.207 1651.33,323.455 1643.93,319.802 1624.4,312.144 1613.24,308.918 1604.87,306.179 1585.33,301.902 
  1565.8,299.784 1546.26,300.048 1526.73,303.537 1513.45,308.918 1507.19,312.385 1494.96,323.455 1487.66,337.242 1487.32,337.992 1484.98,352.53 1486.47,367.067 
  1487.66,370.66 1490.7,381.605 1497.3,396.142 1506.92,410.679 1507.19,411.013 1518.01,425.217 1526.73,434.202 1532.05,439.754 1546.26,452.175 1548.81,454.292 
  1565.8,466.936 1568.64,468.829 1585.33,479.403 1592.79,483.366 1604.87,489.858 1623.95,497.904 1624.4,498.107 1643.93,505.265 1663.47,510.181 1678.17,512.441 
  1683,513.324 
  "/>
<polyline clip-path="url(#clip202)" style="stroke:#feffff; stroke-linecap:round; stroke-linejoin:round; stroke-width:2; stroke-opacity:1; fill:none" points="
  589.086,1210.67 608.62,1211.88 624.038,1210.24 628.154,1209.84 647.688,1205.43 667.223,1198.71 673.78,1195.7 686.757,1189.8 701.876,1181.16 706.291,1178.5 
  723.1,1166.62 725.825,1164.45 740.017,1152.09 745.359,1146.45 753.597,1137.55 763.926,1123.01 764.894,1121.09 771.647,1108.48 776.019,1093.94 776.628,1079.4 
  772.018,1064.86 764.894,1056.17 757.043,1050.33 745.359,1045.02 725.825,1041.59 706.291,1042.05 686.757,1045.3 669.799,1050.33 667.223,1051.05 647.688,1058.73 
  635.734,1064.86 628.154,1068.84 611.541,1079.4 608.62,1081.43 592.668,1093.94 589.086,1097.22 577.473,1108.48 569.551,1118.13 565.51,1123.01 556.48,1137.55 
  550.547,1152.09 550.017,1155.15 547.807,1166.62 549.435,1181.16 550.017,1182.44 558.197,1195.7 569.551,1204.15 587.373,1210.24 589.086,1210.67 
  "/>
<polyline clip-path="url(#clip202)" style="stroke:#feffff; stroke-linecap:round; stroke-linejoin:round; stroke-width:2; stroke-opacity:1; fill:none" points="
  1643.93,485.818 1663.47,490.338 1683,492.266 1702.54,490.982 1722.07,484.787 1724.48,483.366 1739.01,468.829 1741.61,461.505 1743.63,454.292 1742.92,439.754 
  1741.61,435.738 1738.48,425.217 1731.04,410.679 1722.07,398.469 1720.39,396.142 1707.01,381.605 1702.54,377.577 1690.12,367.067 1683,361.773 1668.88,352.53 
  1663.47,349.203 1643.93,339.242 1640.81,337.992 1624.4,331.318 1604.87,325.778 1590.73,323.455 1585.33,322.476 1565.8,321.949 1556.1,323.455 1546.26,325.383 
  1526.73,336.201 1524.82,337.992 1516.5,352.53 1514.77,367.067 1517.36,381.605 1523.44,396.142 1526.73,401.273 1532.47,410.679 1544.49,425.217 1546.26,426.98 
  1559.53,439.754 1565.8,444.884 1578.44,454.292 1585.33,458.955 1602.5,468.829 1604.87,470.15 1624.4,479.092 1637.04,483.366 1643.93,485.818 
  "/>
<polyline clip-path="url(#clip202)" style="stroke:#feffff; stroke-linecap:round; stroke-linejoin:round; stroke-width:2; stroke-opacity:1; fill:none" points="
  589.086,1184.55 608.62,1191.03 628.154,1191.25 647.688,1187.73 667.223,1181.26 667.433,1181.16 686.757,1171.75 695.135,1166.62 706.291,1158.99 714.984,1152.09 
  725.825,1141.7 729.841,1137.55 740.482,1123.01 745.359,1112.83 747.457,1108.48 749.87,1093.94 746.384,1079.4 745.359,1077.99 727.719,1064.86 725.825,1064.1 
  706.291,1061.51 686.757,1063.3 680.903,1064.86 667.223,1068.49 647.688,1076.41 642.111,1079.4 628.154,1087.47 618.878,1093.94 608.62,1102.24 601.73,1108.48 
  589.086,1122.86 588.953,1123.01 580.26,1137.55 575.524,1152.09 575.83,1166.62 584.537,1181.16 589.086,1184.55 
  "/>
<polyline clip-path="url(#clip202)" style="stroke:#feffff; stroke-linecap:round; stroke-linejoin:round; stroke-width:2; stroke-opacity:1; fill:none" points="
  1663.47,471.74 1683,471.56 1693.38,468.829 1702.54,464.822 1712.85,454.292 1716.71,439.754 1714.26,425.217 1707.5,410.679 1702.54,403.878 1696.69,396.142 
  1683,382.439 1682.07,381.605 1663.47,367.758 1662.35,367.067 1643.93,356.881 1633.54,352.53 1624.4,348.838 1604.87,343.808 1585.33,341.981 1565.8,344.858 
  1551.65,352.53 1546.26,359.347 1542.59,367.067 1542.35,381.605 1546.26,393.517 1547.12,396.142 1556.02,410.679 1565.8,422.096 1568.67,425.217 1585.33,439.585 
  1585.56,439.754 1604.87,452.155 1609.06,454.292 1624.4,461.569 1643.93,468.194 1647.46,468.829 1663.47,471.74 
  "/>
<polyline clip-path="url(#clip202)" style="stroke:#feffff; stroke-linecap:round; stroke-linejoin:round; stroke-width:2; stroke-opacity:1; fill:none" points="
  628.154,1169.9 647.688,1168.7 654.495,1166.62 667.223,1162.29 686.757,1152.14 686.831,1152.09 704.189,1137.55 706.291,1135.08 715.072,1123.01 720.394,1108.48 
  717.134,1093.94 706.291,1085.87 686.757,1083.44 667.223,1087.4 651.004,1093.94 647.688,1095.5 628.154,1108.42 628.086,1108.48 614.446,1123.01 608.62,1132.48 
  605.83,1137.55 604.217,1152.09 608.62,1160.63 616.671,1166.62 628.154,1169.9 
  "/>
<polyline clip-path="url(#clip202)" style="stroke:#feffff; stroke-linecap:round; stroke-linejoin:round; stroke-width:2; stroke-opacity:1; fill:none" points="
  1624.4,442.828 1643.93,448.831 1663.47,450.154 1683,441.902 1684.91,439.754 1687.5,425.217 1683,411.897 1682.54,410.679 1670.84,396.142 1663.47,389.459 
  1652.91,381.605 1643.93,376.122 1624.4,367.411 1622.76,367.067 1604.87,363.723 1585.33,365.65 1582.45,367.067 1571.36,381.605 1573.14,396.142 1581.2,410.679 
  1585.33,415.27 1595.74,425.217 1604.87,432.008 1618.23,439.754 1624.4,442.828 
  "/>
<defs>
  <clipPath id="clip203">
    <rect x="2160" y="47" width="73" height="1440"/>
  </clipPath>
</defs>
<path clip-path="url(#clip203)" d="
M2160.76 1486.45 L2232.76 1486.45 L2232.76 1246.58 L2160.76 1246.58  Z
  " fill="#feffff" fill-rule="evenodd" fill-opacity="1"/>
<path clip-path="url(#clip203)" d="
M2160.76 1246.58 L2232.76 1246.58 L2232.76 1006.71 L2160.76 1006.71  Z
  " fill="#c7e4fd" fill-rule="evenodd" fill-opacity="1"/>
<path clip-path="url(#clip203)" d="
M2160.76 1006.71 L2232.76 1006.71 L2232.76 766.846 L2160.76 766.846  Z
  " fill="#babcfa" fill-rule="evenodd" fill-opacity="1"/>
<path clip-path="url(#clip203)" d="
M2160.76 766.846 L2232.76 766.846 L2232.76 526.979 L2160.76 526.979  Z
  " fill="#d788d3" fill-rule="evenodd" fill-opacity="1"/>
<path clip-path="url(#clip203)" d="
M2160.76 526.979 L2232.76 526.979 L2232.76 287.111 L2160.76 287.111  Z
  " fill="#eb4781" fill-rule="evenodd" fill-opacity="1"/>
<path clip-path="url(#clip203)" d="
M2160.76 287.111 L2232.76 287.111 L2232.76 47.2441 L2160.76 47.2441  Z
  " fill="#d0210e" fill-rule="evenodd" fill-opacity="1"/>
<path clip-path="url(#clip200)" d="M2280.7 1315.43 Q2277.09 1315.43 2275.26 1318.99 Q2273.45 1322.54 2273.45 1329.67 Q2273.45 1336.77 2275.26 1340.34 Q2277.09 1343.88 2280.7 1343.88 Q2284.33 1343.88 2286.14 1340.34 Q2287.97 1336.77 2287.97 1329.67 Q2287.97 1322.54 2286.14 1318.99 Q2284.33 1315.43 2280.7 1315.43 M2280.7 1311.73 Q2286.51 1311.73 2289.57 1316.33 Q2292.64 1320.92 2292.64 1329.67 Q2292.64 1338.39 2289.57 1343 Q2286.51 1347.58 2280.7 1347.58 Q2274.89 1347.58 2271.81 1343 Q2268.76 1338.39 2268.76 1329.67 Q2268.76 1320.92 2271.81 1316.33 Q2274.89 1311.73 2280.7 1311.73 Z" fill="#000000" fill-rule="evenodd" fill-opacity="1" /><path clip-path="url(#clip200)" d="M2300.86 1341.03 L2305.75 1341.03 L2305.75 1346.91 L2300.86 1346.91 L2300.86 1341.03 Z" fill="#000000" fill-rule="evenodd" fill-opacity="1" /><path clip-path="url(#clip200)" d="M2325.93 1315.43 Q2322.32 1315.43 2320.49 1318.99 Q2318.69 1322.54 2318.69 1329.67 Q2318.69 1336.77 2320.49 1340.34 Q2322.32 1343.88 2325.93 1343.88 Q2329.57 1343.88 2331.37 1340.34 Q2333.2 1336.77 2333.2 1329.67 Q2333.2 1322.54 2331.37 1318.99 Q2329.57 1315.43 2325.93 1315.43 M2325.93 1311.73 Q2331.74 1311.73 2334.8 1316.33 Q2337.88 1320.92 2337.88 1329.67 Q2337.88 1338.39 2334.8 1343 Q2331.74 1347.58 2325.93 1347.58 Q2320.12 1347.58 2317.04 1343 Q2313.99 1338.39 2313.99 1329.67 Q2313.99 1320.92 2317.04 1316.33 Q2320.12 1311.73 2325.93 1311.73 Z" fill="#000000" fill-rule="evenodd" fill-opacity="1" /><path clip-path="url(#clip200)" d="M2346.9 1342.98 L2354.54 1342.98 L2354.54 1316.61 L2346.23 1318.28 L2346.23 1314.02 L2354.5 1312.35 L2359.17 1312.35 L2359.17 1342.98 L2366.81 1342.98 L2366.81 1346.91 L2346.9 1346.91 L2346.9 1342.98 Z" fill="#000000" fill-rule="evenodd" fill-opacity="1" /><path clip-path="url(#clip200)" d="M2280.7 1162.24 Q2277.09 1162.24 2275.26 1165.81 Q2273.45 1169.35 2273.45 1176.48 Q2273.45 1183.58 2275.26 1187.15 Q2277.09 1190.69 2280.7 1190.69 Q2284.33 1190.69 2286.14 1187.15 Q2287.97 1183.58 2287.97 1176.48 Q2287.97 1169.35 2286.14 1165.81 Q2284.33 1162.24 2280.7 1162.24 M2280.7 1158.54 Q2286.51 1158.54 2289.57 1163.14 Q2292.64 1167.73 2292.64 1176.48 Q2292.64 1185.2 2289.57 1189.81 Q2286.51 1194.39 2280.7 1194.39 Q2274.89 1194.39 2271.81 1189.81 Q2268.76 1185.2 2268.76 1176.48 Q2268.76 1167.73 2271.81 1163.14 Q2274.89 1158.54 2280.7 1158.54 Z" fill="#000000" fill-rule="evenodd" fill-opacity="1" /><path clip-path="url(#clip200)" d="M2300.86 1187.84 L2305.75 1187.84 L2305.75 1193.72 L2300.86 1193.72 L2300.86 1187.84 Z" fill="#000000" fill-rule="evenodd" fill-opacity="1" /><path clip-path="url(#clip200)" d="M2325.93 1162.24 Q2322.32 1162.24 2320.49 1165.81 Q2318.69 1169.35 2318.69 1176.48 Q2318.69 1183.58 2320.49 1187.15 Q2322.32 1190.69 2325.93 1190.69 Q2329.57 1190.69 2331.37 1187.15 Q2333.2 1183.58 2333.2 1176.48 Q2333.2 1169.35 2331.37 1165.81 Q2329.57 1162.24 2325.93 1162.24 M2325.93 1158.54 Q2331.74 1158.54 2334.8 1163.14 Q2337.88 1167.73 2337.88 1176.48 Q2337.88 1185.2 2334.8 1189.81 Q2331.74 1194.39 2325.93 1194.39 Q2320.12 1194.39 2317.04 1189.81 Q2313.99 1185.2 2313.99 1176.48 Q2313.99 1167.73 2317.04 1163.14 Q2320.12 1158.54 2325.93 1158.54 Z" fill="#000000" fill-rule="evenodd" fill-opacity="1" /><path clip-path="url(#clip200)" d="M2350.12 1189.79 L2366.44 1189.79 L2366.44 1193.72 L2344.5 1193.72 L2344.5 1189.79 Q2347.16 1187.03 2351.74 1182.4 Q2356.35 1177.75 2357.53 1176.41 Q2359.77 1173.88 2360.65 1172.15 Q2361.56 1170.39 2361.56 1168.7 Q2361.56 1165.94 2359.61 1164.21 Q2357.69 1162.47 2354.59 1162.47 Q2352.39 1162.47 2349.94 1163.24 Q2347.51 1164 2344.73 1165.55 L2344.73 1160.83 Q2347.55 1159.69 2350.01 1159.12 Q2352.46 1158.54 2354.5 1158.54 Q2359.87 1158.54 2363.06 1161.22 Q2366.26 1163.91 2366.26 1168.4 Q2366.26 1170.53 2365.45 1172.45 Q2364.66 1174.35 2362.55 1176.94 Q2361.97 1177.61 2358.87 1180.83 Q2355.77 1184.02 2350.12 1189.79 Z" fill="#000000" fill-rule="evenodd" fill-opacity="1" /><path clip-path="url(#clip200)" d="M2280.7 1009.05 Q2277.09 1009.05 2275.26 1012.62 Q2273.45 1016.16 2273.45 1023.29 Q2273.45 1030.39 2275.26 1033.96 Q2277.09 1037.5 2280.7 1037.5 Q2284.33 1037.5 2286.14 1033.96 Q2287.97 1030.39 2287.97 1023.29 Q2287.97 1016.16 2286.14 1012.62 Q2284.33 1009.05 2280.7 1009.05 M2280.7 1005.35 Q2286.51 1005.35 2289.57 1009.95 Q2292.64 1014.54 2292.64 1023.29 Q2292.64 1032.01 2289.57 1036.62 Q2286.51 1041.2 2280.7 1041.2 Q2274.89 1041.2 2271.81 1036.62 Q2268.76 1032.01 2268.76 1023.29 Q2268.76 1014.54 2271.81 1009.95 Q2274.89 1005.35 2280.7 1005.35 Z" fill="#000000" fill-rule="evenodd" fill-opacity="1" /><path clip-path="url(#clip200)" d="M2300.86 1034.65 L2305.75 1034.65 L2305.75 1040.53 L2300.86 1040.53 L2300.86 1034.65 Z" fill="#000000" fill-rule="evenodd" fill-opacity="1" /><path clip-path="url(#clip200)" d="M2325.93 1009.05 Q2322.32 1009.05 2320.49 1012.62 Q2318.69 1016.16 2318.69 1023.29 Q2318.69 1030.39 2320.49 1033.96 Q2322.32 1037.5 2325.93 1037.5 Q2329.57 1037.5 2331.37 1033.96 Q2333.2 1030.39 2333.2 1023.29 Q2333.2 1016.16 2331.37 1012.62 Q2329.57 1009.05 2325.93 1009.05 M2325.93 1005.35 Q2331.74 1005.35 2334.8 1009.95 Q2337.88 1014.54 2337.88 1023.29 Q2337.88 1032.01 2334.8 1036.62 Q2331.74 1041.2 2325.93 1041.2 Q2320.12 1041.2 2317.04 1036.62 Q2313.99 1032.01 2313.99 1023.29 Q2313.99 1014.54 2317.04 1009.95 Q2320.12 1005.35 2325.93 1005.35 Z" fill="#000000" fill-rule="evenodd" fill-opacity="1" /><path clip-path="url(#clip200)" d="M2360.26 1021.9 Q2363.62 1022.62 2365.49 1024.89 Q2367.39 1027.15 2367.39 1030.49 Q2367.39 1035.6 2363.87 1038.4 Q2360.35 1041.2 2353.87 1041.2 Q2351.7 1041.2 2349.38 1040.76 Q2347.09 1040.35 2344.64 1039.49 L2344.64 1034.98 Q2346.58 1036.11 2348.89 1036.69 Q2351.21 1037.27 2353.73 1037.27 Q2358.13 1037.27 2360.42 1035.53 Q2362.74 1033.8 2362.74 1030.49 Q2362.74 1027.43 2360.58 1025.72 Q2358.45 1023.98 2354.64 1023.98 L2350.61 1023.98 L2350.61 1020.14 L2354.82 1020.14 Q2358.27 1020.14 2360.1 1018.77 Q2361.93 1017.39 2361.93 1014.79 Q2361.93 1012.13 2360.03 1010.72 Q2358.15 1009.28 2354.64 1009.28 Q2352.71 1009.28 2350.51 1009.7 Q2348.32 1010.12 2345.68 1011 L2345.68 1006.83 Q2348.34 1006.09 2350.65 1005.72 Q2352.99 1005.35 2355.05 1005.35 Q2360.38 1005.35 2363.48 1007.78 Q2366.58 1010.19 2366.58 1014.31 Q2366.58 1017.18 2364.94 1019.17 Q2363.29 1021.14 2360.26 1021.9 Z" fill="#000000" fill-rule="evenodd" fill-opacity="1" /><path clip-path="url(#clip200)" d="M2280.7 855.863 Q2277.09 855.863 2275.26 859.428 Q2273.45 862.97 2273.45 870.099 Q2273.45 877.206 2275.26 880.771 Q2277.09 884.312 2280.7 884.312 Q2284.33 884.312 2286.14 880.771 Q2287.97 877.206 2287.97 870.099 Q2287.97 862.97 2286.14 859.428 Q2284.33 855.863 2280.7 855.863 M2280.7 852.16 Q2286.51 852.16 2289.57 856.766 Q2292.64 861.349 2292.64 870.099 Q2292.64 878.826 2289.57 883.433 Q2286.51 888.016 2280.7 888.016 Q2274.89 888.016 2271.81 883.433 Q2268.76 878.826 2268.76 870.099 Q2268.76 861.349 2271.81 856.766 Q2274.89 852.16 2280.7 852.16 Z" fill="#000000" fill-rule="evenodd" fill-opacity="1" /><path clip-path="url(#clip200)" d="M2300.86 881.465 L2305.75 881.465 L2305.75 887.345 L2300.86 887.345 L2300.86 881.465 Z" fill="#000000" fill-rule="evenodd" fill-opacity="1" /><path clip-path="url(#clip200)" d="M2325.93 855.863 Q2322.32 855.863 2320.49 859.428 Q2318.69 862.97 2318.69 870.099 Q2318.69 877.206 2320.49 880.771 Q2322.32 884.312 2325.93 884.312 Q2329.57 884.312 2331.37 880.771 Q2333.2 877.206 2333.2 870.099 Q2333.2 862.97 2331.37 859.428 Q2329.57 855.863 2325.93 855.863 M2325.93 852.16 Q2331.74 852.16 2334.8 856.766 Q2337.88 861.349 2337.88 870.099 Q2337.88 878.826 2334.8 883.433 Q2331.74 888.016 2325.93 888.016 Q2320.12 888.016 2317.04 883.433 Q2313.99 878.826 2313.99 870.099 Q2313.99 861.349 2317.04 856.766 Q2320.12 852.16 2325.93 852.16 Z" fill="#000000" fill-rule="evenodd" fill-opacity="1" /><path clip-path="url(#clip200)" d="M2358.94 856.859 L2347.14 875.308 L2358.94 875.308 L2358.94 856.859 M2357.71 852.785 L2363.59 852.785 L2363.59 875.308 L2368.52 875.308 L2368.52 879.196 L2363.59 879.196 L2363.59 887.345 L2358.94 887.345 L2358.94 879.196 L2343.34 879.196 L2343.34 874.683 L2357.71 852.785 Z" fill="#000000" fill-rule="evenodd" fill-opacity="1" /><path clip-path="url(#clip200)" d="M2280.7 702.675 Q2277.09 702.675 2275.26 706.239 Q2273.45 709.781 2273.45 716.911 Q2273.45 724.017 2275.26 727.582 Q2277.09 731.124 2280.7 731.124 Q2284.33 731.124 2286.14 727.582 Q2287.97 724.017 2287.97 716.911 Q2287.97 709.781 2286.14 706.239 Q2284.33 702.675 2280.7 702.675 M2280.7 698.971 Q2286.51 698.971 2289.57 703.577 Q2292.64 708.161 2292.64 716.911 Q2292.64 725.637 2289.57 730.244 Q2286.51 734.827 2280.7 734.827 Q2274.89 734.827 2271.81 730.244 Q2268.76 725.637 2268.76 716.911 Q2268.76 708.161 2271.81 703.577 Q2274.89 698.971 2280.7 698.971 Z" fill="#000000" fill-rule="evenodd" fill-opacity="1" /><path clip-path="url(#clip200)" d="M2300.86 728.276 L2305.75 728.276 L2305.75 734.156 L2300.86 734.156 L2300.86 728.276 Z" fill="#000000" fill-rule="evenodd" fill-opacity="1" /><path clip-path="url(#clip200)" d="M2325.93 702.675 Q2322.32 702.675 2320.49 706.239 Q2318.69 709.781 2318.69 716.911 Q2318.69 724.017 2320.49 727.582 Q2322.32 731.124 2325.93 731.124 Q2329.57 731.124 2331.37 727.582 Q2333.2 724.017 2333.2 716.911 Q2333.2 709.781 2331.37 706.239 Q2329.57 702.675 2325.93 702.675 M2325.93 698.971 Q2331.74 698.971 2334.8 703.577 Q2337.88 708.161 2337.88 716.911 Q2337.88 725.637 2334.8 730.244 Q2331.74 734.827 2325.93 734.827 Q2320.12 734.827 2317.04 730.244 Q2313.99 725.637 2313.99 716.911 Q2313.99 708.161 2317.04 703.577 Q2320.12 698.971 2325.93 698.971 Z" fill="#000000" fill-rule="evenodd" fill-opacity="1" /><path clip-path="url(#clip200)" d="M2346.14 699.596 L2364.5 699.596 L2364.5 703.531 L2350.42 703.531 L2350.42 712.003 Q2351.44 711.656 2352.46 711.494 Q2353.48 711.309 2354.5 711.309 Q2360.28 711.309 2363.66 714.48 Q2367.04 717.651 2367.04 723.068 Q2367.04 728.647 2363.57 731.749 Q2360.1 734.827 2353.78 734.827 Q2351.6 734.827 2349.33 734.457 Q2347.09 734.087 2344.68 733.346 L2344.68 728.647 Q2346.76 729.781 2348.99 730.337 Q2351.21 730.892 2353.69 730.892 Q2357.69 730.892 2360.03 728.786 Q2362.37 726.679 2362.37 723.068 Q2362.37 719.457 2360.03 717.35 Q2357.69 715.244 2353.69 715.244 Q2351.81 715.244 2349.94 715.661 Q2348.08 716.077 2346.14 716.957 L2346.14 699.596 Z" fill="#000000" fill-rule="evenodd" fill-opacity="1" /><path clip-path="url(#clip200)" d="M2280.7 549.486 Q2277.09 549.486 2275.26 553.051 Q2273.45 556.592 2273.45 563.722 Q2273.45 570.828 2275.26 574.393 Q2277.09 577.935 2280.7 577.935 Q2284.33 577.935 2286.14 574.393 Q2287.97 570.828 2287.97 563.722 Q2287.97 556.592 2286.14 553.051 Q2284.33 549.486 2280.7 549.486 M2280.7 545.782 Q2286.51 545.782 2289.57 550.389 Q2292.64 554.972 2292.64 563.722 Q2292.64 572.449 2289.57 577.055 Q2286.51 581.639 2280.7 581.639 Q2274.89 581.639 2271.81 577.055 Q2268.76 572.449 2268.76 563.722 Q2268.76 554.972 2271.81 550.389 Q2274.89 545.782 2280.7 545.782 Z" fill="#000000" fill-rule="evenodd" fill-opacity="1" /><path clip-path="url(#clip200)" d="M2300.86 575.088 L2305.75 575.088 L2305.75 580.967 L2300.86 580.967 L2300.86 575.088 Z" fill="#000000" fill-rule="evenodd" fill-opacity="1" /><path clip-path="url(#clip200)" d="M2325.93 549.486 Q2322.32 549.486 2320.49 553.051 Q2318.69 556.592 2318.69 563.722 Q2318.69 570.828 2320.49 574.393 Q2322.32 577.935 2325.93 577.935 Q2329.57 577.935 2331.37 574.393 Q2333.2 570.828 2333.2 563.722 Q2333.2 556.592 2331.37 553.051 Q2329.57 549.486 2325.93 549.486 M2325.93 545.782 Q2331.74 545.782 2334.8 550.389 Q2337.88 554.972 2337.88 563.722 Q2337.88 572.449 2334.8 577.055 Q2331.74 581.639 2325.93 581.639 Q2320.12 581.639 2317.04 577.055 Q2313.99 572.449 2313.99 563.722 Q2313.99 554.972 2317.04 550.389 Q2320.12 545.782 2325.93 545.782 Z" fill="#000000" fill-rule="evenodd" fill-opacity="1" /><path clip-path="url(#clip200)" d="M2356.67 561.824 Q2353.52 561.824 2351.67 563.977 Q2349.84 566.129 2349.84 569.879 Q2349.84 573.606 2351.67 575.782 Q2353.52 577.935 2356.67 577.935 Q2359.82 577.935 2361.65 575.782 Q2363.5 573.606 2363.5 569.879 Q2363.5 566.129 2361.65 563.977 Q2359.82 561.824 2356.67 561.824 M2365.95 547.171 L2365.95 551.43 Q2364.2 550.597 2362.39 550.157 Q2360.61 549.717 2358.85 549.717 Q2354.22 549.717 2351.76 552.842 Q2349.33 555.967 2348.99 562.287 Q2350.35 560.273 2352.41 559.208 Q2354.47 558.12 2356.95 558.12 Q2362.16 558.12 2365.17 561.292 Q2368.2 564.44 2368.2 569.879 Q2368.2 575.203 2365.05 578.421 Q2361.9 581.639 2356.67 581.639 Q2350.68 581.639 2347.51 577.055 Q2344.33 572.449 2344.33 563.722 Q2344.33 555.528 2348.22 550.667 Q2352.11 545.782 2358.66 545.782 Q2360.42 545.782 2362.2 546.13 Q2364.01 546.477 2365.95 547.171 Z" fill="#000000" fill-rule="evenodd" fill-opacity="1" /><path clip-path="url(#clip200)" d="M2280.7 396.297 Q2277.09 396.297 2275.26 399.862 Q2273.45 403.404 2273.45 410.533 Q2273.45 417.64 2275.26 421.205 Q2277.09 424.746 2280.7 424.746 Q2284.33 424.746 2286.14 421.205 Q2287.97 417.64 2287.97 410.533 Q2287.97 403.404 2286.14 399.862 Q2284.33 396.297 2280.7 396.297 M2280.7 392.594 Q2286.51 392.594 2289.57 397.2 Q2292.64 401.783 2292.64 410.533 Q2292.64 419.26 2289.57 423.867 Q2286.51 428.45 2280.7 428.45 Q2274.89 428.45 2271.81 423.867 Q2268.76 419.26 2268.76 410.533 Q2268.76 401.783 2271.81 397.2 Q2274.89 392.594 2280.7 392.594 Z" fill="#000000" fill-rule="evenodd" fill-opacity="1" /><path clip-path="url(#clip200)" d="M2300.86 421.899 L2305.75 421.899 L2305.75 427.779 L2300.86 427.779 L2300.86 421.899 Z" fill="#000000" fill-rule="evenodd" fill-opacity="1" /><path clip-path="url(#clip200)" d="M2325.93 396.297 Q2322.32 396.297 2320.49 399.862 Q2318.69 403.404 2318.69 410.533 Q2318.69 417.64 2320.49 421.205 Q2322.32 424.746 2325.93 424.746 Q2329.57 424.746 2331.37 421.205 Q2333.2 417.64 2333.2 410.533 Q2333.2 403.404 2331.37 399.862 Q2329.57 396.297 2325.93 396.297 M2325.93 392.594 Q2331.74 392.594 2334.8 397.2 Q2337.88 401.783 2337.88 410.533 Q2337.88 419.26 2334.8 423.867 Q2331.74 428.45 2325.93 428.45 Q2320.12 428.45 2317.04 423.867 Q2313.99 419.26 2313.99 410.533 Q2313.99 401.783 2317.04 397.2 Q2320.12 392.594 2325.93 392.594 Z" fill="#000000" fill-rule="evenodd" fill-opacity="1" /><path clip-path="url(#clip200)" d="M2344.91 393.219 L2367.14 393.219 L2367.14 395.209 L2354.59 427.779 L2349.7 427.779 L2361.51 397.154 L2344.91 397.154 L2344.91 393.219 Z" fill="#000000" fill-rule="evenodd" fill-opacity="1" /><path clip-path="url(#clip200)" d="M2280.7 243.109 Q2277.09 243.109 2275.26 246.674 Q2273.45 250.215 2273.45 257.345 Q2273.45 264.451 2275.26 268.016 Q2277.09 271.558 2280.7 271.558 Q2284.33 271.558 2286.14 268.016 Q2287.97 264.451 2287.97 257.345 Q2287.97 250.215 2286.14 246.674 Q2284.33 243.109 2280.7 243.109 M2280.7 239.405 Q2286.51 239.405 2289.57 244.012 Q2292.64 248.595 2292.64 257.345 Q2292.64 266.072 2289.57 270.678 Q2286.51 275.261 2280.7 275.261 Q2274.89 275.261 2271.81 270.678 Q2268.76 266.072 2268.76 257.345 Q2268.76 248.595 2271.81 244.012 Q2274.89 239.405 2280.7 239.405 Z" fill="#000000" fill-rule="evenodd" fill-opacity="1" /><path clip-path="url(#clip200)" d="M2300.86 268.71 L2305.75 268.71 L2305.75 274.59 L2300.86 274.59 L2300.86 268.71 Z" fill="#000000" fill-rule="evenodd" fill-opacity="1" /><path clip-path="url(#clip200)" d="M2325.93 243.109 Q2322.32 243.109 2320.49 246.674 Q2318.69 250.215 2318.69 257.345 Q2318.69 264.451 2320.49 268.016 Q2322.32 271.558 2325.93 271.558 Q2329.57 271.558 2331.37 268.016 Q2333.2 264.451 2333.2 257.345 Q2333.2 250.215 2331.37 246.674 Q2329.57 243.109 2325.93 243.109 M2325.93 239.405 Q2331.74 239.405 2334.8 244.012 Q2337.88 248.595 2337.88 257.345 Q2337.88 266.072 2334.8 270.678 Q2331.74 275.261 2325.93 275.261 Q2320.12 275.261 2317.04 270.678 Q2313.99 266.072 2313.99 257.345 Q2313.99 248.595 2317.04 244.012 Q2320.12 239.405 2325.93 239.405 Z" fill="#000000" fill-rule="evenodd" fill-opacity="1" /><path clip-path="url(#clip200)" d="M2356.09 258.178 Q2352.76 258.178 2350.84 259.961 Q2348.94 261.743 2348.94 264.868 Q2348.94 267.993 2350.84 269.775 Q2352.76 271.558 2356.09 271.558 Q2359.43 271.558 2361.35 269.775 Q2363.27 267.97 2363.27 264.868 Q2363.27 261.743 2361.35 259.961 Q2359.45 258.178 2356.09 258.178 M2351.42 256.187 Q2348.41 255.447 2346.72 253.386 Q2345.05 251.326 2345.05 248.363 Q2345.05 244.22 2347.99 241.812 Q2350.95 239.405 2356.09 239.405 Q2361.26 239.405 2364.2 241.812 Q2367.14 244.22 2367.14 248.363 Q2367.14 251.326 2365.45 253.386 Q2363.78 255.447 2360.79 256.187 Q2364.17 256.974 2366.05 259.266 Q2367.95 261.558 2367.95 264.868 Q2367.95 269.891 2364.87 272.576 Q2361.81 275.261 2356.09 275.261 Q2350.38 275.261 2347.3 272.576 Q2344.24 269.891 2344.24 264.868 Q2344.24 261.558 2346.14 259.266 Q2348.04 256.974 2351.42 256.187 M2349.7 248.803 Q2349.7 251.488 2351.37 252.993 Q2353.06 254.498 2356.09 254.498 Q2359.1 254.498 2360.79 252.993 Q2362.51 251.488 2362.51 248.803 Q2362.51 246.118 2360.79 244.613 Q2359.1 243.109 2356.09 243.109 Q2353.06 243.109 2351.37 244.613 Q2349.7 246.118 2349.7 248.803 Z" fill="#000000" fill-rule="evenodd" fill-opacity="1" /><path clip-path="url(#clip200)" d="M2280.7 89.9201 Q2277.09 89.9201 2275.26 93.4849 Q2273.45 97.0266 2273.45 104.156 Q2273.45 111.263 2275.26 114.827 Q2277.09 118.369 2280.7 118.369 Q2284.33 118.369 2286.14 114.827 Q2287.97 111.263 2287.97 104.156 Q2287.97 97.0266 2286.14 93.4849 Q2284.33 89.9201 2280.7 89.9201 M2280.7 86.2165 Q2286.51 86.2165 2289.57 90.8229 Q2292.64 95.4062 2292.64 104.156 Q2292.64 112.883 2289.57 117.489 Q2286.51 122.073 2280.7 122.073 Q2274.89 122.073 2271.81 117.489 Q2268.76 112.883 2268.76 104.156 Q2268.76 95.4062 2271.81 90.8229 Q2274.89 86.2165 2280.7 86.2165 Z" fill="#000000" fill-rule="evenodd" fill-opacity="1" /><path clip-path="url(#clip200)" d="M2300.86 115.522 L2305.75 115.522 L2305.75 121.401 L2300.86 121.401 L2300.86 115.522 Z" fill="#000000" fill-rule="evenodd" fill-opacity="1" /><path clip-path="url(#clip200)" d="M2325.93 89.9201 Q2322.32 89.9201 2320.49 93.4849 Q2318.69 97.0266 2318.69 104.156 Q2318.69 111.263 2320.49 114.827 Q2322.32 118.369 2325.93 118.369 Q2329.57 118.369 2331.37 114.827 Q2333.2 111.263 2333.2 104.156 Q2333.2 97.0266 2331.37 93.4849 Q2329.57 89.9201 2325.93 89.9201 M2325.93 86.2165 Q2331.74 86.2165 2334.8 90.8229 Q2337.88 95.4062 2337.88 104.156 Q2337.88 112.883 2334.8 117.489 Q2331.74 122.073 2325.93 122.073 Q2320.12 122.073 2317.04 117.489 Q2313.99 112.883 2313.99 104.156 Q2313.99 95.4062 2317.04 90.8229 Q2320.12 86.2165 2325.93 86.2165 Z" fill="#000000" fill-rule="evenodd" fill-opacity="1" /><path clip-path="url(#clip200)" d="M2346.23 120.684 L2346.23 116.425 Q2347.99 117.258 2349.8 117.698 Q2351.6 118.138 2353.34 118.138 Q2357.97 118.138 2360.4 115.036 Q2362.85 111.911 2363.2 105.568 Q2361.86 107.559 2359.8 108.624 Q2357.74 109.689 2355.24 109.689 Q2350.05 109.689 2347.02 106.564 Q2344.01 103.415 2344.01 97.9757 Q2344.01 92.6516 2347.16 89.434 Q2350.31 86.2165 2355.54 86.2165 Q2361.53 86.2165 2364.68 90.8229 Q2367.85 95.4062 2367.85 104.156 Q2367.85 112.327 2363.96 117.212 Q2360.1 122.073 2353.55 122.073 Q2351.79 122.073 2349.98 121.726 Q2348.18 121.378 2346.23 120.684 M2355.54 106.031 Q2358.69 106.031 2360.51 103.878 Q2362.37 101.726 2362.37 97.9757 Q2362.37 94.2488 2360.51 92.0961 Q2358.69 89.9201 2355.54 89.9201 Q2352.39 89.9201 2350.54 92.0961 Q2348.71 94.2488 2348.71 97.9757 Q2348.71 101.726 2350.54 103.878 Q2352.39 106.031 2355.54 106.031 Z" fill="#000000" fill-rule="evenodd" fill-opacity="1" /><polyline clip-path="url(#clip200)" style="stroke:#000000; stroke-linecap:round; stroke-linejoin:round; stroke-width:4; stroke-opacity:1; fill:none" points="
  2232.76,1486.45 2232.76,1333.26 2256.76,1333.26 2232.76,1333.26 2232.76,1180.07 2256.76,1180.07 2232.76,1180.07 2232.76,1026.88 2256.76,1026.88 2232.76,1026.88 
  2232.76,873.693 2256.76,873.693 2232.76,873.693 2232.76,720.505 2256.76,720.505 2232.76,720.505 2232.76,567.316 2256.76,567.316 2232.76,567.316 2232.76,414.128 
  2256.76,414.128 2232.76,414.128 2232.76,260.939 2256.76,260.939 2232.76,260.939 2232.76,107.75 2256.76,107.75 2232.76,107.75 2232.76,47.2441 
  "/>
</svg>
