<?xml version="1.0" encoding="utf-8"?>
<svg xmlns="http://www.w3.org/2000/svg" xmlns:xlink="http://www.w3.org/1999/xlink" width="600" height="400" viewBox="0 0 2400 1600">
<defs>
  <clipPath id="clip690">
    <rect x="0" y="0" width="2400" height="1600"/>
  </clipPath>
</defs>
<path clip-path="url(#clip690)" d="
M0 1600 L2400 1600 L2400 0 L0 0  Z
  " fill="#ffffff" fill-rule="evenodd" fill-opacity="1"/>
<defs>
  <clipPath id="clip691">
    <rect x="480" y="0" width="1681" height="1600"/>
  </clipPath>
</defs>
<path clip-path="url(#clip690)" d="
M186.274 1486.45 L2352.76 1486.45 L2352.76 47.2441 L186.274 47.2441  Z
  " fill="#ffffff" fill-rule="evenodd" fill-opacity="1"/>
<defs>
  <clipPath id="clip692">
    <rect x="186" y="47" width="2167" height="1440"/>
  </clipPath>
</defs>
<polyline clip-path="url(#clip692)" style="stroke:#000000; stroke-linecap:round; stroke-linejoin:round; stroke-width:2; stroke-opacity:0.1; fill:none" points="
  451.975,1486.45 451.975,47.2441 
  "/>
<polyline clip-path="url(#clip692)" style="stroke:#000000; stroke-linecap:round; stroke-linejoin:round; stroke-width:2; stroke-opacity:0.1; fill:none" points="
  860.745,1486.45 860.745,47.2441 
  "/>
<polyline clip-path="url(#clip692)" style="stroke:#000000; stroke-linecap:round; stroke-linejoin:round; stroke-width:2; stroke-opacity:0.1; fill:none" points="
  1269.51,1486.45 1269.51,47.2441 
  "/>
<polyline clip-path="url(#clip692)" style="stroke:#000000; stroke-linecap:round; stroke-linejoin:round; stroke-width:2; stroke-opacity:0.1; fill:none" points="
  1678.29,1486.45 1678.29,47.2441 
  "/>
<polyline clip-path="url(#clip692)" style="stroke:#000000; stroke-linecap:round; stroke-linejoin:round; stroke-width:2; stroke-opacity:0.1; fill:none" points="
  2087.06,1486.45 2087.06,47.2441 
  "/>
<polyline clip-path="url(#clip690)" style="stroke:#000000; stroke-linecap:round; stroke-linejoin:round; stroke-width:4; stroke-opacity:1; fill:none" points="
  186.274,1486.45 2352.76,1486.45 
  "/>
<polyline clip-path="url(#clip690)" style="stroke:#000000; stroke-linecap:round; stroke-linejoin:round; stroke-width:4; stroke-opacity:1; fill:none" points="
  451.975,1486.45 451.975,1467.55 
  "/>
<polyline clip-path="url(#clip690)" style="stroke:#000000; stroke-linecap:round; stroke-linejoin:round; stroke-width:4; stroke-opacity:1; fill:none" points="
  860.745,1486.45 860.745,1467.55 
  "/>
<polyline clip-path="url(#clip690)" style="stroke:#000000; stroke-linecap:round; stroke-linejoin:round; stroke-width:4; stroke-opacity:1; fill:none" points="
  1269.51,1486.45 1269.51,1467.55 
  "/>
<polyline clip-path="url(#clip690)" style="stroke:#000000; stroke-linecap:round; stroke-linejoin:round; stroke-width:4; stroke-opacity:1; fill:none" points="
  1678.29,1486.45 1678.29,1467.55 
  "/>
<polyline clip-path="url(#clip690)" style="stroke:#000000; stroke-linecap:round; stroke-linejoin:round; stroke-width:4; stroke-opacity:1; fill:none" points="
  2087.06,1486.45 2087.06,1467.55 
  "/>
<path clip-path="url(#clip690)" d="M446.627 1544.91 L462.947 1544.91 L462.947 1548.85 L441.002 1548.85 L441.002 1544.91 Q443.664 1542.16 448.248 1537.53 Q452.854 1532.88 454.035 1531.53 Q456.28 1529.01 457.16 1527.27 Q458.063 1525.51 458.063 1523.82 Q458.063 1521.07 456.118 1519.33 Q454.197 1517.6 451.095 1517.6 Q448.896 1517.6 446.442 1518.36 Q444.012 1519.13 441.234 1520.68 L441.234 1515.95 Q444.058 1514.82 446.512 1514.24 Q448.965 1513.66 451.002 1513.66 Q456.373 1513.66 459.567 1516.35 Q462.762 1519.03 462.762 1523.52 Q462.762 1525.65 461.951 1527.57 Q461.164 1529.47 459.058 1532.07 Q458.479 1532.74 455.377 1535.95 Q452.276 1539.15 446.627 1544.91 Z" fill="#000000" fill-rule="evenodd" fill-opacity="1" /><path clip-path="url(#clip690)" d="M863.754 1518.36 L851.949 1536.81 L863.754 1536.81 L863.754 1518.36 M862.527 1514.29 L868.407 1514.29 L868.407 1536.81 L873.337 1536.81 L873.337 1540.7 L868.407 1540.7 L868.407 1548.85 L863.754 1548.85 L863.754 1540.7 L848.152 1540.7 L848.152 1536.19 L862.527 1514.29 Z" fill="#000000" fill-rule="evenodd" fill-opacity="1" /><path clip-path="url(#clip690)" d="M1269.92 1529.7 Q1266.77 1529.7 1264.92 1531.86 Q1263.09 1534.01 1263.09 1537.76 Q1263.09 1541.49 1264.92 1543.66 Q1266.77 1545.82 1269.92 1545.82 Q1273.07 1545.82 1274.9 1543.66 Q1276.75 1541.49 1276.75 1537.76 Q1276.75 1534.01 1274.9 1531.86 Q1273.07 1529.7 1269.92 1529.7 M1279.2 1515.05 L1279.2 1519.31 Q1277.44 1518.48 1275.64 1518.04 Q1273.86 1517.6 1272.1 1517.6 Q1267.47 1517.6 1265.01 1520.72 Q1262.58 1523.85 1262.23 1530.17 Q1263.6 1528.15 1265.66 1527.09 Q1267.72 1526 1270.2 1526 Q1275.41 1526 1278.42 1529.17 Q1281.45 1532.32 1281.45 1537.76 Q1281.45 1543.08 1278.3 1546.3 Q1275.15 1549.52 1269.92 1549.52 Q1263.92 1549.52 1260.75 1544.94 Q1257.58 1540.33 1257.58 1531.6 Q1257.58 1523.41 1261.47 1518.55 Q1265.36 1513.66 1271.91 1513.66 Q1273.67 1513.66 1275.45 1514.01 Q1277.26 1514.36 1279.2 1515.05 Z" fill="#000000" fill-rule="evenodd" fill-opacity="1" /><path clip-path="url(#clip690)" d="M1678.29 1532.44 Q1674.95 1532.44 1673.03 1534.22 Q1671.13 1536 1671.13 1539.13 Q1671.13 1542.25 1673.03 1544.03 Q1674.95 1545.82 1678.29 1545.82 Q1681.62 1545.82 1683.54 1544.03 Q1685.46 1542.23 1685.46 1539.13 Q1685.46 1536 1683.54 1534.22 Q1681.64 1532.44 1678.29 1532.44 M1673.61 1530.45 Q1670.6 1529.7 1668.91 1527.64 Q1667.24 1525.58 1667.24 1522.62 Q1667.24 1518.48 1670.18 1516.07 Q1673.15 1513.66 1678.29 1513.66 Q1683.45 1513.66 1686.39 1516.07 Q1689.33 1518.48 1689.33 1522.62 Q1689.33 1525.58 1687.64 1527.64 Q1685.97 1529.7 1682.98 1530.45 Q1686.36 1531.23 1688.24 1533.52 Q1690.14 1535.82 1690.14 1539.13 Q1690.14 1544.15 1687.06 1546.83 Q1684 1549.52 1678.29 1549.52 Q1672.57 1549.52 1669.49 1546.83 Q1666.43 1544.15 1666.43 1539.13 Q1666.43 1535.82 1668.33 1533.52 Q1670.23 1531.23 1673.61 1530.45 M1671.9 1523.06 Q1671.9 1525.75 1673.56 1527.25 Q1675.25 1528.76 1678.29 1528.76 Q1681.29 1528.76 1682.98 1527.25 Q1684.7 1525.75 1684.7 1523.06 Q1684.7 1520.38 1682.98 1518.87 Q1681.29 1517.37 1678.29 1517.37 Q1675.25 1517.37 1673.56 1518.87 Q1671.9 1520.38 1671.9 1523.06 Z" fill="#000000" fill-rule="evenodd" fill-opacity="1" /><path clip-path="url(#clip690)" d="M2061.74 1544.91 L2069.38 1544.91 L2069.38 1518.55 L2061.07 1520.21 L2061.07 1515.95 L2069.34 1514.29 L2074.01 1514.29 L2074.01 1544.91 L2081.65 1544.91 L2081.65 1548.85 L2061.74 1548.85 L2061.74 1544.91 Z" fill="#000000" fill-rule="evenodd" fill-opacity="1" /><path clip-path="url(#clip690)" d="M2101.09 1517.37 Q2097.48 1517.37 2095.65 1520.93 Q2093.85 1524.47 2093.85 1531.6 Q2093.85 1538.71 2095.65 1542.27 Q2097.48 1545.82 2101.09 1545.82 Q2104.73 1545.82 2106.53 1542.27 Q2108.36 1538.71 2108.36 1531.6 Q2108.36 1524.47 2106.53 1520.93 Q2104.73 1517.37 2101.09 1517.37 M2101.09 1513.66 Q2106.9 1513.66 2109.96 1518.27 Q2113.04 1522.85 2113.04 1531.6 Q2113.04 1540.33 2109.96 1544.94 Q2106.9 1549.52 2101.09 1549.52 Q2095.28 1549.52 2092.21 1544.94 Q2089.15 1540.33 2089.15 1531.6 Q2089.15 1522.85 2092.21 1518.27 Q2095.28 1513.66 2101.09 1513.66 Z" fill="#000000" fill-rule="evenodd" fill-opacity="1" /><polyline clip-path="url(#clip692)" style="stroke:#000000; stroke-linecap:round; stroke-linejoin:round; stroke-width:2; stroke-opacity:0.1; fill:none" points="
  186.274,1403.05 2352.76,1403.05 
  "/>
<polyline clip-path="url(#clip692)" style="stroke:#000000; stroke-linecap:round; stroke-linejoin:round; stroke-width:2; stroke-opacity:0.1; fill:none" points="
  186.274,1074.28 2352.76,1074.28 
  "/>
<polyline clip-path="url(#clip692)" style="stroke:#000000; stroke-linecap:round; stroke-linejoin:round; stroke-width:2; stroke-opacity:0.1; fill:none" points="
  186.274,745.513 2352.76,745.513 
  "/>
<polyline clip-path="url(#clip692)" style="stroke:#000000; stroke-linecap:round; stroke-linejoin:round; stroke-width:2; stroke-opacity:0.1; fill:none" points="
  186.274,416.745 2352.76,416.745 
  "/>
<polyline clip-path="url(#clip692)" style="stroke:#000000; stroke-linecap:round; stroke-linejoin:round; stroke-width:2; stroke-opacity:0.1; fill:none" points="
  186.274,87.9763 2352.76,87.9763 
  "/>
<polyline clip-path="url(#clip690)" style="stroke:#000000; stroke-linecap:round; stroke-linejoin:round; stroke-width:4; stroke-opacity:1; fill:none" points="
  186.274,1486.45 186.274,47.2441 
  "/>
<polyline clip-path="url(#clip690)" style="stroke:#000000; stroke-linecap:round; stroke-linejoin:round; stroke-width:4; stroke-opacity:1; fill:none" points="
  186.274,1403.05 205.172,1403.05 
  "/>
<polyline clip-path="url(#clip690)" style="stroke:#000000; stroke-linecap:round; stroke-linejoin:round; stroke-width:4; stroke-opacity:1; fill:none" points="
  186.274,1074.28 205.172,1074.28 
  "/>
<polyline clip-path="url(#clip690)" style="stroke:#000000; stroke-linecap:round; stroke-linejoin:round; stroke-width:4; stroke-opacity:1; fill:none" points="
  186.274,745.513 205.172,745.513 
  "/>
<polyline clip-path="url(#clip690)" style="stroke:#000000; stroke-linecap:round; stroke-linejoin:round; stroke-width:4; stroke-opacity:1; fill:none" points="
  186.274,416.745 205.172,416.745 
  "/>
<polyline clip-path="url(#clip690)" style="stroke:#000000; stroke-linecap:round; stroke-linejoin:round; stroke-width:4; stroke-opacity:1; fill:none" points="
  186.274,87.9763 205.172,87.9763 
  "/>
<path clip-path="url(#clip690)" d="M62.9365 1388.85 Q59.3254 1388.85 57.4967 1392.41 Q55.6912 1395.96 55.6912 1403.08 Q55.6912 1410.19 57.4967 1413.76 Q59.3254 1417.3 62.9365 1417.3 Q66.5707 1417.3 68.3763 1413.76 Q70.205 1410.19 70.205 1403.08 Q70.205 1395.96 68.3763 1392.41 Q66.5707 1388.85 62.9365 1388.85 M62.9365 1385.15 Q68.7467 1385.15 71.8022 1389.75 Q74.8809 1394.33 74.8809 1403.08 Q74.8809 1411.81 71.8022 1416.42 Q68.7467 1421 62.9365 1421 Q57.1264 1421 54.0477 1416.42 Q50.9921 1411.81 50.9921 1403.08 Q50.9921 1394.33 54.0477 1389.75 Q57.1264 1385.15 62.9365 1385.15 Z" fill="#000000" fill-rule="evenodd" fill-opacity="1" /><path clip-path="url(#clip690)" d="M83.0984 1414.45 L87.9827 1414.45 L87.9827 1420.33 L83.0984 1420.33 L83.0984 1414.45 Z" fill="#000000" fill-rule="evenodd" fill-opacity="1" /><path clip-path="url(#clip690)" d="M108.168 1388.85 Q104.557 1388.85 102.728 1392.41 Q100.922 1395.96 100.922 1403.08 Q100.922 1410.19 102.728 1413.76 Q104.557 1417.3 108.168 1417.3 Q111.802 1417.3 113.608 1413.76 Q115.436 1410.19 115.436 1403.08 Q115.436 1395.96 113.608 1392.41 Q111.802 1388.85 108.168 1388.85 M108.168 1385.15 Q113.978 1385.15 117.033 1389.75 Q120.112 1394.33 120.112 1403.08 Q120.112 1411.81 117.033 1416.42 Q113.978 1421 108.168 1421 Q102.358 1421 99.2789 1416.42 Q96.2234 1411.81 96.2234 1403.08 Q96.2234 1394.33 99.2789 1389.75 Q102.358 1385.15 108.168 1385.15 Z" fill="#000000" fill-rule="evenodd" fill-opacity="1" /><path clip-path="url(#clip690)" d="M138.33 1388.85 Q134.719 1388.85 132.89 1392.41 Q131.084 1395.96 131.084 1403.08 Q131.084 1410.19 132.89 1413.76 Q134.719 1417.3 138.33 1417.3 Q141.964 1417.3 143.769 1413.76 Q145.598 1410.19 145.598 1403.08 Q145.598 1395.96 143.769 1392.41 Q141.964 1388.85 138.33 1388.85 M138.33 1385.15 Q144.14 1385.15 147.195 1389.75 Q150.274 1394.33 150.274 1403.08 Q150.274 1411.81 147.195 1416.42 Q144.14 1421 138.33 1421 Q132.519 1421 129.441 1416.42 Q126.385 1411.81 126.385 1403.08 Q126.385 1394.33 129.441 1389.75 Q132.519 1385.15 138.33 1385.15 Z" fill="#000000" fill-rule="evenodd" fill-opacity="1" /><path clip-path="url(#clip690)" d="M63.9319 1060.08 Q60.3208 1060.08 58.4921 1063.65 Q56.6865 1067.19 56.6865 1074.32 Q56.6865 1081.42 58.4921 1084.99 Q60.3208 1088.53 63.9319 1088.53 Q67.5661 1088.53 69.3717 1084.99 Q71.2004 1081.42 71.2004 1074.32 Q71.2004 1067.19 69.3717 1063.65 Q67.5661 1060.08 63.9319 1060.08 M63.9319 1056.38 Q69.742 1056.38 72.7976 1060.98 Q75.8763 1065.57 75.8763 1074.32 Q75.8763 1083.04 72.7976 1087.65 Q69.742 1092.23 63.9319 1092.23 Q58.1217 1092.23 55.043 1087.65 Q51.9875 1083.04 51.9875 1074.32 Q51.9875 1065.57 55.043 1060.98 Q58.1217 1056.38 63.9319 1056.38 Z" fill="#000000" fill-rule="evenodd" fill-opacity="1" /><path clip-path="url(#clip690)" d="M84.0938 1085.68 L88.978 1085.68 L88.978 1091.56 L84.0938 1091.56 L84.0938 1085.68 Z" fill="#000000" fill-rule="evenodd" fill-opacity="1" /><path clip-path="url(#clip690)" d="M103.191 1087.63 L119.51 1087.63 L119.51 1091.56 L97.566 1091.56 L97.566 1087.63 Q100.228 1084.87 104.811 1080.24 Q109.418 1075.59 110.598 1074.25 Q112.844 1071.72 113.723 1069.99 Q114.626 1068.23 114.626 1066.54 Q114.626 1063.78 112.682 1062.05 Q110.76 1060.31 107.658 1060.31 Q105.459 1060.31 103.006 1061.08 Q100.575 1061.84 97.7974 1063.39 L97.7974 1058.67 Q100.621 1057.53 103.075 1056.96 Q105.529 1056.38 107.566 1056.38 Q112.936 1056.38 116.131 1059.06 Q119.325 1061.75 119.325 1066.24 Q119.325 1068.37 118.515 1070.29 Q117.728 1072.19 115.621 1074.78 Q115.043 1075.45 111.941 1078.67 Q108.839 1081.86 103.191 1087.63 Z" fill="#000000" fill-rule="evenodd" fill-opacity="1" /><path clip-path="url(#clip690)" d="M129.371 1057 L147.728 1057 L147.728 1060.94 L133.654 1060.94 L133.654 1069.41 Q134.672 1069.06 135.691 1068.9 Q136.709 1068.71 137.728 1068.71 Q143.515 1068.71 146.894 1071.89 Q150.274 1075.06 150.274 1080.47 Q150.274 1086.05 146.802 1089.15 Q143.33 1092.23 137.01 1092.23 Q134.834 1092.23 132.566 1091.86 Q130.32 1091.49 127.913 1090.75 L127.913 1086.05 Q129.996 1087.19 132.219 1087.74 Q134.441 1088.3 136.918 1088.3 Q140.922 1088.3 143.26 1086.19 Q145.598 1084.08 145.598 1080.47 Q145.598 1076.86 143.26 1074.76 Q140.922 1072.65 136.918 1072.65 Q135.043 1072.65 133.168 1073.07 Q131.316 1073.48 129.371 1074.36 L129.371 1057 Z" fill="#000000" fill-rule="evenodd" fill-opacity="1" /><path clip-path="url(#clip690)" d="M62.9365 731.312 Q59.3254 731.312 57.4967 734.877 Q55.6912 738.418 55.6912 745.548 Q55.6912 752.654 57.4967 756.219 Q59.3254 759.761 62.9365 759.761 Q66.5707 759.761 68.3763 756.219 Q70.205 752.654 70.205 745.548 Q70.205 738.418 68.3763 734.877 Q66.5707 731.312 62.9365 731.312 M62.9365 727.608 Q68.7467 727.608 71.8022 732.215 Q74.8809 736.798 74.8809 745.548 Q74.8809 754.275 71.8022 758.881 Q68.7467 763.465 62.9365 763.465 Q57.1264 763.465 54.0477 758.881 Q50.9921 754.275 50.9921 745.548 Q50.9921 736.798 54.0477 732.215 Q57.1264 727.608 62.9365 727.608 Z" fill="#000000" fill-rule="evenodd" fill-opacity="1" /><path clip-path="url(#clip690)" d="M83.0984 756.914 L87.9827 756.914 L87.9827 762.793 L83.0984 762.793 L83.0984 756.914 Z" fill="#000000" fill-rule="evenodd" fill-opacity="1" /><path clip-path="url(#clip690)" d="M98.2141 728.233 L116.57 728.233 L116.57 732.168 L102.496 732.168 L102.496 740.641 Q103.515 740.293 104.534 740.131 Q105.552 739.946 106.571 739.946 Q112.358 739.946 115.737 743.117 Q119.117 746.289 119.117 751.705 Q119.117 757.284 115.645 760.386 Q112.172 763.465 105.853 763.465 Q103.677 763.465 101.409 763.094 Q99.1632 762.724 96.7558 761.983 L96.7558 757.284 Q98.8391 758.418 101.061 758.974 Q103.284 759.529 105.76 759.529 Q109.765 759.529 112.103 757.423 Q114.441 755.316 114.441 751.705 Q114.441 748.094 112.103 745.988 Q109.765 743.881 105.76 743.881 Q103.885 743.881 102.01 744.298 Q100.159 744.715 98.2141 745.594 L98.2141 728.233 Z" fill="#000000" fill-rule="evenodd" fill-opacity="1" /><path clip-path="url(#clip690)" d="M138.33 731.312 Q134.719 731.312 132.89 734.877 Q131.084 738.418 131.084 745.548 Q131.084 752.654 132.89 756.219 Q134.719 759.761 138.33 759.761 Q141.964 759.761 143.769 756.219 Q145.598 752.654 145.598 745.548 Q145.598 738.418 143.769 734.877 Q141.964 731.312 138.33 731.312 M138.33 727.608 Q144.14 727.608 147.195 732.215 Q150.274 736.798 150.274 745.548 Q150.274 754.275 147.195 758.881 Q144.14 763.465 138.33 763.465 Q132.519 763.465 129.441 758.881 Q126.385 754.275 126.385 745.548 Q126.385 736.798 129.441 732.215 Q132.519 727.608 138.33 727.608 Z" fill="#000000" fill-rule="evenodd" fill-opacity="1" /><path clip-path="url(#clip690)" d="M63.9319 402.543 Q60.3208 402.543 58.4921 406.108 Q56.6865 409.65 56.6865 416.779 Q56.6865 423.886 58.4921 427.451 Q60.3208 430.992 63.9319 430.992 Q67.5661 430.992 69.3717 427.451 Q71.2004 423.886 71.2004 416.779 Q71.2004 409.65 69.3717 406.108 Q67.5661 402.543 63.9319 402.543 M63.9319 398.84 Q69.742 398.84 72.7976 403.446 Q75.8763 408.03 75.8763 416.779 Q75.8763 425.506 72.7976 430.113 Q69.742 434.696 63.9319 434.696 Q58.1217 434.696 55.043 430.113 Q51.9875 425.506 51.9875 416.779 Q51.9875 408.03 55.043 403.446 Q58.1217 398.84 63.9319 398.84 Z" fill="#000000" fill-rule="evenodd" fill-opacity="1" /><path clip-path="url(#clip690)" d="M84.0938 428.145 L88.978 428.145 L88.978 434.025 L84.0938 434.025 L84.0938 428.145 Z" fill="#000000" fill-rule="evenodd" fill-opacity="1" /><path clip-path="url(#clip690)" d="M97.9826 399.465 L120.205 399.465 L120.205 401.455 L107.658 434.025 L102.774 434.025 L114.58 403.4 L97.9826 403.4 L97.9826 399.465 Z" fill="#000000" fill-rule="evenodd" fill-opacity="1" /><path clip-path="url(#clip690)" d="M129.371 399.465 L147.728 399.465 L147.728 403.4 L133.654 403.4 L133.654 411.872 Q134.672 411.525 135.691 411.363 Q136.709 411.178 137.728 411.178 Q143.515 411.178 146.894 414.349 Q150.274 417.52 150.274 422.937 Q150.274 428.516 146.802 431.617 Q143.33 434.696 137.01 434.696 Q134.834 434.696 132.566 434.326 Q130.32 433.955 127.913 433.215 L127.913 428.516 Q129.996 429.65 132.219 430.205 Q134.441 430.761 136.918 430.761 Q140.922 430.761 143.26 428.654 Q145.598 426.548 145.598 422.937 Q145.598 419.326 143.26 417.219 Q140.922 415.113 136.918 415.113 Q135.043 415.113 133.168 415.529 Q131.316 415.946 129.371 416.826 L129.371 399.465 Z" fill="#000000" fill-rule="evenodd" fill-opacity="1" /><path clip-path="url(#clip690)" d="M53.7467 101.321 L61.3856 101.321 L61.3856 74.9555 L53.0754 76.6222 L53.0754 72.3629 L61.3393 70.6963 L66.0152 70.6963 L66.0152 101.321 L73.654 101.321 L73.654 105.256 L53.7467 105.256 L53.7467 101.321 Z" fill="#000000" fill-rule="evenodd" fill-opacity="1" /><path clip-path="url(#clip690)" d="M83.0984 99.3767 L87.9827 99.3767 L87.9827 105.256 L83.0984 105.256 L83.0984 99.3767 Z" fill="#000000" fill-rule="evenodd" fill-opacity="1" /><path clip-path="url(#clip690)" d="M108.168 73.775 Q104.557 73.775 102.728 77.3398 Q100.922 80.8814 100.922 88.011 Q100.922 95.1174 102.728 98.6822 Q104.557 102.224 108.168 102.224 Q111.802 102.224 113.608 98.6822 Q115.436 95.1174 115.436 88.011 Q115.436 80.8814 113.608 77.3398 Q111.802 73.775 108.168 73.775 M108.168 70.0713 Q113.978 70.0713 117.033 74.6777 Q120.112 79.261 120.112 88.011 Q120.112 96.7378 117.033 101.344 Q113.978 105.928 108.168 105.928 Q102.358 105.928 99.2789 101.344 Q96.2234 96.7378 96.2234 88.011 Q96.2234 79.261 99.2789 74.6777 Q102.358 70.0713 108.168 70.0713 Z" fill="#000000" fill-rule="evenodd" fill-opacity="1" /><path clip-path="url(#clip690)" d="M138.33 73.775 Q134.719 73.775 132.89 77.3398 Q131.084 80.8814 131.084 88.011 Q131.084 95.1174 132.89 98.6822 Q134.719 102.224 138.33 102.224 Q141.964 102.224 143.769 98.6822 Q145.598 95.1174 145.598 88.011 Q145.598 80.8814 143.769 77.3398 Q141.964 73.775 138.33 73.775 M138.33 70.0713 Q144.14 70.0713 147.195 74.6777 Q150.274 79.261 150.274 88.011 Q150.274 96.7378 147.195 101.344 Q144.14 105.928 138.33 105.928 Q132.519 105.928 129.441 101.344 Q126.385 96.7378 126.385 88.011 Q126.385 79.261 129.441 74.6777 Q132.519 70.0713 138.33 70.0713 Z" fill="#000000" fill-rule="evenodd" fill-opacity="1" /><polyline clip-path="url(#clip692)" style="stroke:#009af9; stroke-linecap:round; stroke-linejoin:round; stroke-width:12; stroke-opacity:1; fill:none" points="
  247.59,87.9763 451.975,749.322 656.36,930.136 860.745,1014.85 1065.13,1068.96 1269.51,1112.06 1473.9,1149.89 1678.29,1187.5 1882.67,1229.62 2087.06,1217.14 
  2291.44,1221.69 
  "/>
<polyline clip-path="url(#clip692)" style="stroke:#e26f46; stroke-linecap:round; stroke-linejoin:round; stroke-width:12; stroke-opacity:1; fill:none" points="
  247.59,87.9763 451.975,875.577 656.36,1105.22 860.745,1240.23 1065.13,1303.15 1269.51,1346.37 1473.9,1409.45 1678.29,1436.77 1882.67,1423.49 2087.06,1445.72 
  2291.44,1394.49 
  "/>
<polyline clip-path="url(#clip692)" style="stroke:#3da44d; stroke-linecap:round; stroke-linejoin:round; stroke-width:12; stroke-opacity:1; fill:none" points="
  247.59,87.9763 451.975,522.544 656.36,772.248 860.745,920.943 1065.13,1034.53 1269.51,1117.01 1473.9,1173.28 1678.29,1205.26 1882.67,1219.29 2087.06,1236.49 
  2291.44,1254.4 
  "/>
<polyline clip-path="url(#clip692)" style="stroke:#c271d2; stroke-linecap:round; stroke-linejoin:round; stroke-width:12; stroke-opacity:1; fill:none" points="
  247.59,87.9763 451.975,716.271 656.36,959.592 860.745,1096.24 1065.13,1161.74 1269.51,1225.2 1473.9,1279.02 1678.29,1301.05 1882.67,1332.18 2087.06,1348.51 
  2291.44,1364.12 
  "/>
<path clip-path="url(#clip690)" d="
M1885.81 354.418 L2280.54 354.418 L2280.54 95.2176 L1885.81 95.2176  Z
  " fill="#ffffff" fill-rule="evenodd" fill-opacity="1"/>
<polyline clip-path="url(#clip690)" style="stroke:#000000; stroke-linecap:round; stroke-linejoin:round; stroke-width:4; stroke-opacity:1; fill:none" points="
  1885.81,354.418 2280.54,354.418 2280.54,95.2176 1885.81,95.2176 1885.81,354.418 
  "/>
<polyline clip-path="url(#clip690)" style="stroke:#009af9; stroke-linecap:round; stroke-linejoin:round; stroke-width:12; stroke-opacity:1; fill:none" points="
  1909.89,147.058 2054.32,147.058 
  "/>
<path clip-path="url(#clip690)" d="M2078.39 129.778 L2083.07 129.778 L2083.07 143.944 L2100.06 143.944 L2100.06 129.778 L2104.73 129.778 L2104.73 164.338 L2100.06 164.338 L2100.06 147.879 L2083.07 147.879 L2083.07 164.338 L2078.39 164.338 L2078.39 129.778 Z" fill="#000000" fill-rule="evenodd" fill-opacity="1" /><path clip-path="url(#clip690)" d="M2114.04 129.778 L2121.01 129.778 L2129.82 153.296 L2138.69 129.778 L2145.66 129.778 L2145.66 164.338 L2141.1 164.338 L2141.1 133.99 L2132.19 157.694 L2127.49 157.694 L2118.58 133.99 L2118.58 164.338 L2114.04 164.338 L2114.04 129.778 Z" fill="#000000" fill-rule="evenodd" fill-opacity="1" /><path clip-path="url(#clip690)" d="M2180.82 132.44 L2180.82 137.37 Q2178.46 135.171 2175.77 134.083 Q2173.11 132.995 2170.1 132.995 Q2164.18 132.995 2161.03 136.629 Q2157.88 140.24 2157.88 147.092 Q2157.88 153.921 2161.03 157.555 Q2164.18 161.166 2170.1 161.166 Q2173.11 161.166 2175.77 160.078 Q2178.46 158.99 2180.82 156.791 L2180.82 161.676 Q2178.37 163.342 2175.61 164.176 Q2172.88 165.009 2169.82 165.009 Q2161.98 165.009 2157.46 160.217 Q2152.95 155.402 2152.95 147.092 Q2152.95 138.759 2157.46 133.967 Q2161.98 129.153 2169.82 129.153 Q2172.93 129.153 2175.66 129.986 Q2178.41 130.796 2180.82 132.44 Z" fill="#000000" fill-rule="evenodd" fill-opacity="1" /><polyline clip-path="url(#clip690)" style="stroke:#e26f46; stroke-linecap:round; stroke-linejoin:round; stroke-width:12; stroke-opacity:1; fill:none" points="
  1909.89,198.898 2054.32,198.898 
  "/>
<path clip-path="url(#clip690)" d="M2078.39 181.618 L2083.07 181.618 L2083.07 195.784 L2100.06 195.784 L2100.06 181.618 L2104.73 181.618 L2104.73 216.178 L2100.06 216.178 L2100.06 199.719 L2083.07 199.719 L2083.07 216.178 L2078.39 216.178 L2078.39 181.618 Z" fill="#000000" fill-rule="evenodd" fill-opacity="1" /><path clip-path="url(#clip690)" d="M2125.64 203.145 Q2120.47 203.145 2118.48 204.326 Q2116.49 205.506 2116.49 208.354 Q2116.49 210.622 2117.97 211.965 Q2119.48 213.284 2122.05 213.284 Q2125.59 213.284 2127.72 210.784 Q2129.87 208.261 2129.87 204.094 L2129.87 203.145 L2125.64 203.145 M2134.13 201.386 L2134.13 216.178 L2129.87 216.178 L2129.87 212.242 Q2128.41 214.603 2126.24 215.738 Q2124.06 216.849 2120.91 216.849 Q2116.93 216.849 2114.57 214.627 Q2112.23 212.381 2112.23 208.631 Q2112.23 204.256 2115.15 202.034 Q2118.09 199.812 2123.9 199.812 L2129.87 199.812 L2129.87 199.395 Q2129.87 196.455 2127.93 194.858 Q2126.01 193.238 2122.51 193.238 Q2120.29 193.238 2118.18 193.77 Q2116.08 194.303 2114.13 195.367 L2114.13 191.432 Q2116.47 190.53 2118.67 190.09 Q2120.87 189.627 2122.95 189.627 Q2128.57 189.627 2131.35 192.543 Q2134.13 195.46 2134.13 201.386 Z" fill="#000000" fill-rule="evenodd" fill-opacity="1" /><path clip-path="url(#clip690)" d="M2159.48 199.974 Q2160.98 200.483 2162.39 202.15 Q2163.83 203.817 2165.26 206.733 L2170.01 216.178 L2164.99 216.178 L2160.57 207.312 Q2158.85 203.84 2157.23 202.705 Q2155.64 201.571 2152.86 201.571 L2147.76 201.571 L2147.76 216.178 L2143.09 216.178 L2143.09 181.618 L2153.64 181.618 Q2159.57 181.618 2162.49 184.094 Q2165.4 186.571 2165.4 191.571 Q2165.4 194.835 2163.88 196.988 Q2162.37 199.141 2159.48 199.974 M2147.76 185.46 L2147.76 197.729 L2153.64 197.729 Q2157.02 197.729 2158.74 196.178 Q2160.47 194.604 2160.47 191.571 Q2160.47 188.539 2158.74 187.011 Q2157.02 185.46 2153.64 185.46 L2147.76 185.46 Z" fill="#000000" fill-rule="evenodd" fill-opacity="1" /><path clip-path="url(#clip690)" d="M2185.66 186.224 L2179.32 203.423 L2192.02 203.423 L2185.66 186.224 M2183.02 181.618 L2188.32 181.618 L2201.49 216.178 L2196.63 216.178 L2193.48 207.312 L2177.9 207.312 L2174.76 216.178 L2169.82 216.178 L2183.02 181.618 Z" fill="#000000" fill-rule="evenodd" fill-opacity="1" /><path clip-path="url(#clip690)" d="M2206.54 181.618 L2213.51 181.618 L2222.32 205.136 L2231.19 181.618 L2238.16 181.618 L2238.16 216.178 L2233.6 216.178 L2233.6 185.83 L2224.69 209.534 L2219.99 209.534 L2211.07 185.83 L2211.07 216.178 L2206.54 216.178 L2206.54 181.618 Z" fill="#000000" fill-rule="evenodd" fill-opacity="1" /><polyline clip-path="url(#clip690)" style="stroke:#3da44d; stroke-linecap:round; stroke-linejoin:round; stroke-width:12; stroke-opacity:1; fill:none" points="
  1909.89,250.738 2054.32,250.738 
  "/>
<path clip-path="url(#clip690)" d="M2094.78 251.814 Q2096.28 252.323 2097.7 253.99 Q2099.13 255.657 2100.57 258.573 L2105.31 268.018 L2100.29 268.018 L2095.87 259.152 Q2094.15 255.68 2092.53 254.545 Q2090.94 253.411 2088.16 253.411 L2083.07 253.411 L2083.07 268.018 L2078.39 268.018 L2078.39 233.458 L2088.95 233.458 Q2094.87 233.458 2097.79 235.934 Q2100.7 238.411 2100.7 243.411 Q2100.7 246.675 2099.18 248.828 Q2097.67 250.981 2094.78 251.814 M2083.07 237.3 L2083.07 249.569 L2088.95 249.569 Q2092.33 249.569 2094.04 248.018 Q2095.77 246.444 2095.77 243.411 Q2095.77 240.379 2094.04 238.851 Q2092.33 237.3 2088.95 237.3 L2083.07 237.3 Z" fill="#000000" fill-rule="evenodd" fill-opacity="1" /><path clip-path="url(#clip690)" d="M2120.96 238.064 L2114.62 255.263 L2127.32 255.263 L2120.96 238.064 M2118.32 233.458 L2123.62 233.458 L2136.79 268.018 L2131.93 268.018 L2128.78 259.152 L2113.2 259.152 L2110.06 268.018 L2105.13 268.018 L2118.32 233.458 Z" fill="#000000" fill-rule="evenodd" fill-opacity="1" /><path clip-path="url(#clip690)" d="M2141.84 233.458 L2148.81 233.458 L2157.63 256.976 L2166.49 233.458 L2173.46 233.458 L2173.46 268.018 L2168.9 268.018 L2168.9 237.67 L2159.99 261.374 L2155.29 261.374 L2146.38 237.67 L2146.38 268.018 L2141.84 268.018 L2141.84 233.458 Z" fill="#000000" fill-rule="evenodd" fill-opacity="1" /><polyline clip-path="url(#clip690)" style="stroke:#c271d2; stroke-linecap:round; stroke-linejoin:round; stroke-width:12; stroke-opacity:1; fill:none" points="
  1909.89,302.578 2054.32,302.578 
  "/>
<path clip-path="url(#clip690)" d="M2083.07 289.14 L2083.07 302.126 L2088.95 302.126 Q2092.21 302.126 2093.99 300.436 Q2095.77 298.747 2095.77 295.622 Q2095.77 292.52 2093.99 290.83 Q2092.21 289.14 2088.95 289.14 L2083.07 289.14 M2078.39 285.298 L2088.95 285.298 Q2094.76 285.298 2097.72 287.936 Q2100.7 290.552 2100.7 295.622 Q2100.7 300.737 2097.72 303.353 Q2094.76 305.969 2088.95 305.969 L2083.07 305.969 L2083.07 319.858 L2078.39 319.858 L2078.39 285.298 Z" fill="#000000" fill-rule="evenodd" fill-opacity="1" /><path clip-path="url(#clip690)" d="M2106.98 285.298 L2128.83 285.298 L2128.83 289.233 L2111.65 289.233 L2111.65 299.464 L2128.11 299.464 L2128.11 303.399 L2111.65 303.399 L2111.65 315.922 L2129.25 315.922 L2129.25 319.858 L2106.98 319.858 L2106.98 285.298 Z" fill="#000000" fill-rule="evenodd" fill-opacity="1" /><path clip-path="url(#clip690)" d="M2134.59 304.973 L2147.07 304.973 L2147.07 308.77 L2134.59 308.77 L2134.59 304.973 Z" fill="#000000" fill-rule="evenodd" fill-opacity="1" /><path clip-path="url(#clip690)" d="M2154.04 285.298 L2158.71 285.298 L2158.71 299.464 L2175.7 299.464 L2175.7 285.298 L2180.38 285.298 L2180.38 319.858 L2175.7 319.858 L2175.7 303.399 L2158.71 303.399 L2158.71 319.858 L2154.04 319.858 L2154.04 285.298 Z" fill="#000000" fill-rule="evenodd" fill-opacity="1" /><path clip-path="url(#clip690)" d="M2189.69 285.298 L2196.65 285.298 L2205.47 308.816 L2214.34 285.298 L2221.31 285.298 L2221.31 319.858 L2216.75 319.858 L2216.75 289.51 L2207.83 313.214 L2203.13 313.214 L2194.22 289.51 L2194.22 319.858 L2189.69 319.858 L2189.69 285.298 Z" fill="#000000" fill-rule="evenodd" fill-opacity="1" /><path clip-path="url(#clip690)" d="M2256.47 287.96 L2256.47 292.89 Q2254.11 290.691 2251.42 289.603 Q2248.76 288.515 2245.75 288.515 Q2239.82 288.515 2236.68 292.149 Q2233.53 295.76 2233.53 302.612 Q2233.53 309.441 2236.68 313.075 Q2239.82 316.686 2245.75 316.686 Q2248.76 316.686 2251.42 315.598 Q2254.11 314.51 2256.47 312.311 L2256.47 317.196 Q2254.01 318.862 2251.26 319.696 Q2248.53 320.529 2245.47 320.529 Q2237.63 320.529 2233.11 315.737 Q2228.6 310.922 2228.6 302.612 Q2228.6 294.279 2233.11 289.487 Q2237.63 284.673 2245.47 284.673 Q2248.57 284.673 2251.31 285.506 Q2254.06 286.316 2256.47 287.96 Z" fill="#000000" fill-rule="evenodd" fill-opacity="1" /></svg>
