<?xml version="1.0" encoding="utf-8"?>
<svg xmlns="http://www.w3.org/2000/svg" xmlns:xlink="http://www.w3.org/1999/xlink" width="600" height="400" viewBox="0 0 2400 1600">
<defs>
  <clipPath id="clip790">
    <rect x="0" y="0" width="2400" height="1600"/>
  </clipPath>
</defs>
<path clip-path="url(#clip790)" d="
M0 1600 L2400 1600 L2400 0 L0 0  Z
  " fill="#ffffff" fill-rule="evenodd" fill-opacity="1"/>
<defs>
  <clipPath id="clip791">
    <rect x="480" y="0" width="1681" height="1600"/>
  </clipPath>
</defs>
<path clip-path="url(#clip790)" d="
M186.274 1486.45 L2352.76 1486.45 L2352.76 123.472 L186.274 123.472  Z
  " fill="#ffffff" fill-rule="evenodd" fill-opacity="1"/>
<defs>
  <clipPath id="clip792">
    <rect x="186" y="123" width="2167" height="1364"/>
  </clipPath>
</defs>
<polyline clip-path="url(#clip792)" style="stroke:#000000; stroke-linecap:round; stroke-linejoin:round; stroke-width:2; stroke-opacity:0.1; fill:none" points="
  451.975,1486.45 451.975,123.472 
  "/>
<polyline clip-path="url(#clip792)" style="stroke:#000000; stroke-linecap:round; stroke-linejoin:round; stroke-width:2; stroke-opacity:0.1; fill:none" points="
  860.745,1486.45 860.745,123.472 
  "/>
<polyline clip-path="url(#clip792)" style="stroke:#000000; stroke-linecap:round; stroke-linejoin:round; stroke-width:2; stroke-opacity:0.1; fill:none" points="
  1269.51,1486.45 1269.51,123.472 
  "/>
<polyline clip-path="url(#clip792)" style="stroke:#000000; stroke-linecap:round; stroke-linejoin:round; stroke-width:2; stroke-opacity:0.1; fill:none" points="
  1678.29,1486.45 1678.29,123.472 
  "/>
<polyline clip-path="url(#clip792)" style="stroke:#000000; stroke-linecap:round; stroke-linejoin:round; stroke-width:2; stroke-opacity:0.1; fill:none" points="
  2087.06,1486.45 2087.06,123.472 
  "/>
<polyline clip-path="url(#clip790)" style="stroke:#000000; stroke-linecap:round; stroke-linejoin:round; stroke-width:4; stroke-opacity:1; fill:none" points="
  186.274,1486.45 2352.76,1486.45 
  "/>
<polyline clip-path="url(#clip790)" style="stroke:#000000; stroke-linecap:round; stroke-linejoin:round; stroke-width:4; stroke-opacity:1; fill:none" points="
  451.975,1486.45 451.975,1467.55 
  "/>
<polyline clip-path="url(#clip790)" style="stroke:#000000; stroke-linecap:round; stroke-linejoin:round; stroke-width:4; stroke-opacity:1; fill:none" points="
  860.745,1486.45 860.745,1467.55 
  "/>
<polyline clip-path="url(#clip790)" style="stroke:#000000; stroke-linecap:round; stroke-linejoin:round; stroke-width:4; stroke-opacity:1; fill:none" points="
  1269.51,1486.45 1269.51,1467.55 
  "/>
<polyline clip-path="url(#clip790)" style="stroke:#000000; stroke-linecap:round; stroke-linejoin:round; stroke-width:4; stroke-opacity:1; fill:none" points="
  1678.29,1486.45 1678.29,1467.55 
  "/>
<polyline clip-path="url(#clip790)" style="stroke:#000000; stroke-linecap:round; stroke-linejoin:round; stroke-width:4; stroke-opacity:1; fill:none" points="
  2087.06,1486.45 2087.06,1467.55 
  "/>
<path clip-path="url(#clip790)" d="M446.627 1544.91 L462.947 1544.91 L462.947 1548.85 L441.002 1548.85 L441.002 1544.91 Q443.664 1542.16 448.248 1537.53 Q452.854 1532.88 454.035 1531.53 Q456.28 1529.01 457.16 1527.27 Q458.063 1525.51 458.063 1523.82 Q458.063 1521.07 456.118 1519.33 Q454.197 1517.6 451.095 1517.6 Q448.896 1517.6 446.442 1518.36 Q444.012 1519.13 441.234 1520.68 L441.234 1515.95 Q444.058 1514.82 446.512 1514.24 Q448.965 1513.66 451.002 1513.66 Q456.373 1513.66 459.567 1516.35 Q462.762 1519.03 462.762 1523.52 Q462.762 1525.65 461.951 1527.57 Q461.164 1529.47 459.058 1532.07 Q458.479 1532.74 455.377 1535.95 Q452.276 1539.15 446.627 1544.91 Z" fill="#000000" fill-rule="evenodd" fill-opacity="1" /><path clip-path="url(#clip790)" d="M863.754 1518.36 L851.949 1536.81 L863.754 1536.81 L863.754 1518.36 M862.527 1514.29 L868.407 1514.29 L868.407 1536.81 L873.337 1536.81 L873.337 1540.7 L868.407 1540.7 L868.407 1548.85 L863.754 1548.85 L863.754 1540.7 L848.152 1540.7 L848.152 1536.19 L862.527 1514.29 Z" fill="#000000" fill-rule="evenodd" fill-opacity="1" /><path clip-path="url(#clip790)" d="M1269.92 1529.7 Q1266.77 1529.7 1264.92 1531.86 Q1263.09 1534.01 1263.09 1537.76 Q1263.09 1541.49 1264.92 1543.66 Q1266.77 1545.82 1269.92 1545.82 Q1273.07 1545.82 1274.9 1543.66 Q1276.75 1541.49 1276.75 1537.76 Q1276.75 1534.01 1274.9 1531.86 Q1273.07 1529.7 1269.92 1529.7 M1279.2 1515.05 L1279.2 1519.31 Q1277.44 1518.48 1275.64 1518.04 Q1273.86 1517.6 1272.1 1517.6 Q1267.47 1517.6 1265.01 1520.72 Q1262.58 1523.85 1262.23 1530.17 Q1263.6 1528.15 1265.66 1527.09 Q1267.72 1526 1270.2 1526 Q1275.41 1526 1278.42 1529.17 Q1281.45 1532.32 1281.45 1537.76 Q1281.45 1543.08 1278.3 1546.3 Q1275.15 1549.52 1269.92 1549.52 Q1263.92 1549.52 1260.75 1544.94 Q1257.58 1540.33 1257.58 1531.6 Q1257.58 1523.41 1261.47 1518.55 Q1265.36 1513.66 1271.91 1513.66 Q1273.67 1513.66 1275.45 1514.01 Q1277.26 1514.36 1279.2 1515.05 Z" fill="#000000" fill-rule="evenodd" fill-opacity="1" /><path clip-path="url(#clip790)" d="M1678.29 1532.44 Q1674.95 1532.44 1673.03 1534.22 Q1671.13 1536 1671.13 1539.13 Q1671.13 1542.25 1673.03 1544.03 Q1674.95 1545.82 1678.29 1545.82 Q1681.62 1545.82 1683.54 1544.03 Q1685.46 1542.23 1685.46 1539.13 Q1685.46 1536 1683.54 1534.22 Q1681.64 1532.44 1678.29 1532.44 M1673.61 1530.45 Q1670.6 1529.7 1668.91 1527.64 Q1667.24 1525.58 1667.24 1522.62 Q1667.24 1518.48 1670.18 1516.07 Q1673.15 1513.66 1678.29 1513.66 Q1683.45 1513.66 1686.39 1516.07 Q1689.33 1518.48 1689.33 1522.62 Q1689.33 1525.58 1687.64 1527.64 Q1685.97 1529.7 1682.98 1530.45 Q1686.36 1531.23 1688.24 1533.52 Q1690.14 1535.82 1690.14 1539.13 Q1690.14 1544.15 1687.06 1546.83 Q1684 1549.52 1678.29 1549.52 Q1672.57 1549.52 1669.49 1546.83 Q1666.43 1544.15 1666.43 1539.13 Q1666.43 1535.82 1668.33 1533.52 Q1670.23 1531.23 1673.61 1530.45 M1671.9 1523.06 Q1671.9 1525.75 1673.56 1527.25 Q1675.25 1528.76 1678.29 1528.76 Q1681.29 1528.76 1682.98 1527.25 Q1684.7 1525.75 1684.7 1523.06 Q1684.7 1520.38 1682.98 1518.87 Q1681.29 1517.37 1678.29 1517.37 Q1675.25 1517.37 1673.56 1518.87 Q1671.9 1520.38 1671.9 1523.06 Z" fill="#000000" fill-rule="evenodd" fill-opacity="1" /><path clip-path="url(#clip790)" d="M2061.74 1544.91 L2069.38 1544.91 L2069.38 1518.55 L2061.07 1520.21 L2061.07 1515.95 L2069.34 1514.29 L2074.01 1514.29 L2074.01 1544.91 L2081.65 1544.91 L2081.65 1548.85 L2061.74 1548.85 L2061.74 1544.91 Z" fill="#000000" fill-rule="evenodd" fill-opacity="1" /><path clip-path="url(#clip790)" d="M2101.09 1517.37 Q2097.48 1517.37 2095.65 1520.93 Q2093.85 1524.47 2093.85 1531.6 Q2093.85 1538.71 2095.65 1542.27 Q2097.48 1545.82 2101.09 1545.82 Q2104.73 1545.82 2106.53 1542.27 Q2108.36 1538.71 2108.36 1531.6 Q2108.36 1524.47 2106.53 1520.93 Q2104.73 1517.37 2101.09 1517.37 M2101.09 1513.66 Q2106.9 1513.66 2109.96 1518.27 Q2113.04 1522.85 2113.04 1531.6 Q2113.04 1540.33 2109.96 1544.94 Q2106.9 1549.52 2101.09 1549.52 Q2095.28 1549.52 2092.21 1544.94 Q2089.15 1540.33 2089.15 1531.6 Q2089.15 1522.85 2092.21 1518.27 Q2095.28 1513.66 2101.09 1513.66 Z" fill="#000000" fill-rule="evenodd" fill-opacity="1" /><polyline clip-path="url(#clip792)" style="stroke:#000000; stroke-linecap:round; stroke-linejoin:round; stroke-width:2; stroke-opacity:0.1; fill:none" points="
  186.274,1394.85 2352.76,1394.85 
  "/>
<polyline clip-path="url(#clip792)" style="stroke:#000000; stroke-linecap:round; stroke-linejoin:round; stroke-width:2; stroke-opacity:0.1; fill:none" points="
  186.274,1086.65 2352.76,1086.65 
  "/>
<polyline clip-path="url(#clip792)" style="stroke:#000000; stroke-linecap:round; stroke-linejoin:round; stroke-width:2; stroke-opacity:0.1; fill:none" points="
  186.274,778.45 2352.76,778.45 
  "/>
<polyline clip-path="url(#clip792)" style="stroke:#000000; stroke-linecap:round; stroke-linejoin:round; stroke-width:2; stroke-opacity:0.1; fill:none" points="
  186.274,470.248 2352.76,470.248 
  "/>
<polyline clip-path="url(#clip792)" style="stroke:#000000; stroke-linecap:round; stroke-linejoin:round; stroke-width:2; stroke-opacity:0.1; fill:none" points="
  186.274,162.047 2352.76,162.047 
  "/>
<polyline clip-path="url(#clip790)" style="stroke:#000000; stroke-linecap:round; stroke-linejoin:round; stroke-width:4; stroke-opacity:1; fill:none" points="
  186.274,1486.45 186.274,123.472 
  "/>
<polyline clip-path="url(#clip790)" style="stroke:#000000; stroke-linecap:round; stroke-linejoin:round; stroke-width:4; stroke-opacity:1; fill:none" points="
  186.274,1394.85 205.172,1394.85 
  "/>
<polyline clip-path="url(#clip790)" style="stroke:#000000; stroke-linecap:round; stroke-linejoin:round; stroke-width:4; stroke-opacity:1; fill:none" points="
  186.274,1086.65 205.172,1086.65 
  "/>
<polyline clip-path="url(#clip790)" style="stroke:#000000; stroke-linecap:round; stroke-linejoin:round; stroke-width:4; stroke-opacity:1; fill:none" points="
  186.274,778.45 205.172,778.45 
  "/>
<polyline clip-path="url(#clip790)" style="stroke:#000000; stroke-linecap:round; stroke-linejoin:round; stroke-width:4; stroke-opacity:1; fill:none" points="
  186.274,470.248 205.172,470.248 
  "/>
<polyline clip-path="url(#clip790)" style="stroke:#000000; stroke-linecap:round; stroke-linejoin:round; stroke-width:4; stroke-opacity:1; fill:none" points="
  186.274,162.047 205.172,162.047 
  "/>
<path clip-path="url(#clip790)" d="M62.9365 1380.65 Q59.3254 1380.65 57.4967 1384.22 Q55.6912 1387.76 55.6912 1394.89 Q55.6912 1401.99 57.4967 1405.56 Q59.3254 1409.1 62.9365 1409.1 Q66.5707 1409.1 68.3763 1405.56 Q70.205 1401.99 70.205 1394.89 Q70.205 1387.76 68.3763 1384.22 Q66.5707 1380.65 62.9365 1380.65 M62.9365 1376.95 Q68.7467 1376.95 71.8022 1381.55 Q74.8809 1386.14 74.8809 1394.89 Q74.8809 1403.61 71.8022 1408.22 Q68.7467 1412.8 62.9365 1412.8 Q57.1264 1412.8 54.0477 1408.22 Q50.9921 1403.61 50.9921 1394.89 Q50.9921 1386.14 54.0477 1381.55 Q57.1264 1376.95 62.9365 1376.95 Z" fill="#000000" fill-rule="evenodd" fill-opacity="1" /><path clip-path="url(#clip790)" d="M83.0984 1406.25 L87.9827 1406.25 L87.9827 1412.13 L83.0984 1412.13 L83.0984 1406.25 Z" fill="#000000" fill-rule="evenodd" fill-opacity="1" /><path clip-path="url(#clip790)" d="M108.168 1380.65 Q104.557 1380.65 102.728 1384.22 Q100.922 1387.76 100.922 1394.89 Q100.922 1401.99 102.728 1405.56 Q104.557 1409.1 108.168 1409.1 Q111.802 1409.1 113.608 1405.56 Q115.436 1401.99 115.436 1394.89 Q115.436 1387.76 113.608 1384.22 Q111.802 1380.65 108.168 1380.65 M108.168 1376.95 Q113.978 1376.95 117.033 1381.55 Q120.112 1386.14 120.112 1394.89 Q120.112 1403.61 117.033 1408.22 Q113.978 1412.8 108.168 1412.8 Q102.358 1412.8 99.2789 1408.22 Q96.2234 1403.61 96.2234 1394.89 Q96.2234 1386.14 99.2789 1381.55 Q102.358 1376.95 108.168 1376.95 Z" fill="#000000" fill-rule="evenodd" fill-opacity="1" /><path clip-path="url(#clip790)" d="M138.33 1380.65 Q134.719 1380.65 132.89 1384.22 Q131.084 1387.76 131.084 1394.89 Q131.084 1401.99 132.89 1405.56 Q134.719 1409.1 138.33 1409.1 Q141.964 1409.1 143.769 1405.56 Q145.598 1401.99 145.598 1394.89 Q145.598 1387.76 143.769 1384.22 Q141.964 1380.65 138.33 1380.65 M138.33 1376.95 Q144.14 1376.95 147.195 1381.55 Q150.274 1386.14 150.274 1394.89 Q150.274 1403.61 147.195 1408.22 Q144.14 1412.8 138.33 1412.8 Q132.519 1412.8 129.441 1408.22 Q126.385 1403.61 126.385 1394.89 Q126.385 1386.14 129.441 1381.55 Q132.519 1376.95 138.33 1376.95 Z" fill="#000000" fill-rule="evenodd" fill-opacity="1" /><path clip-path="url(#clip790)" d="M63.9319 1072.45 Q60.3208 1072.45 58.4921 1076.02 Q56.6865 1079.56 56.6865 1086.69 Q56.6865 1093.79 58.4921 1097.36 Q60.3208 1100.9 63.9319 1100.9 Q67.5661 1100.9 69.3717 1097.36 Q71.2004 1093.79 71.2004 1086.69 Q71.2004 1079.56 69.3717 1076.02 Q67.5661 1072.45 63.9319 1072.45 M63.9319 1068.75 Q69.742 1068.75 72.7976 1073.35 Q75.8763 1077.94 75.8763 1086.69 Q75.8763 1095.41 72.7976 1100.02 Q69.742 1104.6 63.9319 1104.6 Q58.1217 1104.6 55.043 1100.02 Q51.9875 1095.41 51.9875 1086.69 Q51.9875 1077.94 55.043 1073.35 Q58.1217 1068.75 63.9319 1068.75 Z" fill="#000000" fill-rule="evenodd" fill-opacity="1" /><path clip-path="url(#clip790)" d="M84.0938 1098.05 L88.978 1098.05 L88.978 1103.93 L84.0938 1103.93 L84.0938 1098.05 Z" fill="#000000" fill-rule="evenodd" fill-opacity="1" /><path clip-path="url(#clip790)" d="M103.191 1100 L119.51 1100 L119.51 1103.93 L97.566 1103.93 L97.566 1100 Q100.228 1097.24 104.811 1092.61 Q109.418 1087.96 110.598 1086.62 Q112.844 1084.09 113.723 1082.36 Q114.626 1080.6 114.626 1078.91 Q114.626 1076.15 112.682 1074.42 Q110.76 1072.68 107.658 1072.68 Q105.459 1072.68 103.006 1073.45 Q100.575 1074.21 97.7974 1075.76 L97.7974 1071.04 Q100.621 1069.9 103.075 1069.33 Q105.529 1068.75 107.566 1068.75 Q112.936 1068.75 116.131 1071.43 Q119.325 1074.12 119.325 1078.61 Q119.325 1080.74 118.515 1082.66 Q117.728 1084.56 115.621 1087.15 Q115.043 1087.82 111.941 1091.04 Q108.839 1094.23 103.191 1100 Z" fill="#000000" fill-rule="evenodd" fill-opacity="1" /><path clip-path="url(#clip790)" d="M129.371 1069.37 L147.728 1069.37 L147.728 1073.31 L133.654 1073.31 L133.654 1081.78 Q134.672 1081.43 135.691 1081.27 Q136.709 1081.08 137.728 1081.08 Q143.515 1081.08 146.894 1084.26 Q150.274 1087.43 150.274 1092.84 Q150.274 1098.42 146.802 1101.52 Q143.33 1104.6 137.01 1104.6 Q134.834 1104.6 132.566 1104.23 Q130.32 1103.86 127.913 1103.12 L127.913 1098.42 Q129.996 1099.56 132.219 1100.11 Q134.441 1100.67 136.918 1100.67 Q140.922 1100.67 143.26 1098.56 Q145.598 1096.45 145.598 1092.84 Q145.598 1089.23 143.26 1087.13 Q140.922 1085.02 136.918 1085.02 Q135.043 1085.02 133.168 1085.44 Q131.316 1085.85 129.371 1086.73 L129.371 1069.37 Z" fill="#000000" fill-rule="evenodd" fill-opacity="1" /><path clip-path="url(#clip790)" d="M62.9365 764.249 Q59.3254 764.249 57.4967 767.813 Q55.6912 771.355 55.6912 778.485 Q55.6912 785.591 57.4967 789.156 Q59.3254 792.698 62.9365 792.698 Q66.5707 792.698 68.3763 789.156 Q70.205 785.591 70.205 778.485 Q70.205 771.355 68.3763 767.813 Q66.5707 764.249 62.9365 764.249 M62.9365 760.545 Q68.7467 760.545 71.8022 765.151 Q74.8809 769.735 74.8809 778.485 Q74.8809 787.212 71.8022 791.818 Q68.7467 796.401 62.9365 796.401 Q57.1264 796.401 54.0477 791.818 Q50.9921 787.212 50.9921 778.485 Q50.9921 769.735 54.0477 765.151 Q57.1264 760.545 62.9365 760.545 Z" fill="#000000" fill-rule="evenodd" fill-opacity="1" /><path clip-path="url(#clip790)" d="M83.0984 789.85 L87.9827 789.85 L87.9827 795.73 L83.0984 795.73 L83.0984 789.85 Z" fill="#000000" fill-rule="evenodd" fill-opacity="1" /><path clip-path="url(#clip790)" d="M98.2141 761.17 L116.57 761.17 L116.57 765.105 L102.496 765.105 L102.496 773.577 Q103.515 773.23 104.534 773.068 Q105.552 772.883 106.571 772.883 Q112.358 772.883 115.737 776.054 Q119.117 779.225 119.117 784.642 Q119.117 790.221 115.645 793.323 Q112.172 796.401 105.853 796.401 Q103.677 796.401 101.409 796.031 Q99.1632 795.661 96.7558 794.92 L96.7558 790.221 Q98.8391 791.355 101.061 791.911 Q103.284 792.466 105.76 792.466 Q109.765 792.466 112.103 790.36 Q114.441 788.253 114.441 784.642 Q114.441 781.031 112.103 778.925 Q109.765 776.818 105.76 776.818 Q103.885 776.818 102.01 777.235 Q100.159 777.651 98.2141 778.531 L98.2141 761.17 Z" fill="#000000" fill-rule="evenodd" fill-opacity="1" /><path clip-path="url(#clip790)" d="M138.33 764.249 Q134.719 764.249 132.89 767.813 Q131.084 771.355 131.084 778.485 Q131.084 785.591 132.89 789.156 Q134.719 792.698 138.33 792.698 Q141.964 792.698 143.769 789.156 Q145.598 785.591 145.598 778.485 Q145.598 771.355 143.769 767.813 Q141.964 764.249 138.33 764.249 M138.33 760.545 Q144.14 760.545 147.195 765.151 Q150.274 769.735 150.274 778.485 Q150.274 787.212 147.195 791.818 Q144.14 796.401 138.33 796.401 Q132.519 796.401 129.441 791.818 Q126.385 787.212 126.385 778.485 Q126.385 769.735 129.441 765.151 Q132.519 760.545 138.33 760.545 Z" fill="#000000" fill-rule="evenodd" fill-opacity="1" /><path clip-path="url(#clip790)" d="M63.9319 456.047 Q60.3208 456.047 58.4921 459.612 Q56.6865 463.154 56.6865 470.283 Q56.6865 477.39 58.4921 480.954 Q60.3208 484.496 63.9319 484.496 Q67.5661 484.496 69.3717 480.954 Q71.2004 477.39 71.2004 470.283 Q71.2004 463.154 69.3717 459.612 Q67.5661 456.047 63.9319 456.047 M63.9319 452.343 Q69.742 452.343 72.7976 456.95 Q75.8763 461.533 75.8763 470.283 Q75.8763 479.01 72.7976 483.616 Q69.742 488.2 63.9319 488.2 Q58.1217 488.2 55.043 483.616 Q51.9875 479.01 51.9875 470.283 Q51.9875 461.533 55.043 456.95 Q58.1217 452.343 63.9319 452.343 Z" fill="#000000" fill-rule="evenodd" fill-opacity="1" /><path clip-path="url(#clip790)" d="M84.0938 481.649 L88.978 481.649 L88.978 487.528 L84.0938 487.528 L84.0938 481.649 Z" fill="#000000" fill-rule="evenodd" fill-opacity="1" /><path clip-path="url(#clip790)" d="M97.9826 452.968 L120.205 452.968 L120.205 454.959 L107.658 487.528 L102.774 487.528 L114.58 456.904 L97.9826 456.904 L97.9826 452.968 Z" fill="#000000" fill-rule="evenodd" fill-opacity="1" /><path clip-path="url(#clip790)" d="M129.371 452.968 L147.728 452.968 L147.728 456.904 L133.654 456.904 L133.654 465.376 Q134.672 465.029 135.691 464.867 Q136.709 464.681 137.728 464.681 Q143.515 464.681 146.894 467.853 Q150.274 471.024 150.274 476.441 Q150.274 482.019 146.802 485.121 Q143.33 488.2 137.01 488.2 Q134.834 488.2 132.566 487.829 Q130.32 487.459 127.913 486.718 L127.913 482.019 Q129.996 483.153 132.219 483.709 Q134.441 484.265 136.918 484.265 Q140.922 484.265 143.26 482.158 Q145.598 480.052 145.598 476.441 Q145.598 472.829 143.26 470.723 Q140.922 468.617 136.918 468.617 Q135.043 468.617 133.168 469.033 Q131.316 469.45 129.371 470.329 L129.371 452.968 Z" fill="#000000" fill-rule="evenodd" fill-opacity="1" /><path clip-path="url(#clip790)" d="M53.7467 175.392 L61.3856 175.392 L61.3856 149.026 L53.0754 150.693 L53.0754 146.434 L61.3393 144.767 L66.0152 144.767 L66.0152 175.392 L73.654 175.392 L73.654 179.327 L53.7467 179.327 L53.7467 175.392 Z" fill="#000000" fill-rule="evenodd" fill-opacity="1" /><path clip-path="url(#clip790)" d="M83.0984 173.447 L87.9827 173.447 L87.9827 179.327 L83.0984 179.327 L83.0984 173.447 Z" fill="#000000" fill-rule="evenodd" fill-opacity="1" /><path clip-path="url(#clip790)" d="M108.168 147.846 Q104.557 147.846 102.728 151.41 Q100.922 154.952 100.922 162.082 Q100.922 169.188 102.728 172.753 Q104.557 176.295 108.168 176.295 Q111.802 176.295 113.608 172.753 Q115.436 169.188 115.436 162.082 Q115.436 154.952 113.608 151.41 Q111.802 147.846 108.168 147.846 M108.168 144.142 Q113.978 144.142 117.033 148.748 Q120.112 153.332 120.112 162.082 Q120.112 170.808 117.033 175.415 Q113.978 179.998 108.168 179.998 Q102.358 179.998 99.2789 175.415 Q96.2234 170.808 96.2234 162.082 Q96.2234 153.332 99.2789 148.748 Q102.358 144.142 108.168 144.142 Z" fill="#000000" fill-rule="evenodd" fill-opacity="1" /><path clip-path="url(#clip790)" d="M138.33 147.846 Q134.719 147.846 132.89 151.41 Q131.084 154.952 131.084 162.082 Q131.084 169.188 132.89 172.753 Q134.719 176.295 138.33 176.295 Q141.964 176.295 143.769 172.753 Q145.598 169.188 145.598 162.082 Q145.598 154.952 143.769 151.41 Q141.964 147.846 138.33 147.846 M138.33 144.142 Q144.14 144.142 147.195 148.748 Q150.274 153.332 150.274 162.082 Q150.274 170.808 147.195 175.415 Q144.14 179.998 138.33 179.998 Q132.519 179.998 129.441 175.415 Q126.385 170.808 126.385 162.082 Q126.385 153.332 129.441 148.748 Q132.519 144.142 138.33 144.142 Z" fill="#000000" fill-rule="evenodd" fill-opacity="1" /><path clip-path="url(#clip790)" d="M1193.78 34.0924 L1193.78 9.54393 L1201.24 9.54393 L1201.24 72.576 L1193.78 72.576 L1193.78 65.7705 Q1191.43 69.8214 1187.83 71.8063 Q1184.26 73.7508 1179.24 73.7508 Q1171.02 73.7508 1165.83 67.1883 Q1160.69 60.6258 1160.69 49.9314 Q1160.69 39.2371 1165.83 32.6746 Q1171.02 26.1121 1179.24 26.1121 Q1184.26 26.1121 1187.83 28.0971 Q1191.43 30.0415 1193.78 34.0924 M1168.38 49.9314 Q1168.38 58.1548 1171.75 62.8538 Q1175.15 67.5124 1181.06 67.5124 Q1186.98 67.5124 1190.38 62.8538 Q1193.78 58.1548 1193.78 49.9314 Q1193.78 41.7081 1190.38 37.0496 Q1186.98 32.3505 1181.06 32.3505 Q1175.15 32.3505 1171.75 37.0496 Q1168.38 41.7081 1168.38 49.9314 Z" fill="#000000" fill-rule="evenodd" fill-opacity="1" /><path clip-path="url(#clip790)" d="M1217.56 34.9026 L1269.49 34.9026 L1269.49 41.7081 L1217.56 41.7081 L1217.56 34.9026 M1217.56 51.4303 L1269.49 51.4303 L1269.49 58.3168 L1217.56 58.3168 L1217.56 51.4303 Z" fill="#000000" fill-rule="evenodd" fill-opacity="1" /><path clip-path="url(#clip790)" d="M1288.57 65.6895 L1301.94 65.6895 L1301.94 19.5497 L1287.4 22.4663 L1287.4 15.0127 L1301.86 12.096 L1310.04 12.096 L1310.04 65.6895 L1323.41 65.6895 L1323.41 72.576 L1288.57 72.576 L1288.57 65.6895 Z" fill="#000000" fill-rule="evenodd" fill-opacity="1" /><path clip-path="url(#clip790)" d="M1357.44 17.4837 Q1351.12 17.4837 1347.92 23.7221 Q1344.76 29.92 1344.76 42.3968 Q1344.76 54.833 1347.92 61.0714 Q1351.12 67.2693 1357.44 67.2693 Q1363.8 67.2693 1366.96 61.0714 Q1370.16 54.833 1370.16 42.3968 Q1370.16 29.92 1366.96 23.7221 Q1363.8 17.4837 1357.44 17.4837 M1357.44 11.0023 Q1367.61 11.0023 1372.95 19.0636 Q1378.34 27.0843 1378.34 42.3968 Q1378.34 57.6687 1372.95 65.73 Q1367.61 73.7508 1357.44 73.7508 Q1347.27 73.7508 1341.88 65.73 Q1336.54 57.6687 1336.54 42.3968 Q1336.54 27.0843 1341.88 19.0636 Q1347.27 11.0023 1357.44 11.0023 Z" fill="#000000" fill-rule="evenodd" fill-opacity="1" /><polyline clip-path="url(#clip792)" style="stroke:#009af9; stroke-linecap:round; stroke-linejoin:round; stroke-width:12; stroke-opacity:1; fill:none" points="
  247.59,162.047 451.975,784.696 656.36,1105.59 860.745,1264.29 1065.13,1334.71 1269.51,1355.17 1473.9,1382.81 1678.29,1423.21 1882.67,1438.21 2087.06,1440.2 
  2291.44,1434.74 
  "/>
<polyline clip-path="url(#clip792)" style="stroke:#e26f46; stroke-linecap:round; stroke-linejoin:round; stroke-width:12; stroke-opacity:1; fill:none" points="
  247.59,162.047 451.975,1262.46 656.36,1422.13 860.745,1399.65 1065.13,1438.46 1269.51,1447.87 1473.9,1398.75 1678.29,1430.22 1882.67,1378.53 2087.06,1342.92 
  2291.44,1382.81 
  "/>
<polyline clip-path="url(#clip792)" style="stroke:#3da44d; stroke-linecap:round; stroke-linejoin:round; stroke-width:12; stroke-opacity:1; fill:none" points="
  247.59,162.047 451.975,256.748 656.36,281.848 860.745,312.797 1065.13,336.566 1269.51,367.106 1473.9,391.531 1678.29,423.736 1882.67,449.707 2087.06,478.661 
  2291.44,502.647 
  "/>
<polyline clip-path="url(#clip792)" style="stroke:#c271d2; stroke-linecap:round; stroke-linejoin:round; stroke-width:12; stroke-opacity:1; fill:none" points="
  247.59,162.047 451.975,709.66 656.36,923.872 860.745,1049.29 1065.13,1129.75 1269.51,1193.25 1473.9,1259.02 1678.29,1296.91 1882.67,1308.74 2087.06,1340.1 
  2291.44,1344.77 
  "/>
<polyline clip-path="url(#clip792)" style="stroke:#ac8d18; stroke-linecap:round; stroke-linejoin:round; stroke-width:12; stroke-opacity:1; fill:none" points="
  247.59,162.047 451.975,912.188 656.36,990.957 860.745,1010.77 1065.13,1044.99 1269.51,1067.27 1473.9,1060.67 1678.29,1082.17 1882.67,1085.61 2087.06,1081.63 
  2291.44,1094.81 
  "/>
<polyline clip-path="url(#clip792)" style="stroke:#00a9ad; stroke-linecap:round; stroke-linejoin:round; stroke-width:12; stroke-opacity:1; fill:none" points="
  247.59,162.047 451.975,706.882 656.36,779.419 860.745,807.722 1065.13,806.015 1269.51,807.827 1473.9,829.517 1678.29,828.703 1882.67,834.097 2087.06,831.136 
  2291.44,841.122 
  "/>
<path clip-path="url(#clip790)" d="
M1852.62 531.785 L2280.54 531.785 L2280.54 168.905 L1852.62 168.905  Z
  " fill="#ffffff" fill-rule="evenodd" fill-opacity="1"/>
<polyline clip-path="url(#clip790)" style="stroke:#000000; stroke-linecap:round; stroke-linejoin:round; stroke-width:4; stroke-opacity:1; fill:none" points="
  1852.62,531.785 2280.54,531.785 2280.54,168.905 1852.62,168.905 1852.62,531.785 
  "/>
<polyline clip-path="url(#clip790)" style="stroke:#009af9; stroke-linecap:round; stroke-linejoin:round; stroke-width:12; stroke-opacity:1; fill:none" points="
  1876.69,220.745 2021.12,220.745 
  "/>
<path clip-path="url(#clip790)" d="M2045.2 203.465 L2049.87 203.465 L2049.87 217.631 L2066.86 217.631 L2066.86 203.465 L2071.54 203.465 L2071.54 238.025 L2066.86 238.025 L2066.86 221.566 L2049.87 221.566 L2049.87 238.025 L2045.2 238.025 L2045.2 203.465 Z" fill="#000000" fill-rule="evenodd" fill-opacity="1" /><path clip-path="url(#clip790)" d="M2080.84 203.465 L2087.81 203.465 L2096.63 226.983 L2105.5 203.465 L2112.46 203.465 L2112.46 238.025 L2107.9 238.025 L2107.9 207.678 L2098.99 231.381 L2094.29 231.381 L2085.38 207.678 L2085.38 238.025 L2080.84 238.025 L2080.84 203.465 Z" fill="#000000" fill-rule="evenodd" fill-opacity="1" /><path clip-path="url(#clip790)" d="M2147.63 206.127 L2147.63 211.057 Q2145.26 208.858 2142.58 207.77 Q2139.92 206.682 2136.91 206.682 Q2130.98 206.682 2127.83 210.316 Q2124.69 213.928 2124.69 220.779 Q2124.69 227.608 2127.83 231.242 Q2130.98 234.853 2136.91 234.853 Q2139.92 234.853 2142.58 233.765 Q2145.26 232.677 2147.63 230.478 L2147.63 235.363 Q2145.17 237.029 2142.42 237.863 Q2139.69 238.696 2136.63 238.696 Q2128.78 238.696 2124.27 233.904 Q2119.76 229.09 2119.76 220.779 Q2119.76 212.446 2124.27 207.654 Q2128.78 202.84 2136.63 202.84 Q2139.73 202.84 2142.46 203.673 Q2145.22 204.483 2147.63 206.127 Z" fill="#000000" fill-rule="evenodd" fill-opacity="1" /><polyline clip-path="url(#clip790)" style="stroke:#e26f46; stroke-linecap:round; stroke-linejoin:round; stroke-width:12; stroke-opacity:1; fill:none" points="
  1876.69,272.585 2021.12,272.585 
  "/>
<path clip-path="url(#clip790)" d="M2045.2 255.305 L2049.87 255.305 L2049.87 269.471 L2066.86 269.471 L2066.86 255.305 L2071.54 255.305 L2071.54 289.865 L2066.86 289.865 L2066.86 273.406 L2049.87 273.406 L2049.87 289.865 L2045.2 289.865 L2045.2 255.305 Z" fill="#000000" fill-rule="evenodd" fill-opacity="1" /><path clip-path="url(#clip790)" d="M2092.44 276.832 Q2087.28 276.832 2085.29 278.013 Q2083.3 279.193 2083.3 282.041 Q2083.3 284.309 2084.78 285.652 Q2086.28 286.971 2088.85 286.971 Q2092.39 286.971 2094.52 284.471 Q2096.68 281.948 2096.68 277.781 L2096.68 276.832 L2092.44 276.832 M2100.94 275.073 L2100.94 289.865 L2096.68 289.865 L2096.68 285.929 Q2095.22 288.291 2093.04 289.425 Q2090.87 290.536 2087.72 290.536 Q2083.74 290.536 2081.38 288.314 Q2079.04 286.068 2079.04 282.318 Q2079.04 277.943 2081.95 275.721 Q2084.89 273.499 2090.7 273.499 L2096.68 273.499 L2096.68 273.082 Q2096.68 270.143 2094.73 268.545 Q2092.81 266.925 2089.32 266.925 Q2087.09 266.925 2084.99 267.457 Q2082.88 267.99 2080.94 269.055 L2080.94 265.119 Q2083.27 264.217 2085.47 263.777 Q2087.67 263.314 2089.76 263.314 Q2095.38 263.314 2098.16 266.231 Q2100.94 269.147 2100.94 275.073 Z" fill="#000000" fill-rule="evenodd" fill-opacity="1" /><path clip-path="url(#clip790)" d="M2126.28 273.661 Q2127.79 274.17 2129.2 275.837 Q2130.64 277.504 2132.07 280.42 L2136.82 289.865 L2131.79 289.865 L2127.37 280.999 Q2125.66 277.527 2124.04 276.393 Q2122.44 275.258 2119.66 275.258 L2114.57 275.258 L2114.57 289.865 L2109.89 289.865 L2109.89 255.305 L2120.45 255.305 Q2126.38 255.305 2129.29 257.781 Q2132.21 260.258 2132.21 265.258 Q2132.21 268.522 2130.68 270.675 Q2129.18 272.828 2126.28 273.661 M2114.57 259.147 L2114.57 271.416 L2120.45 271.416 Q2123.83 271.416 2125.54 269.865 Q2127.28 268.291 2127.28 265.258 Q2127.28 262.226 2125.54 260.698 Q2123.83 259.147 2120.45 259.147 L2114.57 259.147 Z" fill="#000000" fill-rule="evenodd" fill-opacity="1" /><path clip-path="url(#clip790)" d="M2152.46 259.911 L2146.12 277.11 L2158.83 277.11 L2152.46 259.911 M2149.82 255.305 L2155.13 255.305 L2168.3 289.865 L2163.44 289.865 L2160.29 280.999 L2144.71 280.999 L2141.56 289.865 L2136.63 289.865 L2149.82 255.305 Z" fill="#000000" fill-rule="evenodd" fill-opacity="1" /><path clip-path="url(#clip790)" d="M2173.34 255.305 L2180.31 255.305 L2189.13 278.823 L2198 255.305 L2204.96 255.305 L2204.96 289.865 L2200.4 289.865 L2200.4 259.518 L2191.49 283.221 L2186.79 283.221 L2177.88 259.518 L2177.88 289.865 L2173.34 289.865 L2173.34 255.305 Z" fill="#000000" fill-rule="evenodd" fill-opacity="1" /><polyline clip-path="url(#clip790)" style="stroke:#3da44d; stroke-linecap:round; stroke-linejoin:round; stroke-width:12; stroke-opacity:1; fill:none" points="
  1876.69,324.425 2021.12,324.425 
  "/>
<path clip-path="url(#clip790)" d="M2061.58 325.501 Q2063.09 326.01 2064.5 327.677 Q2065.94 329.344 2067.37 332.26 L2072.12 341.705 L2067.09 341.705 L2062.67 332.839 Q2060.96 329.367 2059.34 328.233 Q2057.74 327.098 2054.96 327.098 L2049.87 327.098 L2049.87 341.705 L2045.2 341.705 L2045.2 307.145 L2055.75 307.145 Q2061.68 307.145 2064.59 309.621 Q2067.51 312.098 2067.51 317.098 Q2067.51 320.362 2065.98 322.515 Q2064.48 324.668 2061.58 325.501 M2049.87 310.987 L2049.87 323.256 L2055.75 323.256 Q2059.13 323.256 2060.84 321.705 Q2062.58 320.131 2062.58 317.098 Q2062.58 314.066 2060.84 312.538 Q2059.13 310.987 2055.75 310.987 L2049.87 310.987 Z" fill="#000000" fill-rule="evenodd" fill-opacity="1" /><path clip-path="url(#clip790)" d="M2087.77 311.751 L2081.42 328.95 L2094.13 328.95 L2087.77 311.751 M2085.13 307.145 L2090.43 307.145 L2103.6 341.705 L2098.74 341.705 L2095.59 332.839 L2080.01 332.839 L2076.86 341.705 L2071.93 341.705 L2085.13 307.145 Z" fill="#000000" fill-rule="evenodd" fill-opacity="1" /><path clip-path="url(#clip790)" d="M2108.64 307.145 L2115.61 307.145 L2124.43 330.663 L2133.3 307.145 L2140.26 307.145 L2140.26 341.705 L2135.7 341.705 L2135.7 311.358 L2126.79 335.061 L2122.09 335.061 L2113.18 311.358 L2113.18 341.705 L2108.64 341.705 L2108.64 307.145 Z" fill="#000000" fill-rule="evenodd" fill-opacity="1" /><polyline clip-path="url(#clip790)" style="stroke:#c271d2; stroke-linecap:round; stroke-linejoin:round; stroke-width:12; stroke-opacity:1; fill:none" points="
  1876.69,376.265 2021.12,376.265 
  "/>
<path clip-path="url(#clip790)" d="M2049.87 362.827 L2049.87 375.813 L2055.75 375.813 Q2059.02 375.813 2060.8 374.123 Q2062.58 372.434 2062.58 369.309 Q2062.58 366.207 2060.8 364.517 Q2059.02 362.827 2055.75 362.827 L2049.87 362.827 M2045.2 358.985 L2055.75 358.985 Q2061.56 358.985 2064.52 361.624 Q2067.51 364.239 2067.51 369.309 Q2067.51 374.424 2064.52 377.04 Q2061.56 379.656 2055.75 379.656 L2049.87 379.656 L2049.87 393.545 L2045.2 393.545 L2045.2 358.985 Z" fill="#000000" fill-rule="evenodd" fill-opacity="1" /><path clip-path="url(#clip790)" d="M2073.78 358.985 L2095.64 358.985 L2095.64 362.92 L2078.46 362.92 L2078.46 373.151 L2094.92 373.151 L2094.92 377.086 L2078.46 377.086 L2078.46 389.609 L2096.05 389.609 L2096.05 393.545 L2073.78 393.545 L2073.78 358.985 Z" fill="#000000" fill-rule="evenodd" fill-opacity="1" /><path clip-path="url(#clip790)" d="M2101.4 378.66 L2113.88 378.66 L2113.88 382.457 L2101.4 382.457 L2101.4 378.66 Z" fill="#000000" fill-rule="evenodd" fill-opacity="1" /><path clip-path="url(#clip790)" d="M2120.84 358.985 L2125.52 358.985 L2125.52 373.151 L2142.51 373.151 L2142.51 358.985 L2147.19 358.985 L2147.19 393.545 L2142.51 393.545 L2142.51 377.086 L2125.52 377.086 L2125.52 393.545 L2120.84 393.545 L2120.84 358.985 Z" fill="#000000" fill-rule="evenodd" fill-opacity="1" /><path clip-path="url(#clip790)" d="M2156.49 358.985 L2163.46 358.985 L2172.28 382.503 L2181.14 358.985 L2188.11 358.985 L2188.11 393.545 L2183.55 393.545 L2183.55 363.198 L2174.64 386.901 L2169.94 386.901 L2161.03 363.198 L2161.03 393.545 L2156.49 393.545 L2156.49 358.985 Z" fill="#000000" fill-rule="evenodd" fill-opacity="1" /><path clip-path="url(#clip790)" d="M2223.27 361.647 L2223.27 366.577 Q2220.91 364.378 2218.23 363.29 Q2215.57 362.202 2212.56 362.202 Q2206.63 362.202 2203.48 365.836 Q2200.33 369.448 2200.33 376.299 Q2200.33 383.128 2203.48 386.762 Q2206.63 390.373 2212.56 390.373 Q2215.57 390.373 2218.23 389.285 Q2220.91 388.197 2223.27 385.998 L2223.27 390.883 Q2220.82 392.549 2218.07 393.383 Q2215.33 394.216 2212.28 394.216 Q2204.43 394.216 2199.92 389.424 Q2195.4 384.61 2195.4 376.299 Q2195.4 367.966 2199.92 363.174 Q2204.43 358.36 2212.28 358.36 Q2215.38 358.36 2218.11 359.193 Q2220.87 360.003 2223.27 361.647 Z" fill="#000000" fill-rule="evenodd" fill-opacity="1" /><polyline clip-path="url(#clip790)" style="stroke:#ac8d18; stroke-linecap:round; stroke-linejoin:round; stroke-width:12; stroke-opacity:1; fill:none" points="
  1876.69,428.105 2021.12,428.105 
  "/>
<path clip-path="url(#clip790)" d="M2049.48 441.496 L2049.48 455.246 L2045.2 455.246 L2045.2 419.459 L2049.48 419.459 L2049.48 423.394 Q2050.82 421.079 2052.86 419.968 Q2054.92 418.834 2057.77 418.834 Q2062.49 418.834 2065.43 422.584 Q2068.39 426.334 2068.39 432.445 Q2068.39 438.556 2065.43 442.306 Q2062.49 446.056 2057.77 446.056 Q2054.92 446.056 2052.86 444.945 Q2050.82 443.811 2049.48 441.496 M2063.97 432.445 Q2063.97 427.746 2062.02 425.084 Q2060.1 422.399 2056.72 422.399 Q2053.34 422.399 2051.4 425.084 Q2049.48 427.746 2049.48 432.445 Q2049.48 437.144 2051.4 439.829 Q2053.34 442.491 2056.72 442.491 Q2060.1 442.491 2062.02 439.829 Q2063.97 437.144 2063.97 432.445 Z" fill="#000000" fill-rule="evenodd" fill-opacity="1" /><path clip-path="url(#clip790)" d="M2079.66 412.098 L2079.66 419.459 L2088.44 419.459 L2088.44 422.769 L2079.66 422.769 L2079.66 436.843 Q2079.66 440.014 2080.52 440.917 Q2081.4 441.82 2084.06 441.82 L2088.44 441.82 L2088.44 445.385 L2084.06 445.385 Q2079.13 445.385 2077.26 443.556 Q2075.38 441.704 2075.38 436.843 L2075.38 422.769 L2072.26 422.769 L2072.26 419.459 L2075.38 419.459 L2075.38 412.098 L2079.66 412.098 Z" fill="#000000" fill-rule="evenodd" fill-opacity="1" /><path clip-path="url(#clip790)" d="M2091.89 430.5 L2104.36 430.5 L2104.36 434.297 L2091.89 434.297 L2091.89 430.5 Z" fill="#000000" fill-rule="evenodd" fill-opacity="1" /><path clip-path="url(#clip790)" d="M2132.7 429.737 L2132.7 445.385 L2128.44 445.385 L2128.44 429.875 Q2128.44 426.195 2127 424.366 Q2125.57 422.538 2122.7 422.538 Q2119.25 422.538 2117.26 424.737 Q2115.26 426.936 2115.26 430.732 L2115.26 445.385 L2110.98 445.385 L2110.98 409.366 L2115.26 409.366 L2115.26 423.487 Q2116.79 421.149 2118.85 419.991 Q2120.94 418.834 2123.64 418.834 Q2128.11 418.834 2130.4 421.612 Q2132.7 424.366 2132.7 429.737 Z" fill="#000000" fill-rule="evenodd" fill-opacity="1" /><path clip-path="url(#clip790)" d="M2161.38 424.436 Q2162.97 421.565 2165.2 420.2 Q2167.42 418.834 2170.43 418.834 Q2174.48 418.834 2176.68 421.681 Q2178.88 424.505 2178.88 429.737 L2178.88 445.385 L2174.59 445.385 L2174.59 429.875 Q2174.59 426.149 2173.27 424.343 Q2171.95 422.538 2169.25 422.538 Q2165.94 422.538 2164.01 424.737 Q2162.09 426.936 2162.09 430.732 L2162.09 445.385 L2157.81 445.385 L2157.81 429.875 Q2157.81 426.125 2156.49 424.343 Q2155.17 422.538 2152.42 422.538 Q2149.15 422.538 2147.23 424.76 Q2145.31 426.959 2145.31 430.732 L2145.31 445.385 L2141.03 445.385 L2141.03 419.459 L2145.31 419.459 L2145.31 423.487 Q2146.77 421.102 2148.81 419.968 Q2150.84 418.834 2153.64 418.834 Q2156.47 418.834 2158.44 420.269 Q2160.43 421.704 2161.38 424.436 Z" fill="#000000" fill-rule="evenodd" fill-opacity="1" /><path clip-path="url(#clip790)" d="M2206.03 420.454 L2206.03 424.436 Q2204.22 423.44 2202.39 422.954 Q2200.59 422.445 2198.74 422.445 Q2194.59 422.445 2192.3 425.084 Q2190.01 427.7 2190.01 432.445 Q2190.01 437.19 2192.3 439.829 Q2194.59 442.445 2198.74 442.445 Q2200.59 442.445 2202.39 441.959 Q2204.22 441.449 2206.03 440.454 L2206.03 444.389 Q2204.25 445.223 2202.32 445.639 Q2200.43 446.056 2198.27 446.056 Q2192.42 446.056 2188.97 442.375 Q2185.52 438.695 2185.52 432.445 Q2185.52 426.102 2188.99 422.468 Q2192.49 418.834 2198.55 418.834 Q2200.52 418.834 2202.39 419.251 Q2204.27 419.644 2206.03 420.454 Z" fill="#000000" fill-rule="evenodd" fill-opacity="1" /><polyline clip-path="url(#clip790)" style="stroke:#00a9ad; stroke-linecap:round; stroke-linejoin:round; stroke-width:12; stroke-opacity:1; fill:none" points="
  1876.69,479.945 2021.12,479.945 
  "/>
<path clip-path="url(#clip790)" d="M2049.48 493.336 L2049.48 507.086 L2045.2 507.086 L2045.2 471.299 L2049.48 471.299 L2049.48 475.234 Q2050.82 472.919 2052.86 471.808 Q2054.92 470.674 2057.77 470.674 Q2062.49 470.674 2065.43 474.424 Q2068.39 478.174 2068.39 484.285 Q2068.39 490.396 2065.43 494.146 Q2062.49 497.896 2057.77 497.896 Q2054.92 497.896 2052.86 496.785 Q2050.82 495.651 2049.48 493.336 M2063.97 484.285 Q2063.97 479.586 2062.02 476.924 Q2060.1 474.239 2056.72 474.239 Q2053.34 474.239 2051.4 476.924 Q2049.48 479.586 2049.48 484.285 Q2049.48 488.984 2051.4 491.669 Q2053.34 494.331 2056.72 494.331 Q2060.1 494.331 2062.02 491.669 Q2063.97 488.984 2063.97 484.285 Z" fill="#000000" fill-rule="evenodd" fill-opacity="1" /><path clip-path="url(#clip790)" d="M2079.66 463.938 L2079.66 471.299 L2088.44 471.299 L2088.44 474.609 L2079.66 474.609 L2079.66 488.683 Q2079.66 491.854 2080.52 492.757 Q2081.4 493.66 2084.06 493.66 L2088.44 493.66 L2088.44 497.225 L2084.06 497.225 Q2079.13 497.225 2077.26 495.396 Q2075.38 493.544 2075.38 488.683 L2075.38 474.609 L2072.26 474.609 L2072.26 471.299 L2075.38 471.299 L2075.38 463.938 L2079.66 463.938 Z" fill="#000000" fill-rule="evenodd" fill-opacity="1" /><path clip-path="url(#clip790)" d="M2091.89 482.34 L2104.36 482.34 L2104.36 486.137 L2091.89 486.137 L2091.89 482.34 Z" fill="#000000" fill-rule="evenodd" fill-opacity="1" /><path clip-path="url(#clip790)" d="M2132.7 481.577 L2132.7 497.225 L2128.44 497.225 L2128.44 481.715 Q2128.44 478.035 2127 476.206 Q2125.57 474.378 2122.7 474.378 Q2119.25 474.378 2117.26 476.577 Q2115.26 478.776 2115.26 482.572 L2115.26 497.225 L2110.98 497.225 L2110.98 461.206 L2115.26 461.206 L2115.26 475.327 Q2116.79 472.989 2118.85 471.831 Q2120.94 470.674 2123.64 470.674 Q2128.11 470.674 2130.4 473.452 Q2132.7 476.206 2132.7 481.577 Z" fill="#000000" fill-rule="evenodd" fill-opacity="1" /><path clip-path="url(#clip790)" d="M2152.97 484.192 Q2147.81 484.192 2145.82 485.373 Q2143.83 486.553 2143.83 489.401 Q2143.83 491.669 2145.31 493.012 Q2146.82 494.331 2149.39 494.331 Q2152.93 494.331 2155.06 491.831 Q2157.21 489.308 2157.21 485.141 L2157.21 484.192 L2152.97 484.192 M2161.47 482.433 L2161.47 497.225 L2157.21 497.225 L2157.21 493.289 Q2155.75 495.651 2153.57 496.785 Q2151.4 497.896 2148.25 497.896 Q2144.27 497.896 2141.91 495.674 Q2139.57 493.428 2139.57 489.678 Q2139.57 485.303 2142.49 483.081 Q2145.43 480.859 2151.24 480.859 L2157.21 480.859 L2157.21 480.442 Q2157.21 477.503 2155.26 475.905 Q2153.34 474.285 2149.85 474.285 Q2147.63 474.285 2145.52 474.817 Q2143.41 475.35 2141.47 476.415 L2141.47 472.479 Q2143.81 471.577 2146.01 471.137 Q2148.2 470.674 2150.29 470.674 Q2155.91 470.674 2158.69 473.591 Q2161.47 476.507 2161.47 482.433 Z" fill="#000000" fill-rule="evenodd" fill-opacity="1" /><path clip-path="url(#clip790)" d="M2185.26 475.28 Q2184.55 474.864 2183.69 474.678 Q2182.86 474.47 2181.84 474.47 Q2178.23 474.47 2176.28 476.831 Q2174.36 479.169 2174.36 483.567 L2174.36 497.225 L2170.08 497.225 L2170.08 471.299 L2174.36 471.299 L2174.36 475.327 Q2175.7 472.966 2177.86 471.831 Q2180.01 470.674 2183.09 470.674 Q2183.53 470.674 2184.06 470.743 Q2184.59 470.79 2185.24 470.905 L2185.26 475.28 Z" fill="#000000" fill-rule="evenodd" fill-opacity="1" /><path clip-path="url(#clip790)" d="M2201.51 484.192 Q2196.35 484.192 2194.36 485.373 Q2192.37 486.553 2192.37 489.401 Q2192.37 491.669 2193.85 493.012 Q2195.36 494.331 2197.93 494.331 Q2201.47 494.331 2203.6 491.831 Q2205.75 489.308 2205.75 485.141 L2205.75 484.192 L2201.51 484.192 M2210.01 482.433 L2210.01 497.225 L2205.75 497.225 L2205.75 493.289 Q2204.29 495.651 2202.12 496.785 Q2199.94 497.896 2196.79 497.896 Q2192.81 497.896 2190.45 495.674 Q2188.11 493.428 2188.11 489.678 Q2188.11 485.303 2191.03 483.081 Q2193.97 480.859 2199.78 480.859 L2205.75 480.859 L2205.75 480.442 Q2205.75 477.503 2203.81 475.905 Q2201.88 474.285 2198.39 474.285 Q2196.17 474.285 2194.06 474.817 Q2191.95 475.35 2190.01 476.415 L2190.01 472.479 Q2192.35 471.577 2194.55 471.137 Q2196.75 470.674 2198.83 470.674 Q2204.45 470.674 2207.23 473.591 Q2210.01 476.507 2210.01 482.433 Z" fill="#000000" fill-rule="evenodd" fill-opacity="1" /><path clip-path="url(#clip790)" d="M2238.97 476.276 Q2240.57 473.405 2242.79 472.04 Q2245.01 470.674 2248.02 470.674 Q2252.07 470.674 2254.27 473.521 Q2256.47 476.345 2256.47 481.577 L2256.47 497.225 L2252.19 497.225 L2252.19 481.715 Q2252.19 477.989 2250.87 476.183 Q2249.55 474.378 2246.84 474.378 Q2243.53 474.378 2241.61 476.577 Q2239.69 478.776 2239.69 482.572 L2239.69 497.225 L2235.4 497.225 L2235.4 481.715 Q2235.4 477.965 2234.08 476.183 Q2232.76 474.378 2230.01 474.378 Q2226.75 474.378 2224.82 476.6 Q2222.9 478.799 2222.9 482.572 L2222.9 497.225 L2218.62 497.225 L2218.62 471.299 L2222.9 471.299 L2222.9 475.327 Q2224.36 472.942 2226.4 471.808 Q2228.44 470.674 2231.24 470.674 Q2234.06 470.674 2236.03 472.109 Q2238.02 473.544 2238.97 476.276 Z" fill="#000000" fill-rule="evenodd" fill-opacity="1" /></svg>
