<?xml version="1.0" encoding="utf-8"?>
<svg xmlns="http://www.w3.org/2000/svg" xmlns:xlink="http://www.w3.org/1999/xlink" width="600" height="400" viewBox="0 0 2400 1600">
<defs>
  <clipPath id="clip190">
    <rect x="0" y="0" width="2400" height="1600"/>
  </clipPath>
</defs>
<path clip-path="url(#clip190)" d="
M0 1600 L2400 1600 L2400 0 L0 0  Z
  " fill="#ffffff" fill-rule="evenodd" fill-opacity="1"/>
<defs>
  <clipPath id="clip191">
    <rect x="480" y="0" width="1681" height="1600"/>
  </clipPath>
</defs>
<path clip-path="url(#clip190)" d="
M186.274 1486.45 L2352.76 1486.45 L2352.76 47.2441 L186.274 47.2441  Z
  " fill="#ffffff" fill-rule="evenodd" fill-opacity="1"/>
<defs>
  <clipPath id="clip192">
    <rect x="186" y="47" width="2167" height="1440"/>
  </clipPath>
</defs>
<polyline clip-path="url(#clip192)" style="stroke:#000000; stroke-linecap:round; stroke-linejoin:round; stroke-width:2; stroke-opacity:0.1; fill:none" points="
  451.975,1486.45 451.975,47.2441 
  "/>
<polyline clip-path="url(#clip192)" style="stroke:#000000; stroke-linecap:round; stroke-linejoin:round; stroke-width:2; stroke-opacity:0.1; fill:none" points="
  860.745,1486.45 860.745,47.2441 
  "/>
<polyline clip-path="url(#clip192)" style="stroke:#000000; stroke-linecap:round; stroke-linejoin:round; stroke-width:2; stroke-opacity:0.1; fill:none" points="
  1269.51,1486.45 1269.51,47.2441 
  "/>
<polyline clip-path="url(#clip192)" style="stroke:#000000; stroke-linecap:round; stroke-linejoin:round; stroke-width:2; stroke-opacity:0.1; fill:none" points="
  1678.29,1486.45 1678.29,47.2441 
  "/>
<polyline clip-path="url(#clip192)" style="stroke:#000000; stroke-linecap:round; stroke-linejoin:round; stroke-width:2; stroke-opacity:0.1; fill:none" points="
  2087.06,1486.45 2087.06,47.2441 
  "/>
<polyline clip-path="url(#clip190)" style="stroke:#000000; stroke-linecap:round; stroke-linejoin:round; stroke-width:4; stroke-opacity:1; fill:none" points="
  186.274,1486.45 2352.76,1486.45 
  "/>
<polyline clip-path="url(#clip190)" style="stroke:#000000; stroke-linecap:round; stroke-linejoin:round; stroke-width:4; stroke-opacity:1; fill:none" points="
  451.975,1486.45 451.975,1467.55 
  "/>
<polyline clip-path="url(#clip190)" style="stroke:#000000; stroke-linecap:round; stroke-linejoin:round; stroke-width:4; stroke-opacity:1; fill:none" points="
  860.745,1486.45 860.745,1467.55 
  "/>
<polyline clip-path="url(#clip190)" style="stroke:#000000; stroke-linecap:round; stroke-linejoin:round; stroke-width:4; stroke-opacity:1; fill:none" points="
  1269.51,1486.45 1269.51,1467.55 
  "/>
<polyline clip-path="url(#clip190)" style="stroke:#000000; stroke-linecap:round; stroke-linejoin:round; stroke-width:4; stroke-opacity:1; fill:none" points="
  1678.29,1486.45 1678.29,1467.55 
  "/>
<polyline clip-path="url(#clip190)" style="stroke:#000000; stroke-linecap:round; stroke-linejoin:round; stroke-width:4; stroke-opacity:1; fill:none" points="
  2087.06,1486.45 2087.06,1467.55 
  "/>
<path clip-path="url(#clip190)" d="M446.627 1544.91 L462.947 1544.91 L462.947 1548.85 L441.002 1548.85 L441.002 1544.91 Q443.664 1542.16 448.248 1537.53 Q452.854 1532.88 454.035 1531.53 Q456.28 1529.01 457.16 1527.27 Q458.063 1525.51 458.063 1523.82 Q458.063 1521.07 456.118 1519.33 Q454.197 1517.6 451.095 1517.6 Q448.896 1517.6 446.442 1518.36 Q444.012 1519.13 441.234 1520.68 L441.234 1515.95 Q444.058 1514.82 446.512 1514.24 Q448.965 1513.66 451.002 1513.66 Q456.373 1513.66 459.567 1516.35 Q462.762 1519.03 462.762 1523.52 Q462.762 1525.65 461.951 1527.57 Q461.164 1529.47 459.058 1532.07 Q458.479 1532.74 455.377 1535.95 Q452.276 1539.15 446.627 1544.91 Z" fill="#000000" fill-rule="evenodd" fill-opacity="1" /><path clip-path="url(#clip190)" d="M863.754 1518.36 L851.949 1536.81 L863.754 1536.81 L863.754 1518.36 M862.527 1514.29 L868.407 1514.29 L868.407 1536.81 L873.337 1536.81 L873.337 1540.7 L868.407 1540.7 L868.407 1548.85 L863.754 1548.85 L863.754 1540.7 L848.152 1540.7 L848.152 1536.19 L862.527 1514.29 Z" fill="#000000" fill-rule="evenodd" fill-opacity="1" /><path clip-path="url(#clip190)" d="M1269.92 1529.7 Q1266.77 1529.7 1264.92 1531.86 Q1263.09 1534.01 1263.09 1537.76 Q1263.09 1541.49 1264.92 1543.66 Q1266.77 1545.82 1269.92 1545.82 Q1273.07 1545.82 1274.9 1543.66 Q1276.75 1541.49 1276.75 1537.76 Q1276.75 1534.01 1274.9 1531.86 Q1273.07 1529.7 1269.92 1529.7 M1279.2 1515.05 L1279.2 1519.31 Q1277.44 1518.48 1275.64 1518.04 Q1273.86 1517.6 1272.1 1517.6 Q1267.47 1517.6 1265.01 1520.72 Q1262.58 1523.85 1262.23 1530.17 Q1263.6 1528.15 1265.66 1527.09 Q1267.72 1526 1270.2 1526 Q1275.41 1526 1278.42 1529.17 Q1281.45 1532.32 1281.45 1537.76 Q1281.45 1543.08 1278.3 1546.3 Q1275.15 1549.52 1269.92 1549.52 Q1263.92 1549.52 1260.75 1544.94 Q1257.58 1540.33 1257.58 1531.6 Q1257.58 1523.41 1261.47 1518.55 Q1265.36 1513.66 1271.91 1513.66 Q1273.67 1513.66 1275.45 1514.01 Q1277.26 1514.36 1279.2 1515.05 Z" fill="#000000" fill-rule="evenodd" fill-opacity="1" /><path clip-path="url(#clip190)" d="M1678.29 1532.44 Q1674.95 1532.44 1673.03 1534.22 Q1671.13 1536 1671.13 1539.13 Q1671.13 1542.25 1673.03 1544.03 Q1674.95 1545.82 1678.29 1545.82 Q1681.62 1545.82 1683.54 1544.03 Q1685.46 1542.23 1685.46 1539.13 Q1685.46 1536 1683.54 1534.22 Q1681.64 1532.44 1678.29 1532.44 M1673.61 1530.45 Q1670.6 1529.7 1668.91 1527.64 Q1667.24 1525.58 1667.24 1522.62 Q1667.24 1518.48 1670.18 1516.07 Q1673.15 1513.66 1678.29 1513.66 Q1683.45 1513.66 1686.39 1516.07 Q1689.33 1518.48 1689.33 1522.62 Q1689.33 1525.58 1687.64 1527.64 Q1685.97 1529.7 1682.98 1530.45 Q1686.36 1531.23 1688.24 1533.52 Q1690.14 1535.82 1690.14 1539.13 Q1690.14 1544.15 1687.06 1546.83 Q1684 1549.52 1678.29 1549.52 Q1672.57 1549.52 1669.49 1546.83 Q1666.43 1544.15 1666.43 1539.13 Q1666.43 1535.82 1668.33 1533.52 Q1670.23 1531.23 1673.61 1530.45 M1671.9 1523.06 Q1671.9 1525.75 1673.56 1527.25 Q1675.25 1528.76 1678.29 1528.76 Q1681.29 1528.76 1682.98 1527.25 Q1684.7 1525.75 1684.7 1523.06 Q1684.7 1520.38 1682.98 1518.87 Q1681.29 1517.37 1678.29 1517.37 Q1675.25 1517.37 1673.56 1518.87 Q1671.9 1520.38 1671.9 1523.06 Z" fill="#000000" fill-rule="evenodd" fill-opacity="1" /><path clip-path="url(#clip190)" d="M2061.74 1544.91 L2069.38 1544.91 L2069.38 1518.55 L2061.07 1520.21 L2061.07 1515.95 L2069.34 1514.29 L2074.01 1514.29 L2074.01 1544.91 L2081.65 1544.91 L2081.65 1548.85 L2061.74 1548.85 L2061.74 1544.91 Z" fill="#000000" fill-rule="evenodd" fill-opacity="1" /><path clip-path="url(#clip190)" d="M2101.09 1517.37 Q2097.48 1517.37 2095.65 1520.93 Q2093.85 1524.47 2093.85 1531.6 Q2093.85 1538.71 2095.65 1542.27 Q2097.48 1545.82 2101.09 1545.82 Q2104.73 1545.82 2106.53 1542.27 Q2108.36 1538.71 2108.36 1531.6 Q2108.36 1524.47 2106.53 1520.93 Q2104.73 1517.37 2101.09 1517.37 M2101.09 1513.66 Q2106.9 1513.66 2109.96 1518.27 Q2113.04 1522.85 2113.04 1531.6 Q2113.04 1540.33 2109.96 1544.94 Q2106.9 1549.52 2101.09 1549.52 Q2095.28 1549.52 2092.21 1544.94 Q2089.15 1540.33 2089.15 1531.6 Q2089.15 1522.85 2092.21 1518.27 Q2095.28 1513.66 2101.09 1513.66 Z" fill="#000000" fill-rule="evenodd" fill-opacity="1" /><polyline clip-path="url(#clip192)" style="stroke:#000000; stroke-linecap:round; stroke-linejoin:round; stroke-width:2; stroke-opacity:0.1; fill:none" points="
  186.274,1389.73 2352.76,1389.73 
  "/>
<polyline clip-path="url(#clip192)" style="stroke:#000000; stroke-linecap:round; stroke-linejoin:round; stroke-width:2; stroke-opacity:0.1; fill:none" points="
  186.274,1064.29 2352.76,1064.29 
  "/>
<polyline clip-path="url(#clip192)" style="stroke:#000000; stroke-linecap:round; stroke-linejoin:round; stroke-width:2; stroke-opacity:0.1; fill:none" points="
  186.274,738.853 2352.76,738.853 
  "/>
<polyline clip-path="url(#clip192)" style="stroke:#000000; stroke-linecap:round; stroke-linejoin:round; stroke-width:2; stroke-opacity:0.1; fill:none" points="
  186.274,413.415 2352.76,413.415 
  "/>
<polyline clip-path="url(#clip192)" style="stroke:#000000; stroke-linecap:round; stroke-linejoin:round; stroke-width:2; stroke-opacity:0.1; fill:none" points="
  186.274,87.9763 2352.76,87.9763 
  "/>
<polyline clip-path="url(#clip190)" style="stroke:#000000; stroke-linecap:round; stroke-linejoin:round; stroke-width:4; stroke-opacity:1; fill:none" points="
  186.274,1486.45 186.274,47.2441 
  "/>
<polyline clip-path="url(#clip190)" style="stroke:#000000; stroke-linecap:round; stroke-linejoin:round; stroke-width:4; stroke-opacity:1; fill:none" points="
  186.274,1389.73 205.172,1389.73 
  "/>
<polyline clip-path="url(#clip190)" style="stroke:#000000; stroke-linecap:round; stroke-linejoin:round; stroke-width:4; stroke-opacity:1; fill:none" points="
  186.274,1064.29 205.172,1064.29 
  "/>
<polyline clip-path="url(#clip190)" style="stroke:#000000; stroke-linecap:round; stroke-linejoin:round; stroke-width:4; stroke-opacity:1; fill:none" points="
  186.274,738.853 205.172,738.853 
  "/>
<polyline clip-path="url(#clip190)" style="stroke:#000000; stroke-linecap:round; stroke-linejoin:round; stroke-width:4; stroke-opacity:1; fill:none" points="
  186.274,413.415 205.172,413.415 
  "/>
<polyline clip-path="url(#clip190)" style="stroke:#000000; stroke-linecap:round; stroke-linejoin:round; stroke-width:4; stroke-opacity:1; fill:none" points="
  186.274,87.9763 205.172,87.9763 
  "/>
<path clip-path="url(#clip190)" d="M62.9365 1375.53 Q59.3254 1375.53 57.4967 1379.09 Q55.6912 1382.64 55.6912 1389.77 Q55.6912 1396.87 57.4967 1400.44 Q59.3254 1403.98 62.9365 1403.98 Q66.5707 1403.98 68.3763 1400.44 Q70.205 1396.87 70.205 1389.77 Q70.205 1382.64 68.3763 1379.09 Q66.5707 1375.53 62.9365 1375.53 M62.9365 1371.83 Q68.7467 1371.83 71.8022 1376.43 Q74.8809 1381.02 74.8809 1389.77 Q74.8809 1398.49 71.8022 1403.1 Q68.7467 1407.68 62.9365 1407.68 Q57.1264 1407.68 54.0477 1403.1 Q50.9921 1398.49 50.9921 1389.77 Q50.9921 1381.02 54.0477 1376.43 Q57.1264 1371.83 62.9365 1371.83 Z" fill="#000000" fill-rule="evenodd" fill-opacity="1" /><path clip-path="url(#clip190)" d="M83.0984 1401.13 L87.9827 1401.13 L87.9827 1407.01 L83.0984 1407.01 L83.0984 1401.13 Z" fill="#000000" fill-rule="evenodd" fill-opacity="1" /><path clip-path="url(#clip190)" d="M108.168 1375.53 Q104.557 1375.53 102.728 1379.09 Q100.922 1382.64 100.922 1389.77 Q100.922 1396.87 102.728 1400.44 Q104.557 1403.98 108.168 1403.98 Q111.802 1403.98 113.608 1400.44 Q115.436 1396.87 115.436 1389.77 Q115.436 1382.64 113.608 1379.09 Q111.802 1375.53 108.168 1375.53 M108.168 1371.83 Q113.978 1371.83 117.033 1376.43 Q120.112 1381.02 120.112 1389.77 Q120.112 1398.49 117.033 1403.1 Q113.978 1407.68 108.168 1407.68 Q102.358 1407.68 99.2789 1403.1 Q96.2234 1398.49 96.2234 1389.77 Q96.2234 1381.02 99.2789 1376.43 Q102.358 1371.83 108.168 1371.83 Z" fill="#000000" fill-rule="evenodd" fill-opacity="1" /><path clip-path="url(#clip190)" d="M138.33 1375.53 Q134.719 1375.53 132.89 1379.09 Q131.084 1382.64 131.084 1389.77 Q131.084 1396.87 132.89 1400.44 Q134.719 1403.98 138.33 1403.98 Q141.964 1403.98 143.769 1400.44 Q145.598 1396.87 145.598 1389.77 Q145.598 1382.64 143.769 1379.09 Q141.964 1375.53 138.33 1375.53 M138.33 1371.83 Q144.14 1371.83 147.195 1376.43 Q150.274 1381.02 150.274 1389.77 Q150.274 1398.49 147.195 1403.1 Q144.14 1407.68 138.33 1407.68 Q132.519 1407.68 129.441 1403.1 Q126.385 1398.49 126.385 1389.77 Q126.385 1381.02 129.441 1376.43 Q132.519 1371.83 138.33 1371.83 Z" fill="#000000" fill-rule="evenodd" fill-opacity="1" /><path clip-path="url(#clip190)" d="M63.9319 1050.09 Q60.3208 1050.09 58.4921 1053.66 Q56.6865 1057.2 56.6865 1064.33 Q56.6865 1071.43 58.4921 1075 Q60.3208 1078.54 63.9319 1078.54 Q67.5661 1078.54 69.3717 1075 Q71.2004 1071.43 71.2004 1064.33 Q71.2004 1057.2 69.3717 1053.66 Q67.5661 1050.09 63.9319 1050.09 M63.9319 1046.39 Q69.742 1046.39 72.7976 1050.99 Q75.8763 1055.58 75.8763 1064.33 Q75.8763 1073.05 72.7976 1077.66 Q69.742 1082.24 63.9319 1082.24 Q58.1217 1082.24 55.043 1077.66 Q51.9875 1073.05 51.9875 1064.33 Q51.9875 1055.58 55.043 1050.99 Q58.1217 1046.39 63.9319 1046.39 Z" fill="#000000" fill-rule="evenodd" fill-opacity="1" /><path clip-path="url(#clip190)" d="M84.0938 1075.69 L88.978 1075.69 L88.978 1081.57 L84.0938 1081.57 L84.0938 1075.69 Z" fill="#000000" fill-rule="evenodd" fill-opacity="1" /><path clip-path="url(#clip190)" d="M103.191 1077.64 L119.51 1077.64 L119.51 1081.57 L97.566 1081.57 L97.566 1077.64 Q100.228 1074.88 104.811 1070.25 Q109.418 1065.6 110.598 1064.26 Q112.844 1061.73 113.723 1060 Q114.626 1058.24 114.626 1056.55 Q114.626 1053.79 112.682 1052.06 Q110.76 1050.32 107.658 1050.32 Q105.459 1050.32 103.006 1051.09 Q100.575 1051.85 97.7974 1053.4 L97.7974 1048.68 Q100.621 1047.54 103.075 1046.97 Q105.529 1046.39 107.566 1046.39 Q112.936 1046.39 116.131 1049.07 Q119.325 1051.76 119.325 1056.25 Q119.325 1058.38 118.515 1060.3 Q117.728 1062.2 115.621 1064.79 Q115.043 1065.46 111.941 1068.68 Q108.839 1071.87 103.191 1077.64 Z" fill="#000000" fill-rule="evenodd" fill-opacity="1" /><path clip-path="url(#clip190)" d="M129.371 1047.01 L147.728 1047.01 L147.728 1050.95 L133.654 1050.95 L133.654 1059.42 Q134.672 1059.07 135.691 1058.91 Q136.709 1058.72 137.728 1058.72 Q143.515 1058.72 146.894 1061.9 Q150.274 1065.07 150.274 1070.48 Q150.274 1076.06 146.802 1079.16 Q143.33 1082.24 137.01 1082.24 Q134.834 1082.24 132.566 1081.87 Q130.32 1081.5 127.913 1080.76 L127.913 1076.06 Q129.996 1077.2 132.219 1077.75 Q134.441 1078.31 136.918 1078.31 Q140.922 1078.31 143.26 1076.2 Q145.598 1074.1 145.598 1070.48 Q145.598 1066.87 143.26 1064.77 Q140.922 1062.66 136.918 1062.66 Q135.043 1062.66 133.168 1063.08 Q131.316 1063.49 129.371 1064.37 L129.371 1047.01 Z" fill="#000000" fill-rule="evenodd" fill-opacity="1" /><path clip-path="url(#clip190)" d="M62.9365 724.652 Q59.3254 724.652 57.4967 728.217 Q55.6912 731.758 55.6912 738.888 Q55.6912 745.995 57.4967 749.559 Q59.3254 753.101 62.9365 753.101 Q66.5707 753.101 68.3763 749.559 Q70.205 745.995 70.205 738.888 Q70.205 731.758 68.3763 728.217 Q66.5707 724.652 62.9365 724.652 M62.9365 720.948 Q68.7467 720.948 71.8022 725.555 Q74.8809 730.138 74.8809 738.888 Q74.8809 747.615 71.8022 752.221 Q68.7467 756.805 62.9365 756.805 Q57.1264 756.805 54.0477 752.221 Q50.9921 747.615 50.9921 738.888 Q50.9921 730.138 54.0477 725.555 Q57.1264 720.948 62.9365 720.948 Z" fill="#000000" fill-rule="evenodd" fill-opacity="1" /><path clip-path="url(#clip190)" d="M83.0984 750.254 L87.9827 750.254 L87.9827 756.133 L83.0984 756.133 L83.0984 750.254 Z" fill="#000000" fill-rule="evenodd" fill-opacity="1" /><path clip-path="url(#clip190)" d="M98.2141 721.573 L116.57 721.573 L116.57 725.509 L102.496 725.509 L102.496 733.981 Q103.515 733.633 104.534 733.471 Q105.552 733.286 106.571 733.286 Q112.358 733.286 115.737 736.458 Q119.117 739.629 119.117 745.045 Q119.117 750.624 115.645 753.726 Q112.172 756.805 105.853 756.805 Q103.677 756.805 101.409 756.434 Q99.1632 756.064 96.7558 755.323 L96.7558 750.624 Q98.8391 751.758 101.061 752.314 Q103.284 752.869 105.76 752.869 Q109.765 752.869 112.103 750.763 Q114.441 748.657 114.441 745.045 Q114.441 741.434 112.103 739.328 Q109.765 737.221 105.76 737.221 Q103.885 737.221 102.01 737.638 Q100.159 738.055 98.2141 738.934 L98.2141 721.573 Z" fill="#000000" fill-rule="evenodd" fill-opacity="1" /><path clip-path="url(#clip190)" d="M138.33 724.652 Q134.719 724.652 132.89 728.217 Q131.084 731.758 131.084 738.888 Q131.084 745.995 132.89 749.559 Q134.719 753.101 138.33 753.101 Q141.964 753.101 143.769 749.559 Q145.598 745.995 145.598 738.888 Q145.598 731.758 143.769 728.217 Q141.964 724.652 138.33 724.652 M138.33 720.948 Q144.14 720.948 147.195 725.555 Q150.274 730.138 150.274 738.888 Q150.274 747.615 147.195 752.221 Q144.14 756.805 138.33 756.805 Q132.519 756.805 129.441 752.221 Q126.385 747.615 126.385 738.888 Q126.385 730.138 129.441 725.555 Q132.519 720.948 138.33 720.948 Z" fill="#000000" fill-rule="evenodd" fill-opacity="1" /><path clip-path="url(#clip190)" d="M63.9319 399.214 Q60.3208 399.214 58.4921 402.778 Q56.6865 406.32 56.6865 413.45 Q56.6865 420.556 58.4921 424.121 Q60.3208 427.662 63.9319 427.662 Q67.5661 427.662 69.3717 424.121 Q71.2004 420.556 71.2004 413.45 Q71.2004 406.32 69.3717 402.778 Q67.5661 399.214 63.9319 399.214 M63.9319 395.51 Q69.742 395.51 72.7976 400.116 Q75.8763 404.7 75.8763 413.45 Q75.8763 422.176 72.7976 426.783 Q69.742 431.366 63.9319 431.366 Q58.1217 431.366 55.043 426.783 Q51.9875 422.176 51.9875 413.45 Q51.9875 404.7 55.043 400.116 Q58.1217 395.51 63.9319 395.51 Z" fill="#000000" fill-rule="evenodd" fill-opacity="1" /><path clip-path="url(#clip190)" d="M84.0938 424.815 L88.978 424.815 L88.978 430.695 L84.0938 430.695 L84.0938 424.815 Z" fill="#000000" fill-rule="evenodd" fill-opacity="1" /><path clip-path="url(#clip190)" d="M97.9826 396.135 L120.205 396.135 L120.205 398.126 L107.658 430.695 L102.774 430.695 L114.58 400.07 L97.9826 400.07 L97.9826 396.135 Z" fill="#000000" fill-rule="evenodd" fill-opacity="1" /><path clip-path="url(#clip190)" d="M129.371 396.135 L147.728 396.135 L147.728 400.07 L133.654 400.07 L133.654 408.542 Q134.672 408.195 135.691 408.033 Q136.709 407.848 137.728 407.848 Q143.515 407.848 146.894 411.019 Q150.274 414.19 150.274 419.607 Q150.274 425.186 146.802 428.287 Q143.33 431.366 137.01 431.366 Q134.834 431.366 132.566 430.996 Q130.32 430.625 127.913 429.885 L127.913 425.186 Q129.996 426.32 132.219 426.875 Q134.441 427.431 136.918 427.431 Q140.922 427.431 143.26 425.324 Q145.598 423.218 145.598 419.607 Q145.598 415.996 143.26 413.889 Q140.922 411.783 136.918 411.783 Q135.043 411.783 133.168 412.2 Q131.316 412.616 129.371 413.496 L129.371 396.135 Z" fill="#000000" fill-rule="evenodd" fill-opacity="1" /><path clip-path="url(#clip190)" d="M53.7467 101.321 L61.3856 101.321 L61.3856 74.9555 L53.0754 76.6222 L53.0754 72.3629 L61.3393 70.6963 L66.0152 70.6963 L66.0152 101.321 L73.654 101.321 L73.654 105.256 L53.7467 105.256 L53.7467 101.321 Z" fill="#000000" fill-rule="evenodd" fill-opacity="1" /><path clip-path="url(#clip190)" d="M83.0984 99.3767 L87.9827 99.3767 L87.9827 105.256 L83.0984 105.256 L83.0984 99.3767 Z" fill="#000000" fill-rule="evenodd" fill-opacity="1" /><path clip-path="url(#clip190)" d="M108.168 73.775 Q104.557 73.775 102.728 77.3398 Q100.922 80.8814 100.922 88.011 Q100.922 95.1174 102.728 98.6822 Q104.557 102.224 108.168 102.224 Q111.802 102.224 113.608 98.6822 Q115.436 95.1174 115.436 88.011 Q115.436 80.8814 113.608 77.3398 Q111.802 73.775 108.168 73.775 M108.168 70.0713 Q113.978 70.0713 117.033 74.6777 Q120.112 79.261 120.112 88.011 Q120.112 96.7378 117.033 101.344 Q113.978 105.928 108.168 105.928 Q102.358 105.928 99.2789 101.344 Q96.2234 96.7378 96.2234 88.011 Q96.2234 79.261 99.2789 74.6777 Q102.358 70.0713 108.168 70.0713 Z" fill="#000000" fill-rule="evenodd" fill-opacity="1" /><path clip-path="url(#clip190)" d="M138.33 73.775 Q134.719 73.775 132.89 77.3398 Q131.084 80.8814 131.084 88.011 Q131.084 95.1174 132.89 98.6822 Q134.719 102.224 138.33 102.224 Q141.964 102.224 143.769 98.6822 Q145.598 95.1174 145.598 88.011 Q145.598 80.8814 143.769 77.3398 Q141.964 73.775 138.33 73.775 M138.33 70.0713 Q144.14 70.0713 147.195 74.6777 Q150.274 79.261 150.274 88.011 Q150.274 96.7378 147.195 101.344 Q144.14 105.928 138.33 105.928 Q132.519 105.928 129.441 101.344 Q126.385 96.7378 126.385 88.011 Q126.385 79.261 129.441 74.6777 Q132.519 70.0713 138.33 70.0713 Z" fill="#000000" fill-rule="evenodd" fill-opacity="1" /><polyline clip-path="url(#clip192)" style="stroke:#009af9; stroke-linecap:round; stroke-linejoin:round; stroke-width:12; stroke-opacity:1; fill:none" points="
  247.59,87.9763 451.975,745.448 656.36,1084.29 860.745,1251.87 1065.13,1326.23 1269.51,1347.82 1473.9,1377.01 1678.29,1419.67 1882.67,1435.51 2087.06,1437.62 
  2291.44,1431.85 
  "/>
<polyline clip-path="url(#clip192)" style="stroke:#e26f46; stroke-linecap:round; stroke-linejoin:round; stroke-width:12; stroke-opacity:1; fill:none" points="
  247.59,87.9763 451.975,1249.93 656.36,1418.53 860.745,1394.79 1065.13,1435.78 1269.51,1445.72 1473.9,1393.85 1678.29,1427.08 1882.67,1372.49 2087.06,1334.9 
  2291.44,1377.01 
  "/>
<polyline clip-path="url(#clip192)" style="stroke:#3da44d; stroke-linecap:round; stroke-linejoin:round; stroke-width:12; stroke-opacity:1; fill:none" points="
  247.59,87.9763 451.975,187.974 656.36,214.478 860.745,247.158 1065.13,272.256 1269.51,304.504 1473.9,330.295 1678.29,364.301 1882.67,391.725 2087.06,422.298 
  2291.44,447.625 
  "/>
<polyline clip-path="url(#clip192)" style="stroke:#c271d2; stroke-linecap:round; stroke-linejoin:round; stroke-width:12; stroke-opacity:1; fill:none" points="
  247.59,87.9763 451.975,666.216 656.36,892.408 860.745,1024.84 1065.13,1109.81 1269.51,1176.85 1473.9,1246.3 1678.29,1286.31 1882.67,1298.8 2087.06,1331.91 
  2291.44,1336.85 
  "/>
<path clip-path="url(#clip190)" d="
M1885.81 354.418 L2280.54 354.418 L2280.54 95.2176 L1885.81 95.2176  Z
  " fill="#ffffff" fill-rule="evenodd" fill-opacity="1"/>
<polyline clip-path="url(#clip190)" style="stroke:#000000; stroke-linecap:round; stroke-linejoin:round; stroke-width:4; stroke-opacity:1; fill:none" points="
  1885.81,354.418 2280.54,354.418 2280.54,95.2176 1885.81,95.2176 1885.81,354.418 
  "/>
<polyline clip-path="url(#clip190)" style="stroke:#009af9; stroke-linecap:round; stroke-linejoin:round; stroke-width:12; stroke-opacity:1; fill:none" points="
  1909.89,147.058 2054.32,147.058 
  "/>
<path clip-path="url(#clip190)" d="M2078.39 129.778 L2083.07 129.778 L2083.07 143.944 L2100.06 143.944 L2100.06 129.778 L2104.73 129.778 L2104.73 164.338 L2100.06 164.338 L2100.06 147.879 L2083.07 147.879 L2083.07 164.338 L2078.39 164.338 L2078.39 129.778 Z" fill="#000000" fill-rule="evenodd" fill-opacity="1" /><path clip-path="url(#clip190)" d="M2114.04 129.778 L2121.01 129.778 L2129.82 153.296 L2138.69 129.778 L2145.66 129.778 L2145.66 164.338 L2141.1 164.338 L2141.1 133.99 L2132.19 157.694 L2127.49 157.694 L2118.58 133.99 L2118.58 164.338 L2114.04 164.338 L2114.04 129.778 Z" fill="#000000" fill-rule="evenodd" fill-opacity="1" /><path clip-path="url(#clip190)" d="M2180.82 132.44 L2180.82 137.37 Q2178.46 135.171 2175.77 134.083 Q2173.11 132.995 2170.1 132.995 Q2164.18 132.995 2161.03 136.629 Q2157.88 140.24 2157.88 147.092 Q2157.88 153.921 2161.03 157.555 Q2164.18 161.166 2170.1 161.166 Q2173.11 161.166 2175.77 160.078 Q2178.46 158.99 2180.82 156.791 L2180.82 161.676 Q2178.37 163.342 2175.61 164.176 Q2172.88 165.009 2169.82 165.009 Q2161.98 165.009 2157.46 160.217 Q2152.95 155.402 2152.95 147.092 Q2152.95 138.759 2157.46 133.967 Q2161.98 129.153 2169.82 129.153 Q2172.93 129.153 2175.66 129.986 Q2178.41 130.796 2180.82 132.44 Z" fill="#000000" fill-rule="evenodd" fill-opacity="1" /><polyline clip-path="url(#clip190)" style="stroke:#e26f46; stroke-linecap:round; stroke-linejoin:round; stroke-width:12; stroke-opacity:1; fill:none" points="
  1909.89,198.898 2054.32,198.898 
  "/>
<path clip-path="url(#clip190)" d="M2078.39 181.618 L2083.07 181.618 L2083.07 195.784 L2100.06 195.784 L2100.06 181.618 L2104.73 181.618 L2104.73 216.178 L2100.06 216.178 L2100.06 199.719 L2083.07 199.719 L2083.07 216.178 L2078.39 216.178 L2078.39 181.618 Z" fill="#000000" fill-rule="evenodd" fill-opacity="1" /><path clip-path="url(#clip190)" d="M2125.64 203.145 Q2120.47 203.145 2118.48 204.326 Q2116.49 205.506 2116.49 208.354 Q2116.49 210.622 2117.97 211.965 Q2119.48 213.284 2122.05 213.284 Q2125.59 213.284 2127.72 210.784 Q2129.87 208.261 2129.87 204.094 L2129.87 203.145 L2125.64 203.145 M2134.13 201.386 L2134.13 216.178 L2129.87 216.178 L2129.87 212.242 Q2128.41 214.603 2126.24 215.738 Q2124.06 216.849 2120.91 216.849 Q2116.93 216.849 2114.57 214.627 Q2112.23 212.381 2112.23 208.631 Q2112.23 204.256 2115.15 202.034 Q2118.09 199.812 2123.9 199.812 L2129.87 199.812 L2129.87 199.395 Q2129.87 196.455 2127.93 194.858 Q2126.01 193.238 2122.51 193.238 Q2120.29 193.238 2118.18 193.77 Q2116.08 194.303 2114.13 195.367 L2114.13 191.432 Q2116.47 190.53 2118.67 190.09 Q2120.87 189.627 2122.95 189.627 Q2128.57 189.627 2131.35 192.543 Q2134.13 195.46 2134.13 201.386 Z" fill="#000000" fill-rule="evenodd" fill-opacity="1" /><path clip-path="url(#clip190)" d="M2159.48 199.974 Q2160.98 200.483 2162.39 202.15 Q2163.83 203.817 2165.26 206.733 L2170.01 216.178 L2164.99 216.178 L2160.57 207.312 Q2158.85 203.84 2157.23 202.705 Q2155.64 201.571 2152.86 201.571 L2147.76 201.571 L2147.76 216.178 L2143.09 216.178 L2143.09 181.618 L2153.64 181.618 Q2159.57 181.618 2162.49 184.094 Q2165.4 186.571 2165.4 191.571 Q2165.4 194.835 2163.88 196.988 Q2162.37 199.141 2159.48 199.974 M2147.76 185.46 L2147.76 197.729 L2153.64 197.729 Q2157.02 197.729 2158.74 196.178 Q2160.47 194.604 2160.47 191.571 Q2160.47 188.539 2158.74 187.011 Q2157.02 185.46 2153.64 185.46 L2147.76 185.46 Z" fill="#000000" fill-rule="evenodd" fill-opacity="1" /><path clip-path="url(#clip190)" d="M2185.66 186.224 L2179.32 203.423 L2192.02 203.423 L2185.66 186.224 M2183.02 181.618 L2188.32 181.618 L2201.49 216.178 L2196.63 216.178 L2193.48 207.312 L2177.9 207.312 L2174.76 216.178 L2169.82 216.178 L2183.02 181.618 Z" fill="#000000" fill-rule="evenodd" fill-opacity="1" /><path clip-path="url(#clip190)" d="M2206.54 181.618 L2213.51 181.618 L2222.32 205.136 L2231.19 181.618 L2238.16 181.618 L2238.16 216.178 L2233.6 216.178 L2233.6 185.83 L2224.69 209.534 L2219.99 209.534 L2211.07 185.83 L2211.07 216.178 L2206.54 216.178 L2206.54 181.618 Z" fill="#000000" fill-rule="evenodd" fill-opacity="1" /><polyline clip-path="url(#clip190)" style="stroke:#3da44d; stroke-linecap:round; stroke-linejoin:round; stroke-width:12; stroke-opacity:1; fill:none" points="
  1909.89,250.738 2054.32,250.738 
  "/>
<path clip-path="url(#clip190)" d="M2094.78 251.814 Q2096.28 252.323 2097.7 253.99 Q2099.13 255.657 2100.57 258.573 L2105.31 268.018 L2100.29 268.018 L2095.87 259.152 Q2094.15 255.68 2092.53 254.545 Q2090.94 253.411 2088.16 253.411 L2083.07 253.411 L2083.07 268.018 L2078.39 268.018 L2078.39 233.458 L2088.95 233.458 Q2094.87 233.458 2097.79 235.934 Q2100.7 238.411 2100.7 243.411 Q2100.7 246.675 2099.18 248.828 Q2097.67 250.981 2094.78 251.814 M2083.07 237.3 L2083.07 249.569 L2088.95 249.569 Q2092.33 249.569 2094.04 248.018 Q2095.77 246.444 2095.77 243.411 Q2095.77 240.379 2094.04 238.851 Q2092.33 237.3 2088.95 237.3 L2083.07 237.3 Z" fill="#000000" fill-rule="evenodd" fill-opacity="1" /><path clip-path="url(#clip190)" d="M2120.96 238.064 L2114.62 255.263 L2127.32 255.263 L2120.96 238.064 M2118.32 233.458 L2123.62 233.458 L2136.79 268.018 L2131.93 268.018 L2128.78 259.152 L2113.2 259.152 L2110.06 268.018 L2105.13 268.018 L2118.32 233.458 Z" fill="#000000" fill-rule="evenodd" fill-opacity="1" /><path clip-path="url(#clip190)" d="M2141.84 233.458 L2148.81 233.458 L2157.63 256.976 L2166.49 233.458 L2173.46 233.458 L2173.46 268.018 L2168.9 268.018 L2168.9 237.67 L2159.99 261.374 L2155.29 261.374 L2146.38 237.67 L2146.38 268.018 L2141.84 268.018 L2141.84 233.458 Z" fill="#000000" fill-rule="evenodd" fill-opacity="1" /><polyline clip-path="url(#clip190)" style="stroke:#c271d2; stroke-linecap:round; stroke-linejoin:round; stroke-width:12; stroke-opacity:1; fill:none" points="
  1909.89,302.578 2054.32,302.578 
  "/>
<path clip-path="url(#clip190)" d="M2083.07 289.14 L2083.07 302.126 L2088.95 302.126 Q2092.21 302.126 2093.99 300.436 Q2095.77 298.747 2095.77 295.622 Q2095.77 292.52 2093.99 290.83 Q2092.21 289.14 2088.95 289.14 L2083.07 289.14 M2078.39 285.298 L2088.95 285.298 Q2094.76 285.298 2097.72 287.936 Q2100.7 290.552 2100.7 295.622 Q2100.7 300.737 2097.72 303.353 Q2094.76 305.969 2088.95 305.969 L2083.07 305.969 L2083.07 319.858 L2078.39 319.858 L2078.39 285.298 Z" fill="#000000" fill-rule="evenodd" fill-opacity="1" /><path clip-path="url(#clip190)" d="M2106.98 285.298 L2128.83 285.298 L2128.83 289.233 L2111.65 289.233 L2111.65 299.464 L2128.11 299.464 L2128.11 303.399 L2111.65 303.399 L2111.65 315.922 L2129.25 315.922 L2129.25 319.858 L2106.98 319.858 L2106.98 285.298 Z" fill="#000000" fill-rule="evenodd" fill-opacity="1" /><path clip-path="url(#clip190)" d="M2134.59 304.973 L2147.07 304.973 L2147.07 308.77 L2134.59 308.77 L2134.59 304.973 Z" fill="#000000" fill-rule="evenodd" fill-opacity="1" /><path clip-path="url(#clip190)" d="M2154.04 285.298 L2158.71 285.298 L2158.71 299.464 L2175.7 299.464 L2175.7 285.298 L2180.38 285.298 L2180.38 319.858 L2175.7 319.858 L2175.7 303.399 L2158.71 303.399 L2158.71 319.858 L2154.04 319.858 L2154.04 285.298 Z" fill="#000000" fill-rule="evenodd" fill-opacity="1" /><path clip-path="url(#clip190)" d="M2189.69 285.298 L2196.65 285.298 L2205.47 308.816 L2214.34 285.298 L2221.31 285.298 L2221.31 319.858 L2216.75 319.858 L2216.75 289.51 L2207.83 313.214 L2203.13 313.214 L2194.22 289.51 L2194.22 319.858 L2189.69 319.858 L2189.69 285.298 Z" fill="#000000" fill-rule="evenodd" fill-opacity="1" /><path clip-path="url(#clip190)" d="M2256.47 287.96 L2256.47 292.89 Q2254.11 290.691 2251.42 289.603 Q2248.76 288.515 2245.75 288.515 Q2239.82 288.515 2236.68 292.149 Q2233.53 295.76 2233.53 302.612 Q2233.53 309.441 2236.68 313.075 Q2239.82 316.686 2245.75 316.686 Q2248.76 316.686 2251.42 315.598 Q2254.11 314.51 2256.47 312.311 L2256.47 317.196 Q2254.01 318.862 2251.26 319.696 Q2248.53 320.529 2245.47 320.529 Q2237.63 320.529 2233.11 315.737 Q2228.6 310.922 2228.6 302.612 Q2228.6 294.279 2233.11 289.487 Q2237.63 284.673 2245.47 284.673 Q2248.57 284.673 2251.31 285.506 Q2254.06 286.316 2256.47 287.96 Z" fill="#000000" fill-rule="evenodd" fill-opacity="1" /></svg>
