<?xml version="1.0" encoding="utf-8"?>
<svg xmlns="http://www.w3.org/2000/svg" xmlns:xlink="http://www.w3.org/1999/xlink" width="600" height="400" viewBox="0 0 2400 1600">
<defs>
  <clipPath id="clip290">
    <rect x="0" y="0" width="2400" height="1600"/>
  </clipPath>
</defs>
<path clip-path="url(#clip290)" d="
M0 1600 L2400 1600 L2400 0 L0 0  Z
  " fill="#ffffff" fill-rule="evenodd" fill-opacity="1"/>
<defs>
  <clipPath id="clip291">
    <rect x="480" y="0" width="1681" height="1600"/>
  </clipPath>
</defs>
<path clip-path="url(#clip290)" d="
M186.274 1486.45 L2352.76 1486.45 L2352.76 123.472 L186.274 123.472  Z
  " fill="#ffffff" fill-rule="evenodd" fill-opacity="1"/>
<defs>
  <clipPath id="clip292">
    <rect x="186" y="123" width="2167" height="1364"/>
  </clipPath>
</defs>
<polyline clip-path="url(#clip292)" style="stroke:#000000; stroke-linecap:round; stroke-linejoin:round; stroke-width:2; stroke-opacity:0.1; fill:none" points="
  451.975,1486.45 451.975,123.472 
  "/>
<polyline clip-path="url(#clip292)" style="stroke:#000000; stroke-linecap:round; stroke-linejoin:round; stroke-width:2; stroke-opacity:0.1; fill:none" points="
  860.745,1486.45 860.745,123.472 
  "/>
<polyline clip-path="url(#clip292)" style="stroke:#000000; stroke-linecap:round; stroke-linejoin:round; stroke-width:2; stroke-opacity:0.1; fill:none" points="
  1269.51,1486.45 1269.51,123.472 
  "/>
<polyline clip-path="url(#clip292)" style="stroke:#000000; stroke-linecap:round; stroke-linejoin:round; stroke-width:2; stroke-opacity:0.1; fill:none" points="
  1678.29,1486.45 1678.29,123.472 
  "/>
<polyline clip-path="url(#clip292)" style="stroke:#000000; stroke-linecap:round; stroke-linejoin:round; stroke-width:2; stroke-opacity:0.1; fill:none" points="
  2087.06,1486.45 2087.06,123.472 
  "/>
<polyline clip-path="url(#clip290)" style="stroke:#000000; stroke-linecap:round; stroke-linejoin:round; stroke-width:4; stroke-opacity:1; fill:none" points="
  186.274,1486.45 2352.76,1486.45 
  "/>
<polyline clip-path="url(#clip290)" style="stroke:#000000; stroke-linecap:round; stroke-linejoin:round; stroke-width:4; stroke-opacity:1; fill:none" points="
  451.975,1486.45 451.975,1467.55 
  "/>
<polyline clip-path="url(#clip290)" style="stroke:#000000; stroke-linecap:round; stroke-linejoin:round; stroke-width:4; stroke-opacity:1; fill:none" points="
  860.745,1486.45 860.745,1467.55 
  "/>
<polyline clip-path="url(#clip290)" style="stroke:#000000; stroke-linecap:round; stroke-linejoin:round; stroke-width:4; stroke-opacity:1; fill:none" points="
  1269.51,1486.45 1269.51,1467.55 
  "/>
<polyline clip-path="url(#clip290)" style="stroke:#000000; stroke-linecap:round; stroke-linejoin:round; stroke-width:4; stroke-opacity:1; fill:none" points="
  1678.29,1486.45 1678.29,1467.55 
  "/>
<polyline clip-path="url(#clip290)" style="stroke:#000000; stroke-linecap:round; stroke-linejoin:round; stroke-width:4; stroke-opacity:1; fill:none" points="
  2087.06,1486.45 2087.06,1467.55 
  "/>
<path clip-path="url(#clip290)" d="M446.627 1544.91 L462.947 1544.91 L462.947 1548.85 L441.002 1548.85 L441.002 1544.91 Q443.664 1542.16 448.248 1537.53 Q452.854 1532.88 454.035 1531.53 Q456.28 1529.01 457.16 1527.27 Q458.063 1525.51 458.063 1523.82 Q458.063 1521.07 456.118 1519.33 Q454.197 1517.6 451.095 1517.6 Q448.896 1517.6 446.442 1518.36 Q444.012 1519.13 441.234 1520.68 L441.234 1515.95 Q444.058 1514.82 446.512 1514.24 Q448.965 1513.66 451.002 1513.66 Q456.373 1513.66 459.567 1516.35 Q462.762 1519.03 462.762 1523.52 Q462.762 1525.65 461.951 1527.57 Q461.164 1529.47 459.058 1532.07 Q458.479 1532.74 455.377 1535.95 Q452.276 1539.15 446.627 1544.91 Z" fill="#000000" fill-rule="evenodd" fill-opacity="1" /><path clip-path="url(#clip290)" d="M863.754 1518.36 L851.949 1536.81 L863.754 1536.81 L863.754 1518.36 M862.527 1514.29 L868.407 1514.29 L868.407 1536.81 L873.337 1536.81 L873.337 1540.7 L868.407 1540.7 L868.407 1548.85 L863.754 1548.85 L863.754 1540.7 L848.152 1540.7 L848.152 1536.19 L862.527 1514.29 Z" fill="#000000" fill-rule="evenodd" fill-opacity="1" /><path clip-path="url(#clip290)" d="M1269.92 1529.7 Q1266.77 1529.7 1264.92 1531.86 Q1263.09 1534.01 1263.09 1537.76 Q1263.09 1541.49 1264.92 1543.66 Q1266.77 1545.82 1269.92 1545.82 Q1273.07 1545.82 1274.9 1543.66 Q1276.75 1541.49 1276.75 1537.76 Q1276.75 1534.01 1274.9 1531.86 Q1273.07 1529.7 1269.92 1529.7 M1279.2 1515.05 L1279.2 1519.31 Q1277.44 1518.48 1275.64 1518.04 Q1273.86 1517.6 1272.1 1517.6 Q1267.47 1517.6 1265.01 1520.72 Q1262.58 1523.85 1262.23 1530.17 Q1263.6 1528.15 1265.66 1527.09 Q1267.72 1526 1270.2 1526 Q1275.41 1526 1278.42 1529.17 Q1281.45 1532.32 1281.45 1537.76 Q1281.45 1543.08 1278.3 1546.3 Q1275.15 1549.52 1269.92 1549.52 Q1263.92 1549.52 1260.75 1544.94 Q1257.58 1540.33 1257.58 1531.6 Q1257.58 1523.41 1261.47 1518.55 Q1265.36 1513.66 1271.91 1513.66 Q1273.67 1513.66 1275.45 1514.01 Q1277.26 1514.36 1279.2 1515.05 Z" fill="#000000" fill-rule="evenodd" fill-opacity="1" /><path clip-path="url(#clip290)" d="M1678.29 1532.44 Q1674.95 1532.44 1673.03 1534.22 Q1671.13 1536 1671.13 1539.13 Q1671.13 1542.25 1673.03 1544.03 Q1674.95 1545.82 1678.29 1545.82 Q1681.62 1545.82 1683.54 1544.03 Q1685.46 1542.23 1685.46 1539.13 Q1685.46 1536 1683.54 1534.22 Q1681.64 1532.44 1678.29 1532.44 M1673.61 1530.45 Q1670.6 1529.7 1668.91 1527.64 Q1667.24 1525.58 1667.24 1522.62 Q1667.24 1518.48 1670.18 1516.07 Q1673.15 1513.66 1678.29 1513.66 Q1683.45 1513.66 1686.39 1516.07 Q1689.33 1518.48 1689.33 1522.62 Q1689.33 1525.58 1687.64 1527.64 Q1685.97 1529.7 1682.98 1530.45 Q1686.36 1531.23 1688.24 1533.52 Q1690.14 1535.82 1690.14 1539.13 Q1690.14 1544.15 1687.06 1546.83 Q1684 1549.52 1678.29 1549.52 Q1672.57 1549.52 1669.49 1546.83 Q1666.43 1544.15 1666.43 1539.13 Q1666.43 1535.82 1668.33 1533.52 Q1670.23 1531.23 1673.61 1530.45 M1671.9 1523.06 Q1671.9 1525.75 1673.56 1527.25 Q1675.25 1528.76 1678.29 1528.76 Q1681.29 1528.76 1682.98 1527.25 Q1684.7 1525.75 1684.7 1523.06 Q1684.7 1520.38 1682.98 1518.87 Q1681.29 1517.37 1678.29 1517.37 Q1675.25 1517.37 1673.56 1518.87 Q1671.9 1520.38 1671.9 1523.06 Z" fill="#000000" fill-rule="evenodd" fill-opacity="1" /><path clip-path="url(#clip290)" d="M2061.74 1544.91 L2069.38 1544.91 L2069.38 1518.55 L2061.07 1520.21 L2061.07 1515.95 L2069.34 1514.29 L2074.01 1514.29 L2074.01 1544.91 L2081.65 1544.91 L2081.65 1548.85 L2061.74 1548.85 L2061.74 1544.91 Z" fill="#000000" fill-rule="evenodd" fill-opacity="1" /><path clip-path="url(#clip290)" d="M2101.09 1517.37 Q2097.48 1517.37 2095.65 1520.93 Q2093.85 1524.47 2093.85 1531.6 Q2093.85 1538.71 2095.65 1542.27 Q2097.48 1545.82 2101.09 1545.82 Q2104.73 1545.82 2106.53 1542.27 Q2108.36 1538.71 2108.36 1531.6 Q2108.36 1524.47 2106.53 1520.93 Q2104.73 1517.37 2101.09 1517.37 M2101.09 1513.66 Q2106.9 1513.66 2109.96 1518.27 Q2113.04 1522.85 2113.04 1531.6 Q2113.04 1540.33 2109.96 1544.94 Q2106.9 1549.52 2101.09 1549.52 Q2095.28 1549.52 2092.21 1544.94 Q2089.15 1540.33 2089.15 1531.6 Q2089.15 1522.85 2092.21 1518.27 Q2095.28 1513.66 2101.09 1513.66 Z" fill="#000000" fill-rule="evenodd" fill-opacity="1" /><polyline clip-path="url(#clip292)" style="stroke:#000000; stroke-linecap:round; stroke-linejoin:round; stroke-width:2; stroke-opacity:0.1; fill:none" points="
  186.274,1394.85 2352.76,1394.85 
  "/>
<polyline clip-path="url(#clip292)" style="stroke:#000000; stroke-linecap:round; stroke-linejoin:round; stroke-width:2; stroke-opacity:0.1; fill:none" points="
  186.274,1086.65 2352.76,1086.65 
  "/>
<polyline clip-path="url(#clip292)" style="stroke:#000000; stroke-linecap:round; stroke-linejoin:round; stroke-width:2; stroke-opacity:0.1; fill:none" points="
  186.274,778.45 2352.76,778.45 
  "/>
<polyline clip-path="url(#clip292)" style="stroke:#000000; stroke-linecap:round; stroke-linejoin:round; stroke-width:2; stroke-opacity:0.1; fill:none" points="
  186.274,470.248 2352.76,470.248 
  "/>
<polyline clip-path="url(#clip292)" style="stroke:#000000; stroke-linecap:round; stroke-linejoin:round; stroke-width:2; stroke-opacity:0.1; fill:none" points="
  186.274,162.047 2352.76,162.047 
  "/>
<polyline clip-path="url(#clip290)" style="stroke:#000000; stroke-linecap:round; stroke-linejoin:round; stroke-width:4; stroke-opacity:1; fill:none" points="
  186.274,1486.45 186.274,123.472 
  "/>
<polyline clip-path="url(#clip290)" style="stroke:#000000; stroke-linecap:round; stroke-linejoin:round; stroke-width:4; stroke-opacity:1; fill:none" points="
  186.274,1394.85 205.172,1394.85 
  "/>
<polyline clip-path="url(#clip290)" style="stroke:#000000; stroke-linecap:round; stroke-linejoin:round; stroke-width:4; stroke-opacity:1; fill:none" points="
  186.274,1086.65 205.172,1086.65 
  "/>
<polyline clip-path="url(#clip290)" style="stroke:#000000; stroke-linecap:round; stroke-linejoin:round; stroke-width:4; stroke-opacity:1; fill:none" points="
  186.274,778.45 205.172,778.45 
  "/>
<polyline clip-path="url(#clip290)" style="stroke:#000000; stroke-linecap:round; stroke-linejoin:round; stroke-width:4; stroke-opacity:1; fill:none" points="
  186.274,470.248 205.172,470.248 
  "/>
<polyline clip-path="url(#clip290)" style="stroke:#000000; stroke-linecap:round; stroke-linejoin:round; stroke-width:4; stroke-opacity:1; fill:none" points="
  186.274,162.047 205.172,162.047 
  "/>
<path clip-path="url(#clip290)" d="M62.9365 1380.65 Q59.3254 1380.65 57.4967 1384.22 Q55.6912 1387.76 55.6912 1394.89 Q55.6912 1401.99 57.4967 1405.56 Q59.3254 1409.1 62.9365 1409.1 Q66.5707 1409.1 68.3763 1405.56 Q70.205 1401.99 70.205 1394.89 Q70.205 1387.76 68.3763 1384.22 Q66.5707 1380.65 62.9365 1380.65 M62.9365 1376.95 Q68.7467 1376.95 71.8022 1381.55 Q74.8809 1386.14 74.8809 1394.89 Q74.8809 1403.61 71.8022 1408.22 Q68.7467 1412.8 62.9365 1412.8 Q57.1264 1412.8 54.0477 1408.22 Q50.9921 1403.61 50.9921 1394.89 Q50.9921 1386.14 54.0477 1381.55 Q57.1264 1376.95 62.9365 1376.95 Z" fill="#000000" fill-rule="evenodd" fill-opacity="1" /><path clip-path="url(#clip290)" d="M83.0984 1406.25 L87.9827 1406.25 L87.9827 1412.13 L83.0984 1412.13 L83.0984 1406.25 Z" fill="#000000" fill-rule="evenodd" fill-opacity="1" /><path clip-path="url(#clip290)" d="M108.168 1380.65 Q104.557 1380.65 102.728 1384.22 Q100.922 1387.76 100.922 1394.89 Q100.922 1401.99 102.728 1405.56 Q104.557 1409.1 108.168 1409.1 Q111.802 1409.1 113.608 1405.56 Q115.436 1401.99 115.436 1394.89 Q115.436 1387.76 113.608 1384.22 Q111.802 1380.65 108.168 1380.65 M108.168 1376.95 Q113.978 1376.95 117.033 1381.55 Q120.112 1386.14 120.112 1394.89 Q120.112 1403.61 117.033 1408.22 Q113.978 1412.8 108.168 1412.8 Q102.358 1412.8 99.2789 1408.22 Q96.2234 1403.61 96.2234 1394.89 Q96.2234 1386.14 99.2789 1381.55 Q102.358 1376.95 108.168 1376.95 Z" fill="#000000" fill-rule="evenodd" fill-opacity="1" /><path clip-path="url(#clip290)" d="M138.33 1380.65 Q134.719 1380.65 132.89 1384.22 Q131.084 1387.76 131.084 1394.89 Q131.084 1401.99 132.89 1405.56 Q134.719 1409.1 138.33 1409.1 Q141.964 1409.1 143.769 1405.56 Q145.598 1401.99 145.598 1394.89 Q145.598 1387.76 143.769 1384.22 Q141.964 1380.65 138.33 1380.65 M138.33 1376.95 Q144.14 1376.95 147.195 1381.55 Q150.274 1386.14 150.274 1394.89 Q150.274 1403.61 147.195 1408.22 Q144.14 1412.8 138.33 1412.8 Q132.519 1412.8 129.441 1408.22 Q126.385 1403.61 126.385 1394.89 Q126.385 1386.14 129.441 1381.55 Q132.519 1376.95 138.33 1376.95 Z" fill="#000000" fill-rule="evenodd" fill-opacity="1" /><path clip-path="url(#clip290)" d="M63.9319 1072.45 Q60.3208 1072.45 58.4921 1076.02 Q56.6865 1079.56 56.6865 1086.69 Q56.6865 1093.79 58.4921 1097.36 Q60.3208 1100.9 63.9319 1100.9 Q67.5661 1100.9 69.3717 1097.36 Q71.2004 1093.79 71.2004 1086.69 Q71.2004 1079.56 69.3717 1076.02 Q67.5661 1072.45 63.9319 1072.45 M63.9319 1068.75 Q69.742 1068.75 72.7976 1073.35 Q75.8763 1077.94 75.8763 1086.69 Q75.8763 1095.41 72.7976 1100.02 Q69.742 1104.6 63.9319 1104.6 Q58.1217 1104.6 55.043 1100.02 Q51.9875 1095.41 51.9875 1086.69 Q51.9875 1077.94 55.043 1073.35 Q58.1217 1068.75 63.9319 1068.75 Z" fill="#000000" fill-rule="evenodd" fill-opacity="1" /><path clip-path="url(#clip290)" d="M84.0938 1098.05 L88.978 1098.05 L88.978 1103.93 L84.0938 1103.93 L84.0938 1098.05 Z" fill="#000000" fill-rule="evenodd" fill-opacity="1" /><path clip-path="url(#clip290)" d="M103.191 1100 L119.51 1100 L119.51 1103.93 L97.566 1103.93 L97.566 1100 Q100.228 1097.24 104.811 1092.61 Q109.418 1087.96 110.598 1086.62 Q112.844 1084.09 113.723 1082.36 Q114.626 1080.6 114.626 1078.91 Q114.626 1076.15 112.682 1074.42 Q110.76 1072.68 107.658 1072.68 Q105.459 1072.68 103.006 1073.45 Q100.575 1074.21 97.7974 1075.76 L97.7974 1071.04 Q100.621 1069.9 103.075 1069.33 Q105.529 1068.75 107.566 1068.75 Q112.936 1068.75 116.131 1071.43 Q119.325 1074.12 119.325 1078.61 Q119.325 1080.74 118.515 1082.66 Q117.728 1084.56 115.621 1087.15 Q115.043 1087.82 111.941 1091.04 Q108.839 1094.23 103.191 1100 Z" fill="#000000" fill-rule="evenodd" fill-opacity="1" /><path clip-path="url(#clip290)" d="M129.371 1069.37 L147.728 1069.37 L147.728 1073.31 L133.654 1073.31 L133.654 1081.78 Q134.672 1081.43 135.691 1081.27 Q136.709 1081.08 137.728 1081.08 Q143.515 1081.08 146.894 1084.26 Q150.274 1087.43 150.274 1092.84 Q150.274 1098.42 146.802 1101.52 Q143.33 1104.6 137.01 1104.6 Q134.834 1104.6 132.566 1104.23 Q130.32 1103.86 127.913 1103.12 L127.913 1098.42 Q129.996 1099.56 132.219 1100.11 Q134.441 1100.67 136.918 1100.67 Q140.922 1100.67 143.26 1098.56 Q145.598 1096.45 145.598 1092.84 Q145.598 1089.23 143.26 1087.13 Q140.922 1085.02 136.918 1085.02 Q135.043 1085.02 133.168 1085.44 Q131.316 1085.85 129.371 1086.73 L129.371 1069.37 Z" fill="#000000" fill-rule="evenodd" fill-opacity="1" /><path clip-path="url(#clip290)" d="M62.9365 764.249 Q59.3254 764.249 57.4967 767.813 Q55.6912 771.355 55.6912 778.485 Q55.6912 785.591 57.4967 789.156 Q59.3254 792.698 62.9365 792.698 Q66.5707 792.698 68.3763 789.156 Q70.205 785.591 70.205 778.485 Q70.205 771.355 68.3763 767.813 Q66.5707 764.249 62.9365 764.249 M62.9365 760.545 Q68.7467 760.545 71.8022 765.151 Q74.8809 769.735 74.8809 778.485 Q74.8809 787.212 71.8022 791.818 Q68.7467 796.401 62.9365 796.401 Q57.1264 796.401 54.0477 791.818 Q50.9921 787.212 50.9921 778.485 Q50.9921 769.735 54.0477 765.151 Q57.1264 760.545 62.9365 760.545 Z" fill="#000000" fill-rule="evenodd" fill-opacity="1" /><path clip-path="url(#clip290)" d="M83.0984 789.85 L87.9827 789.85 L87.9827 795.73 L83.0984 795.73 L83.0984 789.85 Z" fill="#000000" fill-rule="evenodd" fill-opacity="1" /><path clip-path="url(#clip290)" d="M98.2141 761.17 L116.57 761.17 L116.57 765.105 L102.496 765.105 L102.496 773.577 Q103.515 773.23 104.534 773.068 Q105.552 772.883 106.571 772.883 Q112.358 772.883 115.737 776.054 Q119.117 779.225 119.117 784.642 Q119.117 790.221 115.645 793.323 Q112.172 796.401 105.853 796.401 Q103.677 796.401 101.409 796.031 Q99.1632 795.661 96.7558 794.92 L96.7558 790.221 Q98.8391 791.355 101.061 791.911 Q103.284 792.466 105.76 792.466 Q109.765 792.466 112.103 790.36 Q114.441 788.253 114.441 784.642 Q114.441 781.031 112.103 778.925 Q109.765 776.818 105.76 776.818 Q103.885 776.818 102.01 777.235 Q100.159 777.651 98.2141 778.531 L98.2141 761.17 Z" fill="#000000" fill-rule="evenodd" fill-opacity="1" /><path clip-path="url(#clip290)" d="M138.33 764.249 Q134.719 764.249 132.89 767.813 Q131.084 771.355 131.084 778.485 Q131.084 785.591 132.89 789.156 Q134.719 792.698 138.33 792.698 Q141.964 792.698 143.769 789.156 Q145.598 785.591 145.598 778.485 Q145.598 771.355 143.769 767.813 Q141.964 764.249 138.33 764.249 M138.33 760.545 Q144.14 760.545 147.195 765.151 Q150.274 769.735 150.274 778.485 Q150.274 787.212 147.195 791.818 Q144.14 796.401 138.33 796.401 Q132.519 796.401 129.441 791.818 Q126.385 787.212 126.385 778.485 Q126.385 769.735 129.441 765.151 Q132.519 760.545 138.33 760.545 Z" fill="#000000" fill-rule="evenodd" fill-opacity="1" /><path clip-path="url(#clip290)" d="M63.9319 456.047 Q60.3208 456.047 58.4921 459.612 Q56.6865 463.154 56.6865 470.283 Q56.6865 477.39 58.4921 480.954 Q60.3208 484.496 63.9319 484.496 Q67.5661 484.496 69.3717 480.954 Q71.2004 477.39 71.2004 470.283 Q71.2004 463.154 69.3717 459.612 Q67.5661 456.047 63.9319 456.047 M63.9319 452.343 Q69.742 452.343 72.7976 456.95 Q75.8763 461.533 75.8763 470.283 Q75.8763 479.01 72.7976 483.616 Q69.742 488.2 63.9319 488.2 Q58.1217 488.2 55.043 483.616 Q51.9875 479.01 51.9875 470.283 Q51.9875 461.533 55.043 456.95 Q58.1217 452.343 63.9319 452.343 Z" fill="#000000" fill-rule="evenodd" fill-opacity="1" /><path clip-path="url(#clip290)" d="M84.0938 481.649 L88.978 481.649 L88.978 487.528 L84.0938 487.528 L84.0938 481.649 Z" fill="#000000" fill-rule="evenodd" fill-opacity="1" /><path clip-path="url(#clip290)" d="M97.9826 452.968 L120.205 452.968 L120.205 454.959 L107.658 487.528 L102.774 487.528 L114.58 456.904 L97.9826 456.904 L97.9826 452.968 Z" fill="#000000" fill-rule="evenodd" fill-opacity="1" /><path clip-path="url(#clip290)" d="M129.371 452.968 L147.728 452.968 L147.728 456.904 L133.654 456.904 L133.654 465.376 Q134.672 465.029 135.691 464.867 Q136.709 464.681 137.728 464.681 Q143.515 464.681 146.894 467.853 Q150.274 471.024 150.274 476.441 Q150.274 482.019 146.802 485.121 Q143.33 488.2 137.01 488.2 Q134.834 488.2 132.566 487.829 Q130.32 487.459 127.913 486.718 L127.913 482.019 Q129.996 483.153 132.219 483.709 Q134.441 484.265 136.918 484.265 Q140.922 484.265 143.26 482.158 Q145.598 480.052 145.598 476.441 Q145.598 472.829 143.26 470.723 Q140.922 468.617 136.918 468.617 Q135.043 468.617 133.168 469.033 Q131.316 469.45 129.371 470.329 L129.371 452.968 Z" fill="#000000" fill-rule="evenodd" fill-opacity="1" /><path clip-path="url(#clip290)" d="M53.7467 175.392 L61.3856 175.392 L61.3856 149.026 L53.0754 150.693 L53.0754 146.434 L61.3393 144.767 L66.0152 144.767 L66.0152 175.392 L73.654 175.392 L73.654 179.327 L53.7467 179.327 L53.7467 175.392 Z" fill="#000000" fill-rule="evenodd" fill-opacity="1" /><path clip-path="url(#clip290)" d="M83.0984 173.447 L87.9827 173.447 L87.9827 179.327 L83.0984 179.327 L83.0984 173.447 Z" fill="#000000" fill-rule="evenodd" fill-opacity="1" /><path clip-path="url(#clip290)" d="M108.168 147.846 Q104.557 147.846 102.728 151.41 Q100.922 154.952 100.922 162.082 Q100.922 169.188 102.728 172.753 Q104.557 176.295 108.168 176.295 Q111.802 176.295 113.608 172.753 Q115.436 169.188 115.436 162.082 Q115.436 154.952 113.608 151.41 Q111.802 147.846 108.168 147.846 M108.168 144.142 Q113.978 144.142 117.033 148.748 Q120.112 153.332 120.112 162.082 Q120.112 170.808 117.033 175.415 Q113.978 179.998 108.168 179.998 Q102.358 179.998 99.2789 175.415 Q96.2234 170.808 96.2234 162.082 Q96.2234 153.332 99.2789 148.748 Q102.358 144.142 108.168 144.142 Z" fill="#000000" fill-rule="evenodd" fill-opacity="1" /><path clip-path="url(#clip290)" d="M138.33 147.846 Q134.719 147.846 132.89 151.41 Q131.084 154.952 131.084 162.082 Q131.084 169.188 132.89 172.753 Q134.719 176.295 138.33 176.295 Q141.964 176.295 143.769 172.753 Q145.598 169.188 145.598 162.082 Q145.598 154.952 143.769 151.41 Q141.964 147.846 138.33 147.846 M138.33 144.142 Q144.14 144.142 147.195 148.748 Q150.274 153.332 150.274 162.082 Q150.274 170.808 147.195 175.415 Q144.14 179.998 138.33 179.998 Q132.519 179.998 129.441 175.415 Q126.385 170.808 126.385 162.082 Q126.385 153.332 129.441 148.748 Q132.519 144.142 138.33 144.142 Z" fill="#000000" fill-rule="evenodd" fill-opacity="1" /><path clip-path="url(#clip290)" d="M1221.57 34.0924 L1221.57 9.54393 L1229.03 9.54393 L1229.03 72.576 L1221.57 72.576 L1221.57 65.7705 Q1219.22 69.8214 1215.62 71.8063 Q1212.05 73.7508 1207.03 73.7508 Q1198.81 73.7508 1193.62 67.1883 Q1188.48 60.6258 1188.48 49.9314 Q1188.48 39.2371 1193.62 32.6746 Q1198.81 26.1121 1207.03 26.1121 Q1212.05 26.1121 1215.62 28.0971 Q1219.22 30.0415 1221.57 34.0924 M1196.17 49.9314 Q1196.17 58.1548 1199.54 62.8538 Q1202.94 67.5124 1208.85 67.5124 Q1214.77 67.5124 1218.17 62.8538 Q1221.57 58.1548 1221.57 49.9314 Q1221.57 41.7081 1218.17 37.0496 Q1214.77 32.3505 1208.85 32.3505 Q1202.94 32.3505 1199.54 37.0496 Q1196.17 41.7081 1196.17 49.9314 Z" fill="#000000" fill-rule="evenodd" fill-opacity="1" /><path clip-path="url(#clip290)" d="M1245.35 34.9026 L1297.28 34.9026 L1297.28 41.7081 L1245.35 41.7081 L1245.35 34.9026 M1245.35 51.4303 L1297.28 51.4303 L1297.28 58.3168 L1245.35 58.3168 L1245.35 51.4303 Z" fill="#000000" fill-rule="evenodd" fill-opacity="1" /><path clip-path="url(#clip290)" d="M1321.99 65.6895 L1350.55 65.6895 L1350.55 72.576 L1312.15 72.576 L1312.15 65.6895 Q1316.81 60.8689 1324.83 52.7671 Q1332.89 44.6248 1334.96 42.2752 Q1338.89 37.8598 1340.43 34.8216 Q1342.01 31.7429 1342.01 28.7857 Q1342.01 23.9651 1338.6 20.927 Q1335.24 17.8888 1329.81 17.8888 Q1325.96 17.8888 1321.67 19.2256 Q1317.42 20.5624 1312.56 23.2765 L1312.56 15.0127 Q1317.5 13.0277 1321.79 12.015 Q1326.09 11.0023 1329.65 11.0023 Q1339.05 11.0023 1344.64 15.7013 Q1350.23 20.4004 1350.23 28.2591 Q1350.23 31.9859 1348.81 35.3482 Q1347.43 38.6699 1343.75 43.2069 Q1342.74 44.3817 1337.31 50.0125 Q1331.88 55.6027 1321.99 65.6895 Z" fill="#000000" fill-rule="evenodd" fill-opacity="1" /><polyline clip-path="url(#clip292)" style="stroke:#009af9; stroke-linecap:round; stroke-linejoin:round; stroke-width:12; stroke-opacity:1; fill:none" points="
  247.59,162.047 451.975,784.696 656.36,1105.59 860.745,1264.29 1065.13,1334.71 1269.51,1355.17 1473.9,1382.81 1678.29,1423.21 1882.67,1438.21 2087.06,1440.2 
  2291.44,1434.74 
  "/>
<polyline clip-path="url(#clip292)" style="stroke:#e26f46; stroke-linecap:round; stroke-linejoin:round; stroke-width:12; stroke-opacity:1; fill:none" points="
  247.59,162.047 451.975,1262.46 656.36,1422.13 860.745,1399.65 1065.13,1438.46 1269.51,1447.87 1473.9,1398.75 1678.29,1430.22 1882.67,1378.53 2087.06,1342.92 
  2291.44,1382.81 
  "/>
<polyline clip-path="url(#clip292)" style="stroke:#3da44d; stroke-linecap:round; stroke-linejoin:round; stroke-width:12; stroke-opacity:1; fill:none" points="
  247.59,162.047 451.975,256.748 656.36,281.848 860.745,312.797 1065.13,336.566 1269.51,367.106 1473.9,391.531 1678.29,423.736 1882.67,449.707 2087.06,478.661 
  2291.44,502.647 
  "/>
<polyline clip-path="url(#clip292)" style="stroke:#c271d2; stroke-linecap:round; stroke-linejoin:round; stroke-width:12; stroke-opacity:1; fill:none" points="
  247.59,162.047 451.975,709.66 656.36,923.872 860.745,1049.29 1065.13,1129.75 1269.51,1193.25 1473.9,1259.02 1678.29,1296.91 1882.67,1308.74 2087.06,1340.1 
  2291.44,1344.77 
  "/>
<polyline clip-path="url(#clip292)" style="stroke:#ac8d18; stroke-linecap:round; stroke-linejoin:round; stroke-width:12; stroke-opacity:1; fill:none" points="
  247.59,162.047 451.975,912.188 656.36,990.957 860.745,1010.77 1065.13,1044.99 1269.51,1067.27 1473.9,1060.67 1678.29,1082.17 1882.67,1085.61 2087.06,1081.63 
  2291.44,1094.81 
  "/>
<polyline clip-path="url(#clip292)" style="stroke:#00a9ad; stroke-linecap:round; stroke-linejoin:round; stroke-width:12; stroke-opacity:1; fill:none" points="
  247.59,162.047 451.975,706.882 656.36,779.419 860.745,807.722 1065.13,806.015 1269.51,807.827 1473.9,829.517 1678.29,828.703 1882.67,834.097 2087.06,831.136 
  2291.44,841.122 
  "/>
<path clip-path="url(#clip290)" d="
M1833.82 531.785 L2280.54 531.785 L2280.54 168.905 L1833.82 168.905  Z
  " fill="#ffffff" fill-rule="evenodd" fill-opacity="1"/>
<polyline clip-path="url(#clip290)" style="stroke:#000000; stroke-linecap:round; stroke-linejoin:round; stroke-width:4; stroke-opacity:1; fill:none" points="
  1833.82,531.785 2280.54,531.785 2280.54,168.905 1833.82,168.905 1833.82,531.785 
  "/>
<polyline clip-path="url(#clip290)" style="stroke:#009af9; stroke-linecap:round; stroke-linejoin:round; stroke-width:12; stroke-opacity:1; fill:none" points="
  1857.9,220.745 2002.33,220.745 
  "/>
<path clip-path="url(#clip290)" d="M2026.4 203.465 L2031.08 203.465 L2031.08 217.631 L2048.07 217.631 L2048.07 203.465 L2052.74 203.465 L2052.74 238.025 L2048.07 238.025 L2048.07 221.566 L2031.08 221.566 L2031.08 238.025 L2026.4 238.025 L2026.4 203.465 Z" fill="#000000" fill-rule="evenodd" fill-opacity="1" /><path clip-path="url(#clip290)" d="M2062.05 203.465 L2069.02 203.465 L2077.83 226.983 L2086.7 203.465 L2093.67 203.465 L2093.67 238.025 L2089.11 238.025 L2089.11 207.678 L2080.2 231.381 L2075.5 231.381 L2066.58 207.678 L2066.58 238.025 L2062.05 238.025 L2062.05 203.465 Z" fill="#000000" fill-rule="evenodd" fill-opacity="1" /><path clip-path="url(#clip290)" d="M2128.83 206.127 L2128.83 211.057 Q2126.47 208.858 2123.78 207.77 Q2121.12 206.682 2118.11 206.682 Q2112.19 206.682 2109.04 210.316 Q2105.89 213.928 2105.89 220.779 Q2105.89 227.608 2109.04 231.242 Q2112.19 234.853 2118.11 234.853 Q2121.12 234.853 2123.78 233.765 Q2126.47 232.677 2128.83 230.478 L2128.83 235.363 Q2126.38 237.029 2123.62 237.863 Q2120.89 238.696 2117.83 238.696 Q2109.99 238.696 2105.47 233.904 Q2100.96 229.09 2100.96 220.779 Q2100.96 212.446 2105.47 207.654 Q2109.99 202.84 2117.83 202.84 Q2120.94 202.84 2123.67 203.673 Q2126.42 204.483 2128.83 206.127 Z" fill="#000000" fill-rule="evenodd" fill-opacity="1" /><polyline clip-path="url(#clip290)" style="stroke:#e26f46; stroke-linecap:round; stroke-linejoin:round; stroke-width:12; stroke-opacity:1; fill:none" points="
  1857.9,272.585 2002.33,272.585 
  "/>
<path clip-path="url(#clip290)" d="M2026.4 255.305 L2031.08 255.305 L2031.08 269.471 L2048.07 269.471 L2048.07 255.305 L2052.74 255.305 L2052.74 289.865 L2048.07 289.865 L2048.07 273.406 L2031.08 273.406 L2031.08 289.865 L2026.4 289.865 L2026.4 255.305 Z" fill="#000000" fill-rule="evenodd" fill-opacity="1" /><path clip-path="url(#clip290)" d="M2073.64 276.832 Q2068.48 276.832 2066.49 278.013 Q2064.5 279.193 2064.5 282.041 Q2064.5 284.309 2065.98 285.652 Q2067.49 286.971 2070.06 286.971 Q2073.6 286.971 2075.73 284.471 Q2077.88 281.948 2077.88 277.781 L2077.88 276.832 L2073.64 276.832 M2082.14 275.073 L2082.14 289.865 L2077.88 289.865 L2077.88 285.929 Q2076.42 288.291 2074.25 289.425 Q2072.07 290.536 2068.92 290.536 Q2064.94 290.536 2062.58 288.314 Q2060.24 286.068 2060.24 282.318 Q2060.24 277.943 2063.16 275.721 Q2066.1 273.499 2071.91 273.499 L2077.88 273.499 L2077.88 273.082 Q2077.88 270.143 2075.94 268.545 Q2074.02 266.925 2070.52 266.925 Q2068.3 266.925 2066.19 267.457 Q2064.08 267.99 2062.14 269.055 L2062.14 265.119 Q2064.48 264.217 2066.68 263.777 Q2068.88 263.314 2070.96 263.314 Q2076.58 263.314 2079.36 266.231 Q2082.14 269.147 2082.14 275.073 Z" fill="#000000" fill-rule="evenodd" fill-opacity="1" /><path clip-path="url(#clip290)" d="M2107.49 273.661 Q2108.99 274.17 2110.4 275.837 Q2111.84 277.504 2113.27 280.42 L2118.02 289.865 L2113 289.865 L2108.58 280.999 Q2106.86 277.527 2105.24 276.393 Q2103.64 275.258 2100.87 275.258 L2095.77 275.258 L2095.77 289.865 L2091.1 289.865 L2091.1 255.305 L2101.65 255.305 Q2107.58 255.305 2110.5 257.781 Q2113.41 260.258 2113.41 265.258 Q2113.41 268.522 2111.89 270.675 Q2110.38 272.828 2107.49 273.661 M2095.77 259.147 L2095.77 271.416 L2101.65 271.416 Q2105.03 271.416 2106.75 269.865 Q2108.48 268.291 2108.48 265.258 Q2108.48 262.226 2106.75 260.698 Q2105.03 259.147 2101.65 259.147 L2095.77 259.147 Z" fill="#000000" fill-rule="evenodd" fill-opacity="1" /><path clip-path="url(#clip290)" d="M2133.67 259.911 L2127.32 277.11 L2140.03 277.11 L2133.67 259.911 M2131.03 255.305 L2136.33 255.305 L2149.5 289.865 L2144.64 289.865 L2141.49 280.999 L2125.91 280.999 L2122.76 289.865 L2117.83 289.865 L2131.03 255.305 Z" fill="#000000" fill-rule="evenodd" fill-opacity="1" /><path clip-path="url(#clip290)" d="M2154.55 255.305 L2161.51 255.305 L2170.33 278.823 L2179.2 255.305 L2186.17 255.305 L2186.17 289.865 L2181.61 289.865 L2181.61 259.518 L2172.7 283.221 L2168 283.221 L2159.08 259.518 L2159.08 289.865 L2154.55 289.865 L2154.55 255.305 Z" fill="#000000" fill-rule="evenodd" fill-opacity="1" /><polyline clip-path="url(#clip290)" style="stroke:#3da44d; stroke-linecap:round; stroke-linejoin:round; stroke-width:12; stroke-opacity:1; fill:none" points="
  1857.9,324.425 2002.33,324.425 
  "/>
<path clip-path="url(#clip290)" d="M2042.79 325.501 Q2044.29 326.01 2045.71 327.677 Q2047.14 329.344 2048.58 332.26 L2053.32 341.705 L2048.3 341.705 L2043.88 332.839 Q2042.16 329.367 2040.54 328.233 Q2038.95 327.098 2036.17 327.098 L2031.08 327.098 L2031.08 341.705 L2026.4 341.705 L2026.4 307.145 L2036.96 307.145 Q2042.88 307.145 2045.8 309.621 Q2048.71 312.098 2048.71 317.098 Q2048.71 320.362 2047.19 322.515 Q2045.68 324.668 2042.79 325.501 M2031.08 310.987 L2031.08 323.256 L2036.96 323.256 Q2040.33 323.256 2042.05 321.705 Q2043.78 320.131 2043.78 317.098 Q2043.78 314.066 2042.05 312.538 Q2040.33 310.987 2036.96 310.987 L2031.08 310.987 Z" fill="#000000" fill-rule="evenodd" fill-opacity="1" /><path clip-path="url(#clip290)" d="M2068.97 311.751 L2062.63 328.95 L2075.33 328.95 L2068.97 311.751 M2066.33 307.145 L2071.63 307.145 L2084.8 341.705 L2079.94 341.705 L2076.79 332.839 L2061.21 332.839 L2058.07 341.705 L2053.14 341.705 L2066.33 307.145 Z" fill="#000000" fill-rule="evenodd" fill-opacity="1" /><path clip-path="url(#clip290)" d="M2089.85 307.145 L2096.82 307.145 L2105.64 330.663 L2114.5 307.145 L2121.47 307.145 L2121.47 341.705 L2116.91 341.705 L2116.91 311.358 L2108 335.061 L2103.3 335.061 L2094.39 311.358 L2094.39 341.705 L2089.85 341.705 L2089.85 307.145 Z" fill="#000000" fill-rule="evenodd" fill-opacity="1" /><polyline clip-path="url(#clip290)" style="stroke:#c271d2; stroke-linecap:round; stroke-linejoin:round; stroke-width:12; stroke-opacity:1; fill:none" points="
  1857.9,376.265 2002.33,376.265 
  "/>
<path clip-path="url(#clip290)" d="M2031.08 362.827 L2031.08 375.813 L2036.96 375.813 Q2040.22 375.813 2042 374.123 Q2043.78 372.434 2043.78 369.309 Q2043.78 366.207 2042 364.517 Q2040.22 362.827 2036.96 362.827 L2031.08 362.827 M2026.4 358.985 L2036.96 358.985 Q2042.77 358.985 2045.73 361.624 Q2048.71 364.239 2048.71 369.309 Q2048.71 374.424 2045.73 377.04 Q2042.77 379.656 2036.96 379.656 L2031.08 379.656 L2031.08 393.545 L2026.4 393.545 L2026.4 358.985 Z" fill="#000000" fill-rule="evenodd" fill-opacity="1" /><path clip-path="url(#clip290)" d="M2054.99 358.985 L2076.84 358.985 L2076.84 362.92 L2059.66 362.92 L2059.66 373.151 L2076.12 373.151 L2076.12 377.086 L2059.66 377.086 L2059.66 389.609 L2077.26 389.609 L2077.26 393.545 L2054.99 393.545 L2054.99 358.985 Z" fill="#000000" fill-rule="evenodd" fill-opacity="1" /><path clip-path="url(#clip290)" d="M2082.6 378.66 L2095.08 378.66 L2095.08 382.457 L2082.6 382.457 L2082.6 378.66 Z" fill="#000000" fill-rule="evenodd" fill-opacity="1" /><path clip-path="url(#clip290)" d="M2102.05 358.985 L2106.72 358.985 L2106.72 373.151 L2123.71 373.151 L2123.71 358.985 L2128.39 358.985 L2128.39 393.545 L2123.71 393.545 L2123.71 377.086 L2106.72 377.086 L2106.72 393.545 L2102.05 393.545 L2102.05 358.985 Z" fill="#000000" fill-rule="evenodd" fill-opacity="1" /><path clip-path="url(#clip290)" d="M2137.7 358.985 L2144.66 358.985 L2153.48 382.503 L2162.35 358.985 L2169.32 358.985 L2169.32 393.545 L2164.76 393.545 L2164.76 363.198 L2155.84 386.901 L2151.14 386.901 L2142.23 363.198 L2142.23 393.545 L2137.7 393.545 L2137.7 358.985 Z" fill="#000000" fill-rule="evenodd" fill-opacity="1" /><path clip-path="url(#clip290)" d="M2204.48 361.647 L2204.48 366.577 Q2202.12 364.378 2199.43 363.29 Q2196.77 362.202 2193.76 362.202 Q2187.83 362.202 2184.69 365.836 Q2181.54 369.448 2181.54 376.299 Q2181.54 383.128 2184.69 386.762 Q2187.83 390.373 2193.76 390.373 Q2196.77 390.373 2199.43 389.285 Q2202.12 388.197 2204.48 385.998 L2204.48 390.883 Q2202.02 392.549 2199.27 393.383 Q2196.54 394.216 2193.48 394.216 Q2185.63 394.216 2181.12 389.424 Q2176.61 384.61 2176.61 376.299 Q2176.61 367.966 2181.12 363.174 Q2185.63 358.36 2193.48 358.36 Q2196.58 358.36 2199.32 359.193 Q2202.07 360.003 2204.48 361.647 Z" fill="#000000" fill-rule="evenodd" fill-opacity="1" /><polyline clip-path="url(#clip290)" style="stroke:#ac8d18; stroke-linecap:round; stroke-linejoin:round; stroke-width:12; stroke-opacity:1; fill:none" points="
  1857.9,428.105 2002.33,428.105 
  "/>
<path clip-path="url(#clip290)" d="M2031.08 414.667 L2031.08 427.653 L2036.96 427.653 Q2040.22 427.653 2042 425.963 Q2043.78 424.274 2043.78 421.149 Q2043.78 418.047 2042 416.357 Q2040.22 414.667 2036.96 414.667 L2031.08 414.667 M2026.4 410.825 L2036.96 410.825 Q2042.77 410.825 2045.73 413.464 Q2048.71 416.079 2048.71 421.149 Q2048.71 426.264 2045.73 428.88 Q2042.77 431.496 2036.96 431.496 L2031.08 431.496 L2031.08 445.385 L2026.4 445.385 L2026.4 410.825 Z" fill="#000000" fill-rule="evenodd" fill-opacity="1" /><path clip-path="url(#clip290)" d="M2050.2 410.825 L2079.43 410.825 L2079.43 414.76 L2067.16 414.76 L2067.16 445.385 L2062.46 445.385 L2062.46 414.76 L2050.2 414.76 L2050.2 410.825 Z" fill="#000000" fill-rule="evenodd" fill-opacity="1" /><path clip-path="url(#clip290)" d="M2077.26 430.5 L2089.73 430.5 L2089.73 434.297 L2077.26 434.297 L2077.26 430.5 Z" fill="#000000" fill-rule="evenodd" fill-opacity="1" /><path clip-path="url(#clip290)" d="M2096.7 410.825 L2101.38 410.825 L2101.38 424.991 L2118.37 424.991 L2118.37 410.825 L2123.04 410.825 L2123.04 445.385 L2118.37 445.385 L2118.37 428.926 L2101.38 428.926 L2101.38 445.385 L2096.7 445.385 L2096.7 410.825 Z" fill="#000000" fill-rule="evenodd" fill-opacity="1" /><path clip-path="url(#clip290)" d="M2132.35 410.825 L2139.32 410.825 L2148.14 434.343 L2157 410.825 L2163.97 410.825 L2163.97 445.385 L2159.41 445.385 L2159.41 415.038 L2150.5 438.741 L2145.8 438.741 L2136.89 415.038 L2136.89 445.385 L2132.35 445.385 L2132.35 410.825 Z" fill="#000000" fill-rule="evenodd" fill-opacity="1" /><path clip-path="url(#clip290)" d="M2199.13 413.487 L2199.13 418.417 Q2196.77 416.218 2194.08 415.13 Q2191.42 414.042 2188.41 414.042 Q2182.49 414.042 2179.34 417.676 Q2176.19 421.288 2176.19 428.139 Q2176.19 434.968 2179.34 438.602 Q2182.49 442.213 2188.41 442.213 Q2191.42 442.213 2194.08 441.125 Q2196.77 440.037 2199.13 437.838 L2199.13 442.723 Q2196.68 444.389 2193.92 445.223 Q2191.19 446.056 2188.13 446.056 Q2180.29 446.056 2175.77 441.264 Q2171.26 436.45 2171.26 428.139 Q2171.26 419.806 2175.77 415.014 Q2180.29 410.2 2188.13 410.2 Q2191.24 410.2 2193.97 411.033 Q2196.72 411.843 2199.13 413.487 Z" fill="#000000" fill-rule="evenodd" fill-opacity="1" /><polyline clip-path="url(#clip290)" style="stroke:#00a9ad; stroke-linecap:round; stroke-linejoin:round; stroke-width:12; stroke-opacity:1; fill:none" points="
  1857.9,479.945 2002.33,479.945 
  "/>
<path clip-path="url(#clip290)" d="M2031.08 466.507 L2031.08 479.493 L2036.96 479.493 Q2040.22 479.493 2042 477.803 Q2043.78 476.114 2043.78 472.989 Q2043.78 469.887 2042 468.197 Q2040.22 466.507 2036.96 466.507 L2031.08 466.507 M2026.4 462.665 L2036.96 462.665 Q2042.77 462.665 2045.73 465.304 Q2048.71 467.919 2048.71 472.989 Q2048.71 478.104 2045.73 480.72 Q2042.77 483.336 2036.96 483.336 L2031.08 483.336 L2031.08 497.225 L2026.4 497.225 L2026.4 462.665 Z" fill="#000000" fill-rule="evenodd" fill-opacity="1" /><path clip-path="url(#clip290)" d="M2050.2 462.665 L2079.43 462.665 L2079.43 466.6 L2067.16 466.6 L2067.16 497.225 L2062.46 497.225 L2062.46 466.6 L2050.2 466.6 L2050.2 462.665 Z" fill="#000000" fill-rule="evenodd" fill-opacity="1" /><path clip-path="url(#clip290)" d="M2077.26 482.34 L2089.73 482.34 L2089.73 486.137 L2077.26 486.137 L2077.26 482.34 Z" fill="#000000" fill-rule="evenodd" fill-opacity="1" /><path clip-path="url(#clip290)" d="M2096.7 462.665 L2101.38 462.665 L2101.38 476.831 L2118.37 476.831 L2118.37 462.665 L2123.04 462.665 L2123.04 497.225 L2118.37 497.225 L2118.37 480.766 L2101.38 480.766 L2101.38 497.225 L2096.7 497.225 L2096.7 462.665 Z" fill="#000000" fill-rule="evenodd" fill-opacity="1" /><path clip-path="url(#clip290)" d="M2143.95 484.192 Q2138.78 484.192 2136.79 485.373 Q2134.8 486.553 2134.8 489.401 Q2134.8 491.669 2136.28 493.012 Q2137.79 494.331 2140.36 494.331 Q2143.9 494.331 2146.03 491.831 Q2148.18 489.308 2148.18 485.141 L2148.18 484.192 L2143.95 484.192 M2152.44 482.433 L2152.44 497.225 L2148.18 497.225 L2148.18 493.289 Q2146.72 495.651 2144.55 496.785 Q2142.37 497.896 2139.22 497.896 Q2135.24 497.896 2132.88 495.674 Q2130.54 493.428 2130.54 489.678 Q2130.54 485.303 2133.46 483.081 Q2136.4 480.859 2142.21 480.859 L2148.18 480.859 L2148.18 480.442 Q2148.18 477.503 2146.24 475.905 Q2144.32 474.285 2140.82 474.285 Q2138.6 474.285 2136.49 474.817 Q2134.39 475.35 2132.44 476.415 L2132.44 472.479 Q2134.78 471.577 2136.98 471.137 Q2139.18 470.674 2141.26 470.674 Q2146.89 470.674 2149.66 473.591 Q2152.44 476.507 2152.44 482.433 Z" fill="#000000" fill-rule="evenodd" fill-opacity="1" /><path clip-path="url(#clip290)" d="M2177.79 481.021 Q2179.29 481.53 2180.7 483.197 Q2182.14 484.864 2183.57 487.78 L2188.32 497.225 L2183.3 497.225 L2178.88 488.359 Q2177.16 484.887 2175.54 483.753 Q2173.95 482.618 2171.17 482.618 L2166.07 482.618 L2166.07 497.225 L2161.4 497.225 L2161.4 462.665 L2171.95 462.665 Q2177.88 462.665 2180.8 465.141 Q2183.71 467.618 2183.71 472.618 Q2183.71 475.882 2182.19 478.035 Q2180.68 480.188 2177.79 481.021 M2166.07 466.507 L2166.07 478.776 L2171.95 478.776 Q2175.33 478.776 2177.05 477.225 Q2178.78 475.651 2178.78 472.618 Q2178.78 469.586 2177.05 468.058 Q2175.33 466.507 2171.95 466.507 L2166.07 466.507 Z" fill="#000000" fill-rule="evenodd" fill-opacity="1" /><path clip-path="url(#clip290)" d="M2203.97 467.271 L2197.63 484.47 L2210.33 484.47 L2203.97 467.271 M2201.33 462.665 L2206.63 462.665 L2219.8 497.225 L2214.94 497.225 L2211.79 488.359 L2196.21 488.359 L2193.07 497.225 L2188.13 497.225 L2201.33 462.665 Z" fill="#000000" fill-rule="evenodd" fill-opacity="1" /><path clip-path="url(#clip290)" d="M2224.85 462.665 L2231.82 462.665 L2240.63 486.183 L2249.5 462.665 L2256.47 462.665 L2256.47 497.225 L2251.91 497.225 L2251.91 466.878 L2243 490.581 L2238.3 490.581 L2229.38 466.878 L2229.38 497.225 L2224.85 497.225 L2224.85 462.665 Z" fill="#000000" fill-rule="evenodd" fill-opacity="1" /></svg>
