<?xml version="1.0" encoding="utf-8"?>
<svg xmlns="http://www.w3.org/2000/svg" xmlns:xlink="http://www.w3.org/1999/xlink" width="600" height="400" viewBox="0 0 2400 1600">
<defs>
  <clipPath id="clip550">
    <rect x="0" y="0" width="2400" height="1600"/>
  </clipPath>
</defs>
<path clip-path="url(#clip550)" d="
M0 1600 L2400 1600 L2400 0 L0 0  Z
  " fill="#ffffff" fill-rule="evenodd" fill-opacity="1"/>
<defs>
  <clipPath id="clip551">
    <rect x="480" y="0" width="1681" height="1600"/>
  </clipPath>
</defs>
<path clip-path="url(#clip550)" d="
M156.598 1486.45 L2352.76 1486.45 L2352.76 47.2441 L156.598 47.2441  Z
  " fill="#ffffff" fill-rule="evenodd" fill-opacity="1"/>
<defs>
  <clipPath id="clip552">
    <rect x="156" y="47" width="2197" height="1440"/>
  </clipPath>
</defs>
<polyline clip-path="url(#clip552)" style="stroke:#000000; stroke-linecap:round; stroke-linejoin:round; stroke-width:2; stroke-opacity:0.1; fill:none" points="
  425.938,1486.45 425.938,47.2441 
  "/>
<polyline clip-path="url(#clip552)" style="stroke:#000000; stroke-linecap:round; stroke-linejoin:round; stroke-width:2; stroke-opacity:0.1; fill:none" points="
  840.308,1486.45 840.308,47.2441 
  "/>
<polyline clip-path="url(#clip552)" style="stroke:#000000; stroke-linecap:round; stroke-linejoin:round; stroke-width:2; stroke-opacity:0.1; fill:none" points="
  1254.68,1486.45 1254.68,47.2441 
  "/>
<polyline clip-path="url(#clip552)" style="stroke:#000000; stroke-linecap:round; stroke-linejoin:round; stroke-width:2; stroke-opacity:0.1; fill:none" points="
  1669.05,1486.45 1669.05,47.2441 
  "/>
<polyline clip-path="url(#clip552)" style="stroke:#000000; stroke-linecap:round; stroke-linejoin:round; stroke-width:2; stroke-opacity:0.1; fill:none" points="
  2083.42,1486.45 2083.42,47.2441 
  "/>
<polyline clip-path="url(#clip550)" style="stroke:#000000; stroke-linecap:round; stroke-linejoin:round; stroke-width:4; stroke-opacity:1; fill:none" points="
  156.598,1486.45 2352.76,1486.45 
  "/>
<polyline clip-path="url(#clip550)" style="stroke:#000000; stroke-linecap:round; stroke-linejoin:round; stroke-width:4; stroke-opacity:1; fill:none" points="
  425.938,1486.45 425.938,1467.55 
  "/>
<polyline clip-path="url(#clip550)" style="stroke:#000000; stroke-linecap:round; stroke-linejoin:round; stroke-width:4; stroke-opacity:1; fill:none" points="
  840.308,1486.45 840.308,1467.55 
  "/>
<polyline clip-path="url(#clip550)" style="stroke:#000000; stroke-linecap:round; stroke-linejoin:round; stroke-width:4; stroke-opacity:1; fill:none" points="
  1254.68,1486.45 1254.68,1467.55 
  "/>
<polyline clip-path="url(#clip550)" style="stroke:#000000; stroke-linecap:round; stroke-linejoin:round; stroke-width:4; stroke-opacity:1; fill:none" points="
  1669.05,1486.45 1669.05,1467.55 
  "/>
<polyline clip-path="url(#clip550)" style="stroke:#000000; stroke-linecap:round; stroke-linejoin:round; stroke-width:4; stroke-opacity:1; fill:none" points="
  2083.42,1486.45 2083.42,1467.55 
  "/>
<path clip-path="url(#clip550)" d="M420.591 1544.91 L436.91 1544.91 L436.91 1548.85 L414.966 1548.85 L414.966 1544.91 Q417.628 1542.16 422.211 1537.53 Q426.818 1532.88 427.999 1531.53 Q430.244 1529.01 431.123 1527.27 Q432.026 1525.51 432.026 1523.82 Q432.026 1521.07 430.082 1519.33 Q428.161 1517.6 425.059 1517.6 Q422.86 1517.6 420.406 1518.36 Q417.975 1519.13 415.198 1520.68 L415.198 1515.95 Q418.022 1514.82 420.475 1514.24 Q422.929 1513.66 424.966 1513.66 Q430.336 1513.66 433.531 1516.35 Q436.725 1519.03 436.725 1523.52 Q436.725 1525.65 435.915 1527.57 Q435.128 1529.47 433.022 1532.07 Q432.443 1532.74 429.341 1535.95 Q426.239 1539.15 420.591 1544.91 Z" fill="#000000" fill-rule="evenodd" fill-opacity="1" /><path clip-path="url(#clip550)" d="M843.317 1518.36 L831.511 1536.81 L843.317 1536.81 L843.317 1518.36 M842.09 1514.29 L847.97 1514.29 L847.97 1536.81 L852.9 1536.81 L852.9 1540.7 L847.97 1540.7 L847.97 1548.85 L843.317 1548.85 L843.317 1540.7 L827.715 1540.7 L827.715 1536.19 L842.09 1514.29 Z" fill="#000000" fill-rule="evenodd" fill-opacity="1" /><path clip-path="url(#clip550)" d="M1255.08 1529.7 Q1251.93 1529.7 1250.08 1531.86 Q1248.25 1534.01 1248.25 1537.76 Q1248.25 1541.49 1250.08 1543.66 Q1251.93 1545.82 1255.08 1545.82 Q1258.23 1545.82 1260.06 1543.66 Q1261.91 1541.49 1261.91 1537.76 Q1261.91 1534.01 1260.06 1531.86 Q1258.23 1529.7 1255.08 1529.7 M1264.36 1515.05 L1264.36 1519.31 Q1262.61 1518.48 1260.8 1518.04 Q1259.02 1517.6 1257.26 1517.6 Q1252.63 1517.6 1250.17 1520.72 Q1247.74 1523.85 1247.4 1530.17 Q1248.76 1528.15 1250.82 1527.09 Q1252.88 1526 1255.36 1526 Q1260.57 1526 1263.58 1529.17 Q1266.61 1532.32 1266.61 1537.76 Q1266.61 1543.08 1263.46 1546.3 Q1260.31 1549.52 1255.08 1549.52 Q1249.09 1549.52 1245.92 1544.94 Q1242.74 1540.33 1242.74 1531.6 Q1242.74 1523.41 1246.63 1518.55 Q1250.52 1513.66 1257.07 1513.66 Q1258.83 1513.66 1260.61 1514.01 Q1262.42 1514.36 1264.36 1515.05 Z" fill="#000000" fill-rule="evenodd" fill-opacity="1" /><path clip-path="url(#clip550)" d="M1669.05 1532.44 Q1665.71 1532.44 1663.79 1534.22 Q1661.89 1536 1661.89 1539.13 Q1661.89 1542.25 1663.79 1544.03 Q1665.71 1545.82 1669.05 1545.82 Q1672.38 1545.82 1674.3 1544.03 Q1676.22 1542.23 1676.22 1539.13 Q1676.22 1536 1674.3 1534.22 Q1672.4 1532.44 1669.05 1532.44 M1664.37 1530.45 Q1661.36 1529.7 1659.67 1527.64 Q1658 1525.58 1658 1522.62 Q1658 1518.48 1660.94 1516.07 Q1663.91 1513.66 1669.05 1513.66 Q1674.21 1513.66 1677.15 1516.07 Q1680.09 1518.48 1680.09 1522.62 Q1680.09 1525.58 1678.4 1527.64 Q1676.73 1529.7 1673.75 1530.45 Q1677.13 1531.23 1679 1533.52 Q1680.9 1535.82 1680.9 1539.13 Q1680.9 1544.15 1677.82 1546.83 Q1674.76 1549.52 1669.05 1549.52 Q1663.33 1549.52 1660.25 1546.83 Q1657.19 1544.15 1657.19 1539.13 Q1657.19 1535.82 1659.09 1533.52 Q1660.99 1531.23 1664.37 1530.45 M1662.66 1523.06 Q1662.66 1525.75 1664.32 1527.25 Q1666.01 1528.76 1669.05 1528.76 Q1672.06 1528.76 1673.75 1527.25 Q1675.46 1525.75 1675.46 1523.06 Q1675.46 1520.38 1673.75 1518.87 Q1672.06 1517.37 1669.05 1517.37 Q1666.01 1517.37 1664.32 1518.87 Q1662.66 1520.38 1662.66 1523.06 Z" fill="#000000" fill-rule="evenodd" fill-opacity="1" /><path clip-path="url(#clip550)" d="M2058.1 1544.91 L2065.74 1544.91 L2065.74 1518.55 L2057.43 1520.21 L2057.43 1515.95 L2065.7 1514.29 L2070.37 1514.29 L2070.37 1544.91 L2078.01 1544.91 L2078.01 1548.85 L2058.1 1548.85 L2058.1 1544.91 Z" fill="#000000" fill-rule="evenodd" fill-opacity="1" /><path clip-path="url(#clip550)" d="M2097.46 1517.37 Q2093.84 1517.37 2092.02 1520.93 Q2090.21 1524.47 2090.21 1531.6 Q2090.21 1538.71 2092.02 1542.27 Q2093.84 1545.82 2097.46 1545.82 Q2101.09 1545.82 2102.89 1542.27 Q2104.72 1538.71 2104.72 1531.6 Q2104.72 1524.47 2102.89 1520.93 Q2101.09 1517.37 2097.46 1517.37 M2097.46 1513.66 Q2103.27 1513.66 2106.32 1518.27 Q2109.4 1522.85 2109.4 1531.6 Q2109.4 1540.33 2106.32 1544.94 Q2103.27 1549.52 2097.46 1549.52 Q2091.64 1549.52 2088.57 1544.94 Q2085.51 1540.33 2085.51 1531.6 Q2085.51 1522.85 2088.57 1518.27 Q2091.64 1513.66 2097.46 1513.66 Z" fill="#000000" fill-rule="evenodd" fill-opacity="1" /><polyline clip-path="url(#clip552)" style="stroke:#000000; stroke-linecap:round; stroke-linejoin:round; stroke-width:2; stroke-opacity:0.1; fill:none" points="
  156.598,1207.7 2352.76,1207.7 
  "/>
<polyline clip-path="url(#clip552)" style="stroke:#000000; stroke-linecap:round; stroke-linejoin:round; stroke-width:2; stroke-opacity:0.1; fill:none" points="
  156.598,927.77 2352.76,927.77 
  "/>
<polyline clip-path="url(#clip552)" style="stroke:#000000; stroke-linecap:round; stroke-linejoin:round; stroke-width:2; stroke-opacity:0.1; fill:none" points="
  156.598,647.839 2352.76,647.839 
  "/>
<polyline clip-path="url(#clip552)" style="stroke:#000000; stroke-linecap:round; stroke-linejoin:round; stroke-width:2; stroke-opacity:0.1; fill:none" points="
  156.598,367.907 2352.76,367.907 
  "/>
<polyline clip-path="url(#clip552)" style="stroke:#000000; stroke-linecap:round; stroke-linejoin:round; stroke-width:2; stroke-opacity:0.1; fill:none" points="
  156.598,87.9763 2352.76,87.9763 
  "/>
<polyline clip-path="url(#clip550)" style="stroke:#000000; stroke-linecap:round; stroke-linejoin:round; stroke-width:4; stroke-opacity:1; fill:none" points="
  156.598,1486.45 156.598,47.2441 
  "/>
<polyline clip-path="url(#clip550)" style="stroke:#000000; stroke-linecap:round; stroke-linejoin:round; stroke-width:4; stroke-opacity:1; fill:none" points="
  156.598,1207.7 175.496,1207.7 
  "/>
<polyline clip-path="url(#clip550)" style="stroke:#000000; stroke-linecap:round; stroke-linejoin:round; stroke-width:4; stroke-opacity:1; fill:none" points="
  156.598,927.77 175.496,927.77 
  "/>
<polyline clip-path="url(#clip550)" style="stroke:#000000; stroke-linecap:round; stroke-linejoin:round; stroke-width:4; stroke-opacity:1; fill:none" points="
  156.598,647.839 175.496,647.839 
  "/>
<polyline clip-path="url(#clip550)" style="stroke:#000000; stroke-linecap:round; stroke-linejoin:round; stroke-width:4; stroke-opacity:1; fill:none" points="
  156.598,367.907 175.496,367.907 
  "/>
<polyline clip-path="url(#clip550)" style="stroke:#000000; stroke-linecap:round; stroke-linejoin:round; stroke-width:4; stroke-opacity:1; fill:none" points="
  156.598,87.9763 175.496,87.9763 
  "/>
<path clip-path="url(#clip550)" d="M65.0198 1193.5 Q61.4087 1193.5 59.58 1197.06 Q57.7745 1200.61 57.7745 1207.74 Q57.7745 1214.84 59.58 1218.41 Q61.4087 1221.95 65.0198 1221.95 Q68.6541 1221.95 70.4596 1218.41 Q72.2883 1214.84 72.2883 1207.74 Q72.2883 1200.61 70.4596 1197.06 Q68.6541 1193.5 65.0198 1193.5 M65.0198 1189.8 Q70.83 1189.8 73.8855 1194.4 Q76.9642 1198.99 76.9642 1207.74 Q76.9642 1216.46 73.8855 1221.07 Q70.83 1225.65 65.0198 1225.65 Q59.2097 1225.65 56.131 1221.07 Q53.0754 1216.46 53.0754 1207.74 Q53.0754 1198.99 56.131 1194.4 Q59.2097 1189.8 65.0198 1189.8 Z" fill="#000000" fill-rule="evenodd" fill-opacity="1" /><path clip-path="url(#clip550)" d="M85.1818 1219.1 L90.066 1219.1 L90.066 1224.98 L85.1818 1224.98 L85.1818 1219.1 Z" fill="#000000" fill-rule="evenodd" fill-opacity="1" /><path clip-path="url(#clip550)" d="M104.279 1221.05 L120.598 1221.05 L120.598 1224.98 L98.6539 1224.98 L98.6539 1221.05 Q101.316 1218.29 105.899 1213.66 Q110.506 1209.01 111.686 1207.67 Q113.932 1205.14 114.811 1203.41 Q115.714 1201.65 115.714 1199.96 Q115.714 1197.2 113.77 1195.47 Q111.848 1193.73 108.746 1193.73 Q106.547 1193.73 104.094 1194.49 Q101.663 1195.26 98.8854 1196.81 L98.8854 1192.09 Q101.709 1190.95 104.163 1190.37 Q106.617 1189.8 108.654 1189.8 Q114.024 1189.8 117.219 1192.48 Q120.413 1195.17 120.413 1199.66 Q120.413 1201.79 119.603 1203.71 Q118.816 1205.61 116.709 1208.2 Q116.131 1208.87 113.029 1212.09 Q109.927 1215.28 104.279 1221.05 Z" fill="#000000" fill-rule="evenodd" fill-opacity="1" /><path clip-path="url(#clip550)" d="M62.9365 913.568 Q59.3254 913.568 57.4967 917.133 Q55.6912 920.675 55.6912 927.804 Q55.6912 934.911 57.4967 938.476 Q59.3254 942.017 62.9365 942.017 Q66.5707 942.017 68.3763 938.476 Q70.205 934.911 70.205 927.804 Q70.205 920.675 68.3763 917.133 Q66.5707 913.568 62.9365 913.568 M62.9365 909.865 Q68.7467 909.865 71.8022 914.471 Q74.8809 919.054 74.8809 927.804 Q74.8809 936.531 71.8022 941.138 Q68.7467 945.721 62.9365 945.721 Q57.1264 945.721 54.0477 941.138 Q50.9921 936.531 50.9921 927.804 Q50.9921 919.054 54.0477 914.471 Q57.1264 909.865 62.9365 909.865 Z" fill="#000000" fill-rule="evenodd" fill-opacity="1" /><path clip-path="url(#clip550)" d="M83.0984 939.17 L87.9827 939.17 L87.9827 945.05 L83.0984 945.05 L83.0984 939.17 Z" fill="#000000" fill-rule="evenodd" fill-opacity="1" /><path clip-path="url(#clip550)" d="M111.015 914.564 L99.2095 933.013 L111.015 933.013 L111.015 914.564 M109.788 910.49 L115.668 910.49 L115.668 933.013 L120.598 933.013 L120.598 936.902 L115.668 936.902 L115.668 945.05 L111.015 945.05 L111.015 936.902 L95.4132 936.902 L95.4132 932.388 L109.788 910.49 Z" fill="#000000" fill-rule="evenodd" fill-opacity="1" /><path clip-path="url(#clip550)" d="M63.2606 633.637 Q59.6495 633.637 57.8208 637.202 Q56.0152 640.744 56.0152 647.873 Q56.0152 654.98 57.8208 658.544 Q59.6495 662.086 63.2606 662.086 Q66.8948 662.086 68.7004 658.544 Q70.5291 654.98 70.5291 647.873 Q70.5291 640.744 68.7004 637.202 Q66.8948 633.637 63.2606 633.637 M63.2606 629.934 Q69.0707 629.934 72.1263 634.54 Q75.205 639.123 75.205 647.873 Q75.205 656.6 72.1263 661.207 Q69.0707 665.79 63.2606 665.79 Q57.4504 665.79 54.3717 661.207 Q51.3162 656.6 51.3162 647.873 Q51.3162 639.123 54.3717 634.54 Q57.4504 629.934 63.2606 629.934 Z" fill="#000000" fill-rule="evenodd" fill-opacity="1" /><path clip-path="url(#clip550)" d="M83.4225 659.239 L88.3067 659.239 L88.3067 665.119 L83.4225 665.119 L83.4225 659.239 Z" fill="#000000" fill-rule="evenodd" fill-opacity="1" /><path clip-path="url(#clip550)" d="M109.071 645.975 Q105.922 645.975 104.071 648.128 Q102.242 650.281 102.242 654.031 Q102.242 657.757 104.071 659.933 Q105.922 662.086 109.071 662.086 Q112.219 662.086 114.047 659.933 Q115.899 657.757 115.899 654.031 Q115.899 650.281 114.047 648.128 Q112.219 645.975 109.071 645.975 M118.353 631.322 L118.353 635.582 Q116.594 634.748 114.788 634.309 Q113.006 633.869 111.246 633.869 Q106.617 633.869 104.163 636.994 Q101.733 640.119 101.385 646.438 Q102.751 644.424 104.811 643.359 Q106.871 642.271 109.348 642.271 Q114.557 642.271 117.566 645.443 Q120.598 648.591 120.598 654.031 Q120.598 659.355 117.45 662.572 Q114.302 665.79 109.071 665.79 Q103.075 665.79 99.9039 661.207 Q96.7326 656.6 96.7326 647.873 Q96.7326 639.679 100.621 634.818 Q104.51 629.934 111.061 629.934 Q112.82 629.934 114.603 630.281 Q116.408 630.628 118.353 631.322 Z" fill="#000000" fill-rule="evenodd" fill-opacity="1" /><path clip-path="url(#clip550)" d="M63.5152 353.706 Q59.9041 353.706 58.0754 357.271 Q56.2699 360.813 56.2699 367.942 Q56.2699 375.049 58.0754 378.613 Q59.9041 382.155 63.5152 382.155 Q67.1494 382.155 68.955 378.613 Q70.7837 375.049 70.7837 367.942 Q70.7837 360.813 68.955 357.271 Q67.1494 353.706 63.5152 353.706 M63.5152 350.002 Q69.3254 350.002 72.3809 354.609 Q75.4596 359.192 75.4596 367.942 Q75.4596 376.669 72.3809 381.275 Q69.3254 385.859 63.5152 385.859 Q57.7051 385.859 54.6264 381.275 Q51.5708 376.669 51.5708 367.942 Q51.5708 359.192 54.6264 354.609 Q57.7051 350.002 63.5152 350.002 Z" fill="#000000" fill-rule="evenodd" fill-opacity="1" /><path clip-path="url(#clip550)" d="M83.6771 379.308 L88.5614 379.308 L88.5614 385.187 L83.6771 385.187 L83.6771 379.308 Z" fill="#000000" fill-rule="evenodd" fill-opacity="1" /><path clip-path="url(#clip550)" d="M108.746 368.775 Q105.413 368.775 103.492 370.558 Q101.594 372.34 101.594 375.465 Q101.594 378.59 103.492 380.373 Q105.413 382.155 108.746 382.155 Q112.08 382.155 114.001 380.373 Q115.922 378.567 115.922 375.465 Q115.922 372.34 114.001 370.558 Q112.103 368.775 108.746 368.775 M104.071 366.785 Q101.061 366.044 99.3715 363.984 Q97.7048 361.924 97.7048 358.961 Q97.7048 354.817 100.645 352.41 Q103.608 350.002 108.746 350.002 Q113.908 350.002 116.848 352.41 Q119.788 354.817 119.788 358.961 Q119.788 361.924 118.098 363.984 Q116.432 366.044 113.445 366.785 Q116.825 367.572 118.7 369.863 Q120.598 372.155 120.598 375.465 Q120.598 380.488 117.52 383.174 Q114.464 385.859 108.746 385.859 Q103.029 385.859 99.9502 383.174 Q96.8947 380.488 96.8947 375.465 Q96.8947 372.155 98.7928 369.863 Q100.691 367.572 104.071 366.785 M102.358 359.401 Q102.358 362.086 104.024 363.59 Q105.714 365.095 108.746 365.095 Q111.756 365.095 113.445 363.59 Q115.158 362.086 115.158 359.401 Q115.158 356.715 113.445 355.211 Q111.756 353.706 108.746 353.706 Q105.714 353.706 104.024 355.211 Q102.358 356.715 102.358 359.401 Z" fill="#000000" fill-rule="evenodd" fill-opacity="1" /><path clip-path="url(#clip550)" d="M54.2328 101.321 L61.8717 101.321 L61.8717 74.9555 L53.5616 76.6222 L53.5616 72.3629 L61.8254 70.6963 L66.5013 70.6963 L66.5013 101.321 L74.1402 101.321 L74.1402 105.256 L54.2328 105.256 L54.2328 101.321 Z" fill="#000000" fill-rule="evenodd" fill-opacity="1" /><path clip-path="url(#clip550)" d="M83.5845 99.3767 L88.4688 99.3767 L88.4688 105.256 L83.5845 105.256 L83.5845 99.3767 Z" fill="#000000" fill-rule="evenodd" fill-opacity="1" /><path clip-path="url(#clip550)" d="M108.654 73.775 Q105.043 73.775 103.214 77.3398 Q101.409 80.8814 101.409 88.011 Q101.409 95.1174 103.214 98.6822 Q105.043 102.224 108.654 102.224 Q112.288 102.224 114.094 98.6822 Q115.922 95.1174 115.922 88.011 Q115.922 80.8814 114.094 77.3398 Q112.288 73.775 108.654 73.775 M108.654 70.0713 Q114.464 70.0713 117.52 74.6777 Q120.598 79.261 120.598 88.011 Q120.598 96.7378 117.52 101.344 Q114.464 105.928 108.654 105.928 Q102.844 105.928 99.765 101.344 Q96.7095 96.7378 96.7095 88.011 Q96.7095 79.261 99.765 74.6777 Q102.844 70.0713 108.654 70.0713 Z" fill="#000000" fill-rule="evenodd" fill-opacity="1" /><polyline clip-path="url(#clip552)" style="stroke:#009af9; stroke-linecap:round; stroke-linejoin:round; stroke-width:12; stroke-opacity:1; fill:none" points="
  218.754,87.9763 425.938,683.592 633.123,802.91 840.308,885.211 1047.49,936.193 1254.68,975.219 1461.86,1033.27 1669.05,1060.68 1876.23,1081.41 2083.42,1113.96 
  2290.6,1132.13 
  "/>
<polyline clip-path="url(#clip552)" style="stroke:#e26f46; stroke-linecap:round; stroke-linejoin:round; stroke-width:12; stroke-opacity:1; fill:none" points="
  218.754,87.9763 425.938,517.258 633.123,711.191 840.308,865.272 1047.49,967.612 1254.68,1036.46 1461.86,1105.92 1669.05,1170.34 1876.23,1224.15 2083.42,1267.91 
  2290.6,1300.62 
  "/>
<polyline clip-path="url(#clip552)" style="stroke:#3da44d; stroke-linecap:round; stroke-linejoin:round; stroke-width:12; stroke-opacity:1; fill:none" points="
  218.754,87.9763 425.938,545.2 633.123,817.826 840.308,1003.43 1047.49,1134.65 1254.68,1239.77 1461.86,1293.91 1669.05,1332.43 1876.23,1371.77 2083.42,1409.33 
  2290.6,1429.13 
  "/>
<polyline clip-path="url(#clip552)" style="stroke:#c271d2; stroke-linecap:round; stroke-linejoin:round; stroke-width:12; stroke-opacity:1; fill:none" points="
  218.754,87.9763 425.938,762.244 633.123,1037 840.308,1175.33 1047.49,1268.53 1254.68,1348.4 1461.86,1380.54 1669.05,1404.95 1876.23,1428.16 2083.42,1445.72 
  2290.6,1444.04 
  "/>
<path clip-path="url(#clip550)" d="
M1881.86 354.418 L2279.55 354.418 L2279.55 95.2176 L1881.86 95.2176  Z
  " fill="#ffffff" fill-rule="evenodd" fill-opacity="1"/>
<polyline clip-path="url(#clip550)" style="stroke:#000000; stroke-linecap:round; stroke-linejoin:round; stroke-width:4; stroke-opacity:1; fill:none" points="
  1881.86,354.418 2279.55,354.418 2279.55,95.2176 1881.86,95.2176 1881.86,354.418 
  "/>
<polyline clip-path="url(#clip550)" style="stroke:#009af9; stroke-linecap:round; stroke-linejoin:round; stroke-width:12; stroke-opacity:1; fill:none" points="
  1906.26,147.058 2052.67,147.058 
  "/>
<path clip-path="url(#clip550)" d="M2077.07 129.778 L2081.75 129.778 L2081.75 143.944 L2098.74 143.944 L2098.74 129.778 L2103.41 129.778 L2103.41 164.338 L2098.74 164.338 L2098.74 147.879 L2081.75 147.879 L2081.75 164.338 L2077.07 164.338 L2077.07 129.778 Z" fill="#000000" fill-rule="evenodd" fill-opacity="1" /><path clip-path="url(#clip550)" d="M2112.72 129.778 L2119.69 129.778 L2128.51 153.296 L2137.37 129.778 L2144.34 129.778 L2144.34 164.338 L2139.78 164.338 L2139.78 133.99 L2130.87 157.694 L2126.17 157.694 L2117.26 133.99 L2117.26 164.338 L2112.72 164.338 L2112.72 129.778 Z" fill="#000000" fill-rule="evenodd" fill-opacity="1" /><path clip-path="url(#clip550)" d="M2179.5 132.44 L2179.5 137.37 Q2177.14 135.171 2174.45 134.083 Q2171.79 132.995 2168.78 132.995 Q2162.86 132.995 2159.71 136.629 Q2156.56 140.24 2156.56 147.092 Q2156.56 153.921 2159.71 157.555 Q2162.86 161.166 2168.78 161.166 Q2171.79 161.166 2174.45 160.078 Q2177.14 158.99 2179.5 156.791 L2179.5 161.676 Q2177.05 163.342 2174.29 164.176 Q2171.56 165.009 2168.51 165.009 Q2160.66 165.009 2156.14 160.217 Q2151.63 155.402 2151.63 147.092 Q2151.63 138.759 2156.14 133.967 Q2160.66 129.153 2168.51 129.153 Q2171.61 129.153 2174.34 129.986 Q2177.09 130.796 2179.5 132.44 Z" fill="#000000" fill-rule="evenodd" fill-opacity="1" /><polyline clip-path="url(#clip550)" style="stroke:#e26f46; stroke-linecap:round; stroke-linejoin:round; stroke-width:12; stroke-opacity:1; fill:none" points="
  1906.26,198.898 2052.67,198.898 
  "/>
<path clip-path="url(#clip550)" d="M2077.07 181.618 L2081.75 181.618 L2081.75 195.784 L2098.74 195.784 L2098.74 181.618 L2103.41 181.618 L2103.41 216.178 L2098.74 216.178 L2098.74 199.719 L2081.75 199.719 L2081.75 216.178 L2077.07 216.178 L2077.07 181.618 Z" fill="#000000" fill-rule="evenodd" fill-opacity="1" /><path clip-path="url(#clip550)" d="M2124.32 203.145 Q2119.15 203.145 2117.16 204.326 Q2115.17 205.506 2115.17 208.354 Q2115.17 210.622 2116.65 211.965 Q2118.16 213.284 2120.73 213.284 Q2124.27 213.284 2126.4 210.784 Q2128.55 208.261 2128.55 204.094 L2128.55 203.145 L2124.32 203.145 M2132.81 201.386 L2132.81 216.178 L2128.55 216.178 L2128.55 212.242 Q2127.09 214.603 2124.92 215.738 Q2122.74 216.849 2119.59 216.849 Q2115.61 216.849 2113.25 214.627 Q2110.91 212.381 2110.91 208.631 Q2110.91 204.256 2113.83 202.034 Q2116.77 199.812 2122.58 199.812 L2128.55 199.812 L2128.55 199.395 Q2128.55 196.455 2126.61 194.858 Q2124.69 193.238 2121.19 193.238 Q2118.97 193.238 2116.86 193.77 Q2114.76 194.303 2112.81 195.367 L2112.81 191.432 Q2115.15 190.53 2117.35 190.09 Q2119.55 189.627 2121.63 189.627 Q2127.26 189.627 2130.03 192.543 Q2132.81 195.46 2132.81 201.386 Z" fill="#000000" fill-rule="evenodd" fill-opacity="1" /><path clip-path="url(#clip550)" d="M2158.16 199.974 Q2159.66 200.483 2161.08 202.15 Q2162.51 203.817 2163.95 206.733 L2168.69 216.178 L2163.67 216.178 L2159.25 207.312 Q2157.53 203.84 2155.91 202.705 Q2154.32 201.571 2151.54 201.571 L2146.45 201.571 L2146.45 216.178 L2141.77 216.178 L2141.77 181.618 L2152.33 181.618 Q2158.25 181.618 2161.17 184.094 Q2164.08 186.571 2164.08 191.571 Q2164.08 194.835 2162.56 196.988 Q2161.05 199.141 2158.16 199.974 M2146.45 185.46 L2146.45 197.729 L2152.33 197.729 Q2155.7 197.729 2157.42 196.178 Q2159.15 194.604 2159.15 191.571 Q2159.15 188.539 2157.42 187.011 Q2155.7 185.46 2152.33 185.46 L2146.45 185.46 Z" fill="#000000" fill-rule="evenodd" fill-opacity="1" /><path clip-path="url(#clip550)" d="M2184.34 186.224 L2178 203.423 L2190.7 203.423 L2184.34 186.224 M2181.7 181.618 L2187 181.618 L2200.17 216.178 L2195.31 216.178 L2192.16 207.312 L2176.58 207.312 L2173.44 216.178 L2168.51 216.178 L2181.7 181.618 Z" fill="#000000" fill-rule="evenodd" fill-opacity="1" /><path clip-path="url(#clip550)" d="M2205.22 181.618 L2212.19 181.618 L2221.01 205.136 L2229.87 181.618 L2236.84 181.618 L2236.84 216.178 L2232.28 216.178 L2232.28 185.83 L2223.37 209.534 L2218.67 209.534 L2209.76 185.83 L2209.76 216.178 L2205.22 216.178 L2205.22 181.618 Z" fill="#000000" fill-rule="evenodd" fill-opacity="1" /><polyline clip-path="url(#clip550)" style="stroke:#3da44d; stroke-linecap:round; stroke-linejoin:round; stroke-width:12; stroke-opacity:1; fill:none" points="
  1906.26,250.738 2052.67,250.738 
  "/>
<path clip-path="url(#clip550)" d="M2093.46 251.814 Q2094.96 252.323 2096.38 253.99 Q2097.81 255.657 2099.25 258.573 L2103.99 268.018 L2098.97 268.018 L2094.55 259.152 Q2092.83 255.68 2091.21 254.545 Q2089.62 253.411 2086.84 253.411 L2081.75 253.411 L2081.75 268.018 L2077.07 268.018 L2077.07 233.458 L2087.63 233.458 Q2093.55 233.458 2096.47 235.934 Q2099.39 238.411 2099.39 243.411 Q2099.39 246.675 2097.86 248.828 Q2096.35 250.981 2093.46 251.814 M2081.75 237.3 L2081.75 249.569 L2087.63 249.569 Q2091.01 249.569 2092.72 248.018 Q2094.46 246.444 2094.46 243.411 Q2094.46 240.379 2092.72 238.851 Q2091.01 237.3 2087.63 237.3 L2081.75 237.3 Z" fill="#000000" fill-rule="evenodd" fill-opacity="1" /><path clip-path="url(#clip550)" d="M2119.64 238.064 L2113.3 255.263 L2126.01 255.263 L2119.64 238.064 M2117 233.458 L2122.3 233.458 L2135.47 268.018 L2130.61 268.018 L2127.46 259.152 L2111.89 259.152 L2108.74 268.018 L2103.81 268.018 L2117 233.458 Z" fill="#000000" fill-rule="evenodd" fill-opacity="1" /><path clip-path="url(#clip550)" d="M2140.52 233.458 L2147.49 233.458 L2156.31 256.976 L2165.17 233.458 L2172.14 233.458 L2172.14 268.018 L2167.58 268.018 L2167.58 237.67 L2158.67 261.374 L2153.97 261.374 L2145.06 237.67 L2145.06 268.018 L2140.52 268.018 L2140.52 233.458 Z" fill="#000000" fill-rule="evenodd" fill-opacity="1" /><polyline clip-path="url(#clip550)" style="stroke:#c271d2; stroke-linecap:round; stroke-linejoin:round; stroke-width:12; stroke-opacity:1; fill:none" points="
  1906.26,302.578 2052.67,302.578 
  "/>
<path clip-path="url(#clip550)" d="M2081.75 289.14 L2081.75 302.126 L2087.63 302.126 Q2090.89 302.126 2092.67 300.436 Q2094.46 298.747 2094.46 295.622 Q2094.46 292.52 2092.67 290.83 Q2090.89 289.14 2087.63 289.14 L2081.75 289.14 M2077.07 285.298 L2087.63 285.298 Q2093.44 285.298 2096.4 287.936 Q2099.39 290.552 2099.39 295.622 Q2099.39 300.737 2096.4 303.353 Q2093.44 305.969 2087.63 305.969 L2081.75 305.969 L2081.75 319.858 L2077.07 319.858 L2077.07 285.298 Z" fill="#000000" fill-rule="evenodd" fill-opacity="1" /><path clip-path="url(#clip550)" d="M2105.66 285.298 L2127.51 285.298 L2127.51 289.233 L2110.33 289.233 L2110.33 299.464 L2126.79 299.464 L2126.79 303.399 L2110.33 303.399 L2110.33 315.922 L2127.93 315.922 L2127.93 319.858 L2105.66 319.858 L2105.66 285.298 Z" fill="#000000" fill-rule="evenodd" fill-opacity="1" /><path clip-path="url(#clip550)" d="M2133.27 304.973 L2145.75 304.973 L2145.75 308.77 L2133.27 308.77 L2133.27 304.973 Z" fill="#000000" fill-rule="evenodd" fill-opacity="1" /><path clip-path="url(#clip550)" d="M2152.72 285.298 L2157.39 285.298 L2157.39 299.464 L2174.39 299.464 L2174.39 285.298 L2179.06 285.298 L2179.06 319.858 L2174.39 319.858 L2174.39 303.399 L2157.39 303.399 L2157.39 319.858 L2152.72 319.858 L2152.72 285.298 Z" fill="#000000" fill-rule="evenodd" fill-opacity="1" /><path clip-path="url(#clip550)" d="M2188.37 285.298 L2195.33 285.298 L2204.15 308.816 L2213.02 285.298 L2219.99 285.298 L2219.99 319.858 L2215.43 319.858 L2215.43 289.51 L2206.51 313.214 L2201.82 313.214 L2192.9 289.51 L2192.9 319.858 L2188.37 319.858 L2188.37 285.298 Z" fill="#000000" fill-rule="evenodd" fill-opacity="1" /><path clip-path="url(#clip550)" d="M2255.15 287.96 L2255.15 292.89 Q2252.79 290.691 2250.1 289.603 Q2247.44 288.515 2244.43 288.515 Q2238.51 288.515 2235.36 292.149 Q2232.21 295.76 2232.21 302.612 Q2232.21 309.441 2235.36 313.075 Q2238.51 316.686 2244.43 316.686 Q2247.44 316.686 2250.1 315.598 Q2252.79 314.51 2255.15 312.311 L2255.15 317.196 Q2252.7 318.862 2249.94 319.696 Q2247.21 320.529 2244.15 320.529 Q2236.31 320.529 2231.79 315.737 Q2227.28 310.922 2227.28 302.612 Q2227.28 294.279 2231.79 289.487 Q2236.31 284.673 2244.15 284.673 Q2247.26 284.673 2249.99 285.506 Q2252.74 286.316 2255.15 287.96 Z" fill="#000000" fill-rule="evenodd" fill-opacity="1" /></svg>
