<?xml version="1.0" encoding="utf-8"?>
<svg xmlns="http://www.w3.org/2000/svg" xmlns:xlink="http://www.w3.org/1999/xlink" width="600" height="400" viewBox="0 0 2400 1600">
<defs>
  <clipPath id="clip050">
    <rect x="0" y="0" width="2400" height="1600"/>
  </clipPath>
</defs>
<path clip-path="url(#clip050)" d="
M0 1600 L2400 1600 L2400 0 L0 0  Z
  " fill="#ffffff" fill-rule="evenodd" fill-opacity="1"/>
<defs>
  <clipPath id="clip051">
    <rect x="480" y="0" width="1681" height="1600"/>
  </clipPath>
</defs>
<path clip-path="url(#clip050)" d="
M186.274 1486.45 L2352.76 1486.45 L2352.76 123.472 L186.274 123.472  Z
  " fill="#ffffff" fill-rule="evenodd" fill-opacity="1"/>
<defs>
  <clipPath id="clip052">
    <rect x="186" y="123" width="2167" height="1364"/>
  </clipPath>
</defs>
<polyline clip-path="url(#clip052)" style="stroke:#000000; stroke-linecap:round; stroke-linejoin:round; stroke-width:2; stroke-opacity:0.1; fill:none" points="
  451.975,1486.45 451.975,123.472 
  "/>
<polyline clip-path="url(#clip052)" style="stroke:#000000; stroke-linecap:round; stroke-linejoin:round; stroke-width:2; stroke-opacity:0.1; fill:none" points="
  860.745,1486.45 860.745,123.472 
  "/>
<polyline clip-path="url(#clip052)" style="stroke:#000000; stroke-linecap:round; stroke-linejoin:round; stroke-width:2; stroke-opacity:0.1; fill:none" points="
  1269.51,1486.45 1269.51,123.472 
  "/>
<polyline clip-path="url(#clip052)" style="stroke:#000000; stroke-linecap:round; stroke-linejoin:round; stroke-width:2; stroke-opacity:0.1; fill:none" points="
  1678.29,1486.45 1678.29,123.472 
  "/>
<polyline clip-path="url(#clip052)" style="stroke:#000000; stroke-linecap:round; stroke-linejoin:round; stroke-width:2; stroke-opacity:0.1; fill:none" points="
  2087.06,1486.45 2087.06,123.472 
  "/>
<polyline clip-path="url(#clip050)" style="stroke:#000000; stroke-linecap:round; stroke-linejoin:round; stroke-width:4; stroke-opacity:1; fill:none" points="
  186.274,1486.45 2352.76,1486.45 
  "/>
<polyline clip-path="url(#clip050)" style="stroke:#000000; stroke-linecap:round; stroke-linejoin:round; stroke-width:4; stroke-opacity:1; fill:none" points="
  451.975,1486.45 451.975,1467.55 
  "/>
<polyline clip-path="url(#clip050)" style="stroke:#000000; stroke-linecap:round; stroke-linejoin:round; stroke-width:4; stroke-opacity:1; fill:none" points="
  860.745,1486.45 860.745,1467.55 
  "/>
<polyline clip-path="url(#clip050)" style="stroke:#000000; stroke-linecap:round; stroke-linejoin:round; stroke-width:4; stroke-opacity:1; fill:none" points="
  1269.51,1486.45 1269.51,1467.55 
  "/>
<polyline clip-path="url(#clip050)" style="stroke:#000000; stroke-linecap:round; stroke-linejoin:round; stroke-width:4; stroke-opacity:1; fill:none" points="
  1678.29,1486.45 1678.29,1467.55 
  "/>
<polyline clip-path="url(#clip050)" style="stroke:#000000; stroke-linecap:round; stroke-linejoin:round; stroke-width:4; stroke-opacity:1; fill:none" points="
  2087.06,1486.45 2087.06,1467.55 
  "/>
<path clip-path="url(#clip050)" d="M446.627 1544.91 L462.947 1544.91 L462.947 1548.85 L441.002 1548.85 L441.002 1544.91 Q443.664 1542.16 448.248 1537.53 Q452.854 1532.88 454.035 1531.53 Q456.28 1529.01 457.16 1527.27 Q458.063 1525.51 458.063 1523.82 Q458.063 1521.07 456.118 1519.33 Q454.197 1517.6 451.095 1517.6 Q448.896 1517.6 446.442 1518.36 Q444.012 1519.13 441.234 1520.68 L441.234 1515.95 Q444.058 1514.82 446.512 1514.24 Q448.965 1513.66 451.002 1513.66 Q456.373 1513.66 459.567 1516.35 Q462.762 1519.03 462.762 1523.52 Q462.762 1525.65 461.951 1527.57 Q461.164 1529.47 459.058 1532.07 Q458.479 1532.74 455.377 1535.95 Q452.276 1539.15 446.627 1544.91 Z" fill="#000000" fill-rule="evenodd" fill-opacity="1" /><path clip-path="url(#clip050)" d="M863.754 1518.36 L851.949 1536.81 L863.754 1536.81 L863.754 1518.36 M862.527 1514.29 L868.407 1514.29 L868.407 1536.81 L873.337 1536.81 L873.337 1540.7 L868.407 1540.7 L868.407 1548.85 L863.754 1548.85 L863.754 1540.7 L848.152 1540.7 L848.152 1536.19 L862.527 1514.29 Z" fill="#000000" fill-rule="evenodd" fill-opacity="1" /><path clip-path="url(#clip050)" d="M1269.92 1529.7 Q1266.77 1529.7 1264.92 1531.86 Q1263.09 1534.01 1263.09 1537.76 Q1263.09 1541.49 1264.92 1543.66 Q1266.77 1545.82 1269.92 1545.82 Q1273.07 1545.82 1274.9 1543.66 Q1276.75 1541.49 1276.75 1537.76 Q1276.75 1534.01 1274.9 1531.86 Q1273.07 1529.7 1269.92 1529.7 M1279.2 1515.05 L1279.2 1519.31 Q1277.44 1518.48 1275.64 1518.04 Q1273.86 1517.6 1272.1 1517.6 Q1267.47 1517.6 1265.01 1520.72 Q1262.58 1523.85 1262.23 1530.17 Q1263.6 1528.15 1265.66 1527.09 Q1267.72 1526 1270.2 1526 Q1275.41 1526 1278.42 1529.17 Q1281.45 1532.32 1281.45 1537.76 Q1281.45 1543.08 1278.3 1546.3 Q1275.15 1549.52 1269.92 1549.52 Q1263.92 1549.52 1260.75 1544.94 Q1257.58 1540.33 1257.58 1531.6 Q1257.58 1523.41 1261.47 1518.55 Q1265.36 1513.66 1271.91 1513.66 Q1273.67 1513.66 1275.45 1514.01 Q1277.26 1514.36 1279.2 1515.05 Z" fill="#000000" fill-rule="evenodd" fill-opacity="1" /><path clip-path="url(#clip050)" d="M1678.29 1532.44 Q1674.95 1532.44 1673.03 1534.22 Q1671.13 1536 1671.13 1539.13 Q1671.13 1542.25 1673.03 1544.03 Q1674.95 1545.82 1678.29 1545.82 Q1681.62 1545.82 1683.54 1544.03 Q1685.46 1542.23 1685.46 1539.13 Q1685.46 1536 1683.54 1534.22 Q1681.64 1532.44 1678.29 1532.44 M1673.61 1530.45 Q1670.6 1529.7 1668.91 1527.64 Q1667.24 1525.58 1667.24 1522.62 Q1667.24 1518.48 1670.18 1516.07 Q1673.15 1513.66 1678.29 1513.66 Q1683.45 1513.66 1686.39 1516.07 Q1689.33 1518.48 1689.33 1522.62 Q1689.33 1525.58 1687.64 1527.64 Q1685.97 1529.7 1682.98 1530.45 Q1686.36 1531.23 1688.24 1533.52 Q1690.14 1535.82 1690.14 1539.13 Q1690.14 1544.15 1687.06 1546.83 Q1684 1549.52 1678.29 1549.52 Q1672.57 1549.52 1669.49 1546.83 Q1666.43 1544.15 1666.43 1539.13 Q1666.43 1535.82 1668.33 1533.52 Q1670.23 1531.23 1673.61 1530.45 M1671.9 1523.06 Q1671.9 1525.75 1673.56 1527.25 Q1675.25 1528.76 1678.29 1528.76 Q1681.29 1528.76 1682.98 1527.25 Q1684.7 1525.75 1684.7 1523.06 Q1684.7 1520.38 1682.98 1518.87 Q1681.29 1517.37 1678.29 1517.37 Q1675.25 1517.37 1673.56 1518.87 Q1671.9 1520.38 1671.9 1523.06 Z" fill="#000000" fill-rule="evenodd" fill-opacity="1" /><path clip-path="url(#clip050)" d="M2061.74 1544.91 L2069.38 1544.91 L2069.38 1518.55 L2061.07 1520.21 L2061.07 1515.95 L2069.34 1514.29 L2074.01 1514.29 L2074.01 1544.91 L2081.65 1544.91 L2081.65 1548.85 L2061.74 1548.85 L2061.74 1544.91 Z" fill="#000000" fill-rule="evenodd" fill-opacity="1" /><path clip-path="url(#clip050)" d="M2101.09 1517.37 Q2097.48 1517.37 2095.65 1520.93 Q2093.85 1524.47 2093.85 1531.6 Q2093.85 1538.71 2095.65 1542.27 Q2097.48 1545.82 2101.09 1545.82 Q2104.73 1545.82 2106.53 1542.27 Q2108.36 1538.71 2108.36 1531.6 Q2108.36 1524.47 2106.53 1520.93 Q2104.73 1517.37 2101.09 1517.37 M2101.09 1513.66 Q2106.9 1513.66 2109.96 1518.27 Q2113.04 1522.85 2113.04 1531.6 Q2113.04 1540.33 2109.96 1544.94 Q2106.9 1549.52 2101.09 1549.52 Q2095.28 1549.52 2092.21 1544.94 Q2089.15 1540.33 2089.15 1531.6 Q2089.15 1522.85 2092.21 1518.27 Q2095.28 1513.66 2101.09 1513.66 Z" fill="#000000" fill-rule="evenodd" fill-opacity="1" /><polyline clip-path="url(#clip052)" style="stroke:#000000; stroke-linecap:round; stroke-linejoin:round; stroke-width:2; stroke-opacity:0.1; fill:none" points="
  186.274,1415.54 2352.76,1415.54 
  "/>
<polyline clip-path="url(#clip052)" style="stroke:#000000; stroke-linecap:round; stroke-linejoin:round; stroke-width:2; stroke-opacity:0.1; fill:none" points="
  186.274,1102.16 2352.76,1102.16 
  "/>
<polyline clip-path="url(#clip052)" style="stroke:#000000; stroke-linecap:round; stroke-linejoin:round; stroke-width:2; stroke-opacity:0.1; fill:none" points="
  186.274,788.791 2352.76,788.791 
  "/>
<polyline clip-path="url(#clip052)" style="stroke:#000000; stroke-linecap:round; stroke-linejoin:round; stroke-width:2; stroke-opacity:0.1; fill:none" points="
  186.274,475.419 2352.76,475.419 
  "/>
<polyline clip-path="url(#clip052)" style="stroke:#000000; stroke-linecap:round; stroke-linejoin:round; stroke-width:2; stroke-opacity:0.1; fill:none" points="
  186.274,162.047 2352.76,162.047 
  "/>
<polyline clip-path="url(#clip050)" style="stroke:#000000; stroke-linecap:round; stroke-linejoin:round; stroke-width:4; stroke-opacity:1; fill:none" points="
  186.274,1486.45 186.274,123.472 
  "/>
<polyline clip-path="url(#clip050)" style="stroke:#000000; stroke-linecap:round; stroke-linejoin:round; stroke-width:4; stroke-opacity:1; fill:none" points="
  186.274,1415.54 205.172,1415.54 
  "/>
<polyline clip-path="url(#clip050)" style="stroke:#000000; stroke-linecap:round; stroke-linejoin:round; stroke-width:4; stroke-opacity:1; fill:none" points="
  186.274,1102.16 205.172,1102.16 
  "/>
<polyline clip-path="url(#clip050)" style="stroke:#000000; stroke-linecap:round; stroke-linejoin:round; stroke-width:4; stroke-opacity:1; fill:none" points="
  186.274,788.791 205.172,788.791 
  "/>
<polyline clip-path="url(#clip050)" style="stroke:#000000; stroke-linecap:round; stroke-linejoin:round; stroke-width:4; stroke-opacity:1; fill:none" points="
  186.274,475.419 205.172,475.419 
  "/>
<polyline clip-path="url(#clip050)" style="stroke:#000000; stroke-linecap:round; stroke-linejoin:round; stroke-width:4; stroke-opacity:1; fill:none" points="
  186.274,162.047 205.172,162.047 
  "/>
<path clip-path="url(#clip050)" d="M62.9365 1401.33 Q59.3254 1401.33 57.4967 1404.9 Q55.6912 1408.44 55.6912 1415.57 Q55.6912 1422.68 57.4967 1426.24 Q59.3254 1429.78 62.9365 1429.78 Q66.5707 1429.78 68.3763 1426.24 Q70.205 1422.68 70.205 1415.57 Q70.205 1408.44 68.3763 1404.9 Q66.5707 1401.33 62.9365 1401.33 M62.9365 1397.63 Q68.7467 1397.63 71.8022 1402.24 Q74.8809 1406.82 74.8809 1415.57 Q74.8809 1424.3 71.8022 1428.9 Q68.7467 1433.49 62.9365 1433.49 Q57.1264 1433.49 54.0477 1428.9 Q50.9921 1424.3 50.9921 1415.57 Q50.9921 1406.82 54.0477 1402.24 Q57.1264 1397.63 62.9365 1397.63 Z" fill="#000000" fill-rule="evenodd" fill-opacity="1" /><path clip-path="url(#clip050)" d="M83.0984 1426.94 L87.9827 1426.94 L87.9827 1432.82 L83.0984 1432.82 L83.0984 1426.94 Z" fill="#000000" fill-rule="evenodd" fill-opacity="1" /><path clip-path="url(#clip050)" d="M108.168 1401.33 Q104.557 1401.33 102.728 1404.9 Q100.922 1408.44 100.922 1415.57 Q100.922 1422.68 102.728 1426.24 Q104.557 1429.78 108.168 1429.78 Q111.802 1429.78 113.608 1426.24 Q115.436 1422.68 115.436 1415.57 Q115.436 1408.44 113.608 1404.9 Q111.802 1401.33 108.168 1401.33 M108.168 1397.63 Q113.978 1397.63 117.033 1402.24 Q120.112 1406.82 120.112 1415.57 Q120.112 1424.3 117.033 1428.9 Q113.978 1433.49 108.168 1433.49 Q102.358 1433.49 99.2789 1428.9 Q96.2234 1424.3 96.2234 1415.57 Q96.2234 1406.82 99.2789 1402.24 Q102.358 1397.63 108.168 1397.63 Z" fill="#000000" fill-rule="evenodd" fill-opacity="1" /><path clip-path="url(#clip050)" d="M138.33 1401.33 Q134.719 1401.33 132.89 1404.9 Q131.084 1408.44 131.084 1415.57 Q131.084 1422.68 132.89 1426.24 Q134.719 1429.78 138.33 1429.78 Q141.964 1429.78 143.769 1426.24 Q145.598 1422.68 145.598 1415.57 Q145.598 1408.44 143.769 1404.9 Q141.964 1401.33 138.33 1401.33 M138.33 1397.63 Q144.14 1397.63 147.195 1402.24 Q150.274 1406.82 150.274 1415.57 Q150.274 1424.3 147.195 1428.9 Q144.14 1433.49 138.33 1433.49 Q132.519 1433.49 129.441 1428.9 Q126.385 1424.3 126.385 1415.57 Q126.385 1406.82 129.441 1402.24 Q132.519 1397.63 138.33 1397.63 Z" fill="#000000" fill-rule="evenodd" fill-opacity="1" /><path clip-path="url(#clip050)" d="M63.9319 1087.96 Q60.3208 1087.96 58.4921 1091.53 Q56.6865 1095.07 56.6865 1102.2 Q56.6865 1109.3 58.4921 1112.87 Q60.3208 1116.41 63.9319 1116.41 Q67.5661 1116.41 69.3717 1112.87 Q71.2004 1109.3 71.2004 1102.2 Q71.2004 1095.07 69.3717 1091.53 Q67.5661 1087.96 63.9319 1087.96 M63.9319 1084.26 Q69.742 1084.26 72.7976 1088.87 Q75.8763 1093.45 75.8763 1102.2 Q75.8763 1110.93 72.7976 1115.53 Q69.742 1120.12 63.9319 1120.12 Q58.1217 1120.12 55.043 1115.53 Q51.9875 1110.93 51.9875 1102.2 Q51.9875 1093.45 55.043 1088.87 Q58.1217 1084.26 63.9319 1084.26 Z" fill="#000000" fill-rule="evenodd" fill-opacity="1" /><path clip-path="url(#clip050)" d="M84.0938 1113.56 L88.978 1113.56 L88.978 1119.44 L84.0938 1119.44 L84.0938 1113.56 Z" fill="#000000" fill-rule="evenodd" fill-opacity="1" /><path clip-path="url(#clip050)" d="M103.191 1115.51 L119.51 1115.51 L119.51 1119.44 L97.566 1119.44 L97.566 1115.51 Q100.228 1112.75 104.811 1108.12 Q109.418 1103.47 110.598 1102.13 Q112.844 1099.61 113.723 1097.87 Q114.626 1096.11 114.626 1094.42 Q114.626 1091.67 112.682 1089.93 Q110.76 1088.19 107.658 1088.19 Q105.459 1088.19 103.006 1088.96 Q100.575 1089.72 97.7974 1091.27 L97.7974 1086.55 Q100.621 1085.42 103.075 1084.84 Q105.529 1084.26 107.566 1084.26 Q112.936 1084.26 116.131 1086.94 Q119.325 1089.63 119.325 1094.12 Q119.325 1096.25 118.515 1098.17 Q117.728 1100.07 115.621 1102.66 Q115.043 1103.33 111.941 1106.55 Q108.839 1109.74 103.191 1115.51 Z" fill="#000000" fill-rule="evenodd" fill-opacity="1" /><path clip-path="url(#clip050)" d="M129.371 1084.88 L147.728 1084.88 L147.728 1088.82 L133.654 1088.82 L133.654 1097.29 Q134.672 1096.94 135.691 1096.78 Q136.709 1096.6 137.728 1096.6 Q143.515 1096.6 146.894 1099.77 Q150.274 1102.94 150.274 1108.36 Q150.274 1113.93 146.802 1117.04 Q143.33 1120.12 137.01 1120.12 Q134.834 1120.12 132.566 1119.74 Q130.32 1119.37 127.913 1118.63 L127.913 1113.93 Q129.996 1115.07 132.219 1115.62 Q134.441 1116.18 136.918 1116.18 Q140.922 1116.18 143.26 1114.07 Q145.598 1111.97 145.598 1108.36 Q145.598 1104.74 143.26 1102.64 Q140.922 1100.53 136.918 1100.53 Q135.043 1100.53 133.168 1100.95 Q131.316 1101.37 129.371 1102.24 L129.371 1084.88 Z" fill="#000000" fill-rule="evenodd" fill-opacity="1" /><path clip-path="url(#clip050)" d="M62.9365 774.59 Q59.3254 774.59 57.4967 778.155 Q55.6912 781.697 55.6912 788.826 Q55.6912 795.933 57.4967 799.497 Q59.3254 803.039 62.9365 803.039 Q66.5707 803.039 68.3763 799.497 Q70.205 795.933 70.205 788.826 Q70.205 781.697 68.3763 778.155 Q66.5707 774.59 62.9365 774.59 M62.9365 770.886 Q68.7467 770.886 71.8022 775.493 Q74.8809 780.076 74.8809 788.826 Q74.8809 797.553 71.8022 802.159 Q68.7467 806.743 62.9365 806.743 Q57.1264 806.743 54.0477 802.159 Q50.9921 797.553 50.9921 788.826 Q50.9921 780.076 54.0477 775.493 Q57.1264 770.886 62.9365 770.886 Z" fill="#000000" fill-rule="evenodd" fill-opacity="1" /><path clip-path="url(#clip050)" d="M83.0984 800.192 L87.9827 800.192 L87.9827 806.071 L83.0984 806.071 L83.0984 800.192 Z" fill="#000000" fill-rule="evenodd" fill-opacity="1" /><path clip-path="url(#clip050)" d="M98.2141 771.511 L116.57 771.511 L116.57 775.447 L102.496 775.447 L102.496 783.919 Q103.515 783.572 104.534 783.41 Q105.552 783.224 106.571 783.224 Q112.358 783.224 115.737 786.396 Q119.117 789.567 119.117 794.984 Q119.117 800.562 115.645 803.664 Q112.172 806.743 105.853 806.743 Q103.677 806.743 101.409 806.372 Q99.1632 806.002 96.7558 805.261 L96.7558 800.562 Q98.8391 801.696 101.061 802.252 Q103.284 802.808 105.76 802.808 Q109.765 802.808 112.103 800.701 Q114.441 798.595 114.441 794.984 Q114.441 791.372 112.103 789.266 Q109.765 787.16 105.76 787.16 Q103.885 787.16 102.01 787.576 Q100.159 787.993 98.2141 788.872 L98.2141 771.511 Z" fill="#000000" fill-rule="evenodd" fill-opacity="1" /><path clip-path="url(#clip050)" d="M138.33 774.59 Q134.719 774.59 132.89 778.155 Q131.084 781.697 131.084 788.826 Q131.084 795.933 132.89 799.497 Q134.719 803.039 138.33 803.039 Q141.964 803.039 143.769 799.497 Q145.598 795.933 145.598 788.826 Q145.598 781.697 143.769 778.155 Q141.964 774.59 138.33 774.59 M138.33 770.886 Q144.14 770.886 147.195 775.493 Q150.274 780.076 150.274 788.826 Q150.274 797.553 147.195 802.159 Q144.14 806.743 138.33 806.743 Q132.519 806.743 129.441 802.159 Q126.385 797.553 126.385 788.826 Q126.385 780.076 129.441 775.493 Q132.519 770.886 138.33 770.886 Z" fill="#000000" fill-rule="evenodd" fill-opacity="1" /><path clip-path="url(#clip050)" d="M63.9319 461.218 Q60.3208 461.218 58.4921 464.783 Q56.6865 468.324 56.6865 475.454 Q56.6865 482.56 58.4921 486.125 Q60.3208 489.667 63.9319 489.667 Q67.5661 489.667 69.3717 486.125 Q71.2004 482.56 71.2004 475.454 Q71.2004 468.324 69.3717 464.783 Q67.5661 461.218 63.9319 461.218 M63.9319 457.514 Q69.742 457.514 72.7976 462.121 Q75.8763 466.704 75.8763 475.454 Q75.8763 484.181 72.7976 488.787 Q69.742 493.37 63.9319 493.37 Q58.1217 493.37 55.043 488.787 Q51.9875 484.181 51.9875 475.454 Q51.9875 466.704 55.043 462.121 Q58.1217 457.514 63.9319 457.514 Z" fill="#000000" fill-rule="evenodd" fill-opacity="1" /><path clip-path="url(#clip050)" d="M84.0938 486.82 L88.978 486.82 L88.978 492.699 L84.0938 492.699 L84.0938 486.82 Z" fill="#000000" fill-rule="evenodd" fill-opacity="1" /><path clip-path="url(#clip050)" d="M97.9826 458.139 L120.205 458.139 L120.205 460.13 L107.658 492.699 L102.774 492.699 L114.58 462.074 L97.9826 462.074 L97.9826 458.139 Z" fill="#000000" fill-rule="evenodd" fill-opacity="1" /><path clip-path="url(#clip050)" d="M129.371 458.139 L147.728 458.139 L147.728 462.074 L133.654 462.074 L133.654 470.547 Q134.672 470.199 135.691 470.037 Q136.709 469.852 137.728 469.852 Q143.515 469.852 146.894 473.023 Q150.274 476.195 150.274 481.611 Q150.274 487.19 146.802 490.292 Q143.33 493.37 137.01 493.37 Q134.834 493.37 132.566 493 Q130.32 492.63 127.913 491.889 L127.913 487.19 Q129.996 488.324 132.219 488.88 Q134.441 489.435 136.918 489.435 Q140.922 489.435 143.26 487.329 Q145.598 485.222 145.598 481.611 Q145.598 478 143.26 475.894 Q140.922 473.787 136.918 473.787 Q135.043 473.787 133.168 474.204 Q131.316 474.621 129.371 475.5 L129.371 458.139 Z" fill="#000000" fill-rule="evenodd" fill-opacity="1" /><path clip-path="url(#clip050)" d="M53.7467 175.392 L61.3856 175.392 L61.3856 149.026 L53.0754 150.693 L53.0754 146.434 L61.3393 144.767 L66.0152 144.767 L66.0152 175.392 L73.654 175.392 L73.654 179.327 L53.7467 179.327 L53.7467 175.392 Z" fill="#000000" fill-rule="evenodd" fill-opacity="1" /><path clip-path="url(#clip050)" d="M83.0984 173.447 L87.9827 173.447 L87.9827 179.327 L83.0984 179.327 L83.0984 173.447 Z" fill="#000000" fill-rule="evenodd" fill-opacity="1" /><path clip-path="url(#clip050)" d="M108.168 147.846 Q104.557 147.846 102.728 151.41 Q100.922 154.952 100.922 162.082 Q100.922 169.188 102.728 172.753 Q104.557 176.295 108.168 176.295 Q111.802 176.295 113.608 172.753 Q115.436 169.188 115.436 162.082 Q115.436 154.952 113.608 151.41 Q111.802 147.846 108.168 147.846 M108.168 144.142 Q113.978 144.142 117.033 148.748 Q120.112 153.332 120.112 162.082 Q120.112 170.808 117.033 175.415 Q113.978 179.998 108.168 179.998 Q102.358 179.998 99.2789 175.415 Q96.2234 170.808 96.2234 162.082 Q96.2234 153.332 99.2789 148.748 Q102.358 144.142 108.168 144.142 Z" fill="#000000" fill-rule="evenodd" fill-opacity="1" /><path clip-path="url(#clip050)" d="M138.33 147.846 Q134.719 147.846 132.89 151.41 Q131.084 154.952 131.084 162.082 Q131.084 169.188 132.89 172.753 Q134.719 176.295 138.33 176.295 Q141.964 176.295 143.769 172.753 Q145.598 169.188 145.598 162.082 Q145.598 154.952 143.769 151.41 Q141.964 147.846 138.33 147.846 M138.33 144.142 Q144.14 144.142 147.195 148.748 Q150.274 153.332 150.274 162.082 Q150.274 170.808 147.195 175.415 Q144.14 179.998 138.33 179.998 Q132.519 179.998 129.441 175.415 Q126.385 170.808 126.385 162.082 Q126.385 153.332 129.441 148.748 Q132.519 144.142 138.33 144.142 Z" fill="#000000" fill-rule="evenodd" fill-opacity="1" /><path clip-path="url(#clip050)" d="M1221.57 34.0924 L1221.57 9.54393 L1229.03 9.54393 L1229.03 72.576 L1221.57 72.576 L1221.57 65.7705 Q1219.22 69.8214 1215.62 71.8063 Q1212.05 73.7508 1207.03 73.7508 Q1198.81 73.7508 1193.62 67.1883 Q1188.48 60.6258 1188.48 49.9314 Q1188.48 39.2371 1193.62 32.6746 Q1198.81 26.1121 1207.03 26.1121 Q1212.05 26.1121 1215.62 28.0971 Q1219.22 30.0415 1221.57 34.0924 M1196.17 49.9314 Q1196.17 58.1548 1199.54 62.8538 Q1202.94 67.5124 1208.85 67.5124 Q1214.77 67.5124 1218.17 62.8538 Q1221.57 58.1548 1221.57 49.9314 Q1221.57 41.7081 1218.17 37.0496 Q1214.77 32.3505 1208.85 32.3505 Q1202.94 32.3505 1199.54 37.0496 Q1196.17 41.7081 1196.17 49.9314 Z" fill="#000000" fill-rule="evenodd" fill-opacity="1" /><path clip-path="url(#clip050)" d="M1245.35 34.9026 L1297.28 34.9026 L1297.28 41.7081 L1245.35 41.7081 L1245.35 34.9026 M1245.35 51.4303 L1297.28 51.4303 L1297.28 58.3168 L1245.35 58.3168 L1245.35 51.4303 Z" fill="#000000" fill-rule="evenodd" fill-opacity="1" /><path clip-path="url(#clip050)" d="M1321.99 65.6895 L1350.55 65.6895 L1350.55 72.576 L1312.15 72.576 L1312.15 65.6895 Q1316.81 60.8689 1324.83 52.7671 Q1332.89 44.6248 1334.96 42.2752 Q1338.89 37.8598 1340.43 34.8216 Q1342.01 31.7429 1342.01 28.7857 Q1342.01 23.9651 1338.6 20.927 Q1335.24 17.8888 1329.81 17.8888 Q1325.96 17.8888 1321.67 19.2256 Q1317.42 20.5624 1312.56 23.2765 L1312.56 15.0127 Q1317.5 13.0277 1321.79 12.015 Q1326.09 11.0023 1329.65 11.0023 Q1339.05 11.0023 1344.64 15.7013 Q1350.23 20.4004 1350.23 28.2591 Q1350.23 31.9859 1348.81 35.3482 Q1347.43 38.6699 1343.75 43.2069 Q1342.74 44.3817 1337.31 50.0125 Q1331.88 55.6027 1321.99 65.6895 Z" fill="#000000" fill-rule="evenodd" fill-opacity="1" /><polyline clip-path="url(#clip052)" style="stroke:#009af9; stroke-linecap:round; stroke-linejoin:round; stroke-width:12; stroke-opacity:1; fill:none" points="
  247.59,162.047 451.975,951.454 656.36,1224.38 860.745,1328.85 1065.13,1376.28 1269.51,1403.85 1473.9,1414.25 1678.29,1426.73 1882.67,1417.35 2087.06,1408.56 
  2291.44,1392.99 
  "/>
<polyline clip-path="url(#clip052)" style="stroke:#e26f46; stroke-linecap:round; stroke-linejoin:round; stroke-width:12; stroke-opacity:1; fill:none" points="
  247.59,162.047 451.975,1256.51 656.36,1407.2 860.745,1394.88 1065.13,1418.01 1269.51,1430.92 1473.9,1373.9 1678.29,1447.87 1882.67,1429.85 2087.06,1419.5 
  2291.44,1382.1 
  "/>
<polyline clip-path="url(#clip052)" style="stroke:#3da44d; stroke-linecap:round; stroke-linejoin:round; stroke-width:12; stroke-opacity:1; fill:none" points="
  247.59,162.047 451.975,265.221 656.36,303.923 860.745,339.947 1065.13,378.87 1269.51,408.609 1473.9,446.844 1678.29,485.499 1882.67,522.176 2087.06,560.598 
  2291.44,596.997 
  "/>
<polyline clip-path="url(#clip052)" style="stroke:#c271d2; stroke-linecap:round; stroke-linejoin:round; stroke-width:12; stroke-opacity:1; fill:none" points="
  247.59,162.047 451.975,611.867 656.36,793.071 860.745,909.674 1065.13,1000.58 1269.51,1058.71 1473.9,1107.31 1678.29,1130.93 1882.67,1153.75 2087.06,1190.48 
  2291.44,1226.27 
  "/>
<polyline clip-path="url(#clip052)" style="stroke:#ac8d18; stroke-linecap:round; stroke-linejoin:round; stroke-width:12; stroke-opacity:1; fill:none" points="
  247.59,162.047 451.975,681.884 656.36,747.797 860.745,783.166 1065.13,796.726 1269.51,814.237 1473.9,821 1678.29,823.235 1882.67,830.445 2087.06,841.883 
  2291.44,841.667 
  "/>
<polyline clip-path="url(#clip052)" style="stroke:#00a9ad; stroke-linecap:round; stroke-linejoin:round; stroke-width:12; stroke-opacity:1; fill:none" points="
  247.59,162.047 451.975,1042.8 656.36,1139.1 860.745,1191.53 1065.13,1205.7 1269.51,1230.79 1473.9,1230.02 1678.29,1226.55 1882.67,1236.16 2087.06,1259.64 
  2291.44,1262.77 
  "/>
<path clip-path="url(#clip050)" d="
M1833.82 531.785 L2280.54 531.785 L2280.54 168.905 L1833.82 168.905  Z
  " fill="#ffffff" fill-rule="evenodd" fill-opacity="1"/>
<polyline clip-path="url(#clip050)" style="stroke:#000000; stroke-linecap:round; stroke-linejoin:round; stroke-width:4; stroke-opacity:1; fill:none" points="
  1833.82,531.785 2280.54,531.785 2280.54,168.905 1833.82,168.905 1833.82,531.785 
  "/>
<polyline clip-path="url(#clip050)" style="stroke:#009af9; stroke-linecap:round; stroke-linejoin:round; stroke-width:12; stroke-opacity:1; fill:none" points="
  1857.9,220.745 2002.33,220.745 
  "/>
<path clip-path="url(#clip050)" d="M2026.4 203.465 L2031.08 203.465 L2031.08 217.631 L2048.07 217.631 L2048.07 203.465 L2052.74 203.465 L2052.74 238.025 L2048.07 238.025 L2048.07 221.566 L2031.08 221.566 L2031.08 238.025 L2026.4 238.025 L2026.4 203.465 Z" fill="#000000" fill-rule="evenodd" fill-opacity="1" /><path clip-path="url(#clip050)" d="M2062.05 203.465 L2069.02 203.465 L2077.83 226.983 L2086.7 203.465 L2093.67 203.465 L2093.67 238.025 L2089.11 238.025 L2089.11 207.678 L2080.2 231.381 L2075.5 231.381 L2066.58 207.678 L2066.58 238.025 L2062.05 238.025 L2062.05 203.465 Z" fill="#000000" fill-rule="evenodd" fill-opacity="1" /><path clip-path="url(#clip050)" d="M2128.83 206.127 L2128.83 211.057 Q2126.47 208.858 2123.78 207.77 Q2121.12 206.682 2118.11 206.682 Q2112.19 206.682 2109.04 210.316 Q2105.89 213.928 2105.89 220.779 Q2105.89 227.608 2109.04 231.242 Q2112.19 234.853 2118.11 234.853 Q2121.12 234.853 2123.78 233.765 Q2126.47 232.677 2128.83 230.478 L2128.83 235.363 Q2126.38 237.029 2123.62 237.863 Q2120.89 238.696 2117.83 238.696 Q2109.99 238.696 2105.47 233.904 Q2100.96 229.09 2100.96 220.779 Q2100.96 212.446 2105.47 207.654 Q2109.99 202.84 2117.83 202.84 Q2120.94 202.84 2123.67 203.673 Q2126.42 204.483 2128.83 206.127 Z" fill="#000000" fill-rule="evenodd" fill-opacity="1" /><polyline clip-path="url(#clip050)" style="stroke:#e26f46; stroke-linecap:round; stroke-linejoin:round; stroke-width:12; stroke-opacity:1; fill:none" points="
  1857.9,272.585 2002.33,272.585 
  "/>
<path clip-path="url(#clip050)" d="M2026.4 255.305 L2031.08 255.305 L2031.08 269.471 L2048.07 269.471 L2048.07 255.305 L2052.74 255.305 L2052.74 289.865 L2048.07 289.865 L2048.07 273.406 L2031.08 273.406 L2031.08 289.865 L2026.4 289.865 L2026.4 255.305 Z" fill="#000000" fill-rule="evenodd" fill-opacity="1" /><path clip-path="url(#clip050)" d="M2073.64 276.832 Q2068.48 276.832 2066.49 278.013 Q2064.5 279.193 2064.5 282.041 Q2064.5 284.309 2065.98 285.652 Q2067.49 286.971 2070.06 286.971 Q2073.6 286.971 2075.73 284.471 Q2077.88 281.948 2077.88 277.781 L2077.88 276.832 L2073.64 276.832 M2082.14 275.073 L2082.14 289.865 L2077.88 289.865 L2077.88 285.929 Q2076.42 288.291 2074.25 289.425 Q2072.07 290.536 2068.92 290.536 Q2064.94 290.536 2062.58 288.314 Q2060.24 286.068 2060.24 282.318 Q2060.24 277.943 2063.16 275.721 Q2066.1 273.499 2071.91 273.499 L2077.88 273.499 L2077.88 273.082 Q2077.88 270.143 2075.94 268.545 Q2074.02 266.925 2070.52 266.925 Q2068.3 266.925 2066.19 267.457 Q2064.08 267.99 2062.14 269.055 L2062.14 265.119 Q2064.48 264.217 2066.68 263.777 Q2068.88 263.314 2070.96 263.314 Q2076.58 263.314 2079.36 266.231 Q2082.14 269.147 2082.14 275.073 Z" fill="#000000" fill-rule="evenodd" fill-opacity="1" /><path clip-path="url(#clip050)" d="M2107.49 273.661 Q2108.99 274.17 2110.4 275.837 Q2111.84 277.504 2113.27 280.42 L2118.02 289.865 L2113 289.865 L2108.58 280.999 Q2106.86 277.527 2105.24 276.393 Q2103.64 275.258 2100.87 275.258 L2095.77 275.258 L2095.77 289.865 L2091.1 289.865 L2091.1 255.305 L2101.65 255.305 Q2107.58 255.305 2110.5 257.781 Q2113.41 260.258 2113.41 265.258 Q2113.41 268.522 2111.89 270.675 Q2110.38 272.828 2107.49 273.661 M2095.77 259.147 L2095.77 271.416 L2101.65 271.416 Q2105.03 271.416 2106.75 269.865 Q2108.48 268.291 2108.48 265.258 Q2108.48 262.226 2106.75 260.698 Q2105.03 259.147 2101.65 259.147 L2095.77 259.147 Z" fill="#000000" fill-rule="evenodd" fill-opacity="1" /><path clip-path="url(#clip050)" d="M2133.67 259.911 L2127.32 277.11 L2140.03 277.11 L2133.67 259.911 M2131.03 255.305 L2136.33 255.305 L2149.5 289.865 L2144.64 289.865 L2141.49 280.999 L2125.91 280.999 L2122.76 289.865 L2117.83 289.865 L2131.03 255.305 Z" fill="#000000" fill-rule="evenodd" fill-opacity="1" /><path clip-path="url(#clip050)" d="M2154.55 255.305 L2161.51 255.305 L2170.33 278.823 L2179.2 255.305 L2186.17 255.305 L2186.17 289.865 L2181.61 289.865 L2181.61 259.518 L2172.7 283.221 L2168 283.221 L2159.08 259.518 L2159.08 289.865 L2154.55 289.865 L2154.55 255.305 Z" fill="#000000" fill-rule="evenodd" fill-opacity="1" /><polyline clip-path="url(#clip050)" style="stroke:#3da44d; stroke-linecap:round; stroke-linejoin:round; stroke-width:12; stroke-opacity:1; fill:none" points="
  1857.9,324.425 2002.33,324.425 
  "/>
<path clip-path="url(#clip050)" d="M2042.79 325.501 Q2044.29 326.01 2045.71 327.677 Q2047.14 329.344 2048.58 332.26 L2053.32 341.705 L2048.3 341.705 L2043.88 332.839 Q2042.16 329.367 2040.54 328.233 Q2038.95 327.098 2036.17 327.098 L2031.08 327.098 L2031.08 341.705 L2026.4 341.705 L2026.4 307.145 L2036.96 307.145 Q2042.88 307.145 2045.8 309.621 Q2048.71 312.098 2048.71 317.098 Q2048.71 320.362 2047.19 322.515 Q2045.68 324.668 2042.79 325.501 M2031.08 310.987 L2031.08 323.256 L2036.96 323.256 Q2040.33 323.256 2042.05 321.705 Q2043.78 320.131 2043.78 317.098 Q2043.78 314.066 2042.05 312.538 Q2040.33 310.987 2036.96 310.987 L2031.08 310.987 Z" fill="#000000" fill-rule="evenodd" fill-opacity="1" /><path clip-path="url(#clip050)" d="M2068.97 311.751 L2062.63 328.95 L2075.33 328.95 L2068.97 311.751 M2066.33 307.145 L2071.63 307.145 L2084.8 341.705 L2079.94 341.705 L2076.79 332.839 L2061.21 332.839 L2058.07 341.705 L2053.14 341.705 L2066.33 307.145 Z" fill="#000000" fill-rule="evenodd" fill-opacity="1" /><path clip-path="url(#clip050)" d="M2089.85 307.145 L2096.82 307.145 L2105.64 330.663 L2114.5 307.145 L2121.47 307.145 L2121.47 341.705 L2116.91 341.705 L2116.91 311.358 L2108 335.061 L2103.3 335.061 L2094.39 311.358 L2094.39 341.705 L2089.85 341.705 L2089.85 307.145 Z" fill="#000000" fill-rule="evenodd" fill-opacity="1" /><polyline clip-path="url(#clip050)" style="stroke:#c271d2; stroke-linecap:round; stroke-linejoin:round; stroke-width:12; stroke-opacity:1; fill:none" points="
  1857.9,376.265 2002.33,376.265 
  "/>
<path clip-path="url(#clip050)" d="M2031.08 362.827 L2031.08 375.813 L2036.96 375.813 Q2040.22 375.813 2042 374.123 Q2043.78 372.434 2043.78 369.309 Q2043.78 366.207 2042 364.517 Q2040.22 362.827 2036.96 362.827 L2031.08 362.827 M2026.4 358.985 L2036.96 358.985 Q2042.77 358.985 2045.73 361.624 Q2048.71 364.239 2048.71 369.309 Q2048.71 374.424 2045.73 377.04 Q2042.77 379.656 2036.96 379.656 L2031.08 379.656 L2031.08 393.545 L2026.4 393.545 L2026.4 358.985 Z" fill="#000000" fill-rule="evenodd" fill-opacity="1" /><path clip-path="url(#clip050)" d="M2054.99 358.985 L2076.84 358.985 L2076.84 362.92 L2059.66 362.92 L2059.66 373.151 L2076.12 373.151 L2076.12 377.086 L2059.66 377.086 L2059.66 389.609 L2077.26 389.609 L2077.26 393.545 L2054.99 393.545 L2054.99 358.985 Z" fill="#000000" fill-rule="evenodd" fill-opacity="1" /><path clip-path="url(#clip050)" d="M2082.6 378.66 L2095.08 378.66 L2095.08 382.457 L2082.6 382.457 L2082.6 378.66 Z" fill="#000000" fill-rule="evenodd" fill-opacity="1" /><path clip-path="url(#clip050)" d="M2102.05 358.985 L2106.72 358.985 L2106.72 373.151 L2123.71 373.151 L2123.71 358.985 L2128.39 358.985 L2128.39 393.545 L2123.71 393.545 L2123.71 377.086 L2106.72 377.086 L2106.72 393.545 L2102.05 393.545 L2102.05 358.985 Z" fill="#000000" fill-rule="evenodd" fill-opacity="1" /><path clip-path="url(#clip050)" d="M2137.7 358.985 L2144.66 358.985 L2153.48 382.503 L2162.35 358.985 L2169.32 358.985 L2169.32 393.545 L2164.76 393.545 L2164.76 363.198 L2155.84 386.901 L2151.14 386.901 L2142.23 363.198 L2142.23 393.545 L2137.7 393.545 L2137.7 358.985 Z" fill="#000000" fill-rule="evenodd" fill-opacity="1" /><path clip-path="url(#clip050)" d="M2204.48 361.647 L2204.48 366.577 Q2202.12 364.378 2199.43 363.29 Q2196.77 362.202 2193.76 362.202 Q2187.83 362.202 2184.69 365.836 Q2181.54 369.448 2181.54 376.299 Q2181.54 383.128 2184.69 386.762 Q2187.83 390.373 2193.76 390.373 Q2196.77 390.373 2199.43 389.285 Q2202.12 388.197 2204.48 385.998 L2204.48 390.883 Q2202.02 392.549 2199.27 393.383 Q2196.54 394.216 2193.48 394.216 Q2185.63 394.216 2181.12 389.424 Q2176.61 384.61 2176.61 376.299 Q2176.61 367.966 2181.12 363.174 Q2185.63 358.36 2193.48 358.36 Q2196.58 358.36 2199.32 359.193 Q2202.07 360.003 2204.48 361.647 Z" fill="#000000" fill-rule="evenodd" fill-opacity="1" /><polyline clip-path="url(#clip050)" style="stroke:#ac8d18; stroke-linecap:round; stroke-linejoin:round; stroke-width:12; stroke-opacity:1; fill:none" points="
  1857.9,428.105 2002.33,428.105 
  "/>
<path clip-path="url(#clip050)" d="M2031.08 414.667 L2031.08 427.653 L2036.96 427.653 Q2040.22 427.653 2042 425.963 Q2043.78 424.274 2043.78 421.149 Q2043.78 418.047 2042 416.357 Q2040.22 414.667 2036.96 414.667 L2031.08 414.667 M2026.4 410.825 L2036.96 410.825 Q2042.77 410.825 2045.73 413.464 Q2048.71 416.079 2048.71 421.149 Q2048.71 426.264 2045.73 428.88 Q2042.77 431.496 2036.96 431.496 L2031.08 431.496 L2031.08 445.385 L2026.4 445.385 L2026.4 410.825 Z" fill="#000000" fill-rule="evenodd" fill-opacity="1" /><path clip-path="url(#clip050)" d="M2050.2 410.825 L2079.43 410.825 L2079.43 414.76 L2067.16 414.76 L2067.16 445.385 L2062.46 445.385 L2062.46 414.76 L2050.2 414.76 L2050.2 410.825 Z" fill="#000000" fill-rule="evenodd" fill-opacity="1" /><path clip-path="url(#clip050)" d="M2077.26 430.5 L2089.73 430.5 L2089.73 434.297 L2077.26 434.297 L2077.26 430.5 Z" fill="#000000" fill-rule="evenodd" fill-opacity="1" /><path clip-path="url(#clip050)" d="M2096.7 410.825 L2101.38 410.825 L2101.38 424.991 L2118.37 424.991 L2118.37 410.825 L2123.04 410.825 L2123.04 445.385 L2118.37 445.385 L2118.37 428.926 L2101.38 428.926 L2101.38 445.385 L2096.7 445.385 L2096.7 410.825 Z" fill="#000000" fill-rule="evenodd" fill-opacity="1" /><path clip-path="url(#clip050)" d="M2132.35 410.825 L2139.32 410.825 L2148.14 434.343 L2157 410.825 L2163.97 410.825 L2163.97 445.385 L2159.41 445.385 L2159.41 415.038 L2150.5 438.741 L2145.8 438.741 L2136.89 415.038 L2136.89 445.385 L2132.35 445.385 L2132.35 410.825 Z" fill="#000000" fill-rule="evenodd" fill-opacity="1" /><path clip-path="url(#clip050)" d="M2199.13 413.487 L2199.13 418.417 Q2196.77 416.218 2194.08 415.13 Q2191.42 414.042 2188.41 414.042 Q2182.49 414.042 2179.34 417.676 Q2176.19 421.288 2176.19 428.139 Q2176.19 434.968 2179.34 438.602 Q2182.49 442.213 2188.41 442.213 Q2191.42 442.213 2194.08 441.125 Q2196.77 440.037 2199.13 437.838 L2199.13 442.723 Q2196.68 444.389 2193.92 445.223 Q2191.19 446.056 2188.13 446.056 Q2180.29 446.056 2175.77 441.264 Q2171.26 436.45 2171.26 428.139 Q2171.26 419.806 2175.77 415.014 Q2180.29 410.2 2188.13 410.2 Q2191.24 410.2 2193.97 411.033 Q2196.72 411.843 2199.13 413.487 Z" fill="#000000" fill-rule="evenodd" fill-opacity="1" /><polyline clip-path="url(#clip050)" style="stroke:#00a9ad; stroke-linecap:round; stroke-linejoin:round; stroke-width:12; stroke-opacity:1; fill:none" points="
  1857.9,479.945 2002.33,479.945 
  "/>
<path clip-path="url(#clip050)" d="M2031.08 466.507 L2031.08 479.493 L2036.96 479.493 Q2040.22 479.493 2042 477.803 Q2043.78 476.114 2043.78 472.989 Q2043.78 469.887 2042 468.197 Q2040.22 466.507 2036.96 466.507 L2031.08 466.507 M2026.4 462.665 L2036.96 462.665 Q2042.77 462.665 2045.73 465.304 Q2048.71 467.919 2048.71 472.989 Q2048.71 478.104 2045.73 480.72 Q2042.77 483.336 2036.96 483.336 L2031.08 483.336 L2031.08 497.225 L2026.4 497.225 L2026.4 462.665 Z" fill="#000000" fill-rule="evenodd" fill-opacity="1" /><path clip-path="url(#clip050)" d="M2050.2 462.665 L2079.43 462.665 L2079.43 466.6 L2067.16 466.6 L2067.16 497.225 L2062.46 497.225 L2062.46 466.6 L2050.2 466.6 L2050.2 462.665 Z" fill="#000000" fill-rule="evenodd" fill-opacity="1" /><path clip-path="url(#clip050)" d="M2077.26 482.34 L2089.73 482.34 L2089.73 486.137 L2077.26 486.137 L2077.26 482.34 Z" fill="#000000" fill-rule="evenodd" fill-opacity="1" /><path clip-path="url(#clip050)" d="M2096.7 462.665 L2101.38 462.665 L2101.38 476.831 L2118.37 476.831 L2118.37 462.665 L2123.04 462.665 L2123.04 497.225 L2118.37 497.225 L2118.37 480.766 L2101.38 480.766 L2101.38 497.225 L2096.7 497.225 L2096.7 462.665 Z" fill="#000000" fill-rule="evenodd" fill-opacity="1" /><path clip-path="url(#clip050)" d="M2143.95 484.192 Q2138.78 484.192 2136.79 485.373 Q2134.8 486.553 2134.8 489.401 Q2134.8 491.669 2136.28 493.012 Q2137.79 494.331 2140.36 494.331 Q2143.9 494.331 2146.03 491.831 Q2148.18 489.308 2148.18 485.141 L2148.18 484.192 L2143.95 484.192 M2152.44 482.433 L2152.44 497.225 L2148.18 497.225 L2148.18 493.289 Q2146.72 495.651 2144.55 496.785 Q2142.37 497.896 2139.22 497.896 Q2135.24 497.896 2132.88 495.674 Q2130.54 493.428 2130.54 489.678 Q2130.54 485.303 2133.46 483.081 Q2136.4 480.859 2142.21 480.859 L2148.18 480.859 L2148.18 480.442 Q2148.18 477.503 2146.24 475.905 Q2144.32 474.285 2140.82 474.285 Q2138.6 474.285 2136.49 474.817 Q2134.39 475.35 2132.44 476.415 L2132.44 472.479 Q2134.78 471.577 2136.98 471.137 Q2139.18 470.674 2141.26 470.674 Q2146.89 470.674 2149.66 473.591 Q2152.44 476.507 2152.44 482.433 Z" fill="#000000" fill-rule="evenodd" fill-opacity="1" /><path clip-path="url(#clip050)" d="M2177.79 481.021 Q2179.29 481.53 2180.7 483.197 Q2182.14 484.864 2183.57 487.78 L2188.32 497.225 L2183.3 497.225 L2178.88 488.359 Q2177.16 484.887 2175.54 483.753 Q2173.95 482.618 2171.17 482.618 L2166.07 482.618 L2166.07 497.225 L2161.4 497.225 L2161.4 462.665 L2171.95 462.665 Q2177.88 462.665 2180.8 465.141 Q2183.71 467.618 2183.71 472.618 Q2183.71 475.882 2182.19 478.035 Q2180.68 480.188 2177.79 481.021 M2166.07 466.507 L2166.07 478.776 L2171.95 478.776 Q2175.33 478.776 2177.05 477.225 Q2178.78 475.651 2178.78 472.618 Q2178.78 469.586 2177.05 468.058 Q2175.33 466.507 2171.95 466.507 L2166.07 466.507 Z" fill="#000000" fill-rule="evenodd" fill-opacity="1" /><path clip-path="url(#clip050)" d="M2203.97 467.271 L2197.63 484.47 L2210.33 484.47 L2203.97 467.271 M2201.33 462.665 L2206.63 462.665 L2219.8 497.225 L2214.94 497.225 L2211.79 488.359 L2196.21 488.359 L2193.07 497.225 L2188.13 497.225 L2201.33 462.665 Z" fill="#000000" fill-rule="evenodd" fill-opacity="1" /><path clip-path="url(#clip050)" d="M2224.85 462.665 L2231.82 462.665 L2240.63 486.183 L2249.5 462.665 L2256.47 462.665 L2256.47 497.225 L2251.91 497.225 L2251.91 466.878 L2243 490.581 L2238.3 490.581 L2229.38 466.878 L2229.38 497.225 L2224.85 497.225 L2224.85 462.665 Z" fill="#000000" fill-rule="evenodd" fill-opacity="1" /></svg>
