<?xml version="1.0" encoding="utf-8"?>
<svg xmlns="http://www.w3.org/2000/svg" xmlns:xlink="http://www.w3.org/1999/xlink" width="600" height="400" viewBox="0 0 2400 1600">
<defs>
  <clipPath id="clip130">
    <rect x="0" y="0" width="2400" height="1600"/>
  </clipPath>
</defs>
<path clip-path="url(#clip130)" d="
M0 1600 L2400 1600 L2400 0 L0 0  Z
  " fill="#ffffff" fill-rule="evenodd" fill-opacity="1"/>
<defs>
  <clipPath id="clip131">
    <rect x="480" y="0" width="1681" height="1600"/>
  </clipPath>
</defs>
<path clip-path="url(#clip130)" d="
M186.274 1486.45 L2352.76 1486.45 L2352.76 47.2441 L186.274 47.2441  Z
  " fill="#ffffff" fill-rule="evenodd" fill-opacity="1"/>
<defs>
  <clipPath id="clip132">
    <rect x="186" y="47" width="2167" height="1440"/>
  </clipPath>
</defs>
<polyline clip-path="url(#clip132)" style="stroke:#000000; stroke-linecap:round; stroke-linejoin:round; stroke-width:2; stroke-opacity:0.1; fill:none" points="
  451.975,1486.45 451.975,47.2441 
  "/>
<polyline clip-path="url(#clip132)" style="stroke:#000000; stroke-linecap:round; stroke-linejoin:round; stroke-width:2; stroke-opacity:0.1; fill:none" points="
  860.745,1486.45 860.745,47.2441 
  "/>
<polyline clip-path="url(#clip132)" style="stroke:#000000; stroke-linecap:round; stroke-linejoin:round; stroke-width:2; stroke-opacity:0.1; fill:none" points="
  1269.51,1486.45 1269.51,47.2441 
  "/>
<polyline clip-path="url(#clip132)" style="stroke:#000000; stroke-linecap:round; stroke-linejoin:round; stroke-width:2; stroke-opacity:0.1; fill:none" points="
  1678.29,1486.45 1678.29,47.2441 
  "/>
<polyline clip-path="url(#clip132)" style="stroke:#000000; stroke-linecap:round; stroke-linejoin:round; stroke-width:2; stroke-opacity:0.1; fill:none" points="
  2087.06,1486.45 2087.06,47.2441 
  "/>
<polyline clip-path="url(#clip130)" style="stroke:#000000; stroke-linecap:round; stroke-linejoin:round; stroke-width:4; stroke-opacity:1; fill:none" points="
  186.274,1486.45 2352.76,1486.45 
  "/>
<polyline clip-path="url(#clip130)" style="stroke:#000000; stroke-linecap:round; stroke-linejoin:round; stroke-width:4; stroke-opacity:1; fill:none" points="
  451.975,1486.45 451.975,1467.55 
  "/>
<polyline clip-path="url(#clip130)" style="stroke:#000000; stroke-linecap:round; stroke-linejoin:round; stroke-width:4; stroke-opacity:1; fill:none" points="
  860.745,1486.45 860.745,1467.55 
  "/>
<polyline clip-path="url(#clip130)" style="stroke:#000000; stroke-linecap:round; stroke-linejoin:round; stroke-width:4; stroke-opacity:1; fill:none" points="
  1269.51,1486.45 1269.51,1467.55 
  "/>
<polyline clip-path="url(#clip130)" style="stroke:#000000; stroke-linecap:round; stroke-linejoin:round; stroke-width:4; stroke-opacity:1; fill:none" points="
  1678.29,1486.45 1678.29,1467.55 
  "/>
<polyline clip-path="url(#clip130)" style="stroke:#000000; stroke-linecap:round; stroke-linejoin:round; stroke-width:4; stroke-opacity:1; fill:none" points="
  2087.06,1486.45 2087.06,1467.55 
  "/>
<path clip-path="url(#clip130)" d="M446.627 1544.91 L462.947 1544.91 L462.947 1548.85 L441.002 1548.85 L441.002 1544.91 Q443.664 1542.16 448.248 1537.53 Q452.854 1532.88 454.035 1531.53 Q456.28 1529.01 457.16 1527.27 Q458.063 1525.51 458.063 1523.82 Q458.063 1521.07 456.118 1519.33 Q454.197 1517.6 451.095 1517.6 Q448.896 1517.6 446.442 1518.36 Q444.012 1519.13 441.234 1520.68 L441.234 1515.95 Q444.058 1514.82 446.512 1514.24 Q448.965 1513.66 451.002 1513.66 Q456.373 1513.66 459.567 1516.35 Q462.762 1519.03 462.762 1523.52 Q462.762 1525.65 461.951 1527.57 Q461.164 1529.47 459.058 1532.07 Q458.479 1532.74 455.377 1535.95 Q452.276 1539.15 446.627 1544.91 Z" fill="#000000" fill-rule="evenodd" fill-opacity="1" /><path clip-path="url(#clip130)" d="M863.754 1518.36 L851.949 1536.81 L863.754 1536.81 L863.754 1518.36 M862.527 1514.29 L868.407 1514.29 L868.407 1536.81 L873.337 1536.81 L873.337 1540.7 L868.407 1540.7 L868.407 1548.85 L863.754 1548.85 L863.754 1540.7 L848.152 1540.7 L848.152 1536.19 L862.527 1514.29 Z" fill="#000000" fill-rule="evenodd" fill-opacity="1" /><path clip-path="url(#clip130)" d="M1269.92 1529.7 Q1266.77 1529.7 1264.92 1531.86 Q1263.09 1534.01 1263.09 1537.76 Q1263.09 1541.49 1264.92 1543.66 Q1266.77 1545.82 1269.92 1545.82 Q1273.07 1545.82 1274.9 1543.66 Q1276.75 1541.49 1276.75 1537.76 Q1276.75 1534.01 1274.9 1531.86 Q1273.07 1529.7 1269.92 1529.7 M1279.2 1515.05 L1279.2 1519.31 Q1277.44 1518.48 1275.64 1518.04 Q1273.86 1517.6 1272.1 1517.6 Q1267.47 1517.6 1265.01 1520.72 Q1262.58 1523.85 1262.23 1530.17 Q1263.6 1528.15 1265.66 1527.09 Q1267.72 1526 1270.2 1526 Q1275.41 1526 1278.42 1529.17 Q1281.45 1532.32 1281.45 1537.76 Q1281.45 1543.08 1278.3 1546.3 Q1275.15 1549.52 1269.92 1549.52 Q1263.92 1549.52 1260.75 1544.94 Q1257.58 1540.33 1257.58 1531.6 Q1257.58 1523.41 1261.47 1518.55 Q1265.36 1513.66 1271.91 1513.66 Q1273.67 1513.66 1275.45 1514.01 Q1277.26 1514.36 1279.2 1515.05 Z" fill="#000000" fill-rule="evenodd" fill-opacity="1" /><path clip-path="url(#clip130)" d="M1678.29 1532.44 Q1674.95 1532.44 1673.03 1534.22 Q1671.13 1536 1671.13 1539.13 Q1671.13 1542.25 1673.03 1544.03 Q1674.95 1545.82 1678.29 1545.82 Q1681.62 1545.82 1683.54 1544.03 Q1685.46 1542.23 1685.46 1539.13 Q1685.46 1536 1683.54 1534.22 Q1681.64 1532.44 1678.29 1532.44 M1673.61 1530.45 Q1670.6 1529.7 1668.91 1527.64 Q1667.24 1525.58 1667.24 1522.62 Q1667.24 1518.48 1670.18 1516.07 Q1673.15 1513.66 1678.29 1513.66 Q1683.45 1513.66 1686.39 1516.07 Q1689.33 1518.48 1689.33 1522.62 Q1689.33 1525.58 1687.64 1527.64 Q1685.97 1529.7 1682.98 1530.45 Q1686.36 1531.23 1688.24 1533.52 Q1690.14 1535.82 1690.14 1539.13 Q1690.14 1544.15 1687.06 1546.83 Q1684 1549.52 1678.29 1549.52 Q1672.57 1549.52 1669.49 1546.83 Q1666.43 1544.15 1666.43 1539.13 Q1666.43 1535.82 1668.33 1533.52 Q1670.23 1531.23 1673.61 1530.45 M1671.9 1523.06 Q1671.9 1525.75 1673.56 1527.25 Q1675.25 1528.76 1678.29 1528.76 Q1681.29 1528.76 1682.98 1527.25 Q1684.7 1525.75 1684.7 1523.06 Q1684.7 1520.38 1682.98 1518.87 Q1681.29 1517.37 1678.29 1517.37 Q1675.25 1517.37 1673.56 1518.87 Q1671.9 1520.38 1671.9 1523.06 Z" fill="#000000" fill-rule="evenodd" fill-opacity="1" /><path clip-path="url(#clip130)" d="M2061.74 1544.91 L2069.38 1544.91 L2069.38 1518.55 L2061.07 1520.21 L2061.07 1515.95 L2069.34 1514.29 L2074.01 1514.29 L2074.01 1544.91 L2081.65 1544.91 L2081.65 1548.85 L2061.74 1548.85 L2061.74 1544.91 Z" fill="#000000" fill-rule="evenodd" fill-opacity="1" /><path clip-path="url(#clip130)" d="M2101.09 1517.37 Q2097.48 1517.37 2095.65 1520.93 Q2093.85 1524.47 2093.85 1531.6 Q2093.85 1538.71 2095.65 1542.27 Q2097.48 1545.82 2101.09 1545.82 Q2104.73 1545.82 2106.53 1542.27 Q2108.36 1538.71 2108.36 1531.6 Q2108.36 1524.47 2106.53 1520.93 Q2104.73 1517.37 2101.09 1517.37 M2101.09 1513.66 Q2106.9 1513.66 2109.96 1518.27 Q2113.04 1522.85 2113.04 1531.6 Q2113.04 1540.33 2109.96 1544.94 Q2106.9 1549.52 2101.09 1549.52 Q2095.28 1549.52 2092.21 1544.94 Q2089.15 1540.33 2089.15 1531.6 Q2089.15 1522.85 2092.21 1518.27 Q2095.28 1513.66 2101.09 1513.66 Z" fill="#000000" fill-rule="evenodd" fill-opacity="1" /><polyline clip-path="url(#clip132)" style="stroke:#000000; stroke-linecap:round; stroke-linejoin:round; stroke-width:2; stroke-opacity:0.1; fill:none" points="
  186.274,1411.57 2352.76,1411.57 
  "/>
<polyline clip-path="url(#clip132)" style="stroke:#000000; stroke-linecap:round; stroke-linejoin:round; stroke-width:2; stroke-opacity:0.1; fill:none" points="
  186.274,1080.67 2352.76,1080.67 
  "/>
<polyline clip-path="url(#clip132)" style="stroke:#000000; stroke-linecap:round; stroke-linejoin:round; stroke-width:2; stroke-opacity:0.1; fill:none" points="
  186.274,749.773 2352.76,749.773 
  "/>
<polyline clip-path="url(#clip132)" style="stroke:#000000; stroke-linecap:round; stroke-linejoin:round; stroke-width:2; stroke-opacity:0.1; fill:none" points="
  186.274,418.875 2352.76,418.875 
  "/>
<polyline clip-path="url(#clip132)" style="stroke:#000000; stroke-linecap:round; stroke-linejoin:round; stroke-width:2; stroke-opacity:0.1; fill:none" points="
  186.274,87.9763 2352.76,87.9763 
  "/>
<polyline clip-path="url(#clip130)" style="stroke:#000000; stroke-linecap:round; stroke-linejoin:round; stroke-width:4; stroke-opacity:1; fill:none" points="
  186.274,1486.45 186.274,47.2441 
  "/>
<polyline clip-path="url(#clip130)" style="stroke:#000000; stroke-linecap:round; stroke-linejoin:round; stroke-width:4; stroke-opacity:1; fill:none" points="
  186.274,1411.57 205.172,1411.57 
  "/>
<polyline clip-path="url(#clip130)" style="stroke:#000000; stroke-linecap:round; stroke-linejoin:round; stroke-width:4; stroke-opacity:1; fill:none" points="
  186.274,1080.67 205.172,1080.67 
  "/>
<polyline clip-path="url(#clip130)" style="stroke:#000000; stroke-linecap:round; stroke-linejoin:round; stroke-width:4; stroke-opacity:1; fill:none" points="
  186.274,749.773 205.172,749.773 
  "/>
<polyline clip-path="url(#clip130)" style="stroke:#000000; stroke-linecap:round; stroke-linejoin:round; stroke-width:4; stroke-opacity:1; fill:none" points="
  186.274,418.875 205.172,418.875 
  "/>
<polyline clip-path="url(#clip130)" style="stroke:#000000; stroke-linecap:round; stroke-linejoin:round; stroke-width:4; stroke-opacity:1; fill:none" points="
  186.274,87.9763 205.172,87.9763 
  "/>
<path clip-path="url(#clip130)" d="M62.9365 1397.37 Q59.3254 1397.37 57.4967 1400.93 Q55.6912 1404.48 55.6912 1411.6 Q55.6912 1418.71 57.4967 1422.28 Q59.3254 1425.82 62.9365 1425.82 Q66.5707 1425.82 68.3763 1422.28 Q70.205 1418.71 70.205 1411.6 Q70.205 1404.48 68.3763 1400.93 Q66.5707 1397.37 62.9365 1397.37 M62.9365 1393.67 Q68.7467 1393.67 71.8022 1398.27 Q74.8809 1402.85 74.8809 1411.6 Q74.8809 1420.33 71.8022 1424.94 Q68.7467 1429.52 62.9365 1429.52 Q57.1264 1429.52 54.0477 1424.94 Q50.9921 1420.33 50.9921 1411.6 Q50.9921 1402.85 54.0477 1398.27 Q57.1264 1393.67 62.9365 1393.67 Z" fill="#000000" fill-rule="evenodd" fill-opacity="1" /><path clip-path="url(#clip130)" d="M83.0984 1422.97 L87.9827 1422.97 L87.9827 1428.85 L83.0984 1428.85 L83.0984 1422.97 Z" fill="#000000" fill-rule="evenodd" fill-opacity="1" /><path clip-path="url(#clip130)" d="M108.168 1397.37 Q104.557 1397.37 102.728 1400.93 Q100.922 1404.48 100.922 1411.6 Q100.922 1418.71 102.728 1422.28 Q104.557 1425.82 108.168 1425.82 Q111.802 1425.82 113.608 1422.28 Q115.436 1418.71 115.436 1411.6 Q115.436 1404.48 113.608 1400.93 Q111.802 1397.37 108.168 1397.37 M108.168 1393.67 Q113.978 1393.67 117.033 1398.27 Q120.112 1402.85 120.112 1411.6 Q120.112 1420.33 117.033 1424.94 Q113.978 1429.52 108.168 1429.52 Q102.358 1429.52 99.2789 1424.94 Q96.2234 1420.33 96.2234 1411.6 Q96.2234 1402.85 99.2789 1398.27 Q102.358 1393.67 108.168 1393.67 Z" fill="#000000" fill-rule="evenodd" fill-opacity="1" /><path clip-path="url(#clip130)" d="M138.33 1397.37 Q134.719 1397.37 132.89 1400.93 Q131.084 1404.48 131.084 1411.6 Q131.084 1418.71 132.89 1422.28 Q134.719 1425.82 138.33 1425.82 Q141.964 1425.82 143.769 1422.28 Q145.598 1418.71 145.598 1411.6 Q145.598 1404.48 143.769 1400.93 Q141.964 1397.37 138.33 1397.37 M138.33 1393.67 Q144.14 1393.67 147.195 1398.27 Q150.274 1402.85 150.274 1411.6 Q150.274 1420.33 147.195 1424.94 Q144.14 1429.52 138.33 1429.52 Q132.519 1429.52 129.441 1424.94 Q126.385 1420.33 126.385 1411.6 Q126.385 1402.85 129.441 1398.27 Q132.519 1393.67 138.33 1393.67 Z" fill="#000000" fill-rule="evenodd" fill-opacity="1" /><path clip-path="url(#clip130)" d="M63.9319 1066.47 Q60.3208 1066.47 58.4921 1070.04 Q56.6865 1073.58 56.6865 1080.71 Q56.6865 1087.81 58.4921 1091.38 Q60.3208 1094.92 63.9319 1094.92 Q67.5661 1094.92 69.3717 1091.38 Q71.2004 1087.81 71.2004 1080.71 Q71.2004 1073.58 69.3717 1070.04 Q67.5661 1066.47 63.9319 1066.47 M63.9319 1062.77 Q69.742 1062.77 72.7976 1067.37 Q75.8763 1071.96 75.8763 1080.71 Q75.8763 1089.43 72.7976 1094.04 Q69.742 1098.62 63.9319 1098.62 Q58.1217 1098.62 55.043 1094.04 Q51.9875 1089.43 51.9875 1080.71 Q51.9875 1071.96 55.043 1067.37 Q58.1217 1062.77 63.9319 1062.77 Z" fill="#000000" fill-rule="evenodd" fill-opacity="1" /><path clip-path="url(#clip130)" d="M84.0938 1092.07 L88.978 1092.07 L88.978 1097.95 L84.0938 1097.95 L84.0938 1092.07 Z" fill="#000000" fill-rule="evenodd" fill-opacity="1" /><path clip-path="url(#clip130)" d="M103.191 1094.02 L119.51 1094.02 L119.51 1097.95 L97.566 1097.95 L97.566 1094.02 Q100.228 1091.26 104.811 1086.63 Q109.418 1081.98 110.598 1080.64 Q112.844 1078.11 113.723 1076.38 Q114.626 1074.62 114.626 1072.93 Q114.626 1070.17 112.682 1068.44 Q110.76 1066.7 107.658 1066.7 Q105.459 1066.7 103.006 1067.47 Q100.575 1068.23 97.7974 1069.78 L97.7974 1065.06 Q100.621 1063.92 103.075 1063.35 Q105.529 1062.77 107.566 1062.77 Q112.936 1062.77 116.131 1065.45 Q119.325 1068.14 119.325 1072.63 Q119.325 1074.76 118.515 1076.68 Q117.728 1078.58 115.621 1081.17 Q115.043 1081.84 111.941 1085.06 Q108.839 1088.25 103.191 1094.02 Z" fill="#000000" fill-rule="evenodd" fill-opacity="1" /><path clip-path="url(#clip130)" d="M129.371 1063.39 L147.728 1063.39 L147.728 1067.33 L133.654 1067.33 L133.654 1075.8 Q134.672 1075.45 135.691 1075.29 Q136.709 1075.1 137.728 1075.1 Q143.515 1075.1 146.894 1078.28 Q150.274 1081.45 150.274 1086.86 Q150.274 1092.44 146.802 1095.54 Q143.33 1098.62 137.01 1098.62 Q134.834 1098.62 132.566 1098.25 Q130.32 1097.88 127.913 1097.14 L127.913 1092.44 Q129.996 1093.58 132.219 1094.13 Q134.441 1094.69 136.918 1094.69 Q140.922 1094.69 143.26 1092.58 Q145.598 1090.47 145.598 1086.86 Q145.598 1083.25 143.26 1081.15 Q140.922 1079.04 136.918 1079.04 Q135.043 1079.04 133.168 1079.46 Q131.316 1079.87 129.371 1080.75 L129.371 1063.39 Z" fill="#000000" fill-rule="evenodd" fill-opacity="1" /><path clip-path="url(#clip130)" d="M62.9365 735.572 Q59.3254 735.572 57.4967 739.137 Q55.6912 742.678 55.6912 749.808 Q55.6912 756.914 57.4967 760.479 Q59.3254 764.021 62.9365 764.021 Q66.5707 764.021 68.3763 760.479 Q70.205 756.914 70.205 749.808 Q70.205 742.678 68.3763 739.137 Q66.5707 735.572 62.9365 735.572 M62.9365 731.868 Q68.7467 731.868 71.8022 736.475 Q74.8809 741.058 74.8809 749.808 Q74.8809 758.535 71.8022 763.141 Q68.7467 767.724 62.9365 767.724 Q57.1264 767.724 54.0477 763.141 Q50.9921 758.535 50.9921 749.808 Q50.9921 741.058 54.0477 736.475 Q57.1264 731.868 62.9365 731.868 Z" fill="#000000" fill-rule="evenodd" fill-opacity="1" /><path clip-path="url(#clip130)" d="M83.0984 761.174 L87.9827 761.174 L87.9827 767.053 L83.0984 767.053 L83.0984 761.174 Z" fill="#000000" fill-rule="evenodd" fill-opacity="1" /><path clip-path="url(#clip130)" d="M98.2141 732.493 L116.57 732.493 L116.57 736.428 L102.496 736.428 L102.496 744.901 Q103.515 744.553 104.534 744.391 Q105.552 744.206 106.571 744.206 Q112.358 744.206 115.737 747.377 Q119.117 750.549 119.117 755.965 Q119.117 761.544 115.645 764.646 Q112.172 767.724 105.853 767.724 Q103.677 767.724 101.409 767.354 Q99.1632 766.984 96.7558 766.243 L96.7558 761.544 Q98.8391 762.678 101.061 763.234 Q103.284 763.789 105.76 763.789 Q109.765 763.789 112.103 761.683 Q114.441 759.576 114.441 755.965 Q114.441 752.354 112.103 750.248 Q109.765 748.141 105.76 748.141 Q103.885 748.141 102.01 748.558 Q100.159 748.975 98.2141 749.854 L98.2141 732.493 Z" fill="#000000" fill-rule="evenodd" fill-opacity="1" /><path clip-path="url(#clip130)" d="M138.33 735.572 Q134.719 735.572 132.89 739.137 Q131.084 742.678 131.084 749.808 Q131.084 756.914 132.89 760.479 Q134.719 764.021 138.33 764.021 Q141.964 764.021 143.769 760.479 Q145.598 756.914 145.598 749.808 Q145.598 742.678 143.769 739.137 Q141.964 735.572 138.33 735.572 M138.33 731.868 Q144.14 731.868 147.195 736.475 Q150.274 741.058 150.274 749.808 Q150.274 758.535 147.195 763.141 Q144.14 767.724 138.33 767.724 Q132.519 767.724 129.441 763.141 Q126.385 758.535 126.385 749.808 Q126.385 741.058 129.441 736.475 Q132.519 731.868 138.33 731.868 Z" fill="#000000" fill-rule="evenodd" fill-opacity="1" /><path clip-path="url(#clip130)" d="M63.9319 404.673 Q60.3208 404.673 58.4921 408.238 Q56.6865 411.78 56.6865 418.909 Q56.6865 426.016 58.4921 429.581 Q60.3208 433.122 63.9319 433.122 Q67.5661 433.122 69.3717 429.581 Q71.2004 426.016 71.2004 418.909 Q71.2004 411.78 69.3717 408.238 Q67.5661 404.673 63.9319 404.673 M63.9319 400.97 Q69.742 400.97 72.7976 405.576 Q75.8763 410.16 75.8763 418.909 Q75.8763 427.636 72.7976 432.243 Q69.742 436.826 63.9319 436.826 Q58.1217 436.826 55.043 432.243 Q51.9875 427.636 51.9875 418.909 Q51.9875 410.16 55.043 405.576 Q58.1217 400.97 63.9319 400.97 Z" fill="#000000" fill-rule="evenodd" fill-opacity="1" /><path clip-path="url(#clip130)" d="M84.0938 430.275 L88.978 430.275 L88.978 436.155 L84.0938 436.155 L84.0938 430.275 Z" fill="#000000" fill-rule="evenodd" fill-opacity="1" /><path clip-path="url(#clip130)" d="M97.9826 401.595 L120.205 401.595 L120.205 403.585 L107.658 436.155 L102.774 436.155 L114.58 405.53 L97.9826 405.53 L97.9826 401.595 Z" fill="#000000" fill-rule="evenodd" fill-opacity="1" /><path clip-path="url(#clip130)" d="M129.371 401.595 L147.728 401.595 L147.728 405.53 L133.654 405.53 L133.654 414.002 Q134.672 413.655 135.691 413.493 Q136.709 413.308 137.728 413.308 Q143.515 413.308 146.894 416.479 Q150.274 419.65 150.274 425.067 Q150.274 430.646 146.802 433.747 Q143.33 436.826 137.01 436.826 Q134.834 436.826 132.566 436.456 Q130.32 436.085 127.913 435.345 L127.913 430.646 Q129.996 431.78 132.219 432.335 Q134.441 432.891 136.918 432.891 Q140.922 432.891 143.26 430.784 Q145.598 428.678 145.598 425.067 Q145.598 421.456 143.26 419.349 Q140.922 417.243 136.918 417.243 Q135.043 417.243 133.168 417.659 Q131.316 418.076 129.371 418.956 L129.371 401.595 Z" fill="#000000" fill-rule="evenodd" fill-opacity="1" /><path clip-path="url(#clip130)" d="M53.7467 101.321 L61.3856 101.321 L61.3856 74.9555 L53.0754 76.6222 L53.0754 72.3629 L61.3393 70.6963 L66.0152 70.6963 L66.0152 101.321 L73.654 101.321 L73.654 105.256 L53.7467 105.256 L53.7467 101.321 Z" fill="#000000" fill-rule="evenodd" fill-opacity="1" /><path clip-path="url(#clip130)" d="M83.0984 99.3767 L87.9827 99.3767 L87.9827 105.256 L83.0984 105.256 L83.0984 99.3767 Z" fill="#000000" fill-rule="evenodd" fill-opacity="1" /><path clip-path="url(#clip130)" d="M108.168 73.775 Q104.557 73.775 102.728 77.3398 Q100.922 80.8814 100.922 88.011 Q100.922 95.1174 102.728 98.6822 Q104.557 102.224 108.168 102.224 Q111.802 102.224 113.608 98.6822 Q115.436 95.1174 115.436 88.011 Q115.436 80.8814 113.608 77.3398 Q111.802 73.775 108.168 73.775 M108.168 70.0713 Q113.978 70.0713 117.033 74.6777 Q120.112 79.261 120.112 88.011 Q120.112 96.7378 117.033 101.344 Q113.978 105.928 108.168 105.928 Q102.358 105.928 99.2789 101.344 Q96.2234 96.7378 96.2234 88.011 Q96.2234 79.261 99.2789 74.6777 Q102.358 70.0713 108.168 70.0713 Z" fill="#000000" fill-rule="evenodd" fill-opacity="1" /><path clip-path="url(#clip130)" d="M138.33 73.775 Q134.719 73.775 132.89 77.3398 Q131.084 80.8814 131.084 88.011 Q131.084 95.1174 132.89 98.6822 Q134.719 102.224 138.33 102.224 Q141.964 102.224 143.769 98.6822 Q145.598 95.1174 145.598 88.011 Q145.598 80.8814 143.769 77.3398 Q141.964 73.775 138.33 73.775 M138.33 70.0713 Q144.14 70.0713 147.195 74.6777 Q150.274 79.261 150.274 88.011 Q150.274 96.7378 147.195 101.344 Q144.14 105.928 138.33 105.928 Q132.519 105.928 129.441 101.344 Q126.385 96.7378 126.385 88.011 Q126.385 79.261 129.441 74.6777 Q132.519 70.0713 138.33 70.0713 Z" fill="#000000" fill-rule="evenodd" fill-opacity="1" /><polyline clip-path="url(#clip132)" style="stroke:#009af9; stroke-linecap:round; stroke-linejoin:round; stroke-width:12; stroke-opacity:1; fill:none" points="
  247.59,87.9763 451.975,921.533 656.36,1209.72 860.745,1320.04 1065.13,1370.12 1269.51,1399.23 1473.9,1410.21 1678.29,1423.39 1882.67,1413.48 2087.06,1404.21 
  2291.44,1387.76 
  "/>
<polyline clip-path="url(#clip132)" style="stroke:#e26f46; stroke-linecap:round; stroke-linejoin:round; stroke-width:12; stroke-opacity:1; fill:none" points="
  247.59,87.9763 451.975,1243.65 656.36,1402.77 860.745,1389.75 1065.13,1414.18 1269.51,1427.81 1473.9,1367.61 1678.29,1445.72 1882.67,1426.68 2087.06,1415.75 
  2291.44,1376.27 
  "/>
<polyline clip-path="url(#clip132)" style="stroke:#3da44d; stroke-linecap:round; stroke-linejoin:round; stroke-width:12; stroke-opacity:1; fill:none" points="
  247.59,87.9763 451.975,196.921 656.36,237.788 860.745,275.826 1065.13,316.926 1269.51,348.328 1473.9,388.701 1678.29,429.518 1882.67,468.246 2087.06,508.817 
  2291.44,547.252 
  "/>
<polyline clip-path="url(#clip132)" style="stroke:#c271d2; stroke-linecap:round; stroke-linejoin:round; stroke-width:12; stroke-opacity:1; fill:none" points="
  247.59,87.9763 451.975,562.954 656.36,754.292 860.745,877.416 1065.13,973.404 1269.51,1034.79 1473.9,1086.1 1678.29,1111.05 1882.67,1135.15 2087.06,1173.93 
  2291.44,1211.71 
  "/>
<path clip-path="url(#clip130)" d="
M1885.81 354.418 L2280.54 354.418 L2280.54 95.2176 L1885.81 95.2176  Z
  " fill="#ffffff" fill-rule="evenodd" fill-opacity="1"/>
<polyline clip-path="url(#clip130)" style="stroke:#000000; stroke-linecap:round; stroke-linejoin:round; stroke-width:4; stroke-opacity:1; fill:none" points="
  1885.81,354.418 2280.54,354.418 2280.54,95.2176 1885.81,95.2176 1885.81,354.418 
  "/>
<polyline clip-path="url(#clip130)" style="stroke:#009af9; stroke-linecap:round; stroke-linejoin:round; stroke-width:12; stroke-opacity:1; fill:none" points="
  1909.89,147.058 2054.32,147.058 
  "/>
<path clip-path="url(#clip130)" d="M2078.39 129.778 L2083.07 129.778 L2083.07 143.944 L2100.06 143.944 L2100.06 129.778 L2104.73 129.778 L2104.73 164.338 L2100.06 164.338 L2100.06 147.879 L2083.07 147.879 L2083.07 164.338 L2078.39 164.338 L2078.39 129.778 Z" fill="#000000" fill-rule="evenodd" fill-opacity="1" /><path clip-path="url(#clip130)" d="M2114.04 129.778 L2121.01 129.778 L2129.82 153.296 L2138.69 129.778 L2145.66 129.778 L2145.66 164.338 L2141.1 164.338 L2141.1 133.99 L2132.19 157.694 L2127.49 157.694 L2118.58 133.99 L2118.58 164.338 L2114.04 164.338 L2114.04 129.778 Z" fill="#000000" fill-rule="evenodd" fill-opacity="1" /><path clip-path="url(#clip130)" d="M2180.82 132.44 L2180.82 137.37 Q2178.46 135.171 2175.77 134.083 Q2173.11 132.995 2170.1 132.995 Q2164.18 132.995 2161.03 136.629 Q2157.88 140.24 2157.88 147.092 Q2157.88 153.921 2161.03 157.555 Q2164.18 161.166 2170.1 161.166 Q2173.11 161.166 2175.77 160.078 Q2178.46 158.99 2180.82 156.791 L2180.82 161.676 Q2178.37 163.342 2175.61 164.176 Q2172.88 165.009 2169.82 165.009 Q2161.98 165.009 2157.46 160.217 Q2152.95 155.402 2152.95 147.092 Q2152.95 138.759 2157.46 133.967 Q2161.98 129.153 2169.82 129.153 Q2172.93 129.153 2175.66 129.986 Q2178.41 130.796 2180.82 132.44 Z" fill="#000000" fill-rule="evenodd" fill-opacity="1" /><polyline clip-path="url(#clip130)" style="stroke:#e26f46; stroke-linecap:round; stroke-linejoin:round; stroke-width:12; stroke-opacity:1; fill:none" points="
  1909.89,198.898 2054.32,198.898 
  "/>
<path clip-path="url(#clip130)" d="M2078.39 181.618 L2083.07 181.618 L2083.07 195.784 L2100.06 195.784 L2100.06 181.618 L2104.73 181.618 L2104.73 216.178 L2100.06 216.178 L2100.06 199.719 L2083.07 199.719 L2083.07 216.178 L2078.39 216.178 L2078.39 181.618 Z" fill="#000000" fill-rule="evenodd" fill-opacity="1" /><path clip-path="url(#clip130)" d="M2125.64 203.145 Q2120.47 203.145 2118.48 204.326 Q2116.49 205.506 2116.49 208.354 Q2116.49 210.622 2117.97 211.965 Q2119.48 213.284 2122.05 213.284 Q2125.59 213.284 2127.72 210.784 Q2129.87 208.261 2129.87 204.094 L2129.87 203.145 L2125.64 203.145 M2134.13 201.386 L2134.13 216.178 L2129.87 216.178 L2129.87 212.242 Q2128.41 214.603 2126.24 215.738 Q2124.06 216.849 2120.91 216.849 Q2116.93 216.849 2114.57 214.627 Q2112.23 212.381 2112.23 208.631 Q2112.23 204.256 2115.15 202.034 Q2118.09 199.812 2123.9 199.812 L2129.87 199.812 L2129.87 199.395 Q2129.87 196.455 2127.93 194.858 Q2126.01 193.238 2122.51 193.238 Q2120.29 193.238 2118.18 193.77 Q2116.08 194.303 2114.13 195.367 L2114.13 191.432 Q2116.47 190.53 2118.67 190.09 Q2120.87 189.627 2122.95 189.627 Q2128.57 189.627 2131.35 192.543 Q2134.13 195.46 2134.13 201.386 Z" fill="#000000" fill-rule="evenodd" fill-opacity="1" /><path clip-path="url(#clip130)" d="M2159.48 199.974 Q2160.98 200.483 2162.39 202.15 Q2163.83 203.817 2165.26 206.733 L2170.01 216.178 L2164.99 216.178 L2160.57 207.312 Q2158.85 203.84 2157.23 202.705 Q2155.64 201.571 2152.86 201.571 L2147.76 201.571 L2147.76 216.178 L2143.09 216.178 L2143.09 181.618 L2153.64 181.618 Q2159.57 181.618 2162.49 184.094 Q2165.4 186.571 2165.4 191.571 Q2165.4 194.835 2163.88 196.988 Q2162.37 199.141 2159.48 199.974 M2147.76 185.46 L2147.76 197.729 L2153.64 197.729 Q2157.02 197.729 2158.74 196.178 Q2160.47 194.604 2160.47 191.571 Q2160.47 188.539 2158.74 187.011 Q2157.02 185.46 2153.64 185.46 L2147.76 185.46 Z" fill="#000000" fill-rule="evenodd" fill-opacity="1" /><path clip-path="url(#clip130)" d="M2185.66 186.224 L2179.32 203.423 L2192.02 203.423 L2185.66 186.224 M2183.02 181.618 L2188.32 181.618 L2201.49 216.178 L2196.63 216.178 L2193.48 207.312 L2177.9 207.312 L2174.76 216.178 L2169.82 216.178 L2183.02 181.618 Z" fill="#000000" fill-rule="evenodd" fill-opacity="1" /><path clip-path="url(#clip130)" d="M2206.54 181.618 L2213.51 181.618 L2222.32 205.136 L2231.19 181.618 L2238.16 181.618 L2238.16 216.178 L2233.6 216.178 L2233.6 185.83 L2224.69 209.534 L2219.99 209.534 L2211.07 185.83 L2211.07 216.178 L2206.54 216.178 L2206.54 181.618 Z" fill="#000000" fill-rule="evenodd" fill-opacity="1" /><polyline clip-path="url(#clip130)" style="stroke:#3da44d; stroke-linecap:round; stroke-linejoin:round; stroke-width:12; stroke-opacity:1; fill:none" points="
  1909.89,250.738 2054.32,250.738 
  "/>
<path clip-path="url(#clip130)" d="M2094.78 251.814 Q2096.28 252.323 2097.7 253.99 Q2099.13 255.657 2100.57 258.573 L2105.31 268.018 L2100.29 268.018 L2095.87 259.152 Q2094.15 255.68 2092.53 254.545 Q2090.94 253.411 2088.16 253.411 L2083.07 253.411 L2083.07 268.018 L2078.39 268.018 L2078.39 233.458 L2088.95 233.458 Q2094.87 233.458 2097.79 235.934 Q2100.7 238.411 2100.7 243.411 Q2100.7 246.675 2099.18 248.828 Q2097.67 250.981 2094.78 251.814 M2083.07 237.3 L2083.07 249.569 L2088.95 249.569 Q2092.33 249.569 2094.04 248.018 Q2095.77 246.444 2095.77 243.411 Q2095.77 240.379 2094.04 238.851 Q2092.33 237.3 2088.95 237.3 L2083.07 237.3 Z" fill="#000000" fill-rule="evenodd" fill-opacity="1" /><path clip-path="url(#clip130)" d="M2120.96 238.064 L2114.62 255.263 L2127.32 255.263 L2120.96 238.064 M2118.32 233.458 L2123.62 233.458 L2136.79 268.018 L2131.93 268.018 L2128.78 259.152 L2113.2 259.152 L2110.06 268.018 L2105.13 268.018 L2118.32 233.458 Z" fill="#000000" fill-rule="evenodd" fill-opacity="1" /><path clip-path="url(#clip130)" d="M2141.84 233.458 L2148.81 233.458 L2157.63 256.976 L2166.49 233.458 L2173.46 233.458 L2173.46 268.018 L2168.9 268.018 L2168.9 237.67 L2159.99 261.374 L2155.29 261.374 L2146.38 237.67 L2146.38 268.018 L2141.84 268.018 L2141.84 233.458 Z" fill="#000000" fill-rule="evenodd" fill-opacity="1" /><polyline clip-path="url(#clip130)" style="stroke:#c271d2; stroke-linecap:round; stroke-linejoin:round; stroke-width:12; stroke-opacity:1; fill:none" points="
  1909.89,302.578 2054.32,302.578 
  "/>
<path clip-path="url(#clip130)" d="M2083.07 289.14 L2083.07 302.126 L2088.95 302.126 Q2092.21 302.126 2093.99 300.436 Q2095.77 298.747 2095.77 295.622 Q2095.77 292.52 2093.99 290.83 Q2092.21 289.14 2088.95 289.14 L2083.07 289.14 M2078.39 285.298 L2088.95 285.298 Q2094.76 285.298 2097.72 287.936 Q2100.7 290.552 2100.7 295.622 Q2100.7 300.737 2097.72 303.353 Q2094.76 305.969 2088.95 305.969 L2083.07 305.969 L2083.07 319.858 L2078.39 319.858 L2078.39 285.298 Z" fill="#000000" fill-rule="evenodd" fill-opacity="1" /><path clip-path="url(#clip130)" d="M2106.98 285.298 L2128.83 285.298 L2128.83 289.233 L2111.65 289.233 L2111.65 299.464 L2128.11 299.464 L2128.11 303.399 L2111.65 303.399 L2111.65 315.922 L2129.25 315.922 L2129.25 319.858 L2106.98 319.858 L2106.98 285.298 Z" fill="#000000" fill-rule="evenodd" fill-opacity="1" /><path clip-path="url(#clip130)" d="M2134.59 304.973 L2147.07 304.973 L2147.07 308.77 L2134.59 308.77 L2134.59 304.973 Z" fill="#000000" fill-rule="evenodd" fill-opacity="1" /><path clip-path="url(#clip130)" d="M2154.04 285.298 L2158.71 285.298 L2158.71 299.464 L2175.7 299.464 L2175.7 285.298 L2180.38 285.298 L2180.38 319.858 L2175.7 319.858 L2175.7 303.399 L2158.71 303.399 L2158.71 319.858 L2154.04 319.858 L2154.04 285.298 Z" fill="#000000" fill-rule="evenodd" fill-opacity="1" /><path clip-path="url(#clip130)" d="M2189.69 285.298 L2196.65 285.298 L2205.47 308.816 L2214.34 285.298 L2221.31 285.298 L2221.31 319.858 L2216.75 319.858 L2216.75 289.51 L2207.83 313.214 L2203.13 313.214 L2194.22 289.51 L2194.22 319.858 L2189.69 319.858 L2189.69 285.298 Z" fill="#000000" fill-rule="evenodd" fill-opacity="1" /><path clip-path="url(#clip130)" d="M2256.47 287.96 L2256.47 292.89 Q2254.11 290.691 2251.42 289.603 Q2248.76 288.515 2245.75 288.515 Q2239.82 288.515 2236.68 292.149 Q2233.53 295.76 2233.53 302.612 Q2233.53 309.441 2236.68 313.075 Q2239.82 316.686 2245.75 316.686 Q2248.76 316.686 2251.42 315.598 Q2254.11 314.51 2256.47 312.311 L2256.47 317.196 Q2254.01 318.862 2251.26 319.696 Q2248.53 320.529 2245.47 320.529 Q2237.63 320.529 2233.11 315.737 Q2228.6 310.922 2228.6 302.612 Q2228.6 294.279 2233.11 289.487 Q2237.63 284.673 2245.47 284.673 Q2248.57 284.673 2251.31 285.506 Q2254.06 286.316 2256.47 287.96 Z" fill="#000000" fill-rule="evenodd" fill-opacity="1" /></svg>
